<svg width="130" height="50" viewBox="0 0 130 50" fill="none" xmlns="http://www.w3.org/2000/svg">
<g clip-path="url(#clip0_1505_171)">
<path d="M124.714 43.5912H129.199V42.5718H125.837V37.2181H124.714V43.5912ZM110.339 41.06L111.435 38.5104L112.541 41.06H110.339ZM108.12 43.5912H109.271L109.929 42.053H112.952L113.6 43.5912H114.788L111.975 37.1722H110.933L108.12 43.5912ZM96.3118 43.5912H97.4444V38.2559H99.4722V37.2181H94.284V38.2559H96.3118V43.5912ZM83.0788 43.5912H84.2027V37.2181H83.0788V43.5912ZM69.2072 40.5319V38.2373H70.5131C71.3537 38.2373 71.8923 38.6293 71.8923 39.3761V39.3935C71.8923 40.0591 71.3624 40.5319 70.5131 40.5319H69.2072ZM68.0833 43.5912H69.2072V41.5424H70.477C71.8836 41.5424 73.0342 40.7964 73.0342 39.3668V39.3489C73.0342 38.0652 72.0936 37.2181 70.6044 37.2181H68.0833V43.5912ZM53.7094 41.06L54.8055 38.5104L55.9102 41.06H53.7094ZM51.4898 43.5912H52.6406L53.298 42.053H56.3215L56.9701 43.5912H58.158L55.3436 37.1722H54.303L51.4898 43.5912ZM39.4355 43.7007C40.6315 43.7007 41.3626 43.2634 42.0296 42.5718L41.3078 41.8432C40.7594 42.3531 40.2573 42.6717 39.4717 42.6717C38.2476 42.6717 37.3616 41.6519 37.3616 40.4047V40.3864C37.3616 39.139 38.2476 38.1377 39.4717 38.1377C40.2024 38.1377 40.7504 38.4566 41.2622 38.9297L41.9835 38.1011C41.3719 37.5184 40.6594 37.1085 39.4807 37.1085C37.5443 37.1085 36.1828 38.5928 36.1828 40.4047V40.4231C36.1828 42.2525 37.572 43.7007 39.4355 43.7007Z" fill="white"/>
<path d="M19.7538 28.9871C19.7625 29.1196 19.7681 29.2528 19.7708 29.3853C19.8637 33.6568 17.0782 37.3927 13.8209 39.9047C11.63 41.4649 8.94664 43.0587 6.26526 43.5476C4.69022 43.8338 2.51219 43.7972 1.21455 42.73C-0.922266 40.9729 0.193373 38.7643 1.2781 36.7957C1.95957 35.5604 2.55537 34.4977 2.88296 33.1026C3.50839 30.4399 3.44987 28.1022 4.82299 25.5937C6.3359 22.8282 10.0652 21.3389 13.313 21.594C13.1132 20.3469 12.832 18.9313 12.1528 17.4686C11.7147 16.5249 12.9091 16.4593 13.6588 16.5559C14.2191 16.6271 14.2497 20.6286 14.2502 21.721C17.8024 22.4151 19.5205 25.3596 19.7538 28.9871ZM13.8716 32.5094C13.6908 32.8097 13.7891 33.2004 14.0903 33.3806C14.3912 33.5602 14.7829 33.4624 14.9635 33.1627C15.5602 32.1725 16.0764 31.095 16.2242 29.9377C16.3812 28.7091 16.1019 27.5852 15.526 26.4984C15.3625 26.1894 14.9768 26.0705 14.6666 26.234C14.3565 26.3969 14.2371 26.7814 14.4009 27.0904C14.8509 27.94 15.0826 28.8162 14.9601 29.7773C14.8361 30.7476 14.3713 31.6802 13.8716 32.5094ZM20.0817 16.468C20.187 17.86 19.6759 19.2836 18.5658 20.3029C17.5822 21.2058 16.3181 21.6157 15.0807 21.5445C15.6716 20.3178 16.5952 19.3858 17.7201 18.6328C16.339 19.052 15.369 19.9246 14.5956 21.0132C14.6269 19.7803 15.1404 18.5604 16.1228 17.6581C17.2325 16.6401 18.6986 16.2494 20.0817 16.468ZM13.0628 22.4046C10.6425 22.1928 7.47598 23.2443 6.25942 25.4674C5.0943 27.5963 5.06497 30.0758 4.51987 32.3967C4.16848 33.8921 3.52684 35.086 2.79418 36.4149C2.68571 36.6118 2.57767 36.8094 2.47336 37.0088C0.792274 40.2175 2.4408 42.1488 5.77284 41.5421C11.1216 40.568 17.5946 35.5492 18.179 29.8194C18.5166 26.4904 16.7748 22.7309 13.0628 22.4046Z" fill="#F68C39"/>
<path fill-rule="evenodd" clip-rule="evenodd" d="M26.8124 10H27.8278V50.1091H26.8124V10Z" fill="#F68C39"/>
<path d="M36.1828 33.193H39.0448V21.4064L44.2241 29.1382H44.3186L49.5452 21.3593V33.193H52.4542V16.6921H49.3564L44.3186 24.4945L39.281 16.6921H36.1828V33.193ZM55.2927 33.193H58.2723L59.9752 29.2088H67.8031L69.4824 33.193H72.557L65.2727 16.5738H62.5764L55.2927 33.193ZM61.0394 26.6396L63.8773 20.0391L66.7389 26.6396H61.0394ZM75.395 33.193H78.2565V21.4535L87.3854 33.193H89.8214V16.6921H86.9599V28.101L78.0907 16.6921H75.395V33.193ZM101.93 33.476C104.863 33.476 107.204 32.297 108.836 30.9062V23.9756H101.788V26.4984H106.022V29.5865C105.005 30.3402 103.586 30.8356 102.025 30.8356C98.6428 30.8356 96.3957 28.3369 96.3957 24.9429V24.8952C96.3957 21.7365 98.7136 19.0725 101.765 19.0725C103.869 19.0725 105.123 19.7567 106.401 20.8404L108.245 18.6483C106.542 17.2104 104.768 16.4091 101.883 16.4091C96.8927 16.4091 93.3452 20.3221 93.3452 24.9429V24.9893C93.3452 29.7983 96.751 33.476 101.93 33.476ZM120.519 33.476C125.604 33.476 129.199 29.5865 129.199 24.9429V24.8952C129.199 20.2515 125.651 16.4091 120.567 16.4091C115.482 16.4091 111.887 20.2986 111.887 24.9429V24.9893C111.887 29.6336 115.434 33.476 120.519 33.476ZM120.567 30.812C117.279 30.812 114.937 28.1481 114.937 24.9429V24.8952C114.937 21.6894 117.232 19.0725 120.519 19.0725C123.807 19.0725 126.148 21.7364 126.148 24.9429V24.9893C126.148 28.1957 123.854 30.812 120.567 30.812Z" fill="white"/>
</g>
<defs>
<clipPath id="clip0_1505_171">
<rect width="130" height="50" fill="white"/>
</clipPath>
</defs>
</svg>
