<svg width="160" height="23" viewBox="0 0 160 23" fill="none" xmlns="http://www.w3.org/2000/svg">
<path d="M56.6083 21.6972L54.5866 18.1639C55.5443 16.3437 55.5443 14.2023 55.5443 11.4184C55.5443 7.8851 55.5443 5.3154 53.5226 3.17399C52.1393 1.675 50.3304 0.925507 47.9895 0.925507C45.6485 0.925507 43.8396 1.78207 42.4564 3.17399C40.4346 5.20833 40.4347 7.77803 40.4347 11.4184C40.4347 14.9518 40.3282 17.5215 42.4564 19.6629C43.946 21.1619 45.6485 21.9114 47.9895 21.9114C48.6279 21.9114 49.1599 21.8043 49.692 21.6972H56.6083V21.6972ZM45.3293 17.2003C44.5845 16.3437 44.3717 15.3801 44.3717 11.4184C44.3717 7.45682 44.5845 6.49318 45.3293 5.63662C45.8613 4.99419 46.819 4.56591 47.8831 4.56591C48.9471 4.56591 49.9048 4.99419 50.4368 5.63662C51.1816 6.49318 51.3944 7.45682 51.3944 11.4184C51.3944 15.3801 51.1816 16.3437 50.4368 17.2003C49.9048 17.8427 48.9471 18.271 47.8831 18.271C46.819 18.271 45.8613 17.8427 45.3293 17.2003Z" fill="white"/>
<path d="M103.32 1.13968H107.257V21.6973H103.32V1.13968Z" fill="white"/>
<path d="M8.19372 21.9121C5.10795 21.9121 2.76703 21.2696 0.745323 19.2353L3.29906 16.6656C4.57593 17.9504 6.38482 18.3787 8.19372 18.3787C10.5346 18.3787 11.8115 17.5222 11.8115 15.809C11.8115 15.0595 11.5987 14.5242 11.1731 14.0959C10.7475 13.6676 10.3218 13.5605 9.36418 13.3464L6.91685 13.0252C5.21436 12.811 3.83109 12.1686 2.97984 11.3121C2.02219 10.3484 1.49016 8.9565 1.49016 7.24337C1.49016 3.60296 4.15031 1.03326 8.61934 1.03326C11.3859 1.03326 13.514 1.67569 15.2165 3.38882L12.6628 5.85145C11.3859 4.5666 9.7898 4.45953 8.51293 4.45953C6.38482 4.45953 5.32077 5.63731 5.32077 7.02923C5.32077 7.56458 5.53358 8.09993 5.9592 8.52822C6.38482 8.9565 7.02326 9.17064 7.8745 9.38478L10.3218 9.706C12.2371 9.92014 13.4076 10.4555 14.2588 11.3121C15.3229 12.3828 15.8549 13.8818 15.8549 15.702C15.8549 19.6636 12.4499 21.9121 8.19372 21.9121Z" fill="white"/>
<path d="M21.6009 21.6973V1.13968H35.1144V4.67301H25.6443V9.4912H33.7311V13.1316H25.6443V18.1639H35.1144V21.6973H21.6009" fill="white"/>
<path d="M69.0578 21.9114C64.908 21.9114 61.503 19.0205 61.503 14.6306V1.13968H65.5464V14.5235C65.5464 16.8791 66.9297 18.271 69.0578 18.271C71.1859 18.271 72.5692 16.8791 72.5692 14.5235V1.13968H76.5062V14.6306C76.5062 19.0205 73.2076 21.9114 69.0578 21.9114Z" fill="white"/>
<path d="M95.4464 19.6629C94.0631 21.1619 92.2542 21.9114 89.9133 21.9114C87.5724 21.9114 85.7635 21.0548 84.3802 19.6629C82.3585 17.6285 82.3585 15.0588 82.3585 11.4184C82.3585 7.8851 82.2521 5.3154 84.3802 3.17399C85.7635 1.675 87.5724 0.925507 89.9133 0.925507C92.2542 0.925507 93.9567 1.78207 95.4464 3.17399C97.4681 5.20833 97.4681 7.77803 97.4681 11.4184C97.4681 14.9518 97.4681 17.5215 95.4464 19.6629ZM92.467 5.63662C91.935 4.99419 90.9774 4.56591 89.9133 4.56591C88.8492 4.56591 87.8916 4.99419 87.3596 5.63662C86.6147 6.49318 86.4019 7.45682 86.4019 11.4184C86.4019 15.3801 86.6147 16.3437 87.3596 17.2003C87.8916 17.8427 88.8492 18.271 89.9133 18.271C90.9774 18.271 91.935 17.8427 92.467 17.2003C93.2119 16.3437 93.4247 15.3801 93.4247 11.4184C93.4247 7.45682 93.2119 6.49318 92.467 5.63662Z" fill="white"/>
<path d="M126.091 21.6973L124.921 18.0569H117.685L116.408 21.6973H112.259L119.707 1.13968H122.793L130.241 21.6973H126.091ZM121.303 7.13564L118.749 14.6306H123.857L121.303 7.13564Z" fill="white"/>
<path d="M153.65 1.13968H158.758V6.27907H153.65V1.13968Z" fill="white"/>
<path d="M140.882 17.3074V1.13968H138.328V19.8771L140.882 17.3074Z" fill="white"/>
<path d="M142.69 19.1275L140.137 21.6972H158.758V19.1275H142.69Z" fill="white"/>
<path d="M145.989 12.168V1.13968H143.435V14.7377L145.989 12.168Z" fill="white"/>
<path d="M147.798 13.9882L145.244 16.5579H158.758V13.9882H147.798Z" fill="white"/>
<path d="M151.097 7.02857V1.13968H148.543V9.59827L151.097 7.02857Z" fill="white"/>
<path d="M152.905 8.84872L150.352 11.4184H158.758V8.84872H152.905Z" fill="white"/>
</svg>
