<svg width="132" height="50" viewBox="0 0 132 50" fill="none" xmlns="http://www.w3.org/2000/svg">
<path d="M45.9616 43.1592L44.2982 40.2404C45.0861 38.7368 45.0861 36.9678 45.0861 34.6681C45.0861 31.7492 45.0861 29.6264 43.4227 27.8574C42.2846 26.6191 40.7964 26 38.8703 26C36.9443 26 35.4561 26.7076 34.318 27.8574C32.6546 29.538 32.6546 31.6608 32.6546 34.6681C32.6546 37.5869 32.567 39.7097 34.318 41.4787C35.5436 42.717 36.9443 43.3361 38.8703 43.3361C39.3956 43.3361 39.8333 43.2477 40.2711 43.1592H45.9616ZM36.6817 39.4444C36.0689 38.7368 35.8938 37.9407 35.8938 34.6681C35.8938 31.3954 36.0689 30.5994 36.6817 29.8918C37.1194 29.3611 37.9073 29.0073 38.7828 29.0073C39.6583 29.0073 40.4462 29.3611 40.8839 29.8918C41.4967 30.5994 41.6718 31.3954 41.6718 34.6681C41.6718 37.9407 41.4967 38.7368 40.8839 39.4444C40.4462 39.9751 39.6583 40.3289 38.7828 40.3289C37.9073 40.3289 37.1194 39.9751 36.6817 39.4444Z" fill="white"/>
<path d="M84.3941 26.1769H87.6333V43.1593H84.3941V26.1769Z" fill="white"/>
<path d="M6.1282 43.3367C3.58938 43.3367 1.66337 42.806 0 41.1255L2.1011 39.0027C3.15165 40.0641 4.63992 40.4179 6.1282 40.4179C8.05421 40.4179 9.10476 39.7103 9.10476 38.2951C9.10476 37.6759 8.92966 37.2337 8.57948 36.8799C8.2293 36.5261 7.87911 36.4376 7.0912 36.2607L5.07765 35.9954C3.67692 35.8185 2.53883 35.2878 1.83846 34.5802C1.05055 33.7841 0.612821 32.6343 0.612821 31.2191C0.612821 28.2118 2.80147 26.089 6.47839 26.089C8.75457 26.089 10.5055 26.6197 11.9062 28.0349L9.80512 30.0692C8.75457 29.0078 7.44139 28.9194 6.39084 28.9194C4.63992 28.9194 3.76447 29.8923 3.76447 31.0422C3.76447 31.4844 3.93956 31.9267 4.28974 32.2805C4.63993 32.6343 5.1652 32.8112 5.86556 32.9881L7.87912 33.2534C9.45494 33.4303 10.4179 33.8726 11.1183 34.5802C11.9938 35.4647 12.4315 36.703 12.4315 38.2066C12.4315 41.4793 9.63003 43.3367 6.1282 43.3367Z" fill="white"/>
<path d="M17.159 43.1593V26.1769H28.2773V29.0958H20.4857V33.076H27.1392V36.0833H20.4857V40.2404H28.2773V43.1593H17.159Z" fill="white"/>
<path d="M56.2044 43.3362C52.7901 43.3362 49.9886 40.948 49.9886 37.3216V26.1769H53.3154V37.2331C53.3154 39.179 54.4535 40.3289 56.2044 40.3289C57.9553 40.3289 59.0934 39.179 59.0934 37.2331V26.1769H62.3326V37.3216C62.3326 40.948 59.6187 43.3362 56.2044 43.3362Z" fill="white"/>
<path d="M77.9157 41.4787C76.7776 42.717 75.2894 43.3361 73.3634 43.3361C71.4373 43.3361 69.9491 42.6285 68.811 41.4787C67.1476 39.7982 67.1476 37.6754 67.1476 34.6681C67.1476 31.7492 67.06 29.6264 68.811 27.8574C69.9491 26.6191 71.4373 26 73.3634 26C75.2894 26 76.6901 26.7076 77.9157 27.8574C79.5791 29.538 79.5791 31.6608 79.5791 34.6681C79.5791 37.5869 79.5791 39.7097 77.9157 41.4787ZM75.4644 29.8918C75.0267 29.3611 74.2388 29.0073 73.3634 29.0073C72.4879 29.0073 71.7 29.3611 71.2622 29.8918C70.6494 30.5994 70.4743 31.3954 70.4743 34.6681C70.4743 37.9407 70.6494 38.7368 71.2622 39.4444C71.7 39.9751 72.4879 40.3289 73.3634 40.3289C74.2388 40.3289 75.0267 39.9751 75.4644 39.4444C76.0773 38.7368 76.2524 37.9407 76.2524 34.6681C76.2524 31.3954 76.0773 30.5994 75.4644 29.8918Z" fill="white"/>
<path d="M103.129 43.1593L102.166 40.152H96.2128L95.1623 43.1593H91.748L97.8762 26.1769H100.415L106.543 43.1593H103.129ZM99.1894 31.1301L97.0883 37.3216H101.29L99.1894 31.1301Z" fill="white"/>
<path d="M125.803 26.1769H130.005V30.4225H125.803V26.1769Z" fill="#50B848"/>
<path d="M115.298 39.5328V26.1769H113.197V41.6556L115.298 39.5328Z" fill="#50B848"/>
<path d="M116.786 41.0365L114.685 43.1592H130.005V41.0365H116.786Z" fill="#50B848"/>
<path d="M119.5 35.2872V26.1769H117.399V37.41L119.5 35.2872Z" fill="#50B848"/>
<path d="M120.988 36.7909L118.887 38.9137H130.005V36.7909H120.988Z" fill="#50B848"/>
<path d="M123.702 31.0416V26.1769H121.601V33.1644L123.702 31.0416Z" fill="#50B848"/>
<path d="M125.19 32.5453L123.089 34.6681H130.005V32.5453H125.19Z" fill="#50B848"/>
</svg>
