<svg width="89" height="50" viewBox="0 0 89 50" fill="none" xmlns="http://www.w3.org/2000/svg">
<path d="M0.702883 40.3386C0.702883 40.3386 2.41676 42.2203 5.21867 42.2203C7.31769 42.2203 8.98343 40.9242 8.98343 38.8985C8.98343 34.1077 0.336999 35.4326 0.336999 30.1618C0.336999 27.9248 2.33974 25.803 5.41124 25.803C8.165 25.803 9.70557 27.3679 9.70557 27.3679L9.12786 28.2608C9.12786 28.2608 7.68358 26.8111 5.4305 26.8111C2.91745 26.8111 1.42502 28.5008 1.42502 30.133C1.42502 34.5877 10.0715 33.2148 10.0715 38.8505C10.0715 41.2795 8.18426 43.2284 5.17053 43.2284C1.83905 43.2284 0 41.1354 0 41.1354L0.702883 40.3386Z" fill="white"/>
<path d="M11.8624 26.0814H12.9696L18.0631 39.7145C18.352 40.5114 18.7179 41.7403 18.7179 41.7403H18.766C18.766 41.7403 19.1319 40.5114 19.4208 39.7145L24.5432 26.0814H25.6504L19.3245 42.9404H18.1883L11.8624 26.0814Z" fill="white"/>
<path d="M37.5995 37.1127H30.4262L28.2502 42.9404H27.1429L33.4688 26.0814H34.5857L40.9117 42.9404H39.8044L37.5995 37.1127ZM34.008 27.2911C34.008 27.2911 33.6421 28.5872 33.3822 29.3169L30.7921 36.1526H37.2432L34.682 29.3169C34.4124 28.5968 34.0562 27.2911 34.0562 27.2911H34.008Z" fill="white"/>
<path d="M43.4247 30.901H44.4357V33.0228C44.4357 33.5796 44.3394 34.0117 44.3394 34.0117H44.3876C44.8016 32.8788 46.4866 30.613 49.51 30.613C52.6489 30.613 53.4962 32.4659 53.4962 35.3078V42.9404H52.4852V35.6726C52.4852 33.5796 52.2156 31.6019 49.51 31.6019C47.2376 31.6019 45.2349 33.1956 44.6283 35.4326C44.4839 35.9414 44.4357 36.4887 44.4357 37.0743V42.95H43.4247V30.901Z" fill="white"/>
<path d="M61.5649 47.0111C64.1453 47.0111 66.1577 45.7822 66.1577 42.8732V41.4811C66.1577 40.9242 66.254 40.4922 66.254 40.4922H66.2058C65.4837 41.9611 64.155 42.95 62.1522 42.95C59.0133 42.95 56.7891 40.4922 56.7891 36.7383C56.7891 32.9844 58.84 30.6226 61.9789 30.6226C65.4067 30.6226 66.1769 32.9844 66.1769 32.9844H66.2251C66.2251 32.9844 66.1577 32.8116 66.1577 32.5235V30.9106H67.1687V42.8732C67.1687 46.5599 64.5112 48 61.6419 48C60.3132 48 59.0326 47.664 57.8483 47.0591L58.3297 46.1662C58.3297 46.1662 59.8221 47.0111 61.5649 47.0111ZM66.1769 36.7287C66.1769 32.85 64.3379 31.6019 61.9789 31.6019C59.3985 31.6019 57.8483 33.4836 57.8483 36.7287C57.8483 39.9833 59.6392 41.9515 62.2196 41.9515C64.3379 41.9515 66.1769 40.6266 66.1769 36.7287Z" fill="white"/>
<path d="M76.441 30.613C79.7243 30.613 81.3708 33.186 81.3708 36.1046C81.3708 36.3735 81.3227 36.7575 81.3227 36.7575H71.6363C71.6363 40.2522 74.005 42.2491 76.8069 42.2491C79.1273 42.2491 80.5524 40.7322 80.5524 40.7322L81.1108 41.5771C81.1108 41.5771 79.4162 43.238 76.8165 43.238C73.408 43.238 70.5868 40.7802 70.5868 36.9495C70.5676 32.8788 73.3502 30.613 76.441 30.613ZM80.302 35.8166C80.1769 32.8788 78.4148 31.5539 76.4121 31.5539C74.1879 31.5539 72.137 33.0036 71.7037 35.8166H80.302Z" fill="white"/>
<path d="M84.6541 26.0814H85.6651V40.1946C85.6651 41.8843 86.5317 42.0763 87.0901 42.0763C87.2827 42.0763 87.456 42.0475 87.456 42.0475V42.9884C87.456 42.9884 87.2346 43.0364 87.0227 43.0364C86.3199 43.0364 84.6541 42.7676 84.6541 40.5114V26.0814V26.0814Z" fill="white"/>
<path d="M44.8971 1.32102C37.1942 -1.3 29.7417 0.101717 28.2589 4.44127C26.7762 8.79042 31.8119 14.4357 39.5147 17.0567C47.2176 19.6777 54.6604 18.276 56.1528 13.9364C57.6356 9.58728 52.5999 3.93243 44.8971 1.32102ZM52.9369 11.9107C51.9548 14.7909 46.5532 15.559 40.882 13.6292C35.2108 11.6995 31.4075 7.80154 32.3896 4.92131C33.3717 2.04107 38.7733 1.27301 44.4445 3.20277C50.1254 5.13252 53.919 9.03044 52.9369 11.9107Z" fill="url(#paint0_linear)"/>
<defs>
<linearGradient id="paint0_linear" x1="45.4171" y1="19.6359" x2="39.0286" y2="-1.27883" gradientUnits="userSpaceOnUse">
<stop stop-color="#989898"/>
<stop offset="1" stop-color="white"/>
</linearGradient>
</defs>
</svg>
