<svg width="160" height="50" viewBox="0 0 160 50" fill="none" xmlns="http://www.w3.org/2000/svg">
<path d="M50.8705 30.1013C50.4284 29.5189 49.8684 29.0709 49.1905 28.7573C48.5126 28.4437 47.8126 28.2869 47.0905 28.2869C46.2063 28.2869 45.4032 28.4587 44.6811 28.8021C43.9737 29.1307 43.3621 29.5861 42.8463 30.1685C42.3453 30.7509 41.9547 31.4379 41.6747 32.2293C41.3947 33.0059 41.2547 33.8421 41.2547 34.7381C41.2547 35.5744 41.3874 36.3659 41.6526 37.1125C41.9179 37.8592 42.3011 38.5163 42.8021 39.0837C43.3032 39.6512 43.9147 40.0992 44.6368 40.4277C45.3589 40.7563 46.1768 40.9205 47.0905 40.9205C47.9895 40.9205 48.7779 40.7339 49.4558 40.3605C50.1337 39.9872 50.7084 39.4645 51.18 38.7925L52.9705 40.1589C52.8526 40.3232 52.6463 40.5621 52.3516 40.8757C52.0568 41.1744 51.6663 41.4805 51.18 41.7941C50.6937 42.0928 50.1042 42.3541 49.4116 42.5781C48.7337 42.8171 47.9453 42.9365 47.0463 42.9365C45.8084 42.9365 44.6884 42.6976 43.6863 42.2197C42.6989 41.7419 41.8516 41.1147 41.1442 40.3381C40.4516 39.5616 39.9211 38.688 39.5526 37.7173C39.1842 36.7317 39 35.7387 39 34.7381C39 33.5136 39.1989 32.3861 39.5968 31.3557C39.9947 30.3104 40.5474 29.4144 41.2547 28.6677C41.9768 27.9061 42.8389 27.3163 43.8411 26.8981C44.8432 26.48 45.9484 26.2709 47.1568 26.2709C48.1884 26.2709 49.1979 26.4725 50.1853 26.8757C51.1874 27.2789 52.0053 27.8987 52.6389 28.7349L50.8705 30.1013Z" fill="white"/>
<path d="M56.6422 37.2245C56.6422 37.7621 56.7233 38.2624 56.8854 38.7253C57.0475 39.1733 57.2759 39.5616 57.5707 39.8901C57.8654 40.2037 58.2265 40.4576 58.6538 40.6517C59.0812 40.8309 59.5601 40.9205 60.0907 40.9205C60.6212 40.9205 61.1001 40.8309 61.5275 40.6517C61.9549 40.4576 62.3159 40.2037 62.6107 39.8901C62.9054 39.5616 63.1338 39.1733 63.2959 38.7253C63.458 38.2624 63.5391 37.7621 63.5391 37.2245C63.5391 36.6869 63.458 36.1941 63.2959 35.7461C63.1338 35.2832 62.9054 34.8949 62.6107 34.5813C62.3159 34.2528 61.9549 33.9989 61.5275 33.8197C61.1001 33.6256 60.6212 33.5285 60.0907 33.5285C59.5601 33.5285 59.0812 33.6256 58.6538 33.8197C58.2265 33.9989 57.8654 34.2528 57.5707 34.5813C57.2759 34.8949 57.0475 35.2832 56.8854 35.7461C56.7233 36.1941 56.6422 36.6869 56.6422 37.2245ZM54.5201 37.2245C54.5201 36.448 54.6601 35.7237 54.9401 35.0517C55.2349 34.3797 55.6328 33.7899 56.1338 33.2821C56.6349 32.7744 57.2244 32.3787 57.9022 32.0949C58.5801 31.7963 59.3096 31.6469 60.0907 31.6469C60.8717 31.6469 61.6012 31.7963 62.2791 32.0949C62.957 32.3787 63.5465 32.7744 64.0475 33.2821C64.5486 33.7899 64.9391 34.3797 65.2191 35.0517C65.5138 35.7237 65.6612 36.448 65.6612 37.2245C65.6612 38.0011 65.5138 38.7328 65.2191 39.4197C64.9391 40.0917 64.5486 40.6816 64.0475 41.1893C63.5465 41.6821 62.957 42.0779 62.2791 42.3765C61.6012 42.6603 60.8717 42.8021 60.0907 42.8021C59.3096 42.8021 58.5801 42.6603 57.9022 42.3765C57.2244 42.0779 56.6349 41.6821 56.1338 41.1893C55.6328 40.6816 55.2349 40.0917 54.9401 39.4197C54.6601 38.7328 54.5201 38.0011 54.5201 37.2245Z" fill="white"/>
<path d="M68.1536 31.9157H70.0104V33.5733H70.0546C70.0988 33.424 70.2094 33.2373 70.3862 33.0133C70.5778 32.7893 70.8136 32.5803 71.0936 32.3861C71.3883 32.1771 71.7272 32.0053 72.1104 31.8709C72.5083 31.7216 72.943 31.6469 73.4146 31.6469C74.1957 31.6469 74.8515 31.8112 75.382 32.1397C75.9125 32.4683 76.3472 32.9611 76.6862 33.6181C77.0251 32.9611 77.5041 32.4683 78.123 32.1397C78.742 31.8112 79.3683 31.6469 80.002 31.6469C80.8125 31.6469 81.4757 31.7813 81.9915 32.0501C82.5072 32.3189 82.9125 32.6773 83.2072 33.1253C83.502 33.5584 83.7009 34.0587 83.8041 34.6261C83.922 35.1787 83.9809 35.7536 83.9809 36.3509V42.5333H81.9915V36.6197C81.9915 36.2165 81.962 35.8283 81.903 35.4549C81.8588 35.0816 81.7557 34.7531 81.5936 34.4693C81.4315 34.1856 81.203 33.9616 80.9083 33.7973C80.6136 33.6181 80.223 33.5285 79.7367 33.5285C78.7788 33.5285 78.0936 33.8272 77.6809 34.4245C77.2683 35.0219 77.062 35.7909 77.062 36.7317V42.5333H75.0725V36.9781C75.0725 36.4704 75.043 36.0075 74.9841 35.5893C74.9399 35.1712 74.8367 34.8128 74.6746 34.5141C74.5272 34.2005 74.3062 33.9616 74.0115 33.7973C73.7315 33.6181 73.3483 33.5285 72.862 33.5285C72.5083 33.5285 72.162 33.6032 71.823 33.7525C71.4988 33.8869 71.2115 34.096 70.9609 34.3797C70.7104 34.6635 70.5115 35.0293 70.3641 35.4773C70.2167 35.9104 70.143 36.4256 70.143 37.0229V42.5333H68.1536V31.9157Z" fill="white"/>
<path d="M86.9776 25.5989H88.9671V33.4389H89.0113C89.3649 32.8864 89.8734 32.4533 90.5365 32.1397C91.1997 31.8112 91.9071 31.6469 92.6586 31.6469C93.4692 31.6469 94.1986 31.7888 94.847 32.0725C95.5102 32.3563 96.0702 32.752 96.5271 33.2597C96.9986 33.7525 97.3597 34.3424 97.6102 35.0293C97.8607 35.7013 97.986 36.4331 97.986 37.2245C97.986 38.016 97.8607 38.7477 97.6102 39.4197C97.3597 40.0917 96.9986 40.6816 96.5271 41.1893C96.0702 41.6971 95.5102 42.0928 94.847 42.3765C94.1986 42.6603 93.4692 42.8021 92.6586 42.8021C91.9513 42.8021 91.2586 42.6453 90.5807 42.3317C89.9176 42.0181 89.3944 41.5776 89.0113 41.0101H88.9671V42.5333H86.9776V25.5989ZM92.4155 40.9205C92.946 40.9205 93.4249 40.8309 93.8523 40.6517C94.2797 40.4576 94.6407 40.2037 94.9355 39.8901C95.2302 39.5616 95.4586 39.1733 95.6207 38.7253C95.7828 38.2624 95.8639 37.7621 95.8639 37.2245C95.8639 36.6869 95.7828 36.1941 95.6207 35.7461C95.4586 35.2832 95.2302 34.8949 94.9355 34.5813C94.6407 34.2528 94.2797 33.9989 93.8523 33.8197C93.4249 33.6256 92.946 33.5285 92.4155 33.5285C91.8849 33.5285 91.406 33.6256 90.9786 33.8197C90.5513 33.9989 90.1902 34.2528 89.8955 34.5813C89.6007 34.8949 89.3723 35.2832 89.2102 35.7461C89.0481 36.1941 88.9671 36.6869 88.9671 37.2245C88.9671 37.7621 89.0481 38.2624 89.2102 38.7253C89.3723 39.1733 89.6007 39.5616 89.8955 39.8901C90.1902 40.2037 90.5513 40.4576 90.9786 40.6517C91.406 40.8309 91.8849 40.9205 92.4155 40.9205Z" fill="white"/>
<path d="M100.646 31.9157H102.635V42.5333H100.646V31.9157ZM100.182 28.1077C100.182 27.7045 100.322 27.3611 100.602 27.0773C100.896 26.7787 101.243 26.6293 101.641 26.6293C102.039 26.6293 102.377 26.7787 102.657 27.0773C102.952 27.3611 103.1 27.7045 103.1 28.1077C103.1 28.5109 102.952 28.8619 102.657 29.1605C102.377 29.4443 102.039 29.5861 101.641 29.5861C101.243 29.5861 100.896 29.4443 100.602 29.1605C100.322 28.8619 100.182 28.5109 100.182 28.1077Z" fill="white"/>
<path d="M105.802 31.9157H107.791V33.5509H107.835C108.086 32.9835 108.521 32.528 109.139 32.1845C109.758 31.8261 110.473 31.6469 111.284 31.6469C111.785 31.6469 112.264 31.7291 112.721 31.8933C113.192 32.0427 113.597 32.2816 113.936 32.6101C114.29 32.9387 114.57 33.3643 114.776 33.8869C114.983 34.3947 115.086 34.9995 115.086 35.7013V42.5333H113.096V36.2613C113.096 35.7685 113.03 35.3504 112.897 35.0069C112.765 34.6485 112.588 34.3648 112.367 34.1557C112.146 33.9317 111.888 33.7749 111.593 33.6853C111.313 33.5808 111.018 33.5285 110.709 33.5285C110.296 33.5285 109.913 33.5957 109.559 33.7301C109.206 33.8645 108.896 34.0811 108.631 34.3797C108.366 34.6635 108.159 35.0293 108.012 35.4773C107.865 35.9253 107.791 36.4555 107.791 37.0677V42.5333H105.802V31.9157Z" fill="white"/>
<path d="M118.129 33.2149C118.689 32.6923 119.337 32.304 120.074 32.0501C120.811 31.7813 121.548 31.6469 122.285 31.6469C123.051 31.6469 123.707 31.744 124.252 31.9381C124.812 32.1323 125.269 32.3936 125.623 32.7221C125.976 33.0507 126.234 33.4315 126.396 33.8645C126.573 34.2827 126.662 34.7232 126.662 35.1861V40.6069C126.662 40.9803 126.669 41.3237 126.684 41.6373C126.698 41.9509 126.72 42.2496 126.75 42.5333H124.982C124.937 41.9957 124.915 41.4581 124.915 40.9205H124.871C124.429 41.6075 123.906 42.0928 123.302 42.3765C122.697 42.6603 121.997 42.8021 121.202 42.8021C120.715 42.8021 120.251 42.7349 119.809 42.6005C119.367 42.4661 118.976 42.2645 118.637 41.9957C118.313 41.7269 118.055 41.3984 117.864 41.0101C117.672 40.6069 117.576 40.144 117.576 39.6213C117.576 38.9344 117.724 38.3595 118.018 37.8965C118.328 37.4336 118.74 37.0603 119.256 36.7765C119.787 36.4779 120.398 36.2688 121.091 36.1493C121.798 36.0149 122.55 35.9477 123.346 35.9477H124.805V35.4997C124.805 35.2309 124.753 34.9621 124.65 34.6933C124.547 34.4245 124.392 34.1856 124.186 33.9765C123.979 33.7525 123.722 33.5808 123.412 33.4613C123.103 33.3269 122.734 33.2597 122.307 33.2597C121.924 33.2597 121.585 33.2971 121.29 33.3717C121.01 33.4464 120.752 33.5435 120.516 33.6629C120.28 33.7675 120.067 33.8944 119.875 34.0437C119.684 34.1931 119.499 34.3349 119.323 34.4693L118.129 33.2149ZM123.744 37.4261C123.272 37.4261 122.786 37.456 122.285 37.5157C121.798 37.5605 121.349 37.6576 120.936 37.8069C120.538 37.9563 120.207 38.1653 119.942 38.4341C119.691 38.7029 119.566 39.0464 119.566 39.4645C119.566 40.0768 119.765 40.5173 120.163 40.7861C120.575 41.0549 121.128 41.1893 121.82 41.1893C122.366 41.1893 122.83 41.0997 123.213 40.9205C123.596 40.7264 123.906 40.48 124.142 40.1813C124.377 39.8827 124.547 39.5541 124.65 39.1957C124.753 38.8224 124.805 38.4565 124.805 38.0981V37.4261H123.744Z" fill="white"/>
<path d="M135.162 33.6629H132.311V38.4789C132.311 38.7776 132.318 39.0763 132.333 39.3749C132.347 39.6587 132.399 39.92 132.487 40.1589C132.591 40.3829 132.738 40.5696 132.93 40.7189C133.136 40.8533 133.431 40.9205 133.814 40.9205C134.05 40.9205 134.293 40.8981 134.543 40.8533C134.794 40.8085 135.022 40.7264 135.229 40.6069V42.4437C134.993 42.5781 134.683 42.6677 134.3 42.7125C133.932 42.7723 133.644 42.8021 133.438 42.8021C132.672 42.8021 132.075 42.6976 131.647 42.4885C131.235 42.2645 130.925 41.9808 130.719 41.6373C130.527 41.2939 130.41 40.9131 130.365 40.4949C130.336 40.0619 130.321 39.6288 130.321 39.1957V33.6629H128.022V31.9157H130.321V28.9365H132.311V31.9157H135.162V33.6629Z" fill="white"/>
<path d="M139.343 37.2245C139.343 37.7621 139.424 38.2624 139.586 38.7253C139.748 39.1733 139.976 39.5616 140.271 39.8901C140.566 40.2037 140.927 40.4576 141.354 40.6517C141.782 40.8309 142.261 40.9205 142.791 40.9205C143.322 40.9205 143.801 40.8309 144.228 40.6517C144.655 40.4576 145.016 40.2037 145.311 39.8901C145.606 39.5616 145.834 39.1733 145.996 38.7253C146.158 38.2624 146.24 37.7621 146.24 37.2245C146.24 36.6869 146.158 36.1941 145.996 35.7461C145.834 35.2832 145.606 34.8949 145.311 34.5813C145.016 34.2528 144.655 33.9989 144.228 33.8197C143.801 33.6256 143.322 33.5285 142.791 33.5285C142.261 33.5285 141.782 33.6256 141.354 33.8197C140.927 33.9989 140.566 34.2528 140.271 34.5813C139.976 34.8949 139.748 35.2832 139.586 35.7461C139.424 36.1941 139.343 36.6869 139.343 37.2245ZM137.221 37.2245C137.221 36.448 137.361 35.7237 137.641 35.0517C137.935 34.3797 138.333 33.7899 138.834 33.2821C139.335 32.7744 139.925 32.3787 140.603 32.0949C141.281 31.7963 142.01 31.6469 142.791 31.6469C143.572 31.6469 144.302 31.7963 144.98 32.0949C145.657 32.3787 146.247 32.7744 146.748 33.2821C147.249 33.7899 147.64 34.3797 147.92 35.0517C148.214 35.7237 148.362 36.448 148.362 37.2245C148.362 38.0011 148.214 38.7328 147.92 39.4197C147.64 40.0917 147.249 40.6816 146.748 41.1893C146.247 41.6821 145.657 42.0779 144.98 42.3765C144.302 42.6603 143.572 42.8021 142.791 42.8021C142.01 42.8021 141.281 42.6603 140.603 42.3765C139.925 42.0779 139.335 41.6821 138.834 41.1893C138.333 40.6816 137.935 40.0917 137.641 39.4197C137.361 38.7328 137.221 38.0011 137.221 37.2245Z" fill="white"/>
<path d="M150.854 31.9157H152.843V33.5509H152.888C153.02 33.2672 153.197 33.0133 153.418 32.7893C153.639 32.5504 153.882 32.3488 154.148 32.1845C154.428 32.0203 154.73 31.8933 155.054 31.8037C155.378 31.6992 155.702 31.6469 156.027 31.6469C156.351 31.6469 156.646 31.6917 156.911 31.7813L156.822 33.9541C156.66 33.9093 156.498 33.872 156.336 33.8421C156.174 33.8123 156.012 33.7973 155.85 33.7973C154.877 33.7973 154.133 34.0736 153.617 34.6261C153.101 35.1787 152.843 36.0373 152.843 37.2021V42.5333H150.854V31.9157Z" fill="white"/>
<path fill-rule="evenodd" clip-rule="evenodd" d="M0 18H31.5789V50H0V18ZM9.30505 25.8039L14.7254 36.0932V42.8533H16.8101V36.2175L22.2795 25.8039H19.9739L16.7366 32.3155C16.573 32.6635 16.4136 32.9989 16.2583 33.3221C16.1029 33.6452 15.9599 33.9476 15.8291 34.2292C15.78 34.0967 15.7228 33.9517 15.6574 33.7943C15.592 33.6369 15.5184 33.4753 15.4366 33.3096C15.4203 33.2765 15.4039 33.2392 15.3876 33.1979C15.3712 33.1564 15.3467 33.1108 15.3139 33.0611C15.265 32.9285 15.2078 32.8001 15.1424 32.6759C15.077 32.5516 15.0197 32.4315 14.9707 32.3155L11.7822 25.8039H9.30505Z" fill="white"/>
</svg>
