<svg width="160" height="32" viewBox="0 0 160 32" fill="none" xmlns="http://www.w3.org/2000/svg">
<path d="M50.8042 12.1013C50.3621 11.5189 49.8021 11.0709 49.1242 10.7573C48.4463 10.4437 47.7463 10.2869 47.0242 10.2869C46.14 10.2869 45.3368 10.4587 44.6147 10.8021C43.9074 11.1307 43.2958 11.5861 42.78 12.1685C42.2789 12.7509 41.8884 13.4379 41.6084 14.2293C41.3284 15.0059 41.1884 15.8421 41.1884 16.7381C41.1884 17.5744 41.3211 18.3659 41.5863 19.1125C41.8516 19.8592 42.2347 20.5163 42.7358 21.0837C43.2368 21.6512 43.8484 22.0992 44.5705 22.4277C45.2926 22.7563 46.1105 22.9205 47.0242 22.9205C47.9232 22.9205 48.7116 22.7339 49.3895 22.3605C50.0674 21.9872 50.6421 21.4645 51.1137 20.7925L52.9042 22.1589C52.7863 22.3232 52.58 22.5621 52.2853 22.8757C51.9905 23.1744 51.6 23.4805 51.1137 23.7941C50.6274 24.0928 50.0379 24.3541 49.3453 24.5781C48.6674 24.8171 47.8789 24.9365 46.98 24.9365C45.7421 24.9365 44.6221 24.6976 43.62 24.2197C42.6326 23.7419 41.7853 23.1147 41.0779 22.3381C40.3853 21.5616 39.8547 20.688 39.4863 19.7173C39.1179 18.7317 38.9337 17.7387 38.9337 16.7381C38.9337 15.5136 39.1326 14.3861 39.5305 13.3557C39.9284 12.3104 40.4811 11.4144 41.1884 10.6677C41.9105 9.90614 42.7726 9.31627 43.7747 8.89814C44.7768 8.48001 45.8821 8.27094 47.0905 8.27094C48.1221 8.27094 49.1316 8.47254 50.1189 8.87574C51.1211 9.27894 51.9389 9.89867 52.5726 10.7349L50.8042 12.1013Z" fill="white"/>
<path d="M56.5759 19.2245C56.5759 19.7621 56.657 20.2624 56.8191 20.7253C56.9812 21.1733 57.2096 21.5616 57.5044 21.8901C57.7991 22.2037 58.1601 22.4576 58.5875 22.6517C59.0149 22.8309 59.4938 22.9205 60.0244 22.9205C60.5549 22.9205 61.0338 22.8309 61.4612 22.6517C61.8886 22.4576 62.2496 22.2037 62.5444 21.8901C62.8391 21.5616 63.0675 21.1733 63.2296 20.7253C63.3917 20.2624 63.4728 19.7621 63.4728 19.2245C63.4728 18.6869 63.3917 18.1941 63.2296 17.7461C63.0675 17.2832 62.8391 16.8949 62.5444 16.5813C62.2496 16.2528 61.8886 15.9989 61.4612 15.8197C61.0338 15.6256 60.5549 15.5285 60.0244 15.5285C59.4938 15.5285 59.0149 15.6256 58.5875 15.8197C58.1601 15.9989 57.7991 16.2528 57.5044 16.5813C57.2096 16.8949 56.9812 17.2832 56.8191 17.7461C56.657 18.1941 56.5759 18.6869 56.5759 19.2245ZM54.4538 19.2245C54.4538 18.448 54.5938 17.7237 54.8738 17.0517C55.1686 16.3797 55.5665 15.7899 56.0675 15.2821C56.5686 14.7744 57.158 14.3787 57.8359 14.0949C58.5138 13.7963 59.2433 13.6469 60.0244 13.6469C60.8054 13.6469 61.5349 13.7963 62.2128 14.0949C62.8907 14.3787 63.4801 14.7744 63.9812 15.2821C64.4822 15.7899 64.8728 16.3797 65.1528 17.0517C65.4475 17.7237 65.5949 18.448 65.5949 19.2245C65.5949 20.0011 65.4475 20.7328 65.1528 21.4197C64.8728 22.0917 64.4822 22.6816 63.9812 23.1893C63.4801 23.6821 62.8907 24.0779 62.2128 24.3765C61.5349 24.6603 60.8054 24.8021 60.0244 24.8021C59.2433 24.8021 58.5138 24.6603 57.8359 24.3765C57.158 24.0779 56.5686 23.6821 56.0675 23.1893C55.5665 22.6816 55.1686 22.0917 54.8738 21.4197C54.5938 20.7328 54.4538 20.0011 54.4538 19.2245Z" fill="white"/>
<path d="M68.0872 13.9157H69.9441V15.5733H69.9883C70.0325 15.424 70.143 15.2373 70.3199 15.0133C70.5115 14.7893 70.7472 14.5803 71.0272 14.3861C71.322 14.1771 71.6609 14.0053 72.0441 13.8709C72.442 13.7216 72.8767 13.6469 73.3483 13.6469C74.1294 13.6469 74.7851 13.8112 75.3157 14.1397C75.8462 14.4683 76.2809 14.9611 76.6199 15.6181C76.9588 14.9611 77.4378 14.4683 78.0567 14.1397C78.6757 13.8112 79.302 13.6469 79.9357 13.6469C80.7462 13.6469 81.4094 13.7813 81.9251 14.0501C82.4409 14.3189 82.8462 14.6773 83.1409 15.1253C83.4357 15.5584 83.6346 16.0587 83.7378 16.6261C83.8557 17.1787 83.9146 17.7536 83.9146 18.3509V24.5333H81.9251V18.6197C81.9251 18.2165 81.8957 17.8283 81.8367 17.4549C81.7925 17.0816 81.6894 16.7531 81.5273 16.4693C81.3651 16.1856 81.1367 15.9616 80.842 15.7973C80.5472 15.6181 80.1567 15.5285 79.6704 15.5285C78.7125 15.5285 78.0272 15.8272 77.6146 16.4245C77.202 17.0219 76.9957 17.7909 76.9957 18.7317V24.5333H75.0062V18.9781C75.0062 18.4704 74.9767 18.0075 74.9178 17.5893C74.8736 17.1712 74.7704 16.8128 74.6083 16.5141C74.4609 16.2005 74.2399 15.9616 73.9451 15.7973C73.6651 15.6181 73.282 15.5285 72.7957 15.5285C72.442 15.5285 72.0957 15.6032 71.7567 15.7525C71.4325 15.8869 71.1451 16.096 70.8946 16.3797C70.6441 16.6635 70.4451 17.0293 70.2978 17.4773C70.1504 17.9104 70.0767 18.4256 70.0767 19.0229V24.5333H68.0872V13.9157Z" fill="white"/>
<path d="M86.9113 7.59894H88.9007V15.4389H88.9449C89.2986 14.8864 89.8071 14.4533 90.4702 14.1397C91.1334 13.8112 91.8407 13.6469 92.5923 13.6469C93.4028 13.6469 94.1323 13.7888 94.7807 14.0725C95.4439 14.3563 96.0039 14.752 96.4607 15.2597C96.9323 15.7525 97.2934 16.3424 97.5439 17.0293C97.7944 17.7013 97.9197 18.4331 97.9197 19.2245C97.9197 20.016 97.7944 20.7477 97.5439 21.4197C97.2934 22.0917 96.9323 22.6816 96.4607 23.1893C96.0039 23.6971 95.4439 24.0928 94.7807 24.3765C94.1323 24.6603 93.4028 24.8021 92.5923 24.8021C91.8849 24.8021 91.1923 24.6453 90.5144 24.3317C89.8513 24.0181 89.3281 23.5776 88.9449 23.0101H88.9007V24.5333H86.9113V7.59894ZM92.3492 22.9205C92.8797 22.9205 93.3586 22.8309 93.786 22.6517C94.2134 22.4576 94.5744 22.2037 94.8692 21.8901C95.1639 21.5616 95.3923 21.1733 95.5544 20.7253C95.7165 20.2624 95.7976 19.7621 95.7976 19.2245C95.7976 18.6869 95.7165 18.1941 95.5544 17.7461C95.3923 17.2832 95.1639 16.8949 94.8692 16.5813C94.5744 16.2528 94.2134 15.9989 93.786 15.8197C93.3586 15.6256 92.8797 15.5285 92.3492 15.5285C91.8186 15.5285 91.3397 15.6256 90.9123 15.8197C90.4849 15.9989 90.1239 16.2528 89.8292 16.5813C89.5344 16.8949 89.306 17.2832 89.1439 17.7461C88.9818 18.1941 88.9007 18.6869 88.9007 19.2245C88.9007 19.7621 88.9818 20.2624 89.1439 20.7253C89.306 21.1733 89.5344 21.5616 89.8292 21.8901C90.1239 22.2037 90.4849 22.4576 90.9123 22.6517C91.3397 22.8309 91.8186 22.9205 92.3492 22.9205Z" fill="white"/>
<path d="M100.58 13.9157H102.569V24.5333H100.58V13.9157ZM100.115 10.1077C100.115 9.70454 100.255 9.36107 100.535 9.07734C100.83 8.77867 101.176 8.62934 101.574 8.62934C101.972 8.62934 102.311 8.77867 102.591 9.07734C102.886 9.36107 103.033 9.70454 103.033 10.1077C103.033 10.5109 102.886 10.8619 102.591 11.1605C102.311 11.4443 101.972 11.5861 101.574 11.5861C101.176 11.5861 100.83 11.4443 100.535 11.1605C100.255 10.8619 100.115 10.5109 100.115 10.1077Z" fill="white"/>
<path d="M105.735 13.9157H107.725V15.5509H107.769C108.019 14.9835 108.454 14.528 109.073 14.1845C109.692 13.8261 110.407 13.6469 111.217 13.6469C111.718 13.6469 112.197 13.7291 112.654 13.8933C113.126 14.0427 113.531 14.2816 113.87 14.6101C114.224 14.9387 114.504 15.3643 114.71 15.8869C114.916 16.3947 115.019 16.9995 115.019 17.7013V24.5333H113.03V18.2613C113.03 17.7685 112.964 17.3504 112.831 17.0069C112.698 16.6485 112.522 16.3648 112.301 16.1557C112.079 15.9317 111.822 15.7749 111.527 15.6853C111.247 15.5808 110.952 15.5285 110.643 15.5285C110.23 15.5285 109.847 15.5957 109.493 15.7301C109.139 15.8645 108.83 16.0811 108.565 16.3797C108.299 16.6635 108.093 17.0293 107.946 17.4773C107.798 17.9253 107.725 18.4555 107.725 19.0677V24.5333H105.735V13.9157Z" fill="white"/>
<path d="M118.063 15.2149C118.623 14.6923 119.271 14.304 120.008 14.0501C120.745 13.7813 121.482 13.6469 122.218 13.6469C122.985 13.6469 123.64 13.744 124.186 13.9381C124.746 14.1323 125.203 14.3936 125.556 14.7221C125.91 15.0507 126.168 15.4315 126.33 15.8645C126.507 16.2827 126.595 16.7232 126.595 17.1861V22.6069C126.595 22.9803 126.603 23.3237 126.617 23.6373C126.632 23.9509 126.654 24.2496 126.684 24.5333H124.915C124.871 23.9957 124.849 23.4581 124.849 22.9205H124.805C124.363 23.6075 123.839 24.0928 123.235 24.3765C122.631 24.6603 121.931 24.8021 121.135 24.8021C120.649 24.8021 120.185 24.7349 119.743 24.6005C119.3 24.4661 118.91 24.2645 118.571 23.9957C118.247 23.7269 117.989 23.3984 117.797 23.0101C117.606 22.6069 117.51 22.144 117.51 21.6213C117.51 20.9344 117.657 20.3595 117.952 19.8965C118.262 19.4336 118.674 19.0603 119.19 18.7765C119.72 18.4779 120.332 18.2688 121.025 18.1493C121.732 18.0149 122.484 17.9477 123.279 17.9477H124.738V17.4997C124.738 17.2309 124.687 16.9621 124.584 16.6933C124.48 16.4245 124.326 16.1856 124.119 15.9765C123.913 15.7525 123.655 15.5808 123.346 15.4613C123.036 15.3269 122.668 15.2597 122.24 15.2597C121.857 15.2597 121.518 15.2971 121.224 15.3717C120.944 15.4464 120.686 15.5435 120.45 15.6629C120.214 15.7675 120 15.8944 119.809 16.0437C119.617 16.1931 119.433 16.3349 119.256 16.4693L118.063 15.2149ZM123.677 19.4261C123.206 19.4261 122.719 19.456 122.218 19.5157C121.732 19.5605 121.283 19.6576 120.87 19.8069C120.472 19.9563 120.14 20.1653 119.875 20.4341C119.625 20.7029 119.499 21.0464 119.499 21.4645C119.499 22.0768 119.698 22.5173 120.096 22.7861C120.509 23.0549 121.062 23.1893 121.754 23.1893C122.299 23.1893 122.764 23.0997 123.147 22.9205C123.53 22.7264 123.839 22.48 124.075 22.1813C124.311 21.8827 124.48 21.5541 124.584 21.1957C124.687 20.8224 124.738 20.4565 124.738 20.0981V19.4261H123.677Z" fill="white"/>
<path d="M135.096 15.6629H132.244V20.4789C132.244 20.7776 132.252 21.0763 132.266 21.3749C132.281 21.6587 132.333 21.92 132.421 22.1589C132.524 22.3829 132.672 22.5696 132.863 22.7189C133.07 22.8533 133.364 22.9205 133.747 22.9205C133.983 22.9205 134.226 22.8981 134.477 22.8533C134.727 22.8085 134.956 22.7264 135.162 22.6069V24.4437C134.926 24.5781 134.617 24.6677 134.234 24.7125C133.865 24.7723 133.578 24.8021 133.372 24.8021C132.605 24.8021 132.009 24.6976 131.581 24.4885C131.169 24.2645 130.859 23.9808 130.653 23.6373C130.461 23.2939 130.343 22.9131 130.299 22.4949C130.27 22.0619 130.255 21.6288 130.255 21.1957V15.6629H127.956V13.9157H130.255V10.9365H132.244V13.9157H135.096V15.6629Z" fill="white"/>
<path d="M139.276 19.2245C139.276 19.7621 139.357 20.2624 139.52 20.7253C139.682 21.1733 139.91 21.5616 140.205 21.8901C140.5 22.2037 140.861 22.4576 141.288 22.6517C141.715 22.8309 142.194 22.9205 142.725 22.9205C143.255 22.9205 143.734 22.8309 144.162 22.6517C144.589 22.4576 144.95 22.2037 145.245 21.8901C145.54 21.5616 145.768 21.1733 145.93 20.7253C146.092 20.2624 146.173 19.7621 146.173 19.2245C146.173 18.6869 146.092 18.1941 145.93 17.7461C145.768 17.2832 145.54 16.8949 145.245 16.5813C144.95 16.2528 144.589 15.9989 144.162 15.8197C143.734 15.6256 143.255 15.5285 142.725 15.5285C142.194 15.5285 141.715 15.6256 141.288 15.8197C140.861 15.9989 140.5 16.2528 140.205 16.5813C139.91 16.8949 139.682 17.2832 139.52 17.7461C139.357 18.1941 139.276 18.6869 139.276 19.2245ZM137.154 19.2245C137.154 18.448 137.294 17.7237 137.574 17.0517C137.869 16.3797 138.267 15.7899 138.768 15.2821C139.269 14.7744 139.858 14.3787 140.536 14.0949C141.214 13.7963 141.944 13.6469 142.725 13.6469C143.506 13.6469 144.235 13.7963 144.913 14.0949C145.591 14.3787 146.181 14.7744 146.682 15.2821C147.183 15.7899 147.573 16.3797 147.853 17.0517C148.148 17.7237 148.295 18.448 148.295 19.2245C148.295 20.0011 148.148 20.7328 147.853 21.4197C147.573 22.0917 147.183 22.6816 146.682 23.1893C146.181 23.6821 145.591 24.0779 144.913 24.3765C144.235 24.6603 143.506 24.8021 142.725 24.8021C141.944 24.8021 141.214 24.6603 140.536 24.3765C139.858 24.0779 139.269 23.6821 138.768 23.1893C138.267 22.6816 137.869 22.0917 137.574 21.4197C137.294 20.7328 137.154 20.0011 137.154 19.2245Z" fill="white"/>
<path d="M150.788 13.9157H152.777V15.5509H152.821C152.954 15.2672 153.131 15.0133 153.352 14.7893C153.573 14.5504 153.816 14.3488 154.081 14.1845C154.361 14.0203 154.663 13.8933 154.988 13.8037C155.312 13.6992 155.636 13.6469 155.96 13.6469C156.285 13.6469 156.579 13.6917 156.845 13.7813L156.756 15.9541C156.594 15.9093 156.432 15.872 156.27 15.8421C156.108 15.8123 155.946 15.7973 155.783 15.7973C154.811 15.7973 154.067 16.0736 153.551 16.6261C153.035 17.1787 152.777 18.0373 152.777 19.2021V24.5333H150.788V13.9157Z" fill="white"/>
<path fill-rule="evenodd" clip-rule="evenodd" d="M0 0H31.5789V32H0V0ZM9.30505 7.80395L14.7254 18.0932V24.8533H16.8101V18.2175L22.2795 7.80395H19.9739L16.7366 14.3155C16.573 14.6635 16.4136 14.9989 16.2583 15.3221C16.1029 15.6452 15.9599 15.9476 15.8291 16.2292C15.78 16.0967 15.7228 15.9517 15.6574 15.7943C15.592 15.6369 15.5184 15.4753 15.4366 15.3096C15.4203 15.2765 15.4039 15.2392 15.3876 15.1979C15.3712 15.1564 15.3467 15.1108 15.3139 15.0611C15.265 14.9285 15.2078 14.8001 15.1424 14.6759C15.077 14.5516 15.0197 14.4315 14.9707 14.3155L11.7822 7.80395H9.30505Z" fill="white"/>
</svg>
