<svg width="1550" height="700" viewBox="0 0 1550 700" fill="none" xmlns="http://www.w3.org/2000/svg">
<mask id="mask0_133_1081" style="mask-type:alpha" maskUnits="userSpaceOnUse" x="136" y="108" width="297" height="89">
<rect x="136" y="108" width="297" height="89" fill="#D9D9D9"/>
</mask>
<g mask="url(#mask0_133_1081)">
<path d="M150.246 146.075L151.931 144.673L153.617 143.341L155.303 142.09L156.989 140.931L158.675 139.875L160.361 138.931L162.047 138.108L163.732 137.412L165.418 136.851L167.104 136.428L168.79 136.148L170.476 136.013L172.162 136.024L173.848 136.182L175.534 136.484L177.219 136.929L178.905 137.512L180.591 138.227L182.277 139.07L183.963 140.032L185.649 141.104L187.335 142.278L189.02 143.542L190.706 144.886L192.392 146.297L194.078 147.764L195.764 149.272L197.45 150.809L199.136 152.362L200.821 153.915L202.507 155.456L204.193 156.97L205.879 158.445L207.565 159.868L209.251 161.224L210.937 162.504L212.622 163.694L214.308 164.785L215.994 165.768L217.68 166.632L219.366 167.371L221.052 167.978L222.738 168.447L224.424 168.775L226.109 168.959L227.795 168.997L229.481 168.888L231.167 168.633L232.853 168.236L234.539 167.698L236.225 167.026L237.91 166.225L239.596 165.302L241.282 164.266L242.968 163.125L244.654 161.889L246.34 160.571L248.026 159.181L249.711 157.731L251.397 156.235L253.083 154.706L254.769 153.157L256.455 151.603L258.141 150.056L259.827 148.531L261.512 147.042L263.198 145.6L264.884 144.22L266.57 142.914L268.256 141.693L269.942 140.567L271.628 139.548L273.314 138.643L274.999 137.862L276.685 137.21L278.371 136.694L280.057 136.319L281.743 136.087L283.429 136L285.115 136.06L286.8 136.267L288.486 136.617L290.172 137.108L291.858 137.736L293.544 138.495L295.23 139.378L296.916 140.377L298.601 141.485L300.287 142.69L301.973 143.982L303.659 145.349L305.345 146.781L307.031 148.263L308.717 149.782L310.402 151.326L312.088 152.88L313.774 154.431L315.46 155.964L317.146 157.467L318.832 158.926L320.518 160.328L322.203 161.66L323.889 162.911L325.575 164.069L327.261 165.125L328.947 166.069L330.633 166.893L332.319 167.588L334.005 168.15L335.69 168.573L337.376 168.853L339.062 168.988L340.748 168.976L342.434 168.819L344.12 168.516L345.806 168.072L347.491 167.489L349.177 166.773L350.863 165.931L352.549 164.969L354.235 163.896L355.921 162.723L357.607 161.459L359.292 160.115L360.978 158.703L362.664 157.237L364.35 155.728L366.036 154.191L367.722 152.639L369.408 151.086L371.093 149.545L372.779 148.03L374.465 146.555L376.151 145.133L377.837 143.776L379.523 142.497L381.209 141.306L382.895 140.215L384.58 139.233L386.266 138.369L387.952 137.63L389.638 137.023L391.324 136.553L393.01 136.225L394.696 136.042L396.381 136.004L398.067 136.113L399.753 136.367L401.439 136.765L403.125 137.302L404.811 137.974L406.497 138.775L408.182 139.698L409.868 140.735L411.554 141.876L413.24 143.111L414.926 144.43L416.612 145.82L418.298 147.27L419.983 148.766L421.669 150.295L423.355 151.843L425.041 153.398L426.727 154.944L428.413 156.469L430.099 157.959L431.785 159.4L433.47 160.78L435.156 162.087L436.842 163.308L438.528 164.433L440.214 165.453L441.9 166.357L443.586 167.139L445.271 167.791L446.957 168.306L448.643 168.682L450.329 168.914L452.015 169L453.701 168.94L455.387 168.734L457.072 168.384L458.758 167.893L460.444 167.265L462.13 166.506L463.816 165.623L465.502 164.623L467.188 163.516L468.873 162.311L470.559 161.019L472.245 159.651L473.931 158.22L475.617 156.738L477.303 155.218L478.989 153.675L480.674 152.121L482.36 150.57L484.046 149.036L485.732 147.533L487.418 146.075L489.104 144.673L490.79 143.341L492.476 142.09L494.161 140.931L495.847 139.875L497.533 138.931L499.219 138.108L500.905 137.412L502.591 136.851L504.277 136.428L505.962 136.148L507.648 136.013L509.334 136.024L511.02 136.182L512.706 136.484L514.392 136.929L516.078 137.512L517.763 138.227L519.449 139.07L521.135 140.032L522.821 141.104L524.507 142.278L526.193 143.542L527.879 144.886L529.564 146.297L531.25 147.764L532.936 149.272L534.622 150.809L536.308 152.362L537.994 153.915L539.68 155.456L541.366 156.97L543.051 158.445L544.737 159.868L546.423 161.224L548.109 162.504L549.795 163.694L551.481 164.785L553.167 165.768L554.852 166.632L556.538 167.371L558.224 167.978L559.91 168.447L561.596 168.775L563.282 168.959L564.968 168.997L566.653 168.888L568.339 168.633L570.025 168.236L571.711 167.698L573.397 167.026L575.083 166.225L576.769 165.302L578.454 164.266L580.14 163.125L581.826 161.889L583.512 160.571L585.198 159.181L586.884 157.731L588.57 156.235L590.256 154.706L591.941 153.157L593.627 151.603L595.313 150.056L596.999 148.531L598.685 147.042L600.371 145.6L602.057 144.22L603.742 142.914L605.428 141.693L607.114 140.567L608.8 139.548L610.486 138.643L612.172 137.862L613.858 137.21L615.543 136.694L617.229 136.319L618.915 136.087L620.601 136L622.287 136.06L623.973 136.267L625.659 136.617L627.344 137.108L629.03 137.736L630.716 138.495L632.402 139.378L634.088 140.377L635.774 141.485L637.46 142.69L639.146 143.982L640.831 145.349L642.517 146.781L644.203 148.263L645.889 149.782L647.575 151.326L649.261 152.88L650.947 154.431L652.632 155.964L654.318 157.467L656.004 158.926L657.69 160.328L659.376 161.66L661.062 162.911L662.748 164.069L664.433 165.125L666.119 166.069L667.805 166.893L669.491 167.588L671.177 168.15L672.863 168.573L674.549 168.853L676.234 168.988L677.92 168.976L679.606 168.819L681.292 168.516L682.978 168.072L684.664 167.489L686.35 166.773L688.035 165.931L689.721 164.969L691.407 163.896L693.093 162.723L694.779 161.459L696.465 160.115L698.151 158.703L699.837 157.237L701.522 155.728L703.208 154.191L704.894 152.639L706.58 151.086L708.266 149.545L709.952 148.03L711.638 146.555L713.323 145.133L715.009 143.776L716.695 142.497L718.381 141.306L720.067 140.215L721.753 139.233L723.439 138.369L725.124 137.63L726.81 137.023L728.496 136.553L730.182 136.225L731.868 136.042L733.554 136.004L735.24 136.113L736.925 136.367L738.611 136.765L740.297 137.302L741.983 137.974L743.669 138.775L745.355 139.698L747.041 140.735L748.727 141.876L750.412 143.111L752.098 144.43L753.784 145.82L755.47 147.27L757.156 148.766L758.842 150.295L760.528 151.843L762.213 153.398L763.899 154.944L765.585 156.469L767.271 157.959L768.957 159.4L770.643 160.78L772.329 162.087L774.014 163.308L775.7 164.433L777.386 165.453L779.072 166.357L780.758 167.139L782.444 167.791L784.13 168.306L785.815 168.682L787.501 168.914L789.187 169L790.873 168.94L792.559 168.734L794.245 168.384L795.931 167.893L797.617 167.265L799.302 166.506L800.988 165.623L802.674 164.623L804.36 163.516L806.046 162.311L807.732 161.019L809.418 159.651L811.103 158.22L812.789 156.738L814.475 155.218L816.161 153.675L817.847 152.121L819.533 150.57L821.219 149.036L822.904 147.533" stroke="#DB44B8" stroke-width="24" stroke-miterlimit="10" stroke-linecap="round" stroke-linejoin="round"/>
</g>
<mask id="mask1_133_1081" style="mask-type:alpha" maskUnits="userSpaceOnUse" x="308" y="108" width="297" height="89">
<rect width="297" height="89" transform="matrix(-1 0 0 1 605 108)" fill="#D9D9D9"/>
</mask>
<g mask="url(#mask1_133_1081)">
<path d="M527.927 146.075L526.241 144.673L524.556 143.341L522.87 142.09L521.184 140.931L519.498 139.875L517.812 138.931L516.126 138.108L514.44 137.412L512.754 136.851L511.069 136.428L509.383 136.148L507.697 136.013L506.011 136.024L504.325 136.182L502.639 136.484L500.953 136.929L499.268 137.512L497.582 138.227L495.896 139.07L494.21 140.032L492.524 141.104L490.838 142.278L489.152 143.542L487.467 144.886L485.781 146.297L484.095 147.764L482.409 149.272L480.723 150.809L479.037 152.362L477.351 153.915L475.666 155.456L473.98 156.97L472.294 158.445L470.608 159.868L468.922 161.224L467.236 162.504L465.55 163.694L463.865 164.785L462.179 165.768L460.493 166.632L458.807 167.371L457.121 167.978L455.435 168.447L453.749 168.775L452.063 168.959L450.378 168.997L448.692 168.888L447.006 168.633L445.32 168.236L443.634 167.698L441.948 167.026L440.262 166.225L438.577 165.302L436.891 164.266L435.205 163.125L433.519 161.889L431.833 160.571L430.147 159.181L428.461 157.731L426.776 156.235L425.09 154.706L423.404 153.157L421.718 151.603L420.032 150.056L418.346 148.531L416.66 147.042L414.975 145.6L413.289 144.22L411.603 142.914L409.917 141.693L408.231 140.567L406.545 139.548L404.859 138.643L403.173 137.862L401.488 137.21L399.802 136.694L398.116 136.319L396.43 136.087L394.744 136L393.058 136.06L391.372 136.267L389.687 136.617L388.001 137.108L386.315 137.736L384.629 138.495L382.943 139.378L381.257 140.377L379.571 141.485L377.886 142.69L376.2 143.982L374.514 145.349L372.828 146.781L371.142 148.263L369.456 149.782L367.77 151.326L366.085 152.88L364.399 154.431L362.713 155.964L361.027 157.467L359.341 158.926L357.655 160.328L355.969 161.66L354.283 162.911L352.598 164.069L350.912 165.125L349.226 166.069L347.54 166.893L345.854 167.588L344.168 168.15L342.482 168.573L340.797 168.853L339.111 168.988L337.425 168.976L335.739 168.819L334.053 168.516L332.367 168.072L330.681 167.489L328.996 166.773L327.31 165.931L325.624 164.969L323.938 163.896L322.252 162.723L320.566 161.459L318.88 160.115L317.195 158.703L315.509 157.237L313.823 155.728L312.137 154.191L310.451 152.639L308.765 151.086L307.079 149.545L305.394 148.03L303.708 146.555L302.022 145.133L300.336 143.776L298.65 142.497L296.964 141.306L295.278 140.215L293.592 139.233L291.907 138.369L290.221 137.63L288.535 137.023L286.849 136.553L285.163 136.225L283.477 136.042L281.791 136.004L280.106 136.113L278.42 136.367L276.734 136.765L275.048 137.302L273.362 137.974L271.676 138.775L269.99 139.698L268.305 140.735L266.619 141.876L264.933 143.111L263.247 144.43L261.561 145.82L259.875 147.27L258.189 148.766L256.504 150.295L254.818 151.843L253.132 153.398L251.446 154.944L249.76 156.469L248.074 157.959L246.388 159.4L244.702 160.78L243.017 162.087L241.331 163.308L239.645 164.433L237.959 165.453L236.273 166.357L234.587 167.139L232.901 167.791L231.216 168.306L229.53 168.682L227.844 168.914L226.158 169L224.472 168.94L222.786 168.734L221.1 168.384L219.415 167.893L217.729 167.265L216.043 166.506L214.357 165.623L212.671 164.623L210.985 163.516L209.299 162.311L207.614 161.019L205.928 159.651L204.242 158.22L202.556 156.738L200.87 155.218L199.184 153.675L197.498 152.121L195.812 150.57L194.127 149.036L192.441 147.533L190.755 146.075L189.069 144.673L187.383 143.341L185.697 142.09L184.011 140.931L182.326 139.875L180.64 138.931L178.954 138.108L177.268 137.412L175.582 136.851L173.896 136.428L172.21 136.148L170.525 136.013L168.839 136.024L167.153 136.182L165.467 136.484L163.781 136.929L162.095 137.512L160.409 138.227L158.724 139.07L157.038 140.032L155.352 141.104L153.666 142.278L151.98 143.542L150.294 144.886L148.608 146.297L146.923 147.764L145.237 149.272L143.551 150.809L141.865 152.362L140.179 153.915L138.493 155.456L136.807 156.97L135.121 158.445L133.436 159.868L131.75 161.224L130.064 162.504L128.378 163.694L126.692 164.785L125.006 165.768L123.32 166.632L121.635 167.371L119.949 167.978L118.263 168.447L116.577 168.775L114.891 168.959L113.205 168.997L111.519 168.888L109.834 168.633L108.148 168.236L106.462 167.698L104.776 167.026L103.09 166.225L101.404 165.302L99.7184 164.266L98.0325 163.125L96.3466 161.889L94.6608 160.571L92.9749 159.181L91.2891 157.731L89.6032 156.235L87.9173 154.706L86.2315 153.157L84.5456 151.603L82.8598 150.056L81.1739 148.531L79.488 147.042L77.8022 145.6L76.1163 144.22L74.4304 142.914L72.7446 141.693L71.0587 140.567L69.3729 139.548L67.687 138.643L66.0011 137.862L64.3153 137.21L62.6294 136.694L60.9436 136.319L59.2577 136.087L57.5718 136L55.886 136.06L54.2001 136.267L52.5142 136.617L50.8284 137.108L49.1425 137.736L47.4567 138.495L45.7708 139.378L44.0849 140.377L42.3991 141.485L40.7132 142.69L39.0274 143.982L37.3415 145.349L35.6556 146.781L33.9698 148.263L32.2839 149.782L30.598 151.326L28.9122 152.88L27.2263 154.431L25.5405 155.964L23.8546 157.467L22.1687 158.926L20.4829 160.328L18.797 161.66L17.1111 162.911L15.4253 164.069L13.7394 165.125L12.0536 166.069L10.3677 166.893L8.68184 167.588L6.99598 168.15L5.31012 168.573L3.62426 168.853L1.93839 168.988L0.252532 168.976L-1.43333 168.819L-3.11919 168.516L-4.80505 168.072L-6.49091 167.489L-8.17678 166.773L-9.86264 165.931L-11.5485 164.969L-13.2344 163.896L-14.9202 162.723L-16.6061 161.459L-18.2919 160.115L-19.9778 158.703L-21.6637 157.237L-23.3495 155.728L-25.0354 154.191L-26.7213 152.639L-28.4071 151.086L-30.093 149.545L-31.7788 148.03L-33.4647 146.555L-35.1506 145.133L-36.8364 143.776L-38.5223 142.497L-40.2081 141.306L-41.894 140.215L-43.5799 139.233L-45.2657 138.369L-46.9516 137.63L-48.6375 137.023L-50.3233 136.553L-52.0092 136.225L-53.695 136.042L-55.3809 136.004L-57.0668 136.113L-58.7526 136.367L-60.4385 136.765L-62.1244 137.302L-63.8102 137.974L-65.4961 138.775L-67.1819 139.698L-68.8678 140.735L-70.5537 141.876L-72.2395 143.111L-73.9254 144.43L-75.6112 145.82L-77.2971 147.27L-78.983 148.766L-80.6688 150.295L-82.3547 151.843L-84.0406 153.398L-85.7264 154.944L-87.4123 156.469L-89.0981 157.959L-90.784 159.4L-92.4699 160.78L-94.1557 162.087L-95.8416 163.308L-97.5274 164.433L-99.2133 165.453L-100.899 166.357L-102.585 167.139L-104.271 167.791L-105.957 168.306L-107.643 168.682L-109.328 168.914L-111.014 169L-112.7 168.94L-114.386 168.734L-116.072 168.384L-117.758 167.893L-119.444 167.265L-121.13 166.506L-122.815 165.623L-124.501 164.623L-126.187 163.516L-127.873 162.311L-129.559 161.019L-131.245 159.651L-132.931 158.22L-134.616 156.738L-136.302 155.218L-137.988 153.675L-139.674 152.121L-141.36 150.57L-143.046 149.036L-144.732 147.533" stroke="#DB44B8" stroke-width="24" stroke-miterlimit="10" stroke-linecap="round" stroke-linejoin="round"/>
</g>
<path d="M177.854 87.6465C174.796 89.5264 171.036 90.4663 166.574 90.4663C159.23 90.4663 153.215 87.9222 148.527 82.834C143.64 77.7207 141.196 70.7275 141.196 61.8545C141.196 52.8812 143.665 45.6875 148.603 40.2734C153.54 34.8594 160.07 32.1523 168.191 32.1523C175.234 32.1523 180.886 33.9445 185.147 37.5288C189.434 41.0881 191.89 45.5371 192.517 50.876H181.125C180.247 47.0911 178.104 44.4468 174.695 42.9429C172.79 42.1157 170.672 41.7021 168.341 41.7021C163.88 41.7021 160.208 43.394 157.325 46.7778C154.468 50.1366 153.039 55.1997 153.039 61.9673C153.039 68.785 154.593 73.61 157.701 76.4424C160.809 79.2747 164.343 80.6909 168.304 80.6909C172.189 80.6909 175.372 79.5755 177.854 77.3447C180.335 75.0889 181.864 72.1437 182.44 68.5093H169.62V59.2603H192.705V89H185.035L183.869 82.082C181.638 84.7139 179.633 86.5687 177.854 87.6465ZM226.562 69.0732H214.794V89H203.289V33.5811H227.427C232.991 33.5811 237.428 35.0098 240.736 37.8672C244.045 40.7246 245.699 45.1486 245.699 51.1392C245.699 57.6812 244.045 62.3057 240.736 65.0127C237.428 67.7197 232.703 69.0732 226.562 69.0732ZM231.976 57.5308C233.48 56.2023 234.232 54.0968 234.232 51.2144C234.232 48.3319 233.467 46.2765 231.938 45.0483C230.435 43.8201 228.317 43.2061 225.584 43.2061H214.794V59.5234H225.584C228.317 59.5234 230.447 58.8592 231.976 57.5308ZM274.519 45.5747C273.24 44.0457 271.411 43.2812 269.029 43.2812C265.771 43.2812 263.553 44.4969 262.375 46.9282C261.698 48.3319 261.297 50.5627 261.171 53.6206H250.757C250.932 48.9836 251.772 45.2363 253.276 42.3789C256.133 36.9398 261.209 34.2202 268.503 34.2202C274.268 34.2202 278.855 35.8244 282.264 39.0327C285.673 42.216 287.377 46.4395 287.377 51.7031C287.377 55.7386 286.174 59.3229 283.768 62.4561C282.189 64.5365 279.594 66.855 275.985 69.4116L271.699 72.457C269.017 74.362 267.175 75.7406 266.172 76.5928C265.194 77.445 264.367 78.4351 263.69 79.563H287.49V89H250.155C250.256 85.0898 251.095 81.5181 252.674 78.2847C254.203 74.6502 257.813 70.8027 263.502 66.7422C268.44 63.208 271.636 60.6764 273.09 59.1475C275.321 56.7663 276.436 54.1595 276.436 51.3271C276.436 49.0212 275.797 47.1037 274.519 45.5747ZM343.023 68.6221L311.366 57.4556V46.9658L355.656 63.8848V73.4346L311.366 90.2783V79.8262L343.023 68.6221ZM415.212 87.6465C412.154 89.5264 408.394 90.4663 403.933 90.4663C396.589 90.4663 390.573 87.9222 385.886 82.834C380.998 77.7207 378.554 70.7275 378.554 61.8545C378.554 52.8812 381.023 45.6875 385.961 40.2734C390.899 34.8594 397.428 32.1523 405.549 32.1523C412.593 32.1523 418.245 33.9445 422.506 37.5288C426.792 41.0881 429.248 45.5371 429.875 50.876H418.483C417.606 47.0911 415.463 44.4468 412.054 42.9429C410.149 42.1157 408.031 41.7021 405.7 41.7021C401.238 41.7021 397.566 43.394 394.684 46.7778C391.826 50.1366 390.398 55.1997 390.398 61.9673C390.398 68.785 391.952 73.61 395.06 76.4424C398.168 79.2747 401.702 80.6909 405.662 80.6909C409.547 80.6909 412.731 79.5755 415.212 77.3447C417.693 75.0889 419.222 72.1437 419.799 68.5093H406.978V59.2603H430.063V89H422.393L421.228 82.082C418.997 84.7139 416.992 86.5687 415.212 87.6465ZM463.921 69.0732H452.152V89H440.648V33.5811H464.785C470.35 33.5811 474.786 35.0098 478.095 37.8672C481.403 40.7246 483.058 45.1486 483.058 51.1392C483.058 57.6812 481.403 62.3057 478.095 65.0127C474.786 67.7197 470.061 69.0732 463.921 69.0732ZM469.335 57.5308C470.839 56.2023 471.59 54.0968 471.59 51.2144C471.59 48.3319 470.826 46.2765 469.297 45.0483C467.793 43.8201 465.675 43.2061 462.943 43.2061H452.152V59.5234H462.943C465.675 59.5234 467.806 58.8592 469.335 57.5308ZM499.846 45.3491C498.643 46.9533 498.066 49.0964 498.116 51.7783H488.115C488.216 49.0713 488.679 46.5021 489.507 44.0708C490.384 41.9403 491.762 39.9727 493.642 38.168C495.046 36.8896 496.713 35.9121 498.643 35.2354C500.573 34.5586 502.941 34.2202 505.749 34.2202C510.962 34.2202 515.161 35.5737 518.344 38.2808C521.552 40.9627 523.156 44.5721 523.156 49.1089C523.156 52.3172 522.204 55.0243 520.299 57.23C519.096 58.6086 517.843 59.5485 516.539 60.0498C517.517 60.0498 518.92 60.8895 520.75 62.5688C523.482 65.1004 524.848 68.5594 524.848 72.9458C524.848 77.5578 523.244 81.6183 520.036 85.1274C516.853 88.6115 512.128 90.3535 505.861 90.3535C498.141 90.3535 492.777 87.8345 489.77 82.7964C488.191 80.1144 487.313 76.6053 487.138 72.269H497.665C497.665 74.4497 498.016 76.2544 498.718 77.6831C500.021 80.3149 502.39 81.6309 505.824 81.6309C507.929 81.6309 509.759 80.9165 511.313 79.4878C512.892 78.034 513.682 75.9536 513.682 73.2466C513.682 69.6623 512.228 67.2686 509.32 66.0654C507.666 65.3887 505.059 65.0503 501.5 65.0503V57.3804C504.984 57.3302 507.416 56.9919 508.794 56.3652C511.175 55.3125 512.366 53.182 512.366 49.9736C512.366 47.8932 511.752 46.2013 510.524 44.8979C509.32 43.5946 507.616 42.9429 505.41 42.9429C502.879 42.9429 501.024 43.745 499.846 45.3491Z" fill="white"/>
<path d="M931 608.241L1381.54 608.132" stroke="#2684FF" stroke-width="22" stroke-dasharray="29 29"/>
<ellipse cx="641" cy="70.7593" rx="60" ry="57.7593" fill="#28431C"/>
<path d="M668.341 52.0076L630.877 89.4712" stroke="#63BA3D" stroke-width="18.9355" stroke-linecap="round"/>
<path d="M613.9 70.5618L629.248 88.9039" stroke="#63BA3D" stroke-width="18.9355" stroke-linecap="round"/>
<ellipse cx="1142" cy="296.759" rx="60" ry="57.7593" fill="#28431C"/>
<path d="M1169.34 278.008L1131.88 315.471" stroke="#63BA3D" stroke-width="18.9355" stroke-linecap="round"/>
<path d="M1114.9 296.562L1130.25 314.904" stroke="#63BA3D" stroke-width="18.9355" stroke-linecap="round"/>
<path d="M143.865 267.581H155.445V313.037H182.892V323H143.865V267.581ZM200.319 282.019V323H189.453V282.019H200.319ZM200.319 267.243V277.131H189.453V267.243H200.319ZM229.176 267.243V275.965C228.574 275.89 227.559 275.84 226.13 275.815C224.727 275.765 223.749 276.078 223.198 276.755C222.671 277.407 222.408 278.133 222.408 278.936V282.395H229.439V289.952H222.408V323H211.731V289.952H205.752V282.395H211.618V279.763C211.618 275.376 212.357 272.356 213.836 270.702C215.39 268.245 219.137 267.017 225.078 267.017C225.754 267.017 226.369 267.042 226.92 267.092C227.471 267.117 228.223 267.167 229.176 267.243ZM269.914 310.969C269.638 313.4 268.372 315.869 266.116 318.375C262.607 322.361 257.694 324.354 251.378 324.354C246.164 324.354 241.565 322.674 237.58 319.315C233.594 315.957 231.602 310.493 231.602 302.923C231.602 295.829 233.394 290.39 236.978 286.605C240.587 282.821 245.262 280.928 251.002 280.928C254.411 280.928 257.481 281.567 260.213 282.846C262.946 284.124 265.201 286.142 266.981 288.899C268.585 291.33 269.625 294.15 270.102 297.358C270.377 299.238 270.49 301.945 270.44 305.479H242.392C242.543 309.59 243.833 312.473 246.265 314.127C247.744 315.155 249.523 315.668 251.604 315.668C253.809 315.668 255.601 315.042 256.98 313.789C257.732 313.112 258.396 312.172 258.973 310.969H269.914ZM259.311 298.411C259.136 295.579 258.271 293.436 256.717 291.982C255.188 290.503 253.283 289.764 251.002 289.764C248.521 289.764 246.591 290.541 245.212 292.095C243.858 293.649 243.006 295.754 242.655 298.411H259.311ZM312.381 296.719H301.402C301.202 295.19 300.688 293.812 299.861 292.583C298.658 290.929 296.79 290.102 294.259 290.102C290.649 290.102 288.181 291.894 286.852 295.479C286.15 297.383 285.799 299.915 285.799 303.073C285.799 306.081 286.15 308.5 286.852 310.33C288.13 313.738 290.537 315.443 294.071 315.443C296.577 315.443 298.357 314.766 299.41 313.413C300.462 312.059 301.102 310.305 301.327 308.149H312.268C312.017 311.407 310.839 314.49 308.734 317.398C305.375 322.085 300.4 324.429 293.808 324.429C287.216 324.429 282.365 322.474 279.257 318.563C276.149 314.653 274.595 309.578 274.595 303.336C274.595 296.293 276.312 290.816 279.746 286.906C283.18 282.996 287.917 281.041 293.958 281.041C299.096 281.041 303.295 282.194 306.553 284.5C309.837 286.806 311.779 290.879 312.381 296.719ZM335.673 312.247L344.133 282.019H355.525L341.463 322.323C338.756 330.093 336.613 334.906 335.034 336.761C333.455 338.641 330.297 339.581 325.56 339.581C324.607 339.581 323.843 339.568 323.266 339.543C322.69 339.543 321.825 339.505 320.672 339.43V330.858L322.025 330.933C323.078 330.983 324.081 330.946 325.033 330.82C325.986 330.695 326.788 330.407 327.44 329.956C328.066 329.529 328.643 328.64 329.169 327.286C329.72 325.933 329.946 325.105 329.846 324.805L314.807 282.019H326.725L335.673 312.247ZM396.564 296.719H385.585C385.385 295.19 384.871 293.812 384.044 292.583C382.84 290.929 380.973 290.102 378.442 290.102C374.832 290.102 372.363 291.894 371.035 295.479C370.333 297.383 369.982 299.915 369.982 303.073C369.982 306.081 370.333 308.5 371.035 310.33C372.313 313.738 374.719 315.443 378.254 315.443C380.76 315.443 382.54 314.766 383.592 313.413C384.645 312.059 385.284 310.305 385.51 308.149H396.451C396.2 311.407 395.022 314.49 392.917 317.398C389.558 322.085 384.582 324.429 377.99 324.429C371.398 324.429 366.548 322.474 363.44 318.563C360.332 314.653 358.778 309.578 358.778 303.336C358.778 296.293 360.495 290.816 363.929 286.906C367.363 282.996 372.1 281.041 378.141 281.041C383.279 281.041 387.477 282.194 390.736 284.5C394.019 286.806 395.962 290.879 396.564 296.719ZM403.426 267.581H414.141V323H403.426V267.581ZM458.94 310.969C458.664 313.4 457.398 315.869 455.142 318.375C451.633 322.361 446.72 324.354 440.404 324.354C435.19 324.354 430.591 322.674 426.606 319.315C422.62 315.957 420.628 310.493 420.628 302.923C420.628 295.829 422.42 290.39 426.004 286.605C429.613 282.821 434.288 280.928 440.028 280.928C443.437 280.928 446.507 281.567 449.239 282.846C451.972 284.124 454.227 286.142 456.007 288.899C457.611 291.33 458.651 294.15 459.128 297.358C459.403 299.238 459.516 301.945 459.466 305.479H431.418C431.569 309.59 432.859 312.473 435.291 314.127C436.77 315.155 438.549 315.668 440.63 315.668C442.835 315.668 444.627 315.042 446.006 313.789C446.758 313.112 447.422 312.172 447.999 310.969H458.94ZM448.337 298.411C448.162 295.579 447.297 293.436 445.743 291.982C444.214 290.503 442.309 289.764 440.028 289.764C437.547 289.764 435.617 290.541 434.238 292.095C432.884 293.649 432.032 295.754 431.681 298.411H448.337ZM520.94 286.417C524.248 289.952 525.903 295.14 525.903 301.983C525.903 309.202 524.273 314.703 521.015 318.488C517.781 322.273 513.608 324.166 508.495 324.166C505.236 324.166 502.529 323.351 500.374 321.722C499.196 320.819 498.043 319.503 496.915 317.774V339.129H486.312V282.019H496.576V288.072C497.729 286.292 498.958 284.889 500.261 283.861C502.642 282.031 505.474 281.116 508.758 281.116C513.545 281.116 517.606 282.883 520.94 286.417ZM514.849 302.509C514.849 299.351 514.122 296.556 512.668 294.125C511.239 291.694 508.908 290.478 505.675 290.478C501.79 290.478 499.12 292.32 497.667 296.005C496.915 297.96 496.539 300.441 496.539 303.449C496.539 308.212 497.805 311.558 500.336 313.488C501.84 314.616 503.62 315.18 505.675 315.18C508.658 315.18 510.926 314.027 512.48 311.721C514.059 309.415 514.849 306.344 514.849 302.509ZM567.092 287.207C570.551 291.543 572.28 296.669 572.28 302.584C572.28 308.6 570.551 313.751 567.092 318.037C563.633 322.298 558.381 324.429 551.338 324.429C544.295 324.429 539.044 322.298 535.585 318.037C532.126 313.751 530.396 308.6 530.396 302.584C530.396 296.669 532.126 291.543 535.585 287.207C539.044 282.871 544.295 280.703 551.338 280.703C558.381 280.703 563.633 282.871 567.092 287.207ZM551.301 289.764C548.167 289.764 545.749 290.879 544.044 293.11C542.365 295.316 541.525 298.474 541.525 302.584C541.525 306.695 542.365 309.866 544.044 312.097C545.749 314.327 548.167 315.443 551.301 315.443C554.434 315.443 556.84 314.327 558.519 312.097C560.199 309.866 561.038 306.695 561.038 302.584C561.038 298.474 560.199 295.316 558.519 293.11C556.84 290.879 554.434 289.764 551.301 289.764ZM579.443 267.581H590.158V323H579.443V267.581ZM610.894 282.019V323H600.029V282.019H610.894ZM610.894 267.243V277.131H600.029V267.243H610.894ZM655.993 296.719H645.015C644.814 295.19 644.301 293.812 643.473 292.583C642.27 290.929 640.403 290.102 637.871 290.102C634.262 290.102 631.793 291.894 630.465 295.479C629.763 297.383 629.412 299.915 629.412 303.073C629.412 306.081 629.763 308.5 630.465 310.33C631.743 313.738 634.149 315.443 637.683 315.443C640.19 315.443 641.97 314.766 643.022 313.413C644.075 312.059 644.714 310.305 644.94 308.149H655.881C655.63 311.407 654.452 314.49 652.346 317.398C648.988 322.085 644.012 324.429 637.42 324.429C630.828 324.429 625.978 322.474 622.87 318.563C619.762 314.653 618.208 309.578 618.208 303.336C618.208 296.293 619.925 290.816 623.359 286.906C626.793 282.996 631.53 281.041 637.571 281.041C642.709 281.041 646.907 282.194 650.166 284.5C653.449 286.806 655.392 290.879 655.993 296.719ZM679.286 312.247L687.745 282.019H699.138L685.076 322.323C682.369 330.093 680.226 334.906 678.647 336.761C677.068 338.641 673.909 339.581 669.172 339.581C668.22 339.581 667.455 339.568 666.879 339.543C666.302 339.543 665.437 339.505 664.284 339.43V330.858L665.638 330.933C666.691 330.983 667.693 330.946 668.646 330.82C669.598 330.695 670.4 330.407 671.052 329.956C671.679 329.529 672.255 328.64 672.782 327.286C673.333 325.933 673.559 325.105 673.458 324.805L658.419 282.019H670.338L679.286 312.247ZM745.986 291.907C741.674 291.907 738.779 293.31 737.301 296.118C736.473 297.697 736.06 300.128 736.06 303.412V323H725.269V282.019H735.496V289.162C737.15 286.43 738.591 284.563 739.82 283.56C741.825 281.881 744.432 281.041 747.64 281.041C747.84 281.041 748.003 281.054 748.129 281.079C748.279 281.079 748.592 281.091 749.069 281.116V292.095C748.392 292.02 747.79 291.969 747.264 291.944C746.738 291.919 746.312 291.907 745.986 291.907ZM789.694 310.969C789.418 313.4 788.152 315.869 785.896 318.375C782.387 322.361 777.474 324.354 771.158 324.354C765.945 324.354 761.345 322.674 757.36 319.315C753.374 315.957 751.382 310.493 751.382 302.923C751.382 295.829 753.174 290.39 756.758 286.605C760.368 282.821 765.042 280.928 770.782 280.928C774.191 280.928 777.261 281.567 779.994 282.846C782.726 284.124 784.981 286.142 786.761 288.899C788.365 291.33 789.405 294.15 789.882 297.358C790.157 299.238 790.27 301.945 790.22 305.479H762.172C762.323 309.59 763.613 312.473 766.045 314.127C767.524 315.155 769.303 315.668 771.384 315.668C773.589 315.668 775.382 315.042 776.76 313.789C777.512 313.112 778.176 312.172 778.753 310.969H789.694ZM779.091 298.411C778.916 295.579 778.051 293.436 776.497 291.982C774.968 290.503 773.063 289.764 770.782 289.764C768.301 289.764 766.371 290.541 764.992 292.095C763.639 293.649 762.786 295.754 762.435 298.411H779.091ZM823.138 339.242V317.924C822.335 319.579 820.957 321.057 819.002 322.361C817.072 323.639 814.427 324.278 811.069 324.278C806.331 324.278 802.296 322.386 798.962 318.601C795.629 314.816 793.962 309.766 793.962 303.449C793.962 296.632 795.629 291.18 798.962 287.094C802.321 283.009 806.457 280.966 811.37 280.966C814.778 280.966 817.536 281.806 819.641 283.485C820.869 284.437 822.122 286.004 823.401 288.185V282.094H833.74V339.242H823.138ZM806.256 309.954C807.66 313.388 810.267 315.104 814.077 315.104C817.761 315.104 820.38 313.525 821.934 310.367C822.937 308.287 823.438 305.655 823.438 302.472C823.438 299.965 823.012 297.722 822.16 295.742C820.631 292.182 817.949 290.403 814.114 290.403C811.407 290.403 809.226 291.443 807.572 293.523C805.943 295.604 805.128 298.762 805.128 302.998C805.128 305.83 805.504 308.149 806.256 309.954ZM869.289 317.21C869.189 317.335 868.939 317.711 868.537 318.338C868.136 318.965 867.66 319.516 867.109 319.992C865.429 321.496 863.8 322.524 862.221 323.075C860.667 323.627 858.837 323.902 856.732 323.902C850.666 323.902 846.58 321.722 844.475 317.36C843.297 314.954 842.708 311.407 842.708 306.72V282.019H853.686V306.72C853.686 309.051 853.962 310.806 854.514 311.984C855.491 314.064 857.409 315.104 860.266 315.104C863.925 315.104 866.432 313.626 867.786 310.668C868.487 309.064 868.838 306.946 868.838 304.314V282.019H879.704V323H869.289V317.21ZM900.327 282.019V323H889.461V282.019H900.327ZM900.327 267.243V277.131H889.461V267.243H900.327ZM930.575 291.907C926.264 291.907 923.369 293.31 921.89 296.118C921.063 297.697 920.649 300.128 920.649 303.412V323H909.859V282.019H920.085V289.162C921.74 286.43 923.181 284.563 924.409 283.56C926.414 281.881 929.021 281.041 932.229 281.041C932.43 281.041 932.593 281.054 932.718 281.079C932.869 281.079 933.182 281.091 933.658 281.116V292.095C932.981 292.02 932.38 291.969 931.853 291.944C931.327 291.919 930.901 291.907 930.575 291.907ZM974.283 310.969C974.007 313.4 972.742 315.869 970.486 318.375C966.977 322.361 962.064 324.354 955.747 324.354C950.534 324.354 945.935 322.674 941.949 319.315C937.964 315.957 935.971 310.493 935.971 302.923C935.971 295.829 937.763 290.39 941.348 286.605C944.957 282.821 949.632 280.928 955.372 280.928C958.78 280.928 961.851 281.567 964.583 282.846C967.315 284.124 969.571 286.142 971.351 288.899C972.955 291.33 973.995 294.15 974.471 297.358C974.747 299.238 974.86 301.945 974.81 305.479H946.762C946.912 309.59 948.203 312.473 950.634 314.127C952.113 315.155 953.893 315.668 955.973 315.668C958.179 315.668 959.971 315.042 961.35 313.789C962.102 313.112 962.766 312.172 963.342 310.969H974.283ZM963.681 298.411C963.505 295.579 962.64 293.436 961.086 291.982C959.557 290.503 957.652 289.764 955.372 289.764C952.89 289.764 950.96 290.541 949.581 292.095C948.228 293.649 947.376 295.754 947.025 298.411H963.681ZM1018.59 267.656V323H1008.18V317.323C1006.65 319.754 1004.91 321.521 1002.95 322.624C1001 323.727 998.566 324.278 995.658 324.278C990.871 324.278 986.835 322.348 983.552 318.488C980.293 314.603 978.664 309.628 978.664 303.562C978.664 296.569 980.268 291.067 983.477 287.057C986.71 283.046 991.021 281.041 996.41 281.041C998.892 281.041 1001.1 281.592 1003.03 282.695C1004.96 283.773 1006.52 285.277 1007.73 287.207V267.656H1018.59ZM989.718 302.772C989.718 306.557 990.47 309.578 991.974 311.833C993.452 314.114 995.708 315.255 998.741 315.255C1001.77 315.255 1004.08 314.127 1005.66 311.871C1007.24 309.615 1008.03 306.695 1008.03 303.111C1008.03 298.098 1006.76 294.514 1004.23 292.358C1002.68 291.055 1000.87 290.403 998.816 290.403C995.683 290.403 993.377 291.593 991.898 293.975C990.445 296.331 989.718 299.263 989.718 302.772Z" fill="white"/>
<ellipse cx="1456" cy="604.759" rx="60" ry="57.7593" fill="#2684FF"/>
<path fill-rule="evenodd" clip-rule="evenodd" d="M1484.13 595.867C1486.93 593.068 1486.93 588.531 1484.13 585.733C1481.33 582.934 1476.8 582.934 1474 585.733L1447.6 612.128L1438.92 601.755C1436.38 598.72 1431.87 598.319 1428.83 600.858C1425.79 603.398 1425.39 607.917 1427.93 610.952L1440.8 626.329C1441.83 627.557 1443.18 628.355 1444.63 628.7C1447.28 629.939 1450.54 629.463 1452.73 627.272L1484.13 595.867Z" fill="white"/>
<path d="M1484.13 595.867L1482.43 594.161L1482.43 594.161L1484.13 595.867ZM1474 585.733L1472.29 584.027L1472.29 584.027L1474 585.733ZM1447.6 612.128L1445.75 613.676L1447.45 615.697L1449.31 613.834L1447.6 612.128ZM1438.92 601.755L1437.07 603.303L1437.07 603.303L1438.92 601.755ZM1427.93 610.952L1429.78 609.405L1429.78 609.405L1427.93 610.952ZM1440.8 626.329L1442.65 624.781L1442.65 624.781L1440.8 626.329ZM1444.63 628.7L1445.65 626.514L1445.42 626.41L1445.19 626.354L1444.63 628.7ZM1452.73 627.272L1451.02 625.567L1451.02 625.567L1452.73 627.272ZM1482.43 587.438C1484.28 589.295 1484.28 592.305 1482.43 594.161L1485.84 597.572C1489.58 593.832 1489.58 587.768 1485.84 584.027L1482.43 587.438ZM1475.7 587.438C1477.56 585.582 1480.57 585.582 1482.43 587.438L1485.84 584.027C1482.1 580.287 1476.03 580.287 1472.29 584.027L1475.7 587.438ZM1449.31 613.834L1475.7 587.438L1472.29 584.027L1445.9 610.423L1449.31 613.834ZM1437.07 603.303L1445.75 613.676L1449.45 610.58L1440.77 600.208L1437.07 603.303ZM1430.38 602.708C1432.39 601.023 1435.39 601.29 1437.07 603.303L1440.77 600.208C1437.38 596.151 1431.34 595.614 1427.28 599.008L1430.38 602.708ZM1429.78 609.405C1428.1 607.391 1428.36 604.393 1430.38 602.708L1427.28 599.008C1423.23 602.403 1422.69 608.443 1426.08 612.5L1429.78 609.405ZM1442.65 624.781L1429.78 609.405L1426.08 612.5L1438.95 627.876L1442.65 624.781ZM1445.19 626.354C1444.23 626.125 1443.33 625.598 1442.65 624.781L1438.95 627.876C1440.32 629.517 1442.13 630.584 1444.07 631.046L1445.19 626.354ZM1451.02 625.567C1449.57 627.018 1447.41 627.338 1445.65 626.514L1443.61 630.885C1447.15 632.54 1451.5 631.909 1454.43 628.978L1451.02 625.567ZM1482.43 594.161L1451.02 625.567L1454.43 628.978L1485.84 597.572L1482.43 594.161Z" fill="white"/>
<path d="M145.921 608.075L147.607 606.673L149.293 605.341L150.979 604.09L152.665 602.931L154.351 601.875L156.037 600.931L157.722 600.108L159.408 599.412L161.094 598.851L162.78 598.428L164.466 598.148L166.152 598.013L167.838 598.024L169.523 598.182L171.209 598.484L172.895 598.929L174.581 599.512L176.267 600.227L177.953 601.07L179.639 602.032L181.324 603.104L183.01 604.278L184.696 605.542L186.382 606.886L188.068 608.297L189.754 609.764L191.44 611.272L193.126 612.809L194.811 614.362L196.497 615.915L198.183 617.456L199.869 618.97L201.555 620.445L203.241 621.868L204.927 623.224L206.612 624.504L208.298 625.694L209.984 626.785L211.67 627.768L213.356 628.632L215.042 629.371L216.728 629.978L218.413 630.447L220.099 630.775L221.785 630.959L223.471 630.997L225.157 630.888L226.843 630.633L228.529 630.236L230.214 629.698L231.9 629.026L233.586 628.225L235.272 627.302L236.958 626.266L238.644 625.125L240.33 623.889L242.016 622.571L243.701 621.181L245.387 619.731L247.073 618.235L248.759 616.706L250.445 615.157L252.131 613.603L253.817 612.056L255.502 610.531L257.188 609.042L258.874 607.6L260.56 606.22L262.246 604.914L263.932 603.693L265.618 602.567L267.303 601.548L268.989 600.643L270.675 599.862L272.361 599.21L274.047 598.694L275.733 598.319L277.419 598.087L279.104 598L280.79 598.06L282.476 598.267L284.162 598.617L285.848 599.108L287.534 599.736L289.22 600.495L290.905 601.378L292.591 602.377L294.277 603.485L295.963 604.69L297.649 605.982L299.335 607.349L301.021 608.781L302.707 610.263L304.392 611.782L306.078 613.326L307.764 614.88L309.45 616.431L311.136 617.964L312.822 619.467L314.508 620.926L316.193 622.328L317.879 623.66L319.565 624.911L321.251 626.069L322.937 627.125L324.623 628.069L326.309 628.893L327.994 629.588L329.68 630.15L331.366 630.573L333.052 630.853L334.738 630.988L336.424 630.976L338.11 630.819L339.795 630.516L341.481 630.072L343.167 629.489L344.853 628.773L346.539 627.931L348.225 626.969L349.911 625.896L351.597 624.723L353.282 623.459L354.968 622.115L356.654 620.703L358.34 619.237L360.026 617.728L361.712 616.191L363.398 614.639L365.083 613.086L366.769 611.545L368.455 610.03L370.141 608.555L371.827 607.133L373.513 605.776L375.199 604.497L376.884 603.306L378.57 602.215L380.256 601.233L381.942 600.369L383.628 599.63L385.314 599.023L387 598.553L388.685 598.225L390.371 598.042L392.057 598.004L393.743 598.113L395.429 598.367L397.115 598.765L398.801 599.302L400.487 599.974L402.172 600.775L403.858 601.698L405.544 602.735L407.23 603.876L408.916 605.111L410.602 606.43L412.288 607.82L413.973 609.27L415.659 610.766L417.345 612.295L419.031 613.843L420.717 615.398L422.403 616.944L424.089 618.469L425.774 619.959L427.46 621.4L429.146 622.78L430.832 624.087L432.518 625.308L434.204 626.433L435.89 627.453L437.575 628.357L439.261 629.139L440.947 629.791L442.633 630.306L444.319 630.682L446.005 630.914L447.691 631L449.376 630.94L451.062 630.734L452.748 630.384L454.434 629.893L456.12 629.265L457.806 628.506L459.492 627.623L461.178 626.623L462.863 625.516L464.549 624.311L466.235 623.019L467.921 621.651L469.607 620.22L471.293 618.738L472.979 617.218L474.664 615.675L476.35 614.121L478.036 612.57L479.722 611.036L481.408 609.533L483.094 608.075L484.78 606.673L486.465 605.341L488.151 604.09L489.837 602.931L491.523 601.875L493.209 600.931L494.895 600.108L496.581 599.412L498.266 598.851L499.952 598.428L501.638 598.148L503.324 598.013L505.01 598.024L506.696 598.182L508.382 598.484L510.068 598.929L511.753 599.512L513.439 600.227L515.125 601.07L516.811 602.032L518.497 603.104L520.183 604.278L521.869 605.542L523.554 606.886L525.24 608.297L526.926 609.764L528.612 611.272L530.298 612.809L531.984 614.362L533.67 615.915L535.355 617.456L537.041 618.97L538.727 620.445L540.413 621.868L542.099 623.224L543.785 624.504L545.471 625.694L547.156 626.785L548.842 627.768L550.528 628.632L552.214 629.371L553.9 629.978L555.586 630.447L557.272 630.775L558.958 630.959L560.643 630.997L562.329 630.888L564.015 630.633L565.701 630.236L567.387 629.698L569.073 629.026L570.759 628.225L572.444 627.302L574.13 626.266L575.816 625.125L577.502 623.889L579.188 622.571L580.874 621.181L582.56 619.731L584.245 618.235L585.931 616.706L587.617 615.157L589.303 613.603L590.989 612.056L592.675 610.531L594.361 609.042L596.046 607.6L597.732 606.22L599.418 604.914L601.104 603.693L602.79 602.567L604.476 601.548L606.162 600.643L607.847 599.862L609.533 599.21L611.219 598.694L612.905 598.319L614.591 598.087L616.277 598L617.963 598.06L619.649 598.267L621.334 598.617L623.02 599.108L624.706 599.736L626.392 600.495L628.078 601.378L629.764 602.377L631.45 603.485L633.135 604.69L634.821 605.982L636.507 607.349L638.193 608.781L639.879 610.263L641.565 611.782L643.251 613.326L644.936 614.88L646.622 616.431L648.308 617.964L649.994 619.467L651.68 620.926L653.366 622.328L655.052 623.66L656.737 624.911L658.423 626.069L660.109 627.125L661.795 628.069L663.481 628.893L665.167 629.588L666.853 630.15L668.539 630.573L670.224 630.853L671.91 630.988L673.596 630.976L675.282 630.819L676.968 630.516L678.654 630.072L680.34 629.489L682.025 628.773L683.711 627.931L685.397 626.969L687.083 625.896L688.769 624.723L690.455 623.459L692.141 622.115L693.826 620.703L695.512 619.237L697.198 617.728L698.884 616.191L700.57 614.639L702.256 613.086L703.942 611.545L705.627 610.03L707.313 608.555L708.999 607.133L710.685 605.776L712.371 604.497L714.057 603.306L715.743 602.215L717.429 601.233L719.114 600.369L720.8 599.63L722.486 599.023L724.172 598.553L725.858 598.225L727.544 598.042L729.23 598.004L730.915 598.113L732.601 598.367L734.287 598.765L735.973 599.302L737.659 599.974L739.345 600.775L741.031 601.698L742.716 602.735L744.402 603.876L746.088 605.111L747.774 606.43L749.46 607.82L751.146 609.27L752.832 610.766L754.517 612.295L756.203 613.843L757.889 615.398L759.575 616.944L761.261 618.469L762.947 619.959L764.633 621.4L766.318 622.78L768.004 624.087L769.69 625.308L771.376 626.433L773.062 627.453L774.748 628.357L776.434 629.139L778.12 629.791L779.805 630.306L781.491 630.682L783.177 630.914L784.863 631L786.549 630.94L788.235 630.734L789.921 630.384L791.606 629.893L793.292 629.265L794.978 628.506L796.664 627.623L798.35 626.623L800.036 625.516L801.722 624.311L803.407 623.019L805.093 621.651L806.779 620.22L808.465 618.738L810.151 617.218L811.837 615.675L813.523 614.121L815.208 612.57L816.894 611.036L818.58 609.533" stroke="#2684FF" stroke-width="24" stroke-miterlimit="10" stroke-linecap="round" stroke-linejoin="round"/>
<path d="M259 608.075L260.686 606.673L262.372 605.341L264.058 604.09L265.743 602.931L267.429 601.875L269.115 600.931L270.801 600.108L272.487 599.412L274.173 598.851L275.859 598.428L277.544 598.148L279.23 598.013L280.916 598.024L282.602 598.182L284.288 598.484L285.974 598.929L287.66 599.512L289.346 600.227L291.031 601.07L292.717 602.032L294.403 603.104L296.089 604.278L297.775 605.542L299.461 606.886L301.147 608.297L302.832 609.764L304.518 611.272L306.204 612.809L307.89 614.362L309.576 615.915L311.262 617.456L312.948 618.97L314.633 620.445L316.319 621.868L318.005 623.224L319.691 624.504L321.377 625.694L323.063 626.785L324.749 627.768L326.434 628.632L328.12 629.371L329.806 629.978L331.492 630.447L333.178 630.775L334.864 630.959L336.55 630.997L338.236 630.888L339.921 630.633L341.607 630.236L343.293 629.698L344.979 629.026L346.665 628.225L348.351 627.302L350.037 626.266L351.722 625.125L353.408 623.889L355.094 622.571L356.78 621.181L358.466 619.731L360.152 618.235L361.838 616.706L363.523 615.157L365.209 613.603L366.895 612.056L368.581 610.531L370.267 609.042L371.953 607.6L373.639 606.22L375.324 604.914L377.01 603.693L378.696 602.567L380.382 601.548L382.068 600.643L383.754 599.862L385.44 599.21L387.125 598.694L388.811 598.319L390.497 598.087L392.183 598L393.869 598.06L395.555 598.267L397.241 598.617L398.927 599.108L400.612 599.736L402.298 600.495L403.984 601.378L405.67 602.377L407.356 603.485L409.042 604.69L410.728 605.982L412.413 607.349L414.099 608.781L415.785 610.263L417.471 611.782L419.157 613.326L420.843 614.88L422.529 616.431L424.214 617.964L425.9 619.467L427.586 620.926L429.272 622.328L430.958 623.66L432.644 624.911L434.33 626.069L436.015 627.125L437.701 628.069L439.387 628.893L441.073 629.588L442.759 630.15L444.445 630.573L446.131 630.853L447.817 630.988L449.502 630.976L451.188 630.819L452.874 630.516L454.56 630.072L456.246 629.489L457.932 628.773L459.618 627.931L461.303 626.969L462.989 625.896L464.675 624.723L466.361 623.459L468.047 622.115L469.733 620.703L471.419 619.237L473.104 617.728L474.79 616.191L476.476 614.639L478.162 613.086L479.848 611.545L481.534 610.03L483.22 608.555L484.905 607.133L486.591 605.776L488.277 604.497L489.963 603.306L491.649 602.215L493.335 601.233L495.021 600.369L496.707 599.63L498.392 599.023L500.078 598.553L501.764 598.225L503.45 598.042L505.136 598.004L506.822 598.113L508.508 598.367L510.193 598.765L511.879 599.302L513.565 599.974L515.251 600.775L516.937 601.698L518.623 602.735L520.309 603.876L521.994 605.111L523.68 606.43L525.366 607.82L527.052 609.27L528.738 610.766L530.424 612.295L532.11 613.843L533.795 615.398L535.481 616.944L537.167 618.469L538.853 619.959L540.539 621.4L542.225 622.78L543.911 624.087L545.596 625.308L547.282 626.433L548.968 627.453L550.654 628.357L552.34 629.139L554.026 629.791L555.712 630.306L557.398 630.682L559.083 630.914L560.769 631L562.455 630.94L564.141 630.734L565.827 630.384L567.513 629.893L569.199 629.265L570.884 628.506L572.57 627.623L574.256 626.623L575.942 625.516L577.628 624.311L579.314 623.019L581 621.651L582.685 620.22L584.371 618.738L586.057 617.218L587.743 615.675L589.429 614.121L591.115 612.57L592.801 611.036L594.486 609.533L596.172 608.075L597.858 606.673L599.544 605.341L601.23 604.09L602.916 602.931L604.602 601.875L606.288 600.931L607.973 600.108L609.659 599.412L611.345 598.851L613.031 598.428L614.717 598.148L616.403 598.013L618.089 598.024L619.774 598.182L621.46 598.484L623.146 598.929L624.832 599.512L626.518 600.227L628.204 601.07L629.89 602.032L631.575 603.104L633.261 604.278L634.947 605.542L636.633 606.886L638.319 608.297L640.005 609.764L641.691 611.272L643.376 612.809L645.062 614.362L646.748 615.915L648.434 617.456L650.12 618.97L651.806 620.445L653.492 621.868L655.178 623.224L656.863 624.504L658.549 625.694L660.235 626.785L661.921 627.768L663.607 628.632L665.293 629.371L666.979 629.978L668.664 630.447L670.35 630.775L672.036 630.959L673.722 630.997L675.408 630.888L677.094 630.633L678.78 630.236L680.465 629.698L682.151 629.026L683.837 628.225L685.523 627.302L687.209 626.266L688.895 625.125L690.581 623.889L692.266 622.571L693.952 621.181L695.638 619.731L697.324 618.235L699.01 616.706L700.696 615.157L702.382 613.603L704.067 612.056L705.753 610.531L707.439 609.042L709.125 607.6L710.811 606.22L712.497 604.914L714.183 603.693L715.869 602.567L717.554 601.548L719.24 600.643L720.926 599.862L722.612 599.21L724.298 598.694L725.984 598.319L727.67 598.087L729.355 598L731.041 598.06L732.727 598.267L734.413 598.617L736.099 599.108L737.785 599.736L739.471 600.495L741.156 601.378L742.842 602.377L744.528 603.485L746.214 604.69L747.9 605.982L749.586 607.349L751.272 608.781L752.957 610.263L754.643 611.782L756.329 613.326L758.015 614.88L759.701 616.431L761.387 617.964L763.073 619.467L764.759 620.926L766.444 622.328L768.13 623.66L769.816 624.911L771.502 626.069L773.188 627.125L774.874 628.069L776.56 628.893L778.245 629.588L779.931 630.15L781.617 630.573L783.303 630.853L784.989 630.988L786.675 630.976L788.361 630.819L790.046 630.516L791.732 630.072L793.418 629.489L795.104 628.773L796.79 627.931L798.476 626.969L800.162 625.896L801.847 624.723L803.533 623.459L805.219 622.115L806.905 620.703L808.591 619.237L810.277 617.728L811.963 616.191L813.649 614.639L815.334 613.086L817.02 611.545L818.706 610.03L820.392 608.555L822.078 607.133L823.764 605.776L825.45 604.497L827.135 603.306L828.821 602.215L830.507 601.233L832.193 600.369L833.879 599.63L835.565 599.023L837.251 598.553L838.936 598.225L840.622 598.042L842.308 598.004L843.994 598.113L845.68 598.367L847.366 598.765L849.052 599.302L850.737 599.974L852.423 600.775L854.109 601.698L855.795 602.735L857.481 603.876L859.167 605.111L860.853 606.43L862.538 607.82L864.224 609.27L865.91 610.766L867.596 612.295L869.282 613.843L870.968 615.398L872.654 616.944L874.34 618.469L876.025 619.959L877.711 621.4L879.397 622.78L881.083 624.087L882.769 625.308L884.455 626.433L886.141 627.453L887.826 628.357L889.512 629.139L891.198 629.791L892.884 630.306L894.57 630.682L896.256 630.914L897.942 631L899.627 630.94L901.313 630.734L902.999 630.384L904.685 629.893L906.371 629.265L908.057 628.506L909.743 627.623L911.428 626.623L913.114 625.516L914.8 624.311L916.486 623.019L918.172 621.651L919.858 620.22L921.544 618.738L923.23 617.218L924.915 615.675L926.601 614.121L928.287 612.57L929.973 611.036L931.659 609.533" stroke="#2684FF" stroke-width="24" stroke-miterlimit="10" stroke-linecap="round" stroke-linejoin="round"/>
<path d="M187.682 551H176.102L153.468 511.635V551H142.677V495.581H154.821L176.891 534.269V495.581H187.682V551ZM231.051 515.207C234.51 519.543 236.24 524.669 236.24 530.584C236.24 536.6 234.51 541.751 231.051 546.037C227.592 550.298 222.341 552.429 215.298 552.429C208.255 552.429 203.003 550.298 199.544 546.037C196.085 541.751 194.356 536.6 194.356 530.584C194.356 524.669 196.085 519.543 199.544 515.207C203.003 510.871 208.255 508.703 215.298 508.703C222.341 508.703 227.592 510.871 231.051 515.207ZM215.26 517.764C212.127 517.764 209.708 518.879 208.004 521.11C206.325 523.316 205.485 526.474 205.485 530.584C205.485 534.695 206.325 537.866 208.004 540.097C209.708 542.327 212.127 543.443 215.26 543.443C218.393 543.443 220.8 542.327 222.479 540.097C224.158 537.866 224.998 534.695 224.998 530.584C224.998 526.474 224.158 523.316 222.479 521.11C220.8 518.879 218.393 517.764 215.26 517.764ZM288.239 529.269H276.283V551H264.966V495.581H292.149C296.034 495.656 299.017 496.132 301.097 497.01C303.203 497.887 304.982 499.178 306.436 500.882C307.639 502.286 308.592 503.84 309.294 505.544C309.995 507.249 310.346 509.191 310.346 511.372C310.346 514.004 309.682 516.598 308.354 519.155C307.025 521.686 304.832 523.479 301.774 524.531C304.331 525.559 306.135 527.025 307.188 528.93C308.266 530.81 308.805 533.693 308.805 537.578V541.3C308.805 543.831 308.905 545.548 309.106 546.451C309.406 547.879 310.108 548.932 311.211 549.609V551H298.465C298.114 549.772 297.864 548.782 297.713 548.03C297.413 546.476 297.25 544.884 297.225 543.255L297.149 538.104C297.099 534.57 296.448 532.214 295.194 531.036C293.966 529.858 291.648 529.269 288.239 529.269ZM295.27 519.192C297.576 518.14 298.729 516.059 298.729 512.951C298.729 509.592 297.613 507.337 295.382 506.184C294.129 505.532 292.249 505.206 289.743 505.206H276.283V520.095H289.404C292.011 520.095 293.966 519.794 295.27 519.192ZM318.675 495.581H330.18V551H318.675V495.581ZM350.051 503.702C350.051 507.487 349.123 510.47 347.269 512.65C345.439 514.831 342.857 516.247 339.524 516.899V512.951C341.98 512.174 343.672 510.858 344.599 509.003C345.101 507.901 345.314 506.785 345.238 505.657H339.336V495.769H350.051V503.702ZM385.412 511.898C388.621 513.954 390.463 517.488 390.939 522.501H380.224C380.073 521.122 379.685 520.032 379.058 519.23C377.88 517.776 375.875 517.049 373.043 517.049C370.712 517.049 369.045 517.413 368.042 518.14C367.065 518.867 366.576 519.719 366.576 520.696C366.576 521.924 367.102 522.814 368.155 523.366C369.208 523.942 372.93 524.932 379.321 526.336C383.582 527.339 386.778 528.855 388.909 530.885C391.014 532.941 392.067 535.51 392.067 538.593C392.067 542.653 390.551 545.974 387.518 548.556C384.51 551.113 379.848 552.391 373.531 552.391C367.09 552.391 362.327 551.038 359.244 548.331C356.186 545.598 354.657 542.127 354.657 537.916H365.523C365.749 539.821 366.237 541.174 366.989 541.977C368.318 543.405 370.774 544.12 374.359 544.12C376.464 544.12 378.131 543.806 379.359 543.18C380.612 542.553 381.239 541.613 381.239 540.36C381.239 539.157 380.738 538.242 379.735 537.615C378.732 536.989 375.01 535.911 368.568 534.382C363.931 533.229 360.66 531.788 358.755 530.058C356.851 528.354 355.898 525.897 355.898 522.689C355.898 518.904 357.377 515.658 360.335 512.951C363.317 510.219 367.503 508.853 372.892 508.853C378.005 508.853 382.179 509.868 385.412 511.898ZM430.944 510.019V551H420.079V510.019H430.944ZM430.944 495.243V505.131H420.079V495.243H430.944ZM459.877 517.952C456.242 517.952 453.748 519.493 452.395 522.576C451.693 524.205 451.342 526.286 451.342 528.817V551H440.664V510.094H451.004V516.072C452.382 513.966 453.686 512.45 454.914 511.522C457.119 509.868 459.914 509.041 463.298 509.041C467.534 509.041 470.993 510.156 473.675 512.387C476.382 514.593 477.736 518.265 477.736 523.403V551H466.757V526.073C466.757 523.917 466.469 522.263 465.892 521.11C464.84 519.004 462.834 517.952 459.877 517.952ZM526.313 543.368V551.376L521.238 551.564C516.174 551.739 512.715 550.862 510.861 548.932C509.657 547.704 509.056 545.812 509.056 543.255V518.027H503.341V510.395H509.056V498.965H519.658V510.395H526.313V518.027H519.658V539.683C519.658 541.362 519.871 542.415 520.298 542.841C520.724 543.242 522.027 543.443 524.208 543.443C524.534 543.443 524.872 543.443 525.223 543.443C525.599 543.418 525.962 543.393 526.313 543.368ZM569.457 526.938V551H558.516V526.073C558.516 523.867 558.14 522.087 557.388 520.734C556.411 518.829 554.556 517.876 551.824 517.876C548.992 517.876 546.836 518.829 545.357 520.734C543.903 522.614 543.177 525.308 543.177 528.817V551H532.499V495.769H543.177V515.357C544.731 512.976 546.523 511.322 548.553 510.395C550.608 509.442 552.764 508.966 555.02 508.966C557.551 508.966 559.845 509.404 561.9 510.282C563.981 511.159 565.685 512.5 567.013 514.305C568.141 515.834 568.831 517.413 569.081 519.042C569.332 520.646 569.457 523.278 569.457 526.938ZM589.742 510.019V551H578.876V510.019H589.742ZM589.742 495.243V505.131H578.876V495.243H589.742ZM627.622 511.898C630.831 513.954 632.673 517.488 633.149 522.501H622.434C622.283 521.122 621.895 520.032 621.268 519.23C620.09 517.776 618.085 517.049 615.253 517.049C612.922 517.049 611.255 517.413 610.252 518.14C609.275 518.867 608.786 519.719 608.786 520.696C608.786 521.924 609.312 522.814 610.365 523.366C611.418 523.942 615.14 524.932 621.532 526.336C625.793 527.339 628.988 528.855 631.119 530.885C633.224 532.941 634.277 535.51 634.277 538.593C634.277 542.653 632.761 545.974 629.728 548.556C626.72 551.113 622.058 552.391 615.741 552.391C609.3 552.391 604.537 551.038 601.454 548.331C598.396 545.598 596.867 542.127 596.867 537.916H607.733C607.959 539.821 608.448 541.174 609.199 541.977C610.528 543.405 612.984 544.12 616.569 544.12C618.674 544.12 620.341 543.806 621.569 543.18C622.822 542.553 623.449 541.613 623.449 540.36C623.449 539.157 622.948 538.242 621.945 537.615C620.942 536.989 617.22 535.911 610.779 534.382C606.142 533.229 602.871 531.788 600.966 530.058C599.061 528.354 598.108 525.897 598.108 522.689C598.108 518.904 599.587 515.658 602.545 512.951C605.527 510.219 609.713 508.853 615.102 508.853C620.216 508.853 624.389 509.868 627.622 511.898ZM682.742 519.907C678.431 519.907 675.536 521.31 674.057 524.118C673.23 525.697 672.816 528.128 672.816 531.412V551H662.026V510.019H672.252V517.162C673.907 514.43 675.348 512.563 676.576 511.56C678.581 509.881 681.188 509.041 684.396 509.041C684.597 509.041 684.76 509.054 684.885 509.079C685.035 509.079 685.349 509.091 685.825 509.116V520.095C685.148 520.02 684.547 519.969 684.02 519.944C683.494 519.919 683.068 519.907 682.742 519.907ZM726.45 538.969C726.174 541.4 724.909 543.869 722.653 546.375C719.144 550.361 714.231 552.354 707.914 552.354C702.701 552.354 698.101 550.674 694.116 547.315C690.131 543.957 688.138 538.493 688.138 530.923C688.138 523.829 689.93 518.39 693.514 514.605C697.124 510.821 701.798 508.928 707.538 508.928C710.947 508.928 714.018 509.567 716.75 510.846C719.482 512.124 721.738 514.142 723.517 516.899C725.122 519.33 726.162 522.15 726.638 525.358C726.914 527.238 727.027 529.945 726.976 533.479H698.929C699.079 537.59 700.37 540.473 702.801 542.127C704.28 543.155 706.06 543.668 708.14 543.668C710.346 543.668 712.138 543.042 713.516 541.789C714.268 541.112 714.933 540.172 715.509 538.969H726.45ZM715.847 526.411C715.672 523.579 714.807 521.436 713.253 519.982C711.724 518.503 709.819 517.764 707.538 517.764C705.057 517.764 703.127 518.541 701.748 520.095C700.395 521.649 699.543 523.754 699.192 526.411H715.847ZM745.043 558.181C746.196 559.159 748.138 559.647 750.87 559.647C754.731 559.647 757.312 558.357 758.616 555.775C759.468 554.121 759.894 551.338 759.894 547.428V544.796C758.866 546.551 757.763 547.867 756.585 548.744C754.455 550.373 751.685 551.188 748.276 551.188C743.013 551.188 738.802 549.346 735.643 545.661C732.51 541.951 730.944 536.938 730.944 530.622C730.944 524.531 732.46 519.418 735.493 515.282C738.526 511.121 742.825 509.041 748.389 509.041C750.444 509.041 752.237 509.354 753.766 509.981C756.372 511.059 758.478 513.039 760.082 515.921V510.019H770.496V548.895C770.496 554.183 769.607 558.169 767.827 560.851C764.769 565.463 758.904 567.769 750.231 567.769C744.993 567.769 740.719 566.741 737.411 564.686C734.102 562.63 732.272 559.56 731.921 555.474H743.577C743.877 556.727 744.366 557.63 745.043 558.181ZM743.238 537.014C744.692 540.473 747.299 542.202 751.058 542.202C753.565 542.202 755.683 541.262 757.412 539.382C759.142 537.477 760.007 534.457 760.007 530.321C760.007 526.436 759.18 523.479 757.525 521.448C755.896 519.418 753.703 518.403 750.946 518.403C747.186 518.403 744.592 520.17 743.163 523.704C742.411 525.584 742.035 527.903 742.035 530.66C742.035 533.041 742.436 535.159 743.238 537.014ZM790.781 510.019V551H779.915V510.019H790.781ZM790.781 495.243V505.131H779.915V495.243H790.781ZM834.602 515.207C838.061 519.543 839.79 524.669 839.79 530.584C839.79 536.6 838.061 541.751 834.602 546.037C831.143 550.298 825.892 552.429 818.849 552.429C811.805 552.429 806.554 550.298 803.095 546.037C799.636 541.751 797.907 536.6 797.907 530.584C797.907 524.669 799.636 519.543 803.095 515.207C806.554 510.871 811.805 508.703 818.849 508.703C825.892 508.703 831.143 510.871 834.602 515.207ZM818.811 517.764C815.678 517.764 813.259 518.879 811.555 521.11C809.875 523.316 809.036 526.474 809.036 530.584C809.036 534.695 809.875 537.866 811.555 540.097C813.259 542.327 815.678 543.443 818.811 543.443C821.944 543.443 824.35 542.327 826.03 540.097C827.709 537.866 828.549 534.695 828.549 530.584C828.549 526.474 827.709 523.316 826.03 521.11C824.35 518.879 821.944 517.764 818.811 517.764ZM866.016 517.952C862.381 517.952 859.887 519.493 858.534 522.576C857.832 524.205 857.481 526.286 857.481 528.817V551H846.803V510.094H857.143V516.072C858.521 513.966 859.824 512.45 861.053 511.522C863.258 509.868 866.053 509.041 869.437 509.041C873.673 509.041 877.132 510.156 879.814 512.387C882.521 514.593 883.874 518.265 883.874 523.403V551H872.896V526.073C872.896 523.917 872.608 522.263 872.031 521.11C870.978 519.004 868.973 517.952 866.016 517.952Z" fill="white"/>
<path d="M141.435 381.075L143.121 379.673L144.807 378.341L146.493 377.09L148.179 375.931L149.864 374.875L151.55 373.931L153.236 373.108L154.922 372.412L156.608 371.851L158.294 371.428L159.98 371.148L161.665 371.013L163.351 371.024L165.037 371.182L166.723 371.484L168.409 371.929L170.095 372.512L171.781 373.227L173.466 374.07L175.152 375.032L176.838 376.104L178.524 377.278L180.21 378.542L181.896 379.886L183.582 381.297L185.267 382.764L186.953 384.272L188.639 385.809L190.325 387.362L192.011 388.915L193.697 390.456L195.383 391.97L197.068 393.445L198.754 394.868L200.44 396.224L202.126 397.504L203.812 398.694L205.498 399.785L207.184 400.768L208.87 401.632L210.555 402.371L212.241 402.978L213.927 403.447L215.613 403.775L217.299 403.959L218.985 403.997L220.671 403.888L222.356 403.633L224.042 403.236L225.728 402.698L227.414 402.026L229.1 401.225L230.786 400.302L232.472 399.266L234.157 398.125L235.843 396.889L237.529 395.571L239.215 394.181L240.901 392.731L242.587 391.235L244.273 389.706L245.958 388.157L247.644 386.603L249.33 385.056L251.016 383.531L252.702 382.042L254.388 380.6L256.074 379.22L257.76 377.914L259.445 376.693L261.131 375.567L262.817 374.548L264.503 373.643L266.189 372.862L267.875 372.21L269.561 371.694L271.246 371.319L272.932 371.087L274.618 371L276.304 371.06L277.99 371.267L279.676 371.617L281.362 372.108L283.047 372.736L284.733 373.495L286.419 374.378L288.105 375.377L289.791 376.485L291.477 377.69L293.163 378.982L294.848 380.349L296.534 381.781L298.22 383.263L299.906 384.782L301.592 386.326L303.278 387.88L304.964 389.431L306.65 390.964L308.335 392.467L310.021 393.926L311.707 395.328L313.393 396.66L315.079 397.911L316.765 399.069L318.451 400.125L320.136 401.069L321.822 401.893L323.508 402.588L325.194 403.15L326.88 403.573L328.566 403.853L330.252 403.988L331.937 403.976L333.623 403.819L335.309 403.516L336.995 403.072L338.681 402.489L340.367 401.773L342.053 400.931L343.738 399.969L345.424 398.896L347.11 397.723L348.796 396.459L350.482 395.115L352.168 393.703L353.854 392.237L355.539 390.728L357.225 389.191L358.911 387.639L360.597 386.086L362.283 384.545L363.969 383.03L365.655 381.555L367.341 380.133L369.026 378.776L370.712 377.497L372.398 376.306L374.084 375.215L375.77 374.233L377.456 373.369L379.142 372.63L380.827 372.023L382.513 371.553L384.199 371.225L385.885 371.042L387.571 371.004L389.257 371.113L390.943 371.367L392.628 371.765L394.314 372.302L396 372.974L397.686 373.775L399.372 374.698L401.058 375.735L402.744 376.876L404.429 378.111L406.115 379.43L407.801 380.82L409.487 382.27L411.173 383.766L412.859 385.295L414.545 386.843L416.231 388.398L417.916 389.944L419.602 391.469L421.288 392.959L422.974 394.4L424.66 395.78L426.346 397.087L428.032 398.308L429.717 399.433L431.403 400.453L433.089 401.357L434.775 402.139L436.461 402.791L438.147 403.306L439.833 403.682L441.518 403.914L443.204 404L444.89 403.94L446.576 403.734L448.262 403.384L449.948 402.893L451.634 402.265L453.319 401.506L455.005 400.623L456.691 399.623L458.377 398.516L460.063 397.311L461.749 396.019L463.435 394.651L465.121 393.22L466.806 391.738L468.492 390.218L470.178 388.675L471.864 387.121L473.55 385.57L475.236 384.036L476.922 382.533L478.607 381.075L480.293 379.673L481.979 378.341L483.665 377.09L485.351 375.931L487.037 374.875L488.723 373.931L490.408 373.108L492.094 372.412L493.78 371.851L495.466 371.428L497.152 371.148L498.838 371.013L500.524 371.024L502.209 371.182L503.895 371.484L505.581 371.929L507.267 372.512L508.953 373.227L510.639 374.07L512.325 375.032L514.01 376.104L515.696 377.278L517.382 378.542L519.068 379.886L520.754 381.297L522.44 382.764L524.126 384.272L525.812 385.809L527.497 387.362L529.183 388.915L530.869 390.456L532.555 391.97L534.241 393.445L535.927 394.868L537.613 396.224L539.298 397.504L540.984 398.694L542.67 399.785L544.356 400.768L546.042 401.632L547.728 402.371L549.414 402.978L551.099 403.447L552.785 403.775L554.471 403.959L556.157 403.997L557.843 403.888L559.529 403.633L561.215 403.236L562.9 402.698L564.586 402.026L566.272 401.225L567.958 400.302L569.644 399.266L571.33 398.125L573.016 396.889L574.702 395.571L576.387 394.181L578.073 392.731L579.759 391.235L581.445 389.706L583.131 388.157L584.817 386.603L586.503 385.056L588.188 383.531L589.874 382.042L591.56 380.6L593.246 379.22L594.932 377.914L596.618 376.693L598.304 375.567L599.989 374.548L601.675 373.643L603.361 372.862L605.047 372.21L606.733 371.694L608.419 371.319L610.105 371.087L611.79 371L613.476 371.06L615.162 371.267L616.848 371.617L618.534 372.108L620.22 372.736L621.906 373.495L623.592 374.378L625.277 375.377L626.963 376.485L628.649 377.69L630.335 378.982L632.021 380.349L633.707 381.781L635.393 383.263L637.078 384.782L638.764 386.326L640.45 387.88L642.136 389.431L643.822 390.964L645.508 392.467L647.194 393.926L648.879 395.328L650.565 396.66L652.251 397.911L653.937 399.069L655.623 400.125L657.309 401.069L658.995 401.893L660.68 402.588L662.366 403.15L664.052 403.573L665.738 403.853L667.424 403.988L669.11 403.976L670.796 403.819L672.481 403.516L674.167 403.072L675.853 402.489L677.539 401.773L679.225 400.931L680.911 399.969L682.597 398.896L684.283 397.723L685.968 396.459L687.654 395.115L689.34 393.703L691.026 392.237L692.712 390.728L694.398 389.191L696.084 387.639L697.769 386.086L699.455 384.545L701.141 383.03L702.827 381.555L704.513 380.133L706.199 378.776L707.885 377.497L709.57 376.306L711.256 375.215L712.942 374.233L714.628 373.369L716.314 372.63L718 372.023L719.686 371.553L721.371 371.225L723.057 371.042L724.743 371.004L726.429 371.113L728.115 371.367L729.801 371.765L731.487 372.302L733.173 372.974L734.858 373.775L736.544 374.698L738.23 375.735L739.916 376.876L741.602 378.111L743.288 379.43L744.974 380.82L746.659 382.27L748.345 383.766L750.031 385.295L751.717 386.843L753.403 388.398L755.089 389.944L756.775 391.469L758.46 392.959L760.146 394.4L761.832 395.78L763.518 397.087L765.204 398.308L766.89 399.433L768.576 400.453L770.261 401.357L771.947 402.139L773.633 402.791L775.319 403.306L777.005 403.682L778.691 403.914L780.377 404L782.063 403.94L783.748 403.734L785.434 403.384L787.12 402.893L788.806 402.265L790.492 401.506L792.178 400.623L793.864 399.623L795.549 398.516L797.235 397.311L798.921 396.019L800.607 394.651L802.293 393.22L803.979 391.738L805.665 390.218L807.35 388.675L809.036 387.121L810.722 385.57L812.408 384.036L814.094 382.533" stroke="#FFCC17" stroke-width="24" stroke-miterlimit="10" stroke-linecap="round" stroke-linejoin="round"/>
<path d="M365 381.075L366.686 379.673L368.372 378.341L370.058 377.09L371.743 375.931L373.429 374.875L375.115 373.931L376.801 373.108L378.487 372.412L380.173 371.851L381.859 371.428L383.544 371.148L385.23 371.013L386.916 371.024L388.602 371.182L390.288 371.484L391.974 371.929L393.66 372.512L395.346 373.227L397.031 374.07L398.717 375.032L400.403 376.104L402.089 377.278L403.775 378.542L405.461 379.886L407.147 381.297L408.832 382.764L410.518 384.272L412.204 385.809L413.89 387.362L415.576 388.915L417.262 390.456L418.948 391.97L420.633 393.445L422.319 394.868L424.005 396.224L425.691 397.504L427.377 398.694L429.063 399.785L430.749 400.768L432.434 401.632L434.12 402.371L435.806 402.978L437.492 403.447L439.178 403.775L440.864 403.959L442.55 403.997L444.236 403.888L445.921 403.633L447.607 403.236L449.293 402.698L450.979 402.026L452.665 401.225L454.351 400.302L456.037 399.266L457.722 398.125L459.408 396.889L461.094 395.571L462.78 394.181L464.466 392.731L466.152 391.235L467.838 389.706L469.523 388.157L471.209 386.603L472.895 385.056L474.581 383.531L476.267 382.042L477.953 380.6L479.639 379.22L481.324 377.914L483.01 376.693L484.696 375.567L486.382 374.548L488.068 373.643L489.754 372.862L491.44 372.21L493.125 371.694L494.811 371.319L496.497 371.087L498.183 371L499.869 371.06L501.555 371.267L503.241 371.617L504.927 372.108L506.612 372.736L508.298 373.495L509.984 374.378L511.67 375.377L513.356 376.485L515.042 377.69L516.728 378.982L518.413 380.349L520.099 381.781L521.785 383.263L523.471 384.782L525.157 386.326L526.843 387.88L528.529 389.431L530.214 390.964L531.9 392.467L533.586 393.926L535.272 395.328L536.958 396.66L538.644 397.911L540.33 399.069L542.015 400.125L543.701 401.069L545.387 401.893L547.073 402.588L548.759 403.15L550.445 403.573L552.131 403.853L553.817 403.988L555.502 403.976L557.188 403.819L558.874 403.516L560.56 403.072L562.246 402.489L563.932 401.773L565.618 400.931L567.303 399.969L568.989 398.896L570.675 397.723L572.361 396.459L574.047 395.115L575.733 393.703L577.419 392.237L579.104 390.728L580.79 389.191L582.476 387.639L584.162 386.086L585.848 384.545L587.534 383.03L589.22 381.555L590.905 380.133L592.591 378.776L594.277 377.497L595.963 376.306L597.649 375.215L599.335 374.233L601.021 373.369L602.707 372.63L604.392 372.023L606.078 371.553L607.764 371.225L609.45 371.042L611.136 371.004L612.822 371.113L614.508 371.367L616.193 371.765L617.879 372.302L619.565 372.974L621.251 373.775L622.937 374.698L624.623 375.735L626.309 376.876L627.994 378.111L629.68 379.43L631.366 380.82L633.052 382.27L634.738 383.766L636.424 385.295L638.11 386.843L639.795 388.398L641.481 389.944L643.167 391.469L644.853 392.959L646.539 394.4L648.225 395.78L649.911 397.087L651.596 398.308L653.282 399.433L654.968 400.453L656.654 401.357L658.34 402.139L660.026 402.791L661.712 403.306L663.398 403.682L665.083 403.914L666.769 404L668.455 403.94L670.141 403.734L671.827 403.384L673.513 402.893L675.199 402.265L676.884 401.506L678.57 400.623L680.256 399.623L681.942 398.516L683.628 397.311L685.314 396.019L687 394.651L688.685 393.22L690.371 391.738L692.057 390.218L693.743 388.675L695.429 387.121L697.115 385.57L698.801 384.036L700.486 382.533L702.172 381.075L703.858 379.673L705.544 378.341L707.23 377.09L708.916 375.931L710.602 374.875L712.288 373.931L713.973 373.108L715.659 372.412L717.345 371.851L719.031 371.428L720.717 371.148L722.403 371.013L724.089 371.024L725.774 371.182L727.46 371.484L729.146 371.929L730.832 372.512L732.518 373.227L734.204 374.07L735.89 375.032L737.575 376.104L739.261 377.278L740.947 378.542L742.633 379.886L744.319 381.297L746.005 382.764L747.691 384.272L749.376 385.809L751.062 387.362L752.748 388.915L754.434 390.456L756.12 391.97L757.806 393.445L759.492 394.868L761.178 396.224L762.863 397.504L764.549 398.694L766.235 399.785L767.921 400.768L769.607 401.632L771.293 402.371L772.979 402.978L774.664 403.447L776.35 403.775L778.036 403.959L779.722 403.997L781.408 403.888L783.094 403.633L784.78 403.236L786.465 402.698L788.151 402.026L789.837 401.225L791.523 400.302L793.209 399.266L794.895 398.125L796.581 396.889L798.266 395.571L799.952 394.181L801.638 392.731L803.324 391.235L805.01 389.706L806.696 388.157L808.382 386.603L810.067 385.056L811.753 383.531L813.439 382.042L815.125 380.6L816.811 379.22L818.497 377.914L820.183 376.693L821.869 375.567L823.554 374.548L825.24 373.643L826.926 372.862L828.612 372.21L830.298 371.694L831.984 371.319L833.67 371.087L835.355 371L837.041 371.06L838.727 371.267L840.413 371.617L842.099 372.108L843.785 372.736L845.471 373.495L847.156 374.378L848.842 375.377L850.528 376.485L852.214 377.69L853.9 378.982L855.586 380.349L857.272 381.781L858.957 383.263L860.643 384.782L862.329 386.326L864.015 387.88L865.701 389.431L867.387 390.964L869.073 392.467L870.759 393.926L872.444 395.328L874.13 396.66L875.816 397.911L877.502 399.069L879.188 400.125L880.874 401.069L882.56 401.893L884.245 402.588L885.931 403.15L887.617 403.573L889.303 403.853L890.989 403.988L892.675 403.976L894.361 403.819L896.046 403.516L897.732 403.072L899.418 402.489L901.104 401.773L902.79 400.931L904.476 399.969L906.162 398.896L907.847 397.723L909.533 396.459L911.219 395.115L912.905 393.703L914.591 392.237L916.277 390.728L917.963 389.191L919.649 387.639L921.334 386.086L923.02 384.545L924.706 383.03L926.392 381.555L928.078 380.133L929.764 378.776L931.45 377.497L933.135 376.306L934.821 375.215L936.507 374.233L938.193 373.369L939.879 372.63L941.565 372.023L943.251 371.553L944.936 371.225L946.622 371.042L948.308 371.004L949.994 371.113L951.68 371.367L953.366 371.765L955.052 372.302L956.737 372.974L958.423 373.775L960.109 374.698L961.795 375.735L963.481 376.876L965.167 378.111L966.853 379.43L968.538 380.82L970.224 382.27L971.91 383.766L973.596 385.295L975.282 386.843L976.968 388.398L978.654 389.944L980.34 391.469L982.025 392.959L983.711 394.4L985.397 395.78L987.083 397.087L988.769 398.308L990.455 399.433L992.141 400.453L993.826 401.357L995.512 402.139L997.198 402.791L998.884 403.306L1000.57 403.682L1002.26 403.914L1003.94 404L1005.63 403.94L1007.31 403.734L1009 403.384L1010.69 402.893L1012.37 402.265L1014.06 401.506L1015.74 400.623L1017.43 399.623L1019.11 398.516L1020.8 397.311L1022.49 396.019L1024.17 394.651L1025.86 393.22L1027.54 391.738L1029.23 390.218L1030.92 388.675L1032.6 387.121L1034.29 385.57L1035.97 384.036L1037.66 382.533" stroke="#FFCC17" stroke-width="24" stroke-miterlimit="10" stroke-linecap="round" stroke-linejoin="round"/>
<path d="M45.7285 73.8162H79.7142V120L62.7214 113.241L45.7285 120V73.8162Z" fill="#B9B6C4"/>
<g filter="url(#filter0_d_133_1081)">
<ellipse cx="63" cy="61.4253" rx="39" ry="39.4253" fill="white"/>
</g>
<path d="M62.9998 36.25L68.591 53.6456H86.6845L72.0466 64.3967L77.6378 81.7923L62.9998 71.0412L48.3618 81.7923L53.953 64.3967L39.3151 53.6456H57.4086L62.9998 36.25Z" fill="#363148"/>
<path d="M45.7285 312.816H79.7142V359L62.7214 352.241L45.7285 359V312.816Z" fill="#B9B6C4"/>
<g filter="url(#filter1_d_133_1081)">
<ellipse cx="63" cy="300.425" rx="39" ry="39.4253" fill="white"/>
</g>
<path d="M62.9998 275.25L68.591 292.646H86.6845L72.0466 303.397L77.6378 320.792L62.9998 310.041L48.3618 320.792L53.953 303.397L39.3151 292.646H57.4086L62.9998 275.25Z" fill="#363148"/>
<path d="M45.7285 531.816H79.7142V578L62.7214 571.241L45.7285 578V531.816Z" fill="#B9B6C4"/>
<g filter="url(#filter2_d_133_1081)">
<ellipse cx="63" cy="519.425" rx="39" ry="39.4253" fill="white"/>
</g>
<path d="M62.9998 494.25L68.591 511.646H86.6845L72.0466 522.397L77.6378 539.792L62.9998 529.041L48.3618 539.792L53.953 522.397L39.3151 511.646H57.4086L62.9998 494.25Z" fill="#363148"/>
<defs>
<filter id="filter0_d_133_1081" x="20" y="22" width="86" height="86.8506" filterUnits="userSpaceOnUse" color-interpolation-filters="sRGB">
<feFlood flood-opacity="0" result="BackgroundImageFix"/>
<feColorMatrix in="SourceAlpha" type="matrix" values="0 0 0 0 0 0 0 0 0 0 0 0 0 0 0 0 0 0 127 0" result="hardAlpha"/>
<feOffset dy="4"/>
<feGaussianBlur stdDeviation="2"/>
<feComposite in2="hardAlpha" operator="out"/>
<feColorMatrix type="matrix" values="0 0 0 0 0 0 0 0 0 0 0 0 0 0 0 0 0 0 0.07 0"/>
<feBlend mode="normal" in2="BackgroundImageFix" result="effect1_dropShadow_133_1081"/>
<feBlend mode="normal" in="SourceGraphic" in2="effect1_dropShadow_133_1081" result="shape"/>
</filter>
<filter id="filter1_d_133_1081" x="20" y="261" width="86" height="86.8506" filterUnits="userSpaceOnUse" color-interpolation-filters="sRGB">
<feFlood flood-opacity="0" result="BackgroundImageFix"/>
<feColorMatrix in="SourceAlpha" type="matrix" values="0 0 0 0 0 0 0 0 0 0 0 0 0 0 0 0 0 0 127 0" result="hardAlpha"/>
<feOffset dy="4"/>
<feGaussianBlur stdDeviation="2"/>
<feComposite in2="hardAlpha" operator="out"/>
<feColorMatrix type="matrix" values="0 0 0 0 0 0 0 0 0 0 0 0 0 0 0 0 0 0 0.07 0"/>
<feBlend mode="normal" in2="BackgroundImageFix" result="effect1_dropShadow_133_1081"/>
<feBlend mode="normal" in="SourceGraphic" in2="effect1_dropShadow_133_1081" result="shape"/>
</filter>
<filter id="filter2_d_133_1081" x="20" y="480" width="86" height="86.8506" filterUnits="userSpaceOnUse" color-interpolation-filters="sRGB">
<feFlood flood-opacity="0" result="BackgroundImageFix"/>
<feColorMatrix in="SourceAlpha" type="matrix" values="0 0 0 0 0 0 0 0 0 0 0 0 0 0 0 0 0 0 127 0" result="hardAlpha"/>
<feOffset dy="4"/>
<feGaussianBlur stdDeviation="2"/>
<feComposite in2="hardAlpha" operator="out"/>
<feColorMatrix type="matrix" values="0 0 0 0 0 0 0 0 0 0 0 0 0 0 0 0 0 0 0.07 0"/>
<feBlend mode="normal" in2="BackgroundImageFix" result="effect1_dropShadow_133_1081"/>
<feBlend mode="normal" in="SourceGraphic" in2="effect1_dropShadow_133_1081" result="shape"/>
</filter>
</defs>
</svg>
