<svg width="1550" height="700" viewBox="0 0 1550 700" fill="none" xmlns="http://www.w3.org/2000/svg">
<ellipse cx="60" cy="70.7593" rx="60" ry="57.7593" fill="#28431C"/>
<path d="M87.3408 52.0076L49.8772 89.4712" stroke="#63BA3D" stroke-width="18.9355" stroke-linecap="round"/>
<path d="M32.9004 70.5618L48.2478 88.9039" stroke="#63BA3D" stroke-width="18.9355" stroke-linecap="round"/>
<ellipse cx="60" cy="296.759" rx="60" ry="57.7593" fill="#28431C"/>
<path d="M87.3408 278.008L49.8772 315.471" stroke="#63BA3D" stroke-width="18.9355" stroke-linecap="round"/>
<path d="M32.9004 296.562L48.2478 314.904" stroke="#63BA3D" stroke-width="18.9355" stroke-linecap="round"/>
<ellipse cx="60" cy="524.759" rx="60" ry="57.7593" fill="#28431C"/>
<path d="M87.3408 506.008L49.8772 543.471" stroke="#63BA3D" stroke-width="18.9355" stroke-linecap="round"/>
<path d="M32.9004 524.562L48.2478 542.904" stroke="#63BA3D" stroke-width="18.9355" stroke-linecap="round"/>
<mask id="mask0_133_1081" style="mask-type:alpha" maskUnits="userSpaceOnUse" x="156" y="108" width="297" height="89">
<rect x="156" y="108" width="297" height="89" fill="#D9D9D9"/>
</mask>
<g mask="url(#mask0_133_1081)">
<path d="M170.246 146.075L171.931 144.673L173.617 143.341L175.303 142.09L176.989 140.931L178.675 139.875L180.361 138.931L182.047 138.108L183.732 137.412L185.418 136.851L187.104 136.428L188.79 136.148L190.476 136.013L192.162 136.024L193.848 136.182L195.534 136.484L197.219 136.929L198.905 137.512L200.591 138.227L202.277 139.07L203.963 140.032L205.649 141.104L207.335 142.278L209.02 143.542L210.706 144.886L212.392 146.297L214.078 147.764L215.764 149.272L217.45 150.809L219.136 152.362L220.821 153.915L222.507 155.456L224.193 156.97L225.879 158.445L227.565 159.868L229.251 161.224L230.937 162.504L232.622 163.694L234.308 164.785L235.994 165.768L237.68 166.632L239.366 167.371L241.052 167.978L242.738 168.447L244.424 168.775L246.109 168.959L247.795 168.997L249.481 168.888L251.167 168.633L252.853 168.236L254.539 167.698L256.225 167.026L257.91 166.225L259.596 165.302L261.282 164.266L262.968 163.125L264.654 161.889L266.34 160.571L268.026 159.181L269.711 157.731L271.397 156.235L273.083 154.706L274.769 153.157L276.455 151.603L278.141 150.056L279.827 148.531L281.512 147.042L283.198 145.6L284.884 144.22L286.57 142.914L288.256 141.693L289.942 140.567L291.628 139.548L293.314 138.643L294.999 137.862L296.685 137.21L298.371 136.694L300.057 136.319L301.743 136.087L303.429 136L305.115 136.06L306.8 136.267L308.486 136.617L310.172 137.108L311.858 137.736L313.544 138.495L315.23 139.378L316.916 140.377L318.601 141.485L320.287 142.69L321.973 143.982L323.659 145.349L325.345 146.781L327.031 148.263L328.717 149.782L330.402 151.326L332.088 152.88L333.774 154.431L335.46 155.964L337.146 157.467L338.832 158.926L340.518 160.328L342.203 161.66L343.889 162.911L345.575 164.069L347.261 165.125L348.947 166.069L350.633 166.893L352.319 167.588L354.005 168.15L355.69 168.573L357.376 168.853L359.062 168.988L360.748 168.976L362.434 168.819L364.12 168.516L365.806 168.072L367.491 167.489L369.177 166.773L370.863 165.931L372.549 164.969L374.235 163.896L375.921 162.723L377.607 161.459L379.292 160.115L380.978 158.703L382.664 157.237L384.35 155.728L386.036 154.191L387.722 152.639L389.408 151.086L391.093 149.545L392.779 148.03L394.465 146.555L396.151 145.133L397.837 143.776L399.523 142.497L401.209 141.306L402.895 140.215L404.58 139.233L406.266 138.369L407.952 137.63L409.638 137.023L411.324 136.553L413.01 136.225L414.696 136.042L416.381 136.004L418.067 136.113L419.753 136.367L421.439 136.765L423.125 137.302L424.811 137.974L426.497 138.775L428.182 139.698L429.868 140.735L431.554 141.876L433.24 143.111L434.926 144.43L436.612 145.82L438.298 147.27L439.983 148.766L441.669 150.295L443.355 151.843L445.041 153.398L446.727 154.944L448.413 156.469L450.099 157.959L451.785 159.4L453.47 160.78L455.156 162.087L456.842 163.308L458.528 164.433L460.214 165.453L461.9 166.357L463.586 167.139L465.271 167.791L466.957 168.306L468.643 168.682L470.329 168.914L472.015 169L473.701 168.94L475.387 168.734L477.072 168.384L478.758 167.893L480.444 167.265L482.13 166.506L483.816 165.623L485.502 164.623L487.188 163.516L488.873 162.311L490.559 161.019L492.245 159.651L493.931 158.22L495.617 156.738L497.303 155.218L498.989 153.675L500.674 152.121L502.36 150.57L504.046 149.036L505.732 147.533L507.418 146.075L509.104 144.673L510.79 143.341L512.476 142.09L514.161 140.931L515.847 139.875L517.533 138.931L519.219 138.108L520.905 137.412L522.591 136.851L524.277 136.428L525.962 136.148L527.648 136.013L529.334 136.024L531.02 136.182L532.706 136.484L534.392 136.929L536.078 137.512L537.763 138.227L539.449 139.07L541.135 140.032L542.821 141.104L544.507 142.278L546.193 143.542L547.879 144.886L549.564 146.297L551.25 147.764L552.936 149.272L554.622 150.809L556.308 152.362L557.994 153.915L559.68 155.456L561.366 156.97L563.051 158.445L564.737 159.868L566.423 161.224L568.109 162.504L569.795 163.694L571.481 164.785L573.167 165.768L574.852 166.632L576.538 167.371L578.224 167.978L579.91 168.447L581.596 168.775L583.282 168.959L584.968 168.997L586.653 168.888L588.339 168.633L590.025 168.236L591.711 167.698L593.397 167.026L595.083 166.225L596.769 165.302L598.454 164.266L600.14 163.125L601.826 161.889L603.512 160.571L605.198 159.181L606.884 157.731L608.57 156.235L610.256 154.706L611.941 153.157L613.627 151.603L615.313 150.056L616.999 148.531L618.685 147.042L620.371 145.6L622.057 144.22L623.742 142.914L625.428 141.693L627.114 140.567L628.8 139.548L630.486 138.643L632.172 137.862L633.858 137.21L635.543 136.694L637.229 136.319L638.915 136.087L640.601 136L642.287 136.06L643.973 136.267L645.659 136.617L647.344 137.108L649.03 137.736L650.716 138.495L652.402 139.378L654.088 140.377L655.774 141.485L657.46 142.69L659.146 143.982L660.831 145.349L662.517 146.781L664.203 148.263L665.889 149.782L667.575 151.326L669.261 152.88L670.947 154.431L672.632 155.964L674.318 157.467L676.004 158.926L677.69 160.328L679.376 161.66L681.062 162.911L682.748 164.069L684.433 165.125L686.119 166.069L687.805 166.893L689.491 167.588L691.177 168.15L692.863 168.573L694.549 168.853L696.234 168.988L697.92 168.976L699.606 168.819L701.292 168.516L702.978 168.072L704.664 167.489L706.35 166.773L708.035 165.931L709.721 164.969L711.407 163.896L713.093 162.723L714.779 161.459L716.465 160.115L718.151 158.703L719.837 157.237L721.522 155.728L723.208 154.191L724.894 152.639L726.58 151.086L728.266 149.545L729.952 148.03L731.638 146.555L733.323 145.133L735.009 143.776L736.695 142.497L738.381 141.306L740.067 140.215L741.753 139.233L743.439 138.369L745.124 137.63L746.81 137.023L748.496 136.553L750.182 136.225L751.868 136.042L753.554 136.004L755.24 136.113L756.925 136.367L758.611 136.765L760.297 137.302L761.983 137.974L763.669 138.775L765.355 139.698L767.041 140.735L768.727 141.876L770.412 143.111L772.098 144.43L773.784 145.82L775.47 147.27L777.156 148.766L778.842 150.295L780.528 151.843L782.213 153.398L783.899 154.944L785.585 156.469L787.271 157.959L788.957 159.4L790.643 160.78L792.329 162.087L794.014 163.308L795.7 164.433L797.386 165.453L799.072 166.357L800.758 167.139L802.444 167.791L804.13 168.306L805.815 168.682L807.501 168.914L809.187 169L810.873 168.94L812.559 168.734L814.245 168.384L815.931 167.893L817.617 167.265L819.302 166.506L820.988 165.623L822.674 164.623L824.36 163.516L826.046 162.311L827.732 161.019L829.418 159.651L831.103 158.22L832.789 156.738L834.475 155.218L836.161 153.675L837.847 152.121L839.533 150.57L841.219 149.036L842.904 147.533" stroke="#DB44B8" stroke-width="24" stroke-miterlimit="10" stroke-linecap="round" stroke-linejoin="round"/>
</g>
<mask id="mask1_133_1081" style="mask-type:alpha" maskUnits="userSpaceOnUse" x="328" y="108" width="297" height="89">
<rect width="297" height="89" transform="matrix(-1 0 0 1 625 108)" fill="#D9D9D9"/>
</mask>
<g mask="url(#mask1_133_1081)">
<path d="M547.927 146.075L546.241 144.673L544.556 143.341L542.87 142.09L541.184 140.931L539.498 139.875L537.812 138.931L536.126 138.108L534.44 137.412L532.754 136.851L531.069 136.428L529.383 136.148L527.697 136.013L526.011 136.024L524.325 136.182L522.639 136.484L520.953 136.929L519.268 137.512L517.582 138.227L515.896 139.07L514.21 140.032L512.524 141.104L510.838 142.278L509.152 143.542L507.467 144.886L505.781 146.297L504.095 147.764L502.409 149.272L500.723 150.809L499.037 152.362L497.351 153.915L495.666 155.456L493.98 156.97L492.294 158.445L490.608 159.868L488.922 161.224L487.236 162.504L485.55 163.694L483.865 164.785L482.179 165.768L480.493 166.632L478.807 167.371L477.121 167.978L475.435 168.447L473.749 168.775L472.063 168.959L470.378 168.997L468.692 168.888L467.006 168.633L465.32 168.236L463.634 167.698L461.948 167.026L460.262 166.225L458.577 165.302L456.891 164.266L455.205 163.125L453.519 161.889L451.833 160.571L450.147 159.181L448.461 157.731L446.776 156.235L445.09 154.706L443.404 153.157L441.718 151.603L440.032 150.056L438.346 148.531L436.66 147.042L434.975 145.6L433.289 144.22L431.603 142.914L429.917 141.693L428.231 140.567L426.545 139.548L424.859 138.643L423.173 137.862L421.488 137.21L419.802 136.694L418.116 136.319L416.43 136.087L414.744 136L413.058 136.06L411.372 136.267L409.687 136.617L408.001 137.108L406.315 137.736L404.629 138.495L402.943 139.378L401.257 140.377L399.571 141.485L397.886 142.69L396.2 143.982L394.514 145.349L392.828 146.781L391.142 148.263L389.456 149.782L387.77 151.326L386.085 152.88L384.399 154.431L382.713 155.964L381.027 157.467L379.341 158.926L377.655 160.328L375.969 161.66L374.283 162.911L372.598 164.069L370.912 165.125L369.226 166.069L367.54 166.893L365.854 167.588L364.168 168.15L362.482 168.573L360.797 168.853L359.111 168.988L357.425 168.976L355.739 168.819L354.053 168.516L352.367 168.072L350.681 167.489L348.996 166.773L347.31 165.931L345.624 164.969L343.938 163.896L342.252 162.723L340.566 161.459L338.88 160.115L337.195 158.703L335.509 157.237L333.823 155.728L332.137 154.191L330.451 152.639L328.765 151.086L327.079 149.545L325.394 148.03L323.708 146.555L322.022 145.133L320.336 143.776L318.65 142.497L316.964 141.306L315.278 140.215L313.592 139.233L311.907 138.369L310.221 137.63L308.535 137.023L306.849 136.553L305.163 136.225L303.477 136.042L301.791 136.004L300.106 136.113L298.42 136.367L296.734 136.765L295.048 137.302L293.362 137.974L291.676 138.775L289.99 139.698L288.305 140.735L286.619 141.876L284.933 143.111L283.247 144.43L281.561 145.82L279.875 147.27L278.189 148.766L276.504 150.295L274.818 151.843L273.132 153.398L271.446 154.944L269.76 156.469L268.074 157.959L266.388 159.4L264.702 160.78L263.017 162.087L261.331 163.308L259.645 164.433L257.959 165.453L256.273 166.357L254.587 167.139L252.901 167.791L251.216 168.306L249.53 168.682L247.844 168.914L246.158 169L244.472 168.94L242.786 168.734L241.1 168.384L239.415 167.893L237.729 167.265L236.043 166.506L234.357 165.623L232.671 164.623L230.985 163.516L229.299 162.311L227.614 161.019L225.928 159.651L224.242 158.22L222.556 156.738L220.87 155.218L219.184 153.675L217.498 152.121L215.812 150.57L214.127 149.036L212.441 147.533L210.755 146.075L209.069 144.673L207.383 143.341L205.697 142.09L204.011 140.931L202.326 139.875L200.64 138.931L198.954 138.108L197.268 137.412L195.582 136.851L193.896 136.428L192.21 136.148L190.525 136.013L188.839 136.024L187.153 136.182L185.467 136.484L183.781 136.929L182.095 137.512L180.409 138.227L178.724 139.07L177.038 140.032L175.352 141.104L173.666 142.278L171.98 143.542L170.294 144.886L168.608 146.297L166.923 147.764L165.237 149.272L163.551 150.809L161.865 152.362L160.179 153.915L158.493 155.456L156.807 156.97L155.121 158.445L153.436 159.868L151.75 161.224L150.064 162.504L148.378 163.694L146.692 164.785L145.006 165.768L143.32 166.632L141.635 167.371L139.949 167.978L138.263 168.447L136.577 168.775L134.891 168.959L133.205 168.997L131.519 168.888L129.834 168.633L128.148 168.236L126.462 167.698L124.776 167.026L123.09 166.225L121.404 165.302L119.718 164.266L118.033 163.125L116.347 161.889L114.661 160.571L112.975 159.181L111.289 157.731L109.603 156.235L107.917 154.706L106.231 153.157L104.546 151.603L102.86 150.056L101.174 148.531L99.488 147.042L97.8022 145.6L96.1163 144.22L94.4304 142.914L92.7446 141.693L91.0587 140.567L89.3729 139.548L87.687 138.643L86.0011 137.862L84.3153 137.21L82.6294 136.694L80.9436 136.319L79.2577 136.087L77.5718 136L75.886 136.06L74.2001 136.267L72.5142 136.617L70.8284 137.108L69.1425 137.736L67.4567 138.495L65.7708 139.378L64.0849 140.377L62.3991 141.485L60.7132 142.69L59.0274 143.982L57.3415 145.349L55.6556 146.781L53.9698 148.263L52.2839 149.782L50.598 151.326L48.9122 152.88L47.2263 154.431L45.5405 155.964L43.8546 157.467L42.1687 158.926L40.4829 160.328L38.797 161.66L37.1111 162.911L35.4253 164.069L33.7394 165.125L32.0536 166.069L30.3677 166.893L28.6818 167.588L26.996 168.15L25.3101 168.573L23.6243 168.853L21.9384 168.988L20.2525 168.976L18.5667 168.819L16.8808 168.516L15.1949 168.072L13.5091 167.489L11.8232 166.773L10.1374 165.931L8.4515 164.969L6.76564 163.896L5.07978 162.723L3.39391 161.459L1.70805 160.115L0.0221914 158.703L-1.66367 157.237L-3.34953 155.728L-5.03539 154.191L-6.72126 152.639L-8.40712 151.086L-10.093 149.545L-11.7788 148.03L-13.4647 146.555L-15.1506 145.133L-16.8364 143.776L-18.5223 142.497L-20.2081 141.306L-21.894 140.215L-23.5799 139.233L-25.2657 138.369L-26.9516 137.63L-28.6375 137.023L-30.3233 136.553L-32.0092 136.225L-33.695 136.042L-35.3809 136.004L-37.0668 136.113L-38.7526 136.367L-40.4385 136.765L-42.1244 137.302L-43.8102 137.974L-45.4961 138.775L-47.1819 139.698L-48.8678 140.735L-50.5537 141.876L-52.2395 143.111L-53.9254 144.43L-55.6112 145.82L-57.2971 147.27L-58.983 148.766L-60.6688 150.295L-62.3547 151.843L-64.0406 153.398L-65.7264 154.944L-67.4123 156.469L-69.0981 157.959L-70.784 159.4L-72.4699 160.78L-74.1557 162.087L-75.8416 163.308L-77.5274 164.433L-79.2133 165.453L-80.8992 166.357L-82.585 167.139L-84.2709 167.791L-85.9568 168.306L-87.6426 168.682L-89.3285 168.914L-91.0143 169L-92.7002 168.94L-94.3861 168.734L-96.0719 168.384L-97.7578 167.893L-99.4436 167.265L-101.13 166.506L-102.815 165.623L-104.501 164.623L-106.187 163.516L-107.873 162.311L-109.559 161.019L-111.245 159.651L-112.931 158.22L-114.616 156.738L-116.302 155.218L-117.988 153.675L-119.674 152.121L-121.36 150.57L-123.046 149.036L-124.732 147.533" stroke="#DB44B8" stroke-width="24" stroke-miterlimit="10" stroke-linecap="round" stroke-linejoin="round"/>
</g>
<path d="M197.854 87.6465C194.796 89.5264 191.036 90.4663 186.574 90.4663C179.23 90.4663 173.215 87.9222 168.527 82.834C163.64 77.7207 161.196 70.7275 161.196 61.8545C161.196 52.8812 163.665 45.6875 168.603 40.2734C173.54 34.8594 180.07 32.1523 188.191 32.1523C195.234 32.1523 200.886 33.9445 205.147 37.5288C209.434 41.0881 211.89 45.5371 212.517 50.876H201.125C200.247 47.0911 198.104 44.4468 194.695 42.9429C192.79 42.1157 190.672 41.7021 188.341 41.7021C183.88 41.7021 180.208 43.394 177.325 46.7778C174.468 50.1366 173.039 55.1997 173.039 61.9673C173.039 68.785 174.593 73.61 177.701 76.4424C180.809 79.2747 184.343 80.6909 188.304 80.6909C192.189 80.6909 195.372 79.5755 197.854 77.3447C200.335 75.0889 201.864 72.1437 202.44 68.5093H189.62V59.2603H212.705V89H205.035L203.869 82.082C201.638 84.7139 199.633 86.5687 197.854 87.6465ZM246.562 69.0732H234.794V89H223.289V33.5811H247.427C252.991 33.5811 257.428 35.0098 260.736 37.8672C264.045 40.7246 265.699 45.1486 265.699 51.1392C265.699 57.6812 264.045 62.3057 260.736 65.0127C257.428 67.7197 252.703 69.0732 246.562 69.0732ZM251.976 57.5308C253.48 56.2023 254.232 54.0968 254.232 51.2144C254.232 48.3319 253.467 46.2765 251.938 45.0483C250.435 43.8201 248.317 43.2061 245.584 43.2061H234.794V59.5234H245.584C248.317 59.5234 250.447 58.8592 251.976 57.5308ZM294.519 45.5747C293.24 44.0457 291.411 43.2812 289.029 43.2812C285.771 43.2812 283.553 44.4969 282.375 46.9282C281.698 48.3319 281.297 50.5627 281.171 53.6206H270.757C270.932 48.9836 271.772 45.2363 273.276 42.3789C276.133 36.9398 281.209 34.2202 288.503 34.2202C294.268 34.2202 298.855 35.8244 302.264 39.0327C305.673 42.216 307.377 46.4395 307.377 51.7031C307.377 55.7386 306.174 59.3229 303.768 62.4561C302.189 64.5365 299.594 66.855 295.985 69.4116L291.699 72.457C289.017 74.362 287.175 75.7406 286.172 76.5928C285.194 77.445 284.367 78.4351 283.69 79.563H307.49V89H270.155C270.256 85.0898 271.095 81.5181 272.674 78.2847C274.203 74.6502 277.813 70.8027 283.502 66.7422C288.44 63.208 291.636 60.6764 293.09 59.1475C295.321 56.7663 296.436 54.1595 296.436 51.3271C296.436 49.0212 295.797 47.1037 294.519 45.5747ZM363.023 68.6221L331.366 57.4556V46.9658L375.656 63.8848V73.4346L331.366 90.2783V79.8262L363.023 68.6221ZM435.212 87.6465C432.154 89.5264 428.394 90.4663 423.933 90.4663C416.589 90.4663 410.573 87.9222 405.886 82.834C400.998 77.7207 398.554 70.7275 398.554 61.8545C398.554 52.8812 401.023 45.6875 405.961 40.2734C410.899 34.8594 417.428 32.1523 425.549 32.1523C432.593 32.1523 438.245 33.9445 442.506 37.5288C446.792 41.0881 449.248 45.5371 449.875 50.876H438.483C437.606 47.0911 435.463 44.4468 432.054 42.9429C430.149 42.1157 428.031 41.7021 425.7 41.7021C421.238 41.7021 417.566 43.394 414.684 46.7778C411.826 50.1366 410.398 55.1997 410.398 61.9673C410.398 68.785 411.952 73.61 415.06 76.4424C418.168 79.2747 421.702 80.6909 425.662 80.6909C429.547 80.6909 432.731 79.5755 435.212 77.3447C437.693 75.0889 439.222 72.1437 439.799 68.5093H426.978V59.2603H450.063V89H442.393L441.228 82.082C438.997 84.7139 436.992 86.5687 435.212 87.6465ZM483.921 69.0732H472.152V89H460.648V33.5811H484.785C490.35 33.5811 494.786 35.0098 498.095 37.8672C501.403 40.7246 503.058 45.1486 503.058 51.1392C503.058 57.6812 501.403 62.3057 498.095 65.0127C494.786 67.7197 490.061 69.0732 483.921 69.0732ZM489.335 57.5308C490.839 56.2023 491.59 54.0968 491.59 51.2144C491.59 48.3319 490.826 46.2765 489.297 45.0483C487.793 43.8201 485.675 43.2061 482.943 43.2061H472.152V59.5234H482.943C485.675 59.5234 487.806 58.8592 489.335 57.5308ZM519.846 45.3491C518.643 46.9533 518.066 49.0964 518.116 51.7783H508.115C508.216 49.0713 508.679 46.5021 509.507 44.0708C510.384 41.9403 511.762 39.9727 513.642 38.168C515.046 36.8896 516.713 35.9121 518.643 35.2354C520.573 34.5586 522.941 34.2202 525.749 34.2202C530.962 34.2202 535.161 35.5737 538.344 38.2808C541.552 40.9627 543.156 44.5721 543.156 49.1089C543.156 52.3172 542.204 55.0243 540.299 57.23C539.096 58.6086 537.843 59.5485 536.539 60.0498C537.517 60.0498 538.92 60.8895 540.75 62.5688C543.482 65.1004 544.848 68.5594 544.848 72.9458C544.848 77.5578 543.244 81.6183 540.036 85.1274C536.853 88.6115 532.128 90.3535 525.861 90.3535C518.141 90.3535 512.777 87.8345 509.77 82.7964C508.191 80.1144 507.313 76.6053 507.138 72.269H517.665C517.665 74.4497 518.016 76.2544 518.718 77.6831C520.021 80.3149 522.39 81.6309 525.824 81.6309C527.929 81.6309 529.759 80.9165 531.313 79.4878C532.892 78.034 533.682 75.9536 533.682 73.2466C533.682 69.6623 532.228 67.2686 529.32 66.0654C527.666 65.3887 525.059 65.0503 521.5 65.0503V57.3804C524.984 57.3302 527.416 56.9919 528.794 56.3652C531.175 55.3125 532.366 53.182 532.366 49.9736C532.366 47.8932 531.752 46.2013 530.524 44.8979C529.32 43.5946 527.616 42.9429 525.41 42.9429C522.879 42.9429 521.024 43.745 519.846 45.3491Z" fill="white"/>
<path d="M163.865 267.581H175.445V313.037H202.892V323H163.865V267.581ZM220.319 282.019V323H209.453V282.019H220.319ZM220.319 267.243V277.131H209.453V267.243H220.319ZM249.176 267.243V275.965C248.574 275.89 247.559 275.84 246.13 275.815C244.727 275.765 243.749 276.078 243.198 276.755C242.671 277.407 242.408 278.133 242.408 278.936V282.395H249.439V289.952H242.408V323H231.731V289.952H225.752V282.395H231.618V279.763C231.618 275.376 232.357 272.356 233.836 270.702C235.39 268.245 239.137 267.017 245.078 267.017C245.754 267.017 246.369 267.042 246.92 267.092C247.471 267.117 248.223 267.167 249.176 267.243ZM289.914 310.969C289.638 313.4 288.372 315.869 286.116 318.375C282.607 322.361 277.694 324.354 271.378 324.354C266.164 324.354 261.565 322.674 257.58 319.315C253.594 315.957 251.602 310.493 251.602 302.923C251.602 295.829 253.394 290.39 256.978 286.605C260.587 282.821 265.262 280.928 271.002 280.928C274.411 280.928 277.481 281.567 280.213 282.846C282.946 284.124 285.201 286.142 286.981 288.899C288.585 291.33 289.625 294.15 290.102 297.358C290.377 299.238 290.49 301.945 290.44 305.479H262.392C262.543 309.59 263.833 312.473 266.265 314.127C267.744 315.155 269.523 315.668 271.604 315.668C273.809 315.668 275.601 315.042 276.98 313.789C277.732 313.112 278.396 312.172 278.973 310.969H289.914ZM279.311 298.411C279.136 295.579 278.271 293.436 276.717 291.982C275.188 290.503 273.283 289.764 271.002 289.764C268.521 289.764 266.591 290.541 265.212 292.095C263.858 293.649 263.006 295.754 262.655 298.411H279.311ZM332.381 296.719H321.402C321.202 295.19 320.688 293.812 319.861 292.583C318.658 290.929 316.79 290.102 314.259 290.102C310.649 290.102 308.181 291.894 306.852 295.479C306.15 297.383 305.799 299.915 305.799 303.073C305.799 306.081 306.15 308.5 306.852 310.33C308.13 313.738 310.537 315.443 314.071 315.443C316.577 315.443 318.357 314.766 319.41 313.413C320.462 312.059 321.102 310.305 321.327 308.149H332.268C332.017 311.407 330.839 314.49 328.734 317.398C325.375 322.085 320.4 324.429 313.808 324.429C307.216 324.429 302.365 322.474 299.257 318.563C296.149 314.653 294.595 309.578 294.595 303.336C294.595 296.293 296.312 290.816 299.746 286.906C303.18 282.996 307.917 281.041 313.958 281.041C319.096 281.041 323.295 282.194 326.553 284.5C329.837 286.806 331.779 290.879 332.381 296.719ZM355.673 312.247L364.133 282.019H375.525L361.463 322.323C358.756 330.093 356.613 334.906 355.034 336.761C353.455 338.641 350.297 339.581 345.56 339.581C344.607 339.581 343.843 339.568 343.266 339.543C342.69 339.543 341.825 339.505 340.672 339.43V330.858L342.025 330.933C343.078 330.983 344.081 330.946 345.033 330.82C345.986 330.695 346.788 330.407 347.44 329.956C348.066 329.529 348.643 328.64 349.169 327.286C349.72 325.933 349.946 325.105 349.846 324.805L334.807 282.019H346.725L355.673 312.247ZM416.564 296.719H405.585C405.385 295.19 404.871 293.812 404.044 292.583C402.84 290.929 400.973 290.102 398.442 290.102C394.832 290.102 392.363 291.894 391.035 295.479C390.333 297.383 389.982 299.915 389.982 303.073C389.982 306.081 390.333 308.5 391.035 310.33C392.313 313.738 394.719 315.443 398.254 315.443C400.76 315.443 402.54 314.766 403.592 313.413C404.645 312.059 405.284 310.305 405.51 308.149H416.451C416.2 311.407 415.022 314.49 412.917 317.398C409.558 322.085 404.582 324.429 397.99 324.429C391.398 324.429 386.548 322.474 383.44 318.563C380.332 314.653 378.778 309.578 378.778 303.336C378.778 296.293 380.495 290.816 383.929 286.906C387.363 282.996 392.1 281.041 398.141 281.041C403.279 281.041 407.477 282.194 410.736 284.5C414.019 286.806 415.962 290.879 416.564 296.719ZM423.426 267.581H434.141V323H423.426V267.581ZM478.94 310.969C478.664 313.4 477.398 315.869 475.142 318.375C471.633 322.361 466.72 324.354 460.404 324.354C455.19 324.354 450.591 322.674 446.606 319.315C442.62 315.957 440.628 310.493 440.628 302.923C440.628 295.829 442.42 290.39 446.004 286.605C449.613 282.821 454.288 280.928 460.028 280.928C463.437 280.928 466.507 281.567 469.239 282.846C471.972 284.124 474.227 286.142 476.007 288.899C477.611 291.33 478.651 294.15 479.128 297.358C479.403 299.238 479.516 301.945 479.466 305.479H451.418C451.569 309.59 452.859 312.473 455.291 314.127C456.77 315.155 458.549 315.668 460.63 315.668C462.835 315.668 464.627 315.042 466.006 313.789C466.758 313.112 467.422 312.172 467.999 310.969H478.94ZM468.337 298.411C468.162 295.579 467.297 293.436 465.743 291.982C464.214 290.503 462.309 289.764 460.028 289.764C457.547 289.764 455.617 290.541 454.238 292.095C452.884 293.649 452.032 295.754 451.681 298.411H468.337ZM540.94 286.417C544.248 289.952 545.903 295.14 545.903 301.983C545.903 309.202 544.273 314.703 541.015 318.488C537.781 322.273 533.608 324.166 528.495 324.166C525.236 324.166 522.529 323.351 520.374 321.722C519.196 320.819 518.043 319.503 516.915 317.774V339.129H506.312V282.019H516.576V288.072C517.729 286.292 518.958 284.889 520.261 283.861C522.642 282.031 525.474 281.116 528.758 281.116C533.545 281.116 537.606 282.883 540.94 286.417ZM534.849 302.509C534.849 299.351 534.122 296.556 532.668 294.125C531.239 291.694 528.908 290.478 525.675 290.478C521.79 290.478 519.12 292.32 517.667 296.005C516.915 297.96 516.539 300.441 516.539 303.449C516.539 308.212 517.805 311.558 520.336 313.488C521.84 314.616 523.62 315.18 525.675 315.18C528.658 315.18 530.926 314.027 532.48 311.721C534.059 309.415 534.849 306.344 534.849 302.509ZM587.092 287.207C590.551 291.543 592.28 296.669 592.28 302.584C592.28 308.6 590.551 313.751 587.092 318.037C583.633 322.298 578.381 324.429 571.338 324.429C564.295 324.429 559.044 322.298 555.585 318.037C552.126 313.751 550.396 308.6 550.396 302.584C550.396 296.669 552.126 291.543 555.585 287.207C559.044 282.871 564.295 280.703 571.338 280.703C578.381 280.703 583.633 282.871 587.092 287.207ZM571.301 289.764C568.167 289.764 565.749 290.879 564.044 293.11C562.365 295.316 561.525 298.474 561.525 302.584C561.525 306.695 562.365 309.866 564.044 312.097C565.749 314.327 568.167 315.443 571.301 315.443C574.434 315.443 576.84 314.327 578.519 312.097C580.199 309.866 581.038 306.695 581.038 302.584C581.038 298.474 580.199 295.316 578.519 293.11C576.84 290.879 574.434 289.764 571.301 289.764ZM599.443 267.581H610.158V323H599.443V267.581ZM630.894 282.019V323H620.029V282.019H630.894ZM630.894 267.243V277.131H620.029V267.243H630.894ZM675.993 296.719H665.015C664.814 295.19 664.301 293.812 663.473 292.583C662.27 290.929 660.403 290.102 657.871 290.102C654.262 290.102 651.793 291.894 650.465 295.479C649.763 297.383 649.412 299.915 649.412 303.073C649.412 306.081 649.763 308.5 650.465 310.33C651.743 313.738 654.149 315.443 657.683 315.443C660.19 315.443 661.97 314.766 663.022 313.413C664.075 312.059 664.714 310.305 664.94 308.149H675.881C675.63 311.407 674.452 314.49 672.346 317.398C668.988 322.085 664.012 324.429 657.42 324.429C650.828 324.429 645.978 322.474 642.87 318.563C639.762 314.653 638.208 309.578 638.208 303.336C638.208 296.293 639.925 290.816 643.359 286.906C646.793 282.996 651.53 281.041 657.571 281.041C662.709 281.041 666.907 282.194 670.166 284.5C673.449 286.806 675.392 290.879 675.993 296.719ZM699.286 312.247L707.745 282.019H719.138L705.076 322.323C702.369 330.093 700.226 334.906 698.647 336.761C697.068 338.641 693.909 339.581 689.172 339.581C688.22 339.581 687.455 339.568 686.879 339.543C686.302 339.543 685.437 339.505 684.284 339.43V330.858L685.638 330.933C686.691 330.983 687.693 330.946 688.646 330.82C689.598 330.695 690.4 330.407 691.052 329.956C691.679 329.529 692.255 328.64 692.782 327.286C693.333 325.933 693.559 325.105 693.458 324.805L678.419 282.019H690.338L699.286 312.247ZM765.986 291.907C761.674 291.907 758.779 293.31 757.301 296.118C756.473 297.697 756.06 300.128 756.06 303.412V323H745.269V282.019H755.496V289.162C757.15 286.43 758.591 284.563 759.82 283.56C761.825 281.881 764.432 281.041 767.64 281.041C767.84 281.041 768.003 281.054 768.129 281.079C768.279 281.079 768.592 281.091 769.069 281.116V292.095C768.392 292.02 767.79 291.969 767.264 291.944C766.738 291.919 766.312 291.907 765.986 291.907ZM809.694 310.969C809.418 313.4 808.152 315.869 805.896 318.375C802.387 322.361 797.474 324.354 791.158 324.354C785.945 324.354 781.345 322.674 777.36 319.315C773.374 315.957 771.382 310.493 771.382 302.923C771.382 295.829 773.174 290.39 776.758 286.605C780.368 282.821 785.042 280.928 790.782 280.928C794.191 280.928 797.261 281.567 799.994 282.846C802.726 284.124 804.981 286.142 806.761 288.899C808.365 291.33 809.405 294.15 809.882 297.358C810.157 299.238 810.27 301.945 810.22 305.479H782.172C782.323 309.59 783.613 312.473 786.045 314.127C787.524 315.155 789.303 315.668 791.384 315.668C793.589 315.668 795.382 315.042 796.76 313.789C797.512 313.112 798.176 312.172 798.753 310.969H809.694ZM799.091 298.411C798.916 295.579 798.051 293.436 796.497 291.982C794.968 290.503 793.063 289.764 790.782 289.764C788.301 289.764 786.371 290.541 784.992 292.095C783.639 293.649 782.786 295.754 782.435 298.411H799.091ZM843.138 339.242V317.924C842.335 319.579 840.957 321.057 839.002 322.361C837.072 323.639 834.427 324.278 831.069 324.278C826.331 324.278 822.296 322.386 818.962 318.601C815.629 314.816 813.962 309.766 813.962 303.449C813.962 296.632 815.629 291.18 818.962 287.094C822.321 283.009 826.457 280.966 831.37 280.966C834.778 280.966 837.536 281.806 839.641 283.485C840.869 284.437 842.122 286.004 843.401 288.185V282.094H853.74V339.242H843.138ZM826.256 309.954C827.66 313.388 830.267 315.104 834.077 315.104C837.761 315.104 840.38 313.525 841.934 310.367C842.937 308.287 843.438 305.655 843.438 302.472C843.438 299.965 843.012 297.722 842.16 295.742C840.631 292.182 837.949 290.403 834.114 290.403C831.407 290.403 829.226 291.443 827.572 293.523C825.943 295.604 825.128 298.762 825.128 302.998C825.128 305.83 825.504 308.149 826.256 309.954ZM889.289 317.21C889.189 317.335 888.939 317.711 888.537 318.338C888.136 318.965 887.66 319.516 887.109 319.992C885.429 321.496 883.8 322.524 882.221 323.075C880.667 323.627 878.837 323.902 876.732 323.902C870.666 323.902 866.58 321.722 864.475 317.36C863.297 314.954 862.708 311.407 862.708 306.72V282.019H873.686V306.72C873.686 309.051 873.962 310.806 874.514 311.984C875.491 314.064 877.409 315.104 880.266 315.104C883.925 315.104 886.432 313.626 887.786 310.668C888.487 309.064 888.838 306.946 888.838 304.314V282.019H899.704V323H889.289V317.21ZM920.327 282.019V323H909.461V282.019H920.327ZM920.327 267.243V277.131H909.461V267.243H920.327ZM950.575 291.907C946.264 291.907 943.369 293.31 941.89 296.118C941.063 297.697 940.649 300.128 940.649 303.412V323H929.859V282.019H940.085V289.162C941.74 286.43 943.181 284.563 944.409 283.56C946.414 281.881 949.021 281.041 952.229 281.041C952.43 281.041 952.593 281.054 952.718 281.079C952.869 281.079 953.182 281.091 953.658 281.116V292.095C952.981 292.02 952.38 291.969 951.853 291.944C951.327 291.919 950.901 291.907 950.575 291.907ZM994.283 310.969C994.007 313.4 992.742 315.869 990.486 318.375C986.977 322.361 982.064 324.354 975.747 324.354C970.534 324.354 965.935 322.674 961.949 319.315C957.964 315.957 955.971 310.493 955.971 302.923C955.971 295.829 957.763 290.39 961.348 286.605C964.957 282.821 969.632 280.928 975.372 280.928C978.78 280.928 981.851 281.567 984.583 282.846C987.315 284.124 989.571 286.142 991.351 288.899C992.955 291.33 993.995 294.15 994.471 297.358C994.747 299.238 994.86 301.945 994.81 305.479H966.762C966.912 309.59 968.203 312.473 970.634 314.127C972.113 315.155 973.893 315.668 975.973 315.668C978.179 315.668 979.971 315.042 981.35 313.789C982.102 313.112 982.766 312.172 983.342 310.969H994.283ZM983.681 298.411C983.505 295.579 982.64 293.436 981.086 291.982C979.557 290.503 977.652 289.764 975.372 289.764C972.89 289.764 970.96 290.541 969.581 292.095C968.228 293.649 967.376 295.754 967.025 298.411H983.681ZM1038.59 267.656V323H1028.18V317.323C1026.65 319.754 1024.91 321.521 1022.95 322.624C1021 323.727 1018.57 324.278 1015.66 324.278C1010.87 324.278 1006.84 322.348 1003.55 318.488C1000.29 314.603 998.664 309.628 998.664 303.562C998.664 296.569 1000.27 291.067 1003.48 287.057C1006.71 283.046 1011.02 281.041 1016.41 281.041C1018.89 281.041 1021.1 281.592 1023.03 282.695C1024.96 283.773 1026.52 285.277 1027.73 287.207V267.656H1038.59ZM1009.72 302.772C1009.72 306.557 1010.47 309.578 1011.97 311.833C1013.45 314.114 1015.71 315.255 1018.74 315.255C1021.77 315.255 1024.08 314.127 1025.66 311.871C1027.24 309.615 1028.03 306.695 1028.03 303.111C1028.03 298.098 1026.76 294.514 1024.23 292.358C1022.68 291.055 1020.87 290.403 1018.82 290.403C1015.68 290.403 1013.38 291.593 1011.9 293.975C1010.44 296.331 1009.72 299.263 1009.72 302.772Z" fill="white"/>
<path d="M165.921 608.075L167.607 606.673L169.293 605.341L170.979 604.09L172.665 602.931L174.351 601.875L176.037 600.931L177.722 600.108L179.408 599.412L181.094 598.851L182.78 598.428L184.466 598.148L186.152 598.013L187.838 598.024L189.523 598.182L191.209 598.484L192.895 598.929L194.581 599.512L196.267 600.227L197.953 601.07L199.639 602.032L201.324 603.104L203.01 604.278L204.696 605.542L206.382 606.886L208.068 608.297L209.754 609.764L211.44 611.272L213.126 612.809L214.811 614.362L216.497 615.915L218.183 617.456L219.869 618.97L221.555 620.445L223.241 621.868L224.927 623.224L226.612 624.504L228.298 625.694L229.984 626.785L231.67 627.768L233.356 628.632L235.042 629.371L236.728 629.978L238.413 630.447L240.099 630.775L241.785 630.959L243.471 630.997L245.157 630.888L246.843 630.633L248.529 630.236L250.214 629.698L251.9 629.026L253.586 628.225L255.272 627.302L256.958 626.266L258.644 625.125L260.33 623.889L262.016 622.571L263.701 621.181L265.387 619.731L267.073 618.235L268.759 616.706L270.445 615.157L272.131 613.603L273.817 612.056L275.502 610.531L277.188 609.042L278.874 607.6L280.56 606.22L282.246 604.914L283.932 603.693L285.618 602.567L287.303 601.548L288.989 600.643L290.675 599.862L292.361 599.21L294.047 598.694L295.733 598.319L297.419 598.087L299.104 598L300.79 598.06L302.476 598.267L304.162 598.617L305.848 599.108L307.534 599.736L309.22 600.495L310.905 601.378L312.591 602.377L314.277 603.485L315.963 604.69L317.649 605.982L319.335 607.349L321.021 608.781L322.707 610.263L324.392 611.782L326.078 613.326L327.764 614.88L329.45 616.431L331.136 617.964L332.822 619.467L334.508 620.926L336.193 622.328L337.879 623.66L339.565 624.911L341.251 626.069L342.937 627.125L344.623 628.069L346.309 628.893L347.994 629.588L349.68 630.15L351.366 630.573L353.052 630.853L354.738 630.988L356.424 630.976L358.11 630.819L359.795 630.516L361.481 630.072L363.167 629.489L364.853 628.773L366.539 627.931L368.225 626.969L369.911 625.896L371.597 624.723L373.282 623.459L374.968 622.115L376.654 620.703L378.34 619.237L380.026 617.728L381.712 616.191L383.398 614.639L385.083 613.086L386.769 611.545L388.455 610.03L390.141 608.555L391.827 607.133L393.513 605.776L395.199 604.497L396.884 603.306L398.57 602.215L400.256 601.233L401.942 600.369L403.628 599.63L405.314 599.023L407 598.553L408.685 598.225L410.371 598.042L412.057 598.004L413.743 598.113L415.429 598.367L417.115 598.765L418.801 599.302L420.487 599.974L422.172 600.775L423.858 601.698L425.544 602.735L427.23 603.876L428.916 605.111L430.602 606.43L432.288 607.82L433.973 609.27L435.659 610.766L437.345 612.295L439.031 613.843L440.717 615.398L442.403 616.944L444.089 618.469L445.774 619.959L447.46 621.4L449.146 622.78L450.832 624.087L452.518 625.308L454.204 626.433L455.89 627.453L457.575 628.357L459.261 629.139L460.947 629.791L462.633 630.306L464.319 630.682L466.005 630.914L467.691 631L469.376 630.94L471.062 630.734L472.748 630.384L474.434 629.893L476.12 629.265L477.806 628.506L479.492 627.623L481.178 626.623L482.863 625.516L484.549 624.311L486.235 623.019L487.921 621.651L489.607 620.22L491.293 618.738L492.979 617.218L494.664 615.675L496.35 614.121L498.036 612.57L499.722 611.036L501.408 609.533L503.094 608.075L504.78 606.673L506.465 605.341L508.151 604.09L509.837 602.931L511.523 601.875L513.209 600.931L514.895 600.108L516.581 599.412L518.266 598.851L519.952 598.428L521.638 598.148L523.324 598.013L525.01 598.024L526.696 598.182L528.382 598.484L530.068 598.929L531.753 599.512L533.439 600.227L535.125 601.07L536.811 602.032L538.497 603.104L540.183 604.278L541.869 605.542L543.554 606.886L545.24 608.297L546.926 609.764L548.612 611.272L550.298 612.809L551.984 614.362L553.67 615.915L555.355 617.456L557.041 618.97L558.727 620.445L560.413 621.868L562.099 623.224L563.785 624.504L565.471 625.694L567.156 626.785L568.842 627.768L570.528 628.632L572.214 629.371L573.9 629.978L575.586 630.447L577.272 630.775L578.958 630.959L580.643 630.997L582.329 630.888L584.015 630.633L585.701 630.236L587.387 629.698L589.073 629.026L590.759 628.225L592.444 627.302L594.13 626.266L595.816 625.125L597.502 623.889L599.188 622.571L600.874 621.181L602.56 619.731L604.245 618.235L605.931 616.706L607.617 615.157L609.303 613.603L610.989 612.056L612.675 610.531L614.361 609.042L616.046 607.6L617.732 606.22L619.418 604.914L621.104 603.693L622.79 602.567L624.476 601.548L626.162 600.643L627.847 599.862L629.533 599.21L631.219 598.694L632.905 598.319L634.591 598.087L636.277 598L637.963 598.06L639.649 598.267L641.334 598.617L643.02 599.108L644.706 599.736L646.392 600.495L648.078 601.378L649.764 602.377L651.45 603.485L653.135 604.69L654.821 605.982L656.507 607.349L658.193 608.781L659.879 610.263L661.565 611.782L663.251 613.326L664.936 614.88L666.622 616.431L668.308 617.964L669.994 619.467L671.68 620.926L673.366 622.328L675.052 623.66L676.737 624.911L678.423 626.069L680.109 627.125L681.795 628.069L683.481 628.893L685.167 629.588L686.853 630.15L688.539 630.573L690.224 630.853L691.91 630.988L693.596 630.976L695.282 630.819L696.968 630.516L698.654 630.072L700.34 629.489L702.025 628.773L703.711 627.931L705.397 626.969L707.083 625.896L708.769 624.723L710.455 623.459L712.141 622.115L713.826 620.703L715.512 619.237L717.198 617.728L718.884 616.191L720.57 614.639L722.256 613.086L723.942 611.545L725.627 610.03L727.313 608.555L728.999 607.133L730.685 605.776L732.371 604.497L734.057 603.306L735.743 602.215L737.429 601.233L739.114 600.369L740.8 599.63L742.486 599.023L744.172 598.553L745.858 598.225L747.544 598.042L749.23 598.004L750.915 598.113L752.601 598.367L754.287 598.765L755.973 599.302L757.659 599.974L759.345 600.775L761.031 601.698L762.716 602.735L764.402 603.876L766.088 605.111L767.774 606.43L769.46 607.82L771.146 609.27L772.832 610.766L774.517 612.295L776.203 613.843L777.889 615.398L779.575 616.944L781.261 618.469L782.947 619.959L784.633 621.4L786.318 622.78L788.004 624.087L789.69 625.308L791.376 626.433L793.062 627.453L794.748 628.357L796.434 629.139L798.12 629.791L799.805 630.306L801.491 630.682L803.177 630.914L804.863 631L806.549 630.94L808.235 630.734L809.921 630.384L811.606 629.893L813.292 629.265L814.978 628.506L816.664 627.623L818.35 626.623L820.036 625.516L821.722 624.311L823.407 623.019L825.093 621.651L826.779 620.22L828.465 618.738L830.151 617.218L831.837 615.675L833.523 614.121L835.208 612.57L836.894 611.036L838.58 609.533" stroke="#2684FF" stroke-width="24" stroke-miterlimit="10" stroke-linecap="round" stroke-linejoin="round"/>
<path d="M279 608.075L280.686 606.673L282.372 605.341L284.058 604.09L285.743 602.931L287.429 601.875L289.115 600.931L290.801 600.108L292.487 599.412L294.173 598.851L295.859 598.428L297.544 598.148L299.23 598.013L300.916 598.024L302.602 598.182L304.288 598.484L305.974 598.929L307.66 599.512L309.346 600.227L311.031 601.07L312.717 602.032L314.403 603.104L316.089 604.278L317.775 605.542L319.461 606.886L321.147 608.297L322.832 609.764L324.518 611.272L326.204 612.809L327.89 614.362L329.576 615.915L331.262 617.456L332.948 618.97L334.633 620.445L336.319 621.868L338.005 623.224L339.691 624.504L341.377 625.694L343.063 626.785L344.749 627.768L346.434 628.632L348.12 629.371L349.806 629.978L351.492 630.447L353.178 630.775L354.864 630.959L356.55 630.997L358.236 630.888L359.921 630.633L361.607 630.236L363.293 629.698L364.979 629.026L366.665 628.225L368.351 627.302L370.037 626.266L371.722 625.125L373.408 623.889L375.094 622.571L376.78 621.181L378.466 619.731L380.152 618.235L381.838 616.706L383.523 615.157L385.209 613.603L386.895 612.056L388.581 610.531L390.267 609.042L391.953 607.6L393.639 606.22L395.324 604.914L397.01 603.693L398.696 602.567L400.382 601.548L402.068 600.643L403.754 599.862L405.44 599.21L407.125 598.694L408.811 598.319L410.497 598.087L412.183 598L413.869 598.06L415.555 598.267L417.241 598.617L418.927 599.108L420.612 599.736L422.298 600.495L423.984 601.378L425.67 602.377L427.356 603.485L429.042 604.69L430.728 605.982L432.413 607.349L434.099 608.781L435.785 610.263L437.471 611.782L439.157 613.326L440.843 614.88L442.529 616.431L444.214 617.964L445.9 619.467L447.586 620.926L449.272 622.328L450.958 623.66L452.644 624.911L454.33 626.069L456.015 627.125L457.701 628.069L459.387 628.893L461.073 629.588L462.759 630.15L464.445 630.573L466.131 630.853L467.817 630.988L469.502 630.976L471.188 630.819L472.874 630.516L474.56 630.072L476.246 629.489L477.932 628.773L479.618 627.931L481.303 626.969L482.989 625.896L484.675 624.723L486.361 623.459L488.047 622.115L489.733 620.703L491.419 619.237L493.104 617.728L494.79 616.191L496.476 614.639L498.162 613.086L499.848 611.545L501.534 610.03L503.22 608.555L504.905 607.133L506.591 605.776L508.277 604.497L509.963 603.306L511.649 602.215L513.335 601.233L515.021 600.369L516.707 599.63L518.392 599.023L520.078 598.553L521.764 598.225L523.45 598.042L525.136 598.004L526.822 598.113L528.508 598.367L530.193 598.765L531.879 599.302L533.565 599.974L535.251 600.775L536.937 601.698L538.623 602.735L540.309 603.876L541.994 605.111L543.68 606.43L545.366 607.82L547.052 609.27L548.738 610.766L550.424 612.295L552.11 613.843L553.795 615.398L555.481 616.944L557.167 618.469L558.853 619.959L560.539 621.4L562.225 622.78L563.911 624.087L565.596 625.308L567.282 626.433L568.968 627.453L570.654 628.357L572.34 629.139L574.026 629.791L575.712 630.306L577.398 630.682L579.083 630.914L580.769 631L582.455 630.94L584.141 630.734L585.827 630.384L587.513 629.893L589.199 629.265L590.884 628.506L592.57 627.623L594.256 626.623L595.942 625.516L597.628 624.311L599.314 623.019L601 621.651L602.685 620.22L604.371 618.738L606.057 617.218L607.743 615.675L609.429 614.121L611.115 612.57L612.801 611.036L614.486 609.533L616.172 608.075L617.858 606.673L619.544 605.341L621.23 604.09L622.916 602.931L624.602 601.875L626.288 600.931L627.973 600.108L629.659 599.412L631.345 598.851L633.031 598.428L634.717 598.148L636.403 598.013L638.089 598.024L639.774 598.182L641.46 598.484L643.146 598.929L644.832 599.512L646.518 600.227L648.204 601.07L649.89 602.032L651.575 603.104L653.261 604.278L654.947 605.542L656.633 606.886L658.319 608.297L660.005 609.764L661.691 611.272L663.376 612.809L665.062 614.362L666.748 615.915L668.434 617.456L670.12 618.97L671.806 620.445L673.492 621.868L675.178 623.224L676.863 624.504L678.549 625.694L680.235 626.785L681.921 627.768L683.607 628.632L685.293 629.371L686.979 629.978L688.664 630.447L690.35 630.775L692.036 630.959L693.722 630.997L695.408 630.888L697.094 630.633L698.78 630.236L700.465 629.698L702.151 629.026L703.837 628.225L705.523 627.302L707.209 626.266L708.895 625.125L710.581 623.889L712.266 622.571L713.952 621.181L715.638 619.731L717.324 618.235L719.01 616.706L720.696 615.157L722.382 613.603L724.067 612.056L725.753 610.531L727.439 609.042L729.125 607.6L730.811 606.22L732.497 604.914L734.183 603.693L735.869 602.567L737.554 601.548L739.24 600.643L740.926 599.862L742.612 599.21L744.298 598.694L745.984 598.319L747.67 598.087L749.355 598L751.041 598.06L752.727 598.267L754.413 598.617L756.099 599.108L757.785 599.736L759.471 600.495L761.156 601.378L762.842 602.377L764.528 603.485L766.214 604.69L767.9 605.982L769.586 607.349L771.272 608.781L772.957 610.263L774.643 611.782L776.329 613.326L778.015 614.88L779.701 616.431L781.387 617.964L783.073 619.467L784.759 620.926L786.444 622.328L788.13 623.66L789.816 624.911L791.502 626.069L793.188 627.125L794.874 628.069L796.56 628.893L798.245 629.588L799.931 630.15L801.617 630.573L803.303 630.853L804.989 630.988L806.675 630.976L808.361 630.819L810.046 630.516L811.732 630.072L813.418 629.489L815.104 628.773L816.79 627.931L818.476 626.969L820.162 625.896L821.847 624.723L823.533 623.459L825.219 622.115L826.905 620.703L828.591 619.237L830.277 617.728L831.963 616.191L833.649 614.639L835.334 613.086L837.02 611.545L838.706 610.03L840.392 608.555L842.078 607.133L843.764 605.776L845.45 604.497L847.135 603.306L848.821 602.215L850.507 601.233L852.193 600.369L853.879 599.63L855.565 599.023L857.251 598.553L858.936 598.225L860.622 598.042L862.308 598.004L863.994 598.113L865.68 598.367L867.366 598.765L869.052 599.302L870.737 599.974L872.423 600.775L874.109 601.698L875.795 602.735L877.481 603.876L879.167 605.111L880.853 606.43L882.538 607.82L884.224 609.27L885.91 610.766L887.596 612.295L889.282 613.843L890.968 615.398L892.654 616.944L894.34 618.469L896.025 619.959L897.711 621.4L899.397 622.78L901.083 624.087L902.769 625.308L904.455 626.433L906.141 627.453L907.826 628.357L909.512 629.139L911.198 629.791L912.884 630.306L914.57 630.682L916.256 630.914L917.942 631L919.627 630.94L921.313 630.734L922.999 630.384L924.685 629.893L926.371 629.265L928.057 628.506L929.743 627.623L931.428 626.623L933.114 625.516L934.8 624.311L936.486 623.019L938.172 621.651L939.858 620.22L941.544 618.738L943.23 617.218L944.915 615.675L946.601 614.121L948.287 612.57L949.973 611.036L951.659 609.533" stroke="#2684FF" stroke-width="24" stroke-miterlimit="10" stroke-linecap="round" stroke-linejoin="round"/>
<path d="M207.682 551H196.102L173.468 511.635V551H162.677V495.581H174.821L196.891 534.269V495.581H207.682V551ZM251.051 515.207C254.51 519.543 256.24 524.669 256.24 530.584C256.24 536.6 254.51 541.751 251.051 546.037C247.592 550.298 242.341 552.429 235.298 552.429C228.255 552.429 223.003 550.298 219.544 546.037C216.085 541.751 214.356 536.6 214.356 530.584C214.356 524.669 216.085 519.543 219.544 515.207C223.003 510.871 228.255 508.703 235.298 508.703C242.341 508.703 247.592 510.871 251.051 515.207ZM235.26 517.764C232.127 517.764 229.708 518.879 228.004 521.11C226.325 523.316 225.485 526.474 225.485 530.584C225.485 534.695 226.325 537.866 228.004 540.097C229.708 542.327 232.127 543.443 235.26 543.443C238.393 543.443 240.8 542.327 242.479 540.097C244.158 537.866 244.998 534.695 244.998 530.584C244.998 526.474 244.158 523.316 242.479 521.11C240.8 518.879 238.393 517.764 235.26 517.764ZM308.239 529.269H296.283V551H284.966V495.581H312.149C316.034 495.656 319.017 496.132 321.097 497.01C323.203 497.887 324.982 499.178 326.436 500.882C327.639 502.286 328.592 503.84 329.294 505.544C329.995 507.249 330.346 509.191 330.346 511.372C330.346 514.004 329.682 516.598 328.354 519.155C327.025 521.686 324.832 523.479 321.774 524.531C324.331 525.559 326.135 527.025 327.188 528.93C328.266 530.81 328.805 533.693 328.805 537.578V541.3C328.805 543.831 328.905 545.548 329.106 546.451C329.406 547.879 330.108 548.932 331.211 549.609V551H318.465C318.114 549.772 317.864 548.782 317.713 548.03C317.413 546.476 317.25 544.884 317.225 543.255L317.149 538.104C317.099 534.57 316.448 532.214 315.194 531.036C313.966 529.858 311.648 529.269 308.239 529.269ZM315.27 519.192C317.576 518.14 318.729 516.059 318.729 512.951C318.729 509.592 317.613 507.337 315.382 506.184C314.129 505.532 312.249 505.206 309.743 505.206H296.283V520.095H309.404C312.011 520.095 313.966 519.794 315.27 519.192ZM338.675 495.581H350.18V551H338.675V495.581ZM370.051 503.702C370.051 507.487 369.123 510.47 367.269 512.65C365.439 514.831 362.857 516.247 359.524 516.899V512.951C361.98 512.174 363.672 510.858 364.599 509.003C365.101 507.901 365.314 506.785 365.238 505.657H359.336V495.769H370.051V503.702ZM405.412 511.898C408.621 513.954 410.463 517.488 410.939 522.501H400.224C400.073 521.122 399.685 520.032 399.058 519.23C397.88 517.776 395.875 517.049 393.043 517.049C390.712 517.049 389.045 517.413 388.042 518.14C387.065 518.867 386.576 519.719 386.576 520.696C386.576 521.924 387.102 522.814 388.155 523.366C389.208 523.942 392.93 524.932 399.321 526.336C403.582 527.339 406.778 528.855 408.909 530.885C411.014 532.941 412.067 535.51 412.067 538.593C412.067 542.653 410.551 545.974 407.518 548.556C404.51 551.113 399.848 552.391 393.531 552.391C387.09 552.391 382.327 551.038 379.244 548.331C376.186 545.598 374.657 542.127 374.657 537.916H385.523C385.749 539.821 386.237 541.174 386.989 541.977C388.318 543.405 390.774 544.12 394.359 544.12C396.464 544.12 398.131 543.806 399.359 543.18C400.612 542.553 401.239 541.613 401.239 540.36C401.239 539.157 400.738 538.242 399.735 537.615C398.732 536.989 395.01 535.911 388.568 534.382C383.931 533.229 380.66 531.788 378.755 530.058C376.851 528.354 375.898 525.897 375.898 522.689C375.898 518.904 377.377 515.658 380.335 512.951C383.317 510.219 387.503 508.853 392.892 508.853C398.005 508.853 402.179 509.868 405.412 511.898ZM450.944 510.019V551H440.079V510.019H450.944ZM450.944 495.243V505.131H440.079V495.243H450.944ZM479.877 517.952C476.242 517.952 473.748 519.493 472.395 522.576C471.693 524.205 471.342 526.286 471.342 528.817V551H460.664V510.094H471.004V516.072C472.382 513.966 473.686 512.45 474.914 511.522C477.119 509.868 479.914 509.041 483.298 509.041C487.534 509.041 490.993 510.156 493.675 512.387C496.382 514.593 497.736 518.265 497.736 523.403V551H486.757V526.073C486.757 523.917 486.469 522.263 485.892 521.11C484.84 519.004 482.834 517.952 479.877 517.952ZM546.313 543.368V551.376L541.238 551.564C536.174 551.739 532.715 550.862 530.861 548.932C529.657 547.704 529.056 545.812 529.056 543.255V518.027H523.341V510.395H529.056V498.965H539.658V510.395H546.313V518.027H539.658V539.683C539.658 541.362 539.871 542.415 540.298 542.841C540.724 543.242 542.027 543.443 544.208 543.443C544.534 543.443 544.872 543.443 545.223 543.443C545.599 543.418 545.962 543.393 546.313 543.368ZM589.457 526.938V551H578.516V526.073C578.516 523.867 578.14 522.087 577.388 520.734C576.411 518.829 574.556 517.876 571.824 517.876C568.992 517.876 566.836 518.829 565.357 520.734C563.903 522.614 563.177 525.308 563.177 528.817V551H552.499V495.769H563.177V515.357C564.731 512.976 566.523 511.322 568.553 510.395C570.608 509.442 572.764 508.966 575.02 508.966C577.551 508.966 579.845 509.404 581.9 510.282C583.981 511.159 585.685 512.5 587.013 514.305C588.141 515.834 588.831 517.413 589.081 519.042C589.332 520.646 589.457 523.278 589.457 526.938ZM609.742 510.019V551H598.876V510.019H609.742ZM609.742 495.243V505.131H598.876V495.243H609.742ZM647.622 511.898C650.831 513.954 652.673 517.488 653.149 522.501H642.434C642.283 521.122 641.895 520.032 641.268 519.23C640.09 517.776 638.085 517.049 635.253 517.049C632.922 517.049 631.255 517.413 630.252 518.14C629.275 518.867 628.786 519.719 628.786 520.696C628.786 521.924 629.312 522.814 630.365 523.366C631.418 523.942 635.14 524.932 641.532 526.336C645.793 527.339 648.988 528.855 651.119 530.885C653.224 532.941 654.277 535.51 654.277 538.593C654.277 542.653 652.761 545.974 649.728 548.556C646.72 551.113 642.058 552.391 635.741 552.391C629.3 552.391 624.537 551.038 621.454 548.331C618.396 545.598 616.867 542.127 616.867 537.916H627.733C627.959 539.821 628.448 541.174 629.199 541.977C630.528 543.405 632.984 544.12 636.569 544.12C638.674 544.12 640.341 543.806 641.569 543.18C642.822 542.553 643.449 541.613 643.449 540.36C643.449 539.157 642.948 538.242 641.945 537.615C640.942 536.989 637.22 535.911 630.779 534.382C626.142 533.229 622.871 531.788 620.966 530.058C619.061 528.354 618.108 525.897 618.108 522.689C618.108 518.904 619.587 515.658 622.545 512.951C625.527 510.219 629.713 508.853 635.102 508.853C640.216 508.853 644.389 509.868 647.622 511.898ZM702.742 519.907C698.431 519.907 695.536 521.31 694.057 524.118C693.23 525.697 692.816 528.128 692.816 531.412V551H682.026V510.019H692.252V517.162C693.907 514.43 695.348 512.563 696.576 511.56C698.581 509.881 701.188 509.041 704.396 509.041C704.597 509.041 704.76 509.054 704.885 509.079C705.035 509.079 705.349 509.091 705.825 509.116V520.095C705.148 520.02 704.547 519.969 704.02 519.944C703.494 519.919 703.068 519.907 702.742 519.907ZM746.45 538.969C746.174 541.4 744.909 543.869 742.653 546.375C739.144 550.361 734.231 552.354 727.914 552.354C722.701 552.354 718.101 550.674 714.116 547.315C710.131 543.957 708.138 538.493 708.138 530.923C708.138 523.829 709.93 518.39 713.514 514.605C717.124 510.821 721.798 508.928 727.538 508.928C730.947 508.928 734.018 509.567 736.75 510.846C739.482 512.124 741.738 514.142 743.517 516.899C745.122 519.33 746.162 522.15 746.638 525.358C746.914 527.238 747.027 529.945 746.976 533.479H718.929C719.079 537.59 720.37 540.473 722.801 542.127C724.28 543.155 726.06 543.668 728.14 543.668C730.346 543.668 732.138 543.042 733.516 541.789C734.268 541.112 734.933 540.172 735.509 538.969H746.45ZM735.847 526.411C735.672 523.579 734.807 521.436 733.253 519.982C731.724 518.503 729.819 517.764 727.538 517.764C725.057 517.764 723.127 518.541 721.748 520.095C720.395 521.649 719.543 523.754 719.192 526.411H735.847ZM765.043 558.181C766.196 559.159 768.138 559.647 770.87 559.647C774.731 559.647 777.312 558.357 778.616 555.775C779.468 554.121 779.894 551.338 779.894 547.428V544.796C778.866 546.551 777.763 547.867 776.585 548.744C774.455 550.373 771.685 551.188 768.276 551.188C763.013 551.188 758.802 549.346 755.643 545.661C752.51 541.951 750.944 536.938 750.944 530.622C750.944 524.531 752.46 519.418 755.493 515.282C758.526 511.121 762.825 509.041 768.389 509.041C770.444 509.041 772.237 509.354 773.766 509.981C776.372 511.059 778.478 513.039 780.082 515.921V510.019H790.496V548.895C790.496 554.183 789.607 558.169 787.827 560.851C784.769 565.463 778.904 567.769 770.231 567.769C764.993 567.769 760.719 566.741 757.411 564.686C754.102 562.63 752.272 559.56 751.921 555.474H763.577C763.877 556.727 764.366 557.63 765.043 558.181ZM763.238 537.014C764.692 540.473 767.299 542.202 771.058 542.202C773.565 542.202 775.683 541.262 777.412 539.382C779.142 537.477 780.007 534.457 780.007 530.321C780.007 526.436 779.18 523.479 777.525 521.448C775.896 519.418 773.703 518.403 770.946 518.403C767.186 518.403 764.592 520.17 763.163 523.704C762.411 525.584 762.035 527.903 762.035 530.66C762.035 533.041 762.436 535.159 763.238 537.014ZM810.781 510.019V551H799.915V510.019H810.781ZM810.781 495.243V505.131H799.915V495.243H810.781ZM854.602 515.207C858.061 519.543 859.79 524.669 859.79 530.584C859.79 536.6 858.061 541.751 854.602 546.037C851.143 550.298 845.892 552.429 838.849 552.429C831.805 552.429 826.554 550.298 823.095 546.037C819.636 541.751 817.907 536.6 817.907 530.584C817.907 524.669 819.636 519.543 823.095 515.207C826.554 510.871 831.805 508.703 838.849 508.703C845.892 508.703 851.143 510.871 854.602 515.207ZM838.811 517.764C835.678 517.764 833.259 518.879 831.555 521.11C829.875 523.316 829.036 526.474 829.036 530.584C829.036 534.695 829.875 537.866 831.555 540.097C833.259 542.327 835.678 543.443 838.811 543.443C841.944 543.443 844.35 542.327 846.03 540.097C847.709 537.866 848.549 534.695 848.549 530.584C848.549 526.474 847.709 523.316 846.03 521.11C844.35 518.879 841.944 517.764 838.811 517.764ZM886.016 517.952C882.381 517.952 879.887 519.493 878.534 522.576C877.832 524.205 877.481 526.286 877.481 528.817V551H866.803V510.094H877.143V516.072C878.521 513.966 879.824 512.45 881.053 511.522C883.258 509.868 886.053 509.041 889.437 509.041C893.673 509.041 897.132 510.156 899.814 512.387C902.521 514.593 903.874 518.265 903.874 523.403V551H892.896V526.073C892.896 523.917 892.608 522.263 892.031 521.11C890.978 519.004 888.973 517.952 886.016 517.952Z" fill="white"/>
<path d="M161.435 381.075L163.121 379.673L164.807 378.341L166.493 377.09L168.179 375.931L169.864 374.875L171.55 373.931L173.236 373.108L174.922 372.412L176.608 371.851L178.294 371.428L179.98 371.148L181.665 371.013L183.351 371.024L185.037 371.182L186.723 371.484L188.409 371.929L190.095 372.512L191.781 373.227L193.466 374.07L195.152 375.032L196.838 376.104L198.524 377.278L200.21 378.542L201.896 379.886L203.582 381.297L205.267 382.764L206.953 384.272L208.639 385.809L210.325 387.362L212.011 388.915L213.697 390.456L215.383 391.97L217.068 393.445L218.754 394.868L220.44 396.224L222.126 397.504L223.812 398.694L225.498 399.785L227.184 400.768L228.87 401.632L230.555 402.371L232.241 402.978L233.927 403.447L235.613 403.775L237.299 403.959L238.985 403.997L240.671 403.888L242.356 403.633L244.042 403.236L245.728 402.698L247.414 402.026L249.1 401.225L250.786 400.302L252.472 399.266L254.157 398.125L255.843 396.889L257.529 395.571L259.215 394.181L260.901 392.731L262.587 391.235L264.273 389.706L265.958 388.157L267.644 386.603L269.33 385.056L271.016 383.531L272.702 382.042L274.388 380.6L276.074 379.22L277.76 377.914L279.445 376.693L281.131 375.567L282.817 374.548L284.503 373.643L286.189 372.862L287.875 372.21L289.561 371.694L291.246 371.319L292.932 371.087L294.618 371L296.304 371.06L297.99 371.267L299.676 371.617L301.362 372.108L303.047 372.736L304.733 373.495L306.419 374.378L308.105 375.377L309.791 376.485L311.477 377.69L313.163 378.982L314.848 380.349L316.534 381.781L318.22 383.263L319.906 384.782L321.592 386.326L323.278 387.88L324.964 389.431L326.65 390.964L328.335 392.467L330.021 393.926L331.707 395.328L333.393 396.66L335.079 397.911L336.765 399.069L338.451 400.125L340.136 401.069L341.822 401.893L343.508 402.588L345.194 403.15L346.88 403.573L348.566 403.853L350.252 403.988L351.937 403.976L353.623 403.819L355.309 403.516L356.995 403.072L358.681 402.489L360.367 401.773L362.053 400.931L363.738 399.969L365.424 398.896L367.11 397.723L368.796 396.459L370.482 395.115L372.168 393.703L373.854 392.237L375.539 390.728L377.225 389.191L378.911 387.639L380.597 386.086L382.283 384.545L383.969 383.03L385.655 381.555L387.341 380.133L389.026 378.776L390.712 377.497L392.398 376.306L394.084 375.215L395.77 374.233L397.456 373.369L399.142 372.63L400.827 372.023L402.513 371.553L404.199 371.225L405.885 371.042L407.571 371.004L409.257 371.113L410.943 371.367L412.628 371.765L414.314 372.302L416 372.974L417.686 373.775L419.372 374.698L421.058 375.735L422.744 376.876L424.429 378.111L426.115 379.43L427.801 380.82L429.487 382.27L431.173 383.766L432.859 385.295L434.545 386.843L436.231 388.398L437.916 389.944L439.602 391.469L441.288 392.959L442.974 394.4L444.66 395.78L446.346 397.087L448.032 398.308L449.717 399.433L451.403 400.453L453.089 401.357L454.775 402.139L456.461 402.791L458.147 403.306L459.833 403.682L461.518 403.914L463.204 404L464.89 403.94L466.576 403.734L468.262 403.384L469.948 402.893L471.634 402.265L473.319 401.506L475.005 400.623L476.691 399.623L478.377 398.516L480.063 397.311L481.749 396.019L483.435 394.651L485.121 393.22L486.806 391.738L488.492 390.218L490.178 388.675L491.864 387.121L493.55 385.57L495.236 384.036L496.922 382.533L498.607 381.075L500.293 379.673L501.979 378.341L503.665 377.09L505.351 375.931L507.037 374.875L508.723 373.931L510.408 373.108L512.094 372.412L513.78 371.851L515.466 371.428L517.152 371.148L518.838 371.013L520.524 371.024L522.209 371.182L523.895 371.484L525.581 371.929L527.267 372.512L528.953 373.227L530.639 374.07L532.325 375.032L534.01 376.104L535.696 377.278L537.382 378.542L539.068 379.886L540.754 381.297L542.44 382.764L544.126 384.272L545.812 385.809L547.497 387.362L549.183 388.915L550.869 390.456L552.555 391.97L554.241 393.445L555.927 394.868L557.613 396.224L559.298 397.504L560.984 398.694L562.67 399.785L564.356 400.768L566.042 401.632L567.728 402.371L569.414 402.978L571.099 403.447L572.785 403.775L574.471 403.959L576.157 403.997L577.843 403.888L579.529 403.633L581.215 403.236L582.9 402.698L584.586 402.026L586.272 401.225L587.958 400.302L589.644 399.266L591.33 398.125L593.016 396.889L594.702 395.571L596.387 394.181L598.073 392.731L599.759 391.235L601.445 389.706L603.131 388.157L604.817 386.603L606.503 385.056L608.188 383.531L609.874 382.042L611.56 380.6L613.246 379.22L614.932 377.914L616.618 376.693L618.304 375.567L619.989 374.548L621.675 373.643L623.361 372.862L625.047 372.21L626.733 371.694L628.419 371.319L630.105 371.087L631.79 371L633.476 371.06L635.162 371.267L636.848 371.617L638.534 372.108L640.22 372.736L641.906 373.495L643.592 374.378L645.277 375.377L646.963 376.485L648.649 377.69L650.335 378.982L652.021 380.349L653.707 381.781L655.393 383.263L657.078 384.782L658.764 386.326L660.45 387.88L662.136 389.431L663.822 390.964L665.508 392.467L667.194 393.926L668.879 395.328L670.565 396.66L672.251 397.911L673.937 399.069L675.623 400.125L677.309 401.069L678.995 401.893L680.68 402.588L682.366 403.15L684.052 403.573L685.738 403.853L687.424 403.988L689.11 403.976L690.796 403.819L692.481 403.516L694.167 403.072L695.853 402.489L697.539 401.773L699.225 400.931L700.911 399.969L702.597 398.896L704.283 397.723L705.968 396.459L707.654 395.115L709.34 393.703L711.026 392.237L712.712 390.728L714.398 389.191L716.084 387.639L717.769 386.086L719.455 384.545L721.141 383.03L722.827 381.555L724.513 380.133L726.199 378.776L727.885 377.497L729.57 376.306L731.256 375.215L732.942 374.233L734.628 373.369L736.314 372.63L738 372.023L739.686 371.553L741.371 371.225L743.057 371.042L744.743 371.004L746.429 371.113L748.115 371.367L749.801 371.765L751.487 372.302L753.173 372.974L754.858 373.775L756.544 374.698L758.23 375.735L759.916 376.876L761.602 378.111L763.288 379.43L764.974 380.82L766.659 382.27L768.345 383.766L770.031 385.295L771.717 386.843L773.403 388.398L775.089 389.944L776.775 391.469L778.46 392.959L780.146 394.4L781.832 395.78L783.518 397.087L785.204 398.308L786.89 399.433L788.576 400.453L790.261 401.357L791.947 402.139L793.633 402.791L795.319 403.306L797.005 403.682L798.691 403.914L800.377 404L802.063 403.94L803.748 403.734L805.434 403.384L807.12 402.893L808.806 402.265L810.492 401.506L812.178 400.623L813.864 399.623L815.549 398.516L817.235 397.311L818.921 396.019L820.607 394.651L822.293 393.22L823.979 391.738L825.665 390.218L827.35 388.675L829.036 387.121L830.722 385.57L832.408 384.036L834.094 382.533" stroke="#FFCC17" stroke-width="24" stroke-miterlimit="10" stroke-linecap="round" stroke-linejoin="round"/>
<path d="M385 381.075L386.686 379.673L388.372 378.341L390.058 377.09L391.743 375.931L393.429 374.875L395.115 373.931L396.801 373.108L398.487 372.412L400.173 371.851L401.859 371.428L403.544 371.148L405.23 371.013L406.916 371.024L408.602 371.182L410.288 371.484L411.974 371.929L413.66 372.512L415.346 373.227L417.031 374.07L418.717 375.032L420.403 376.104L422.089 377.278L423.775 378.542L425.461 379.886L427.147 381.297L428.832 382.764L430.518 384.272L432.204 385.809L433.89 387.362L435.576 388.915L437.262 390.456L438.948 391.97L440.633 393.445L442.319 394.868L444.005 396.224L445.691 397.504L447.377 398.694L449.063 399.785L450.749 400.768L452.434 401.632L454.12 402.371L455.806 402.978L457.492 403.447L459.178 403.775L460.864 403.959L462.55 403.997L464.236 403.888L465.921 403.633L467.607 403.236L469.293 402.698L470.979 402.026L472.665 401.225L474.351 400.302L476.037 399.266L477.722 398.125L479.408 396.889L481.094 395.571L482.78 394.181L484.466 392.731L486.152 391.235L487.838 389.706L489.523 388.157L491.209 386.603L492.895 385.056L494.581 383.531L496.267 382.042L497.953 380.6L499.639 379.22L501.324 377.914L503.01 376.693L504.696 375.567L506.382 374.548L508.068 373.643L509.754 372.862L511.44 372.21L513.125 371.694L514.811 371.319L516.497 371.087L518.183 371L519.869 371.06L521.555 371.267L523.241 371.617L524.927 372.108L526.612 372.736L528.298 373.495L529.984 374.378L531.67 375.377L533.356 376.485L535.042 377.69L536.728 378.982L538.413 380.349L540.099 381.781L541.785 383.263L543.471 384.782L545.157 386.326L546.843 387.88L548.529 389.431L550.214 390.964L551.9 392.467L553.586 393.926L555.272 395.328L556.958 396.66L558.644 397.911L560.33 399.069L562.015 400.125L563.701 401.069L565.387 401.893L567.073 402.588L568.759 403.15L570.445 403.573L572.131 403.853L573.817 403.988L575.502 403.976L577.188 403.819L578.874 403.516L580.56 403.072L582.246 402.489L583.932 401.773L585.618 400.931L587.303 399.969L588.989 398.896L590.675 397.723L592.361 396.459L594.047 395.115L595.733 393.703L597.419 392.237L599.104 390.728L600.79 389.191L602.476 387.639L604.162 386.086L605.848 384.545L607.534 383.03L609.22 381.555L610.905 380.133L612.591 378.776L614.277 377.497L615.963 376.306L617.649 375.215L619.335 374.233L621.021 373.369L622.707 372.63L624.392 372.023L626.078 371.553L627.764 371.225L629.45 371.042L631.136 371.004L632.822 371.113L634.508 371.367L636.193 371.765L637.879 372.302L639.565 372.974L641.251 373.775L642.937 374.698L644.623 375.735L646.309 376.876L647.994 378.111L649.68 379.43L651.366 380.82L653.052 382.27L654.738 383.766L656.424 385.295L658.11 386.843L659.795 388.398L661.481 389.944L663.167 391.469L664.853 392.959L666.539 394.4L668.225 395.78L669.911 397.087L671.596 398.308L673.282 399.433L674.968 400.453L676.654 401.357L678.34 402.139L680.026 402.791L681.712 403.306L683.398 403.682L685.083 403.914L686.769 404L688.455 403.94L690.141 403.734L691.827 403.384L693.513 402.893L695.199 402.265L696.884 401.506L698.57 400.623L700.256 399.623L701.942 398.516L703.628 397.311L705.314 396.019L707 394.651L708.685 393.22L710.371 391.738L712.057 390.218L713.743 388.675L715.429 387.121L717.115 385.57L718.801 384.036L720.486 382.533L722.172 381.075L723.858 379.673L725.544 378.341L727.23 377.09L728.916 375.931L730.602 374.875L732.288 373.931L733.973 373.108L735.659 372.412L737.345 371.851L739.031 371.428L740.717 371.148L742.403 371.013L744.089 371.024L745.774 371.182L747.46 371.484L749.146 371.929L750.832 372.512L752.518 373.227L754.204 374.07L755.89 375.032L757.575 376.104L759.261 377.278L760.947 378.542L762.633 379.886L764.319 381.297L766.005 382.764L767.691 384.272L769.376 385.809L771.062 387.362L772.748 388.915L774.434 390.456L776.12 391.97L777.806 393.445L779.492 394.868L781.178 396.224L782.863 397.504L784.549 398.694L786.235 399.785L787.921 400.768L789.607 401.632L791.293 402.371L792.979 402.978L794.664 403.447L796.35 403.775L798.036 403.959L799.722 403.997L801.408 403.888L803.094 403.633L804.78 403.236L806.465 402.698L808.151 402.026L809.837 401.225L811.523 400.302L813.209 399.266L814.895 398.125L816.581 396.889L818.266 395.571L819.952 394.181L821.638 392.731L823.324 391.235L825.01 389.706L826.696 388.157L828.382 386.603L830.067 385.056L831.753 383.531L833.439 382.042L835.125 380.6L836.811 379.22L838.497 377.914L840.183 376.693L841.869 375.567L843.554 374.548L845.24 373.643L846.926 372.862L848.612 372.21L850.298 371.694L851.984 371.319L853.67 371.087L855.355 371L857.041 371.06L858.727 371.267L860.413 371.617L862.099 372.108L863.785 372.736L865.471 373.495L867.156 374.378L868.842 375.377L870.528 376.485L872.214 377.69L873.9 378.982L875.586 380.349L877.272 381.781L878.957 383.263L880.643 384.782L882.329 386.326L884.015 387.88L885.701 389.431L887.387 390.964L889.073 392.467L890.759 393.926L892.444 395.328L894.13 396.66L895.816 397.911L897.502 399.069L899.188 400.125L900.874 401.069L902.56 401.893L904.245 402.588L905.931 403.15L907.617 403.573L909.303 403.853L910.989 403.988L912.675 403.976L914.361 403.819L916.046 403.516L917.732 403.072L919.418 402.489L921.104 401.773L922.79 400.931L924.476 399.969L926.162 398.896L927.847 397.723L929.533 396.459L931.219 395.115L932.905 393.703L934.591 392.237L936.277 390.728L937.963 389.191L939.649 387.639L941.334 386.086L943.02 384.545L944.706 383.03L946.392 381.555L948.078 380.133L949.764 378.776L951.45 377.497L953.135 376.306L954.821 375.215L956.507 374.233L958.193 373.369L959.879 372.63L961.565 372.023L963.251 371.553L964.936 371.225L966.622 371.042L968.308 371.004L969.994 371.113L971.68 371.367L973.366 371.765L975.052 372.302L976.737 372.974L978.423 373.775L980.109 374.698L981.795 375.735L983.481 376.876L985.167 378.111L986.853 379.43L988.538 380.82L990.224 382.27L991.91 383.766L993.596 385.295L995.282 386.843L996.968 388.398L998.654 389.944L1000.34 391.469L1002.03 392.959L1003.71 394.4L1005.4 395.78L1007.08 397.087L1008.77 398.308L1010.45 399.433L1012.14 400.453L1013.83 401.357L1015.51 402.139L1017.2 402.791L1018.88 403.306L1020.57 403.682L1022.26 403.914L1023.94 404L1025.63 403.94L1027.31 403.734L1029 403.384L1030.69 402.893L1032.37 402.265L1034.06 401.506L1035.74 400.623L1037.43 399.623L1039.11 398.516L1040.8 397.311L1042.49 396.019L1044.17 394.651L1045.86 393.22L1047.54 391.738L1049.23 390.218L1050.92 388.675L1052.6 387.121L1054.29 385.57L1055.97 384.036L1057.66 382.533" stroke="#FFCC17" stroke-width="24" stroke-miterlimit="10" stroke-linecap="round" stroke-linejoin="round"/>
</svg>
