<svg width="304" height="182" viewBox="0 0 304 182" fill="none" xmlns="http://www.w3.org/2000/svg">
<path d="M86.4 66.4C86.4 70.1 86.8 73.1 87.5 75.3C88.3 77.5 89.3 79.9 90.7 82.5C91.2 83.3 91.4 84.1 91.4 84.8C91.4 85.8 90.8 86.8 89.5 87.8L83.2 92C82.3 92.6 81.4 92.9 80.6 92.9C79.6 92.9 78.6 92.4 77.6 91.5C76.2 90 75 88.4 74 86.8C73 85.1 72 83.2 70.9 80.9C63.1 90.1 53.3 94.7 41.5 94.7C33.1 94.7 26.4 92.3 21.5 87.5C16.6 82.7 14.1 76.3 14.1 68.3C14.1 59.8 17.1 52.9 23.2 47.7C29.3 42.5 37.4 39.9 47.7 39.9C51.1 39.9 54.6 40.2 58.3 40.7C62 41.2 65.8 42 69.8 42.9V35.6C69.8 28 68.2 22.7 65.1 19.6C61.9 16.5 56.5 15 48.8 15C45.3 15 41.7 15.4 38 16.3C34.3 17.2 30.7 18.3 27.2 19.7C25.6 20.4 24.4 20.8 23.7 21C23 21.2 22.5 21.3 22.1 21.3C20.7 21.3 20 20.3 20 18.2V13.3C20 11.7 20.2 10.5 20.7 9.80001C21.2 9.10001 22.1 8.40001 23.5 7.70001C27 5.90001 31.2 4.40001 36.1 3.20001C41 1.90001 46.2 1.30001 51.7 1.30001C63.6 1.30001 72.3 4.00001 77.9 9.40001C83.4 14.8 86.2 23 86.2 34V66.4H86.4ZM45.8 81.6C49.1 81.6 52.5 81 56.1 79.8C59.7 78.6 62.9 76.4 65.6 73.4C67.2 71.5 68.4 69.4 69 67C69.6 64.6 70 61.7 70 58.3V54.1C67.1 53.4 64 52.8 60.8 52.4C57.6 52 54.5 51.8 51.4 51.8C44.7 51.8 39.8 53.1 36.5 55.8C33.2 58.5 31.6 62.3 31.6 67.3C31.6 72 32.8 75.5 35.3 77.9C37.7 80.4 41.2 81.6 45.8 81.6ZM126.1 92.4C124.3 92.4 123.1 92.1 122.3 91.4C121.5 90.8 120.8 89.4 120.2 87.5L96.7 10.2C96.1 8.20001 95.8 6.90001 95.8 6.20001C95.8 4.60001 96.6 3.70001 98.2 3.70001H108C109.9 3.70001 111.2 4.00001 111.9 4.70001C112.7 5.30001 113.3 6.70001 113.9 8.60001L130.7 74.8L146.3 8.60001C146.8 6.60001 147.4 5.30001 148.2 4.70001C149 4.10001 150.4 3.70001 152.2 3.70001H160.2C162.1 3.70001 163.4 4.00001 164.2 4.70001C165 5.30001 165.7 6.70001 166.1 8.60001L181.9 75.6L199.2 8.60001C199.8 6.60001 200.5 5.30001 201.2 4.70001C202 4.10001 203.3 3.70001 205.1 3.70001H214.4C216 3.70001 216.9 4.50001 216.9 6.20001C216.9 6.70001 216.8 7.20001 216.7 7.80001C216.6 8.40001 216.4 9.20001 216 10.3L191.9 87.6C191.3 89.6 190.6 90.9 189.8 91.5C189 92.1 187.7 92.5 186 92.5H177.4C175.5 92.5 174.2 92.2 173.4 91.5C172.6 90.8 171.9 89.5 171.5 87.5L156 23L140.6 87.4C140.1 89.4 139.5 90.7 138.7 91.4C137.9 92.1 136.5 92.4 134.7 92.4H126.1ZM254.6 95.1C249.4 95.1 244.2 94.5 239.2 93.3C234.2 92.1 230.3 90.8 227.7 89.3C226.1 88.4 225 87.4 224.6 86.5C224.2 85.6 224 84.6 224 83.7V78.6C224 76.5 224.8 75.5 226.3 75.5C226.9 75.5 227.5 75.6 228.1 75.8C228.7 76 229.6 76.4 230.6 76.8C234 78.3 237.7 79.5 241.6 80.3C245.6 81.1 249.5 81.5 253.5 81.5C259.8 81.5 264.7 80.4 268.1 78.2C271.5 76 273.3 72.8 273.3 68.7C273.3 65.9 272.4 63.6 270.6 61.7C268.8 59.8 265.4 58.1 260.5 56.5L246 52C238.7 49.7 233.3 46.3 230 41.8C226.7 37.4 225 32.5 225 27.3C225 23.1 225.9 19.4 227.7 16.2C229.5 13 231.9 10.2 234.9 8.00001C237.9 5.70001 241.3 4.00001 245.3 2.80001C249.3 1.60001 253.5 1.10001 257.9 1.10001C260.1 1.10001 262.4 1.20001 264.6 1.50001C266.9 1.80001 269 2.20001 271.1 2.60001C273.1 3.10001 275 3.60001 276.8 4.20001C278.6 4.80001 280 5.40001 281 6.00001C282.4 6.80001 283.4 7.60001 284 8.50001C284.6 9.30001 284.9 10.4 284.9 11.8V16.5C284.9 18.6 284.1 19.7 282.6 19.7C281.8 19.7 280.5 19.3 278.8 18.5C273.1 15.9 266.7 14.6 259.6 14.6C253.9 14.6 249.4 15.5 246.3 17.4C243.2 19.3 241.6 22.2 241.6 26.3C241.6 29.1 242.6 31.5 244.6 33.4C246.6 35.3 250.3 37.2 255.6 38.9L269.8 43.4C277 45.7 282.2 48.9 285.3 53C288.4 57.1 289.9 61.8 289.9 67C289.9 71.3 289 75.2 287.3 78.6C285.5 82 283.1 85 280 87.4C276.9 89.9 273.2 91.7 268.9 93C264.4 94.4 259.7 95.1 254.6 95.1Z" fill="white"/>
<path fill-rule="evenodd" clip-rule="evenodd" d="M273.5 143.7C240.6 168 192.8 180.9 151.7 180.9C94.1 180.9 42.2 159.6 3 124.2C-0.099999 121.4 2.7 117.6 6.4 119.8C48.8 144.4 101.1 159.3 155.2 159.3C191.7 159.3 231.8 151.7 268.7 136.1C274.2 133.6 278.9 139.7 273.5 143.7Z" fill="#FF9900"/>
<path fill-rule="evenodd" clip-rule="evenodd" d="M287.2 128.1C283 122.7 259.4 125.5 248.7 126.8C245.5 127.2 245 124.4 247.9 122.3C266.7 109.1 297.6 112.9 301.2 117.3C304.8 121.8 300.2 152.7 282.6 167.5C279.9 169.8 277.3 168.6 278.5 165.6C282.5 155.7 291.4 133.4 287.2 128.1Z" fill="#FF9900"/>
</svg>
