<svg xmlns="http://www.w3.org/2000/svg" width="100" height="100" fill="none"><g filter="url(#a)"><rect width="80" height="80" x="10" y="6" fill="url(#b)" rx="16"/></g><g filter="url(#c)"><path fill="#fff" d="M56 28 44 40h6.06c4.08 0 5.94 3.84 5.94 6v18h11.94c0-4.46.06-15.504.06-24 0-7.38-6.24-12-12-12Z"/></g><g filter="url(#d)"><path fill="#fff" fill-rule="evenodd" d="M32 28.96c0-.53.43-.96.96-.96h1.2c.53 0 .96.43.96.96v10.08c0 .53-.43.96-.96.96h-1.2a.96.96 0 0 1-.96-.96V28.96Zm5.4-.96a.96.96 0 0 0-.96.96v10.08c0 .53.43.96.96.96h1.2c.53 0 .96-.43.96-.96V28.96a.96.96 0 0 0-.96-.96h-1.2Zm4.44 0a.96.96 0 0 0-.96.96v10.08c0 .53.43.96.96.96H44V28.96a.96.96 0 0 0-.96-.96h-1.2Zm-9.278 23.438A1.92 1.92 0 0 0 32 52.794V63.04c0 .53.43.96.96.96h1.2c.53 0 .96-.43.96-.96V49.46a.24.24 0 0 0-.41-.17l-2.148 2.148Zm3.878-3.083c0-.509.202-.997.562-1.357l2.148-2.148a.24.24 0 0 1 .41.17v18.02c0 .53-.43.96-.96.96h-1.2a.96.96 0 0 1-.96-.96V48.355Zm5.003-5.797a1.92 1.92 0 0 0-.563 1.357V63.04c0 .53.43.96.96.96h1.2c.53 0 .96-.43.96-.96V40l-2.557 2.558Z" clip-rule="evenodd"/></g><defs><filter id="a" width="100" height="100" x="0" y="0" color-interpolation-filters="sRGB" filterUnits="userSpaceOnUse"><feFlood flood-opacity="0" result="BackgroundImageFix"/><feColorMatrix in="SourceAlpha" values="0 0 0 0 0 0 0 0 0 0 0 0 0 0 0 0 0 0 127 0"/><feOffset dy="4"/><feGaussianBlur stdDeviation="5"/><feColorMatrix values="0 0 0 0 0 0 0 0 0 0 0 0 0 0 0 0 0 0 0.5 0"/><feBlend in2="BackgroundImageFix" result="effect1_dropShadow"/><feBlend in="SourceGraphic" in2="effect1_dropShadow" result="shape"/><feColorMatrix in="SourceAlpha" result="hardAlpha" values="0 0 0 0 0 0 0 0 0 0 0 0 0 0 0 0 0 0 127 0"/><feOffset dy="1"/><feComposite in2="hardAlpha" k2="-1" k3="1" operator="arithmetic"/><feColorMatrix values="0 0 0 0 1 0 0 0 0 1 0 0 0 0 1 0 0 0 0.25 0"/><feBlend in2="shape" result="effect2_innerShadow"/><feColorMatrix in="SourceAlpha" result="hardAlpha" values="0 0 0 0 0 0 0 0 0 0 0 0 0 0 0 0 0 0 127 0"/><feOffset dy="-1"/><feGaussianBlur stdDeviation=".5"/><feComposite in2="hardAlpha" k2="-1" k3="1" operator="arithmetic"/><feColorMatrix values="0 0 0 0 0 0 0 0 0 0 0 0 0 0 0 0 0 0 0.25 0"/><feBlend in2="effect2_innerShadow" result="effect3_innerShadow"/></filter><filter id="c" width="28" height="40" x="42" y="27" color-interpolation-filters="sRGB" filterUnits="userSpaceOnUse"><feFlood flood-opacity="0" result="BackgroundImageFix"/><feColorMatrix in="SourceAlpha" values="0 0 0 0 0 0 0 0 0 0 0 0 0 0 0 0 0 0 127 0"/><feOffset dy="1"/><feGaussianBlur stdDeviation="1"/><feColorMatrix values="0 0 0 0 0.357441 0 0 0 0 0.211771 0 0 0 0 0.475 0 0 0 0.35 0"/><feBlend in2="BackgroundImageFix" result="effect1_dropShadow"/><feBlend in="SourceGraphic" in2="effect1_dropShadow" result="shape"/><feColorMatrix in="SourceAlpha" result="hardAlpha" values="0 0 0 0 0 0 0 0 0 0 0 0 0 0 0 0 0 0 127 0"/><feOffset dy="-1"/><feGaussianBlur stdDeviation="1"/><feComposite in2="hardAlpha" k2="-1" k3="1" operator="arithmetic"/><feColorMatrix values="0 0 0 0 0.340644 0 0 0 0 0.25776 0 0 0 0 0.6125 0 0 0 0.35 0"/><feBlend in2="shape" result="effect2_innerShadow"/></filter><filter id="d" width="16" height="40" x="30" y="27" color-interpolation-filters="sRGB" filterUnits="userSpaceOnUse"><feFlood flood-opacity="0" result="BackgroundImageFix"/><feColorMatrix in="SourceAlpha" values="0 0 0 0 0 0 0 0 0 0 0 0 0 0 0 0 0 0 127 0"/><feOffset dy="1"/><feGaussianBlur stdDeviation="1"/><feColorMatrix values="0 0 0 0 0.357441 0 0 0 0 0.211771 0 0 0 0 0.475 0 0 0 0.35 0"/><feBlend in2="BackgroundImageFix" result="effect1_dropShadow"/><feBlend in="SourceGraphic" in2="effect1_dropShadow" result="shape"/><feColorMatrix in="SourceAlpha" result="hardAlpha" values="0 0 0 0 0 0 0 0 0 0 0 0 0 0 0 0 0 0 127 0"/><feOffset dy="-1"/><feGaussianBlur stdDeviation="1"/><feComposite in2="hardAlpha" k2="-1" k3="1" operator="arithmetic"/><feColorMatrix values="0 0 0 0 0.340644 0 0 0 0 0.25776 0 0 0 0 0.6125 0 0 0 0.35 0"/><feBlend in2="shape" result="effect2_innerShadow"/></filter><linearGradient id="b" x1="90" x2="-6.121" y1="6" y2="53.099" gradientUnits="userSpaceOnUse"><stop stop-color="#E7B28C"/><stop offset=".497" stop-color="#BD62B6"/><stop offset="1" stop-color="#6658C5"/></linearGradient></defs></svg>