<?xml version="1.0" encoding="UTF-8"?>
<svg fill="none" viewBox="0 0 246 50" xmlns="http://www.w3.org/2000/svg">
<g filter="url(#d)">
<path d="m32.063 1.9373-15.063 15.063h8.08c5.4401 0 7.9201 5.1199 7.9201 8v22.72c0 0.7069 0.573 1.28 1.28 1.28h13.36c0.7069 0 1.28-0.5711 1.281-1.278 0.0091-6.583 0.079-20.136 0.079-30.722 0-9.2768-7.3947-15.283-14.676-15.94-0.8453-0.076286-1.6607 0.27705-2.2608 0.87717z" fill="url(#a)"/>
</g>
<g filter="url(#c)" style="mix-blend-mode:lighten">
<path d="m32.063 1.9373-15.063 15.063h8.08c5.4401 0 7.9201 5.1199 7.9201 8v22.72c0 0.7069 0.573 1.28 1.28 1.28h13.36c0.7069 0 1.28-0.5711 1.281-1.278 0.0091-6.583 0.079-20.136 0.079-30.722 0-9.2768-7.3947-15.283-14.676-15.94-0.8453-0.076286-1.6607 0.27705-2.2608 0.87717z" fill="#000"/>
</g>
<g filter="url(#b)">
<path d="m1 2.28c0-0.70692 0.57308-1.28 1.28-1.28h1.6c0.70692 0 1.28 0.57308 1.28 1.28v13.44c0 0.707-0.57308 1.28-1.28 1.28h-1.6c-0.70692 0-1.28-0.573-1.28-1.28v-13.44zm7.2-1.28c-0.70693 0-1.28 0.57308-1.28 1.28v13.44c0 0.707 0.57308 1.28 1.28 1.28h1.6c0.70688 0 1.28-0.573 1.28-1.28v-13.44c0-0.70692-0.5731-1.28-1.28-1.28h-1.6zm5.92 0c-0.7069 0-1.28 0.57308-1.28 1.28v13.44c0 0.707 0.5731 1.28 1.28 1.28h2.88v-14.72c0-0.70692-0.573-1.28-1.28-1.28h-1.6zm-12.37 31.25c-0.4801 0.4801-0.74981 1.1312-0.74981 1.8102v13.66c0 0.7069 0.57308 1.28 1.28 1.28h1.6c0.70692 0 1.28-0.5731 1.28-1.28v-18.108c0-0.2851-0.34469-0.4278-0.54628-0.2262l-2.8639 2.8639zm5.1702-4.1099c0-0.6789 0.26972-1.3301 0.74981-1.8102l2.8639-2.8639c0.2016-0.2016 0.5463-0.0588 0.5463 0.2263v24.028c0 0.7069-0.5731 1.28-1.28 1.28h-1.6c-0.70693 0-1.28-0.5731-1.28-1.28v-19.58zm6.6698-7.7301c-0.4801 0.4801-0.7498 1.1312-0.7498 1.8102v25.5c0 0.7069 0.5731 1.28 1.28 1.28h1.6c0.707 0 1.28-0.5731 1.28-1.28v-30.72l-3.4102 3.4102z" clip-rule="evenodd" fill="#F5F4F1" fill-rule="evenodd"/>
</g>
<path d="M71.16 37V12.724H65.244V37H71.16Z" fill="#EBEBF2"/>
<path d="m81.109 18.674h-5.678v18.326h5.814v-9.01c0-3.876 2.856-5.1 5.338-5.1 2.788 0 4.488 1.156 4.488 4.046v10.064h5.814v-11.968c0-4.726-3.4-6.8-7.99-6.8-3.094 0-5.61 0.85-7.616 2.754h-0.17v-2.312z" fill="#EBEBF2"/>
<path d="m111.71 15.784c1.02 0 1.53 0.068 2.006 0.136v-4.114c-0.476-0.068-1.36-0.238-3.094-0.238-5.1 0-8.092 1.326-8.092 5.814v1.292h-3.1624v3.74h3.1624v14.62h5.814v-14.62h4.964v-3.74h-4.964v-0.578c0-2.108 1.462-2.312 3.366-2.312z" fill="#EBEBF2"/>
<path d="m115.84 18.674v18.326h5.814v-8.024c0-4.284 3.4-5.27 6.596-5.27 1.122 0 2.176 0.17 2.924 0.34v-5.644c-0.476-0.136-1.156-0.204-1.768-0.204-3.502 0-5.916 0.952-7.718 2.89h-0.17v-2.414h-5.678z" fill="#EBEBF2"/>
<path d="m154.01 34.042v-10.37c0-4.386-4.182-5.644-10.064-5.644-5.406 0-10.132 1.53-10.268 6.12h6.12c0.136-1.53 1.904-2.176 4.182-2.176 2.822 0 3.978 0.68 3.978 1.7 0 0.952-0.646 1.36-2.108 1.496l-7.582 0.782c-3.332 0.34-5.814 1.802-5.814 5.78 0 4.148 3.672 5.95 7.548 5.95 3.502 0 6.528-1.02 8.33-3.264v0.612c0 0.952 0.204 1.666 0.51 1.972h5.678v-0.204c-0.476-0.578-0.51-1.7-0.51-2.754zm-5.814-5.032c0 3.706-3.876 4.93-6.46 4.93-1.904 0-3.264-0.578-3.264-2.244 0-1.53 1.054-2.108 2.618-2.312l5.406-0.782c0.612-0.068 1.326-0.204 1.7-0.476v0.884z" fill="#EBEBF2"/>
<path d="m168.55 33.294c-3.468 0-5.474-1.938-5.474-5.44s2.006-5.44 5.474-5.44c3.706 0 4.93 1.598 5.236 3.196h6.358c-0.578-4.318-3.604-7.582-11.594-7.582-7.412 0-11.492 3.604-11.492 9.826 0 6.188 4.08 9.826 11.492 9.826 7.99 0 11.084-3.298 11.662-7.684h-6.392c-0.306 1.7-1.564 3.298-5.27 3.298z" fill="#EBEBF2"/>
<path d="m194.19 18.028c-7.616 0-11.696 3.638-11.696 9.826s4.08 9.826 11.696 9.826 11.696-3.638 11.696-9.826-4.08-9.826-11.696-9.826zm0 15.266c-3.672 0-5.678-1.938-5.678-5.44s2.006-5.44 5.678-5.44 5.678 1.938 5.678 5.44-2.006 5.44-5.678 5.44z" fill="#EBEBF2"/>
<path d="m223.08 24.148h6.12c-0.17-4.59-4.896-6.12-10.778-6.12-5.746 0-10.098 1.462-10.098 5.814 0 3.774 2.584 4.964 6.494 5.474l6.29 0.816c1.734 0.238 2.448 0.612 2.448 1.7 0 1.19-1.326 1.972-4.59 1.972-3.026 0-4.896-0.646-5.032-2.788h-6.256c0.204 5.372 4.896 6.664 11.186 6.664 6.868 0 11.05-1.394 11.05-6.154 0-4.08-2.448-5.27-6.426-5.712l-6.698-0.782c-1.734-0.204-2.312-0.578-2.312-1.53 0-0.986 1.19-1.666 3.91-1.666 2.652 0 4.556 0.578 4.692 2.312z" fill="#EBEBF2"/>
<path d="m242 32.58c-1.462 0-2.278-0.408-2.278-1.768v-8.398h4.964v-3.74h-4.964v-4.998h-5.814v4.998h-3.162v3.74h3.162v9.452c0 4.012 1.7 5.44 6.936 5.44 1.394 0 3.026-0.17 3.808-0.306v-4.59c-0.816 0.136-2.006 0.17-2.652 0.17z" fill="#EBEBF2"/>
<defs>
<filter id="d" x="16.2" y=".40986" width="33.6" height="49.55" color-interpolation-filters="sRGB" filterUnits="userSpaceOnUse">
<feFlood flood-opacity="0" result="BackgroundImageFix"/>
<feColorMatrix in="SourceAlpha" values="0 0 0 0 0 0 0 0 0 0 0 0 0 0 0 0 0 0 127 0"/>
<feOffset dy="0.16"/>
<feGaussianBlur stdDeviation="0.400001"/>
<feColorMatrix values="0 0 0 0 0 0 0 0 0 0 0 0 0 0 0 0 0 0 0.5 0"/>
<feBlend in2="BackgroundImageFix" result="effect1_dropShadow"/>
<feBlend in="SourceGraphic" in2="effect1_dropShadow" result="shape"/>
</filter>
<filter id="c" x="17" y="1.0499" width="32" height="47.95" color-interpolation-filters="sRGB" filterUnits="userSpaceOnUse">
<feFlood flood-opacity="0" result="BackgroundImageFix"/>
<feBlend in="SourceGraphic" in2="BackgroundImageFix" result="shape"/>
<feColorMatrix in="SourceAlpha" result="hardAlpha" values="0 0 0 0 0 0 0 0 0 0 0 0 0 0 0 0 0 0 127 0"/>
<feOffset dy="1.5"/>
<feComposite in2="hardAlpha" k2="-1" k3="1" operator="arithmetic"/>
<feColorMatrix values="0 0 0 0 1 0 0 0 0 1 0 0 0 0 1 0 0 0 0.5 0"/>
<feBlend in2="shape" result="effect1_innerShadow"/>
</filter>
<filter id="b" x=".2" y=".36" width="17.6" height="49.6" color-interpolation-filters="sRGB" filterUnits="userSpaceOnUse">
<feFlood flood-opacity="0" result="BackgroundImageFix"/>
<feColorMatrix in="SourceAlpha" values="0 0 0 0 0 0 0 0 0 0 0 0 0 0 0 0 0 0 127 0"/>
<feOffset dy="0.16"/>
<feGaussianBlur stdDeviation="0.400001"/>
<feColorMatrix values="0 0 0 0 0 0 0 0 0 0 0 0 0 0 0 0 0 0 0.5 0"/>
<feBlend in2="BackgroundImageFix" result="effect1_dropShadow"/>
<feBlend in="SourceGraphic" in2="effect1_dropShadow" result="shape"/>
</filter>
<linearGradient id="a" x1="49" x2="5.9174" y1="1.0001" y2="15.074" gradientUnits="userSpaceOnUse">
<stop stop-color="#E7B28C" offset="0"/>
<stop stop-color="#BD62B6" offset=".49698"/>
<stop stop-color="#6658C5" offset="1"/>
</linearGradient>
</defs>
</svg>
