<svg width="517" height="218" viewBox="0 0 517 218" fill="none" xmlns="http://www.w3.org/2000/svg">
<path d="M82.2121 149.744C71.7001 149.744 64.7881 155.072 60.6121 161.552L57.4441 151.472H46.7881V215.696H62.4841V180.416C62.4841 170.912 68.3881 163.856 78.1801 163.856C85.9561 163.856 89.1241 168.896 89.1241 176.96V215.696H104.82V175.52C104.82 159.104 96.9001 149.744 82.2121 149.744Z" fill="#F5F5F5"/>
<path d="M124.881 215.696H140.577V164.864H158.145V151.472H140.433V143.344C140.433 136 144.609 132.112 150.657 132.112C154.545 132.112 156.993 133.12 160.017 134.848L165.633 123.616C160.161 120.016 154.833 118 147.633 118C133.089 118 124.881 127.936 124.881 142.48V151.472H112.929V164.864H124.881V215.696Z" fill="#F5F5F5"/>
<path d="M198.719 150.032C190.367 150.032 183.887 153.776 180.143 160.976L177.119 151.472H166.463V215.696H182.159V180.704C182.159 170.48 188.351 164.576 197.423 164.576C200.735 164.576 203.327 165.152 205.775 166.016L209.807 152.768C206.783 151.04 203.183 150.032 198.719 150.032Z" fill="#F5F5F5"/>
<path d="M241.964 150.32C233.324 150.32 224.54 152.624 215.036 156.944L219.5 168.896C226.124 165.728 233.18 163.712 239.516 163.712C247.724 163.712 252.62 167.024 252.62 173.648V176.528C250.316 176.384 247.868 176.24 244.556 176.24C224.972 176.24 212.012 184.304 212.012 198.992C212.012 210.368 220.364 216.992 232.172 216.992C242.684 216.992 250.316 212.816 255.068 206.048L257.948 215.696H268.46V174.224C268.46 158.672 258.38 150.32 241.964 150.32ZM236.78 205.184C231.02 205.184 227.564 202.448 227.564 197.408C227.564 190.352 234.188 186.32 245.564 186.32C248.444 186.32 250.46 186.464 253.052 186.752C252.764 198.416 245.996 205.184 236.78 205.184Z" fill="#F5F5F5"/>
<path d="M311.57 217.568C322.946 217.568 330.29 214.256 337.49 207.632L329.57 197.12C324.818 201.584 320.066 203.744 313.154 203.744C302.786 203.744 294.29 196.256 294.29 183.584C294.29 171.344 302.642 163.424 313.442 163.424C319.634 163.424 323.954 165.008 328.562 168.896L336.194 158.384C329.426 152.48 321.65 149.744 312.29 149.744C293.858 149.744 278.45 162.56 278.45 183.584C278.45 206.048 295.298 217.568 311.57 217.568Z" fill="#F5F5F5"/>
<path d="M374.375 217.568C394.535 217.568 408.935 203.456 408.935 183.584C408.935 163.712 394.535 149.744 374.375 149.744C354.215 149.744 339.959 163.712 339.959 183.584C339.959 203.456 354.215 217.568 374.375 217.568ZM374.375 203.6C363.431 203.6 355.799 195.392 355.799 183.584C355.799 171.776 363.431 163.568 374.375 163.568C385.463 163.568 392.951 171.776 392.951 183.584C392.951 195.392 385.463 203.6 374.375 203.6Z" fill="#F5F5F5"/>
<path d="M438.173 217.136C452.285 217.136 461.933 209.648 461.933 197.696C461.933 187.04 453.869 181.712 442.637 177.536C435.725 175.088 430.973 172.64 430.973 168.464C430.973 164.432 435.149 162.992 440.045 162.992C444.365 162.992 449.549 164.288 454.301 166.736L459.773 156.224C452.861 152.192 446.093 150.464 438.749 150.464C426.509 150.464 415.997 156.656 415.997 168.464C415.997 178.976 423.917 184.304 434.141 188.192C440.477 190.64 446.525 192.944 446.525 197.696C446.525 201.728 442.781 204.32 437.021 204.32C430.973 204.32 424.925 202.448 419.453 198.992L413.261 210.08C420.749 214.832 428.669 217.136 438.173 217.136Z" fill="#F5F5F5"/>
<path d="M497.273 217.136C504.617 217.136 510.809 214.976 516.713 211.232L511.673 199.424C508.073 201.728 504.617 202.736 500.873 202.736C496.697 202.736 493.817 200.864 493.817 194.528V164.864H513.689V151.472H493.817V130.88H478.553L478.121 151.472H466.745V164L478.121 164.864V196.112C478.121 210.512 485.753 217.136 497.273 217.136Z" fill="#F5F5F5"/>
<path d="M0 151.5V164L9 164.5L9.08272 196.172C9.21599 226.196 37 214.196 37 214.196L35 202.196C35 202.196 32.7708 202.657 32.1281 202.796C27 203.909 24.8399 201.608 24.912 194.5V151.472H9.21599L0 151.5Z" fill="#F5F5F5"/>
<path d="M17 139C23.0294 139 27 134.692 27 129.154C27 123.462 23.1765 119 17 119C10.8235 119 7 123.462 7 129C7 134.538 10.8235 139 17 139Z" fill="#F5F5F5"/>
<path d="M253 87.5061C288.346 87.5061 317 76.7609 317 63.5061V55.5061C317 55.5061 316.696 54.1088 316 54.0061C315.343 53.9092 314.625 55.0061 314.625 55.0061C307.067 65.1028 282.339 72.5061 253 72.5061C223.661 72.5061 198.933 65.1028 191.375 55.0061C191.375 55.0061 190.657 53.9092 190 54.0061C189.304 54.1088 189 55.5061 189 55.5061V63.5061C189 76.7609 217.654 87.5061 253 87.5061Z" fill="#F5F5F5"/>
<path d="M262 57.5061C297.346 57.5061 326 46.7609 326 33.5061V25.5061C326 25.5061 325.696 24.1088 325 24.0061C324.343 23.9092 323.625 25.0061 323.625 25.0061C316.067 35.1028 291.339 42.5061 262 42.5061C232.661 42.5061 207.933 35.1028 200.375 25.0061C200.375 25.0061 199.657 23.9092 199 24.0061C198.304 24.1088 198 25.5061 198 25.5061V33.5061C198 46.7609 226.654 57.5061 262 57.5061Z" fill="#F5F5F5"/>
<path d="M262 117.506C297.346 117.506 326 106.761 326 93.5061V85.5061C326 85.5061 325.696 84.1088 325 84.0061C324.343 83.9091 323.625 85.0061 323.625 85.0061C316.067 95.1028 291.339 102.506 262 102.506C232.661 102.506 207.933 95.1028 200.375 85.0061C200.375 85.0061 199.657 83.9092 199 84.0061C198.304 84.1088 198 85.5061 198 85.5061V93.5061C198 106.761 226.654 117.506 262 117.506Z" fill="#F5F5F5"/>
<path d="M326 24C326 37.2548 297.346 48 262 48C226.654 48 198 37.2548 198 24C198 10.7452 226.654 0 262 0C297.346 0 326 10.7452 326 24Z" fill="#F5F5F5"/>
</svg>
