<svg xmlns="http://www.w3.org/2000/svg" width="246" height="50" fill="none"><g filter="url(#a)"><path fill="url(#b)" d="M32.063 1.937 17 17h8.08c5.44 0 7.92 5.12 7.92 8v22.72c0 .707.573 1.28 1.28 1.28h13.36a1.28 1.28 0 0 0 1.281-1.278c.01-6.583.08-20.136.08-30.722 0-9.277-7.396-15.283-14.677-15.94-.846-.076-1.661.277-2.261.877Z"/></g><g filter="url(#c)"><path fill="#F5F4F1" fill-rule="evenodd" d="M1 2.28C1 1.573 1.573 1 2.28 1h1.6c.707 0 1.28.573 1.28 1.28v13.44A1.28 1.28 0 0 1 3.88 17h-1.6A1.28 1.28 0 0 1 1 15.72V2.28ZM8.2 1a1.28 1.28 0 0 0-1.28 1.28v13.44c0 .707.573 1.28 1.28 1.28h1.6a1.28 1.28 0 0 0 1.28-1.28V2.28A1.28 1.28 0 0 0 9.8 1H8.2Zm5.92 0a1.28 1.28 0 0 0-1.28 1.28v13.44c0 .707.573 1.28 1.28 1.28H17V2.28A1.28 1.28 0 0 0 15.72 1h-1.6ZM1.75 32.25A2.56 2.56 0 0 0 1 34.06v13.66c0 .707.573 1.28 1.28 1.28h1.6a1.28 1.28 0 0 0 1.28-1.28V29.613a.32.32 0 0 0-.546-.227L1.75 32.25Zm5.17-4.11c0-.678.27-1.33.75-1.81l2.864-2.864a.32.32 0 0 1 .546.227V47.72A1.28 1.28 0 0 1 9.8 49H8.2a1.28 1.28 0 0 1-1.28-1.28V28.14Zm6.67-7.73a2.56 2.56 0 0 0-.75 1.81v25.5c0 .707.573 1.28 1.28 1.28h1.6A1.28 1.28 0 0 0 17 47.72V17l-3.41 3.41Z" clip-rule="evenodd"/></g><path fill="#EBEBF2" d="M71.16 37V12.724h-5.916V37h5.916Zm9.949-18.326h-5.678V37h5.814v-9.01c0-3.876 2.856-5.1 5.338-5.1 2.788 0 4.488 1.156 4.488 4.046V37h5.814V25.032c0-4.726-3.4-6.8-7.99-6.8-3.094 0-5.61.85-7.616 2.754h-.17v-2.312Zm30.602-2.89c1.02 0 1.53.068 2.006.136v-4.114c-.476-.068-1.36-.238-3.094-.238-5.1 0-8.092 1.326-8.092 5.814v1.292h-3.162v3.74h3.162v14.62h5.814v-14.62h4.964v-3.74h-4.964v-.578c0-2.108 1.462-2.312 3.366-2.312Zm4.128 2.89V37h5.814v-8.024c0-4.284 3.4-5.27 6.596-5.27 1.122 0 2.176.17 2.924.34v-5.644c-.476-.136-1.156-.204-1.768-.204-3.502 0-5.916.952-7.718 2.89h-.17v-2.414h-5.678Zm38.167 15.368v-10.37c0-4.386-4.182-5.644-10.064-5.644-5.406 0-10.132 1.53-10.268 6.12h6.12c.136-1.53 1.904-2.176 4.182-2.176 2.822 0 3.978.68 3.978 1.7 0 .952-.646 1.36-2.108 1.496l-7.582.782c-3.332.34-5.814 1.802-5.814 5.78 0 4.148 3.672 5.95 7.548 5.95 3.502 0 6.528-1.02 8.33-3.264v.612c0 .952.204 1.666.51 1.972h5.678v-.204c-.476-.578-.51-1.7-.51-2.754Zm-5.814-5.032c0 3.706-3.876 4.93-6.46 4.93-1.904 0-3.264-.578-3.264-2.244 0-1.53 1.054-2.108 2.618-2.312l5.406-.782c.612-.068 1.326-.204 1.7-.476v.884Zm20.358 4.284c-3.468 0-5.474-1.938-5.474-5.44 0-3.502 2.006-5.44 5.474-5.44 3.706 0 4.93 1.598 5.236 3.196h6.358c-.578-4.318-3.604-7.582-11.594-7.582-7.412 0-11.492 3.604-11.492 9.826 0 6.188 4.08 9.826 11.492 9.826 7.99 0 11.084-3.298 11.662-7.684h-6.392c-.306 1.7-1.564 3.298-5.27 3.298Zm25.637-15.266c-7.616 0-11.696 3.638-11.696 9.826 0 6.188 4.08 9.826 11.696 9.826s11.696-3.638 11.696-9.826c0-6.188-4.08-9.826-11.696-9.826Zm0 15.266c-3.672 0-5.678-1.938-5.678-5.44 0-3.502 2.006-5.44 5.678-5.44s5.678 1.938 5.678 5.44c0 3.502-2.006 5.44-5.678 5.44Zm28.896-9.146h6.12c-.17-4.59-4.896-6.12-10.778-6.12-5.746 0-10.098 1.462-10.098 5.814 0 3.774 2.584 4.964 6.494 5.474l6.29.816c1.734.238 2.448.612 2.448 1.7 0 1.19-1.326 1.972-4.59 1.972-3.026 0-4.896-.646-5.032-2.788h-6.256c.204 5.372 4.896 6.664 11.186 6.664 6.868 0 11.05-1.394 11.05-6.154 0-4.08-2.448-5.27-6.426-5.712l-6.698-.782c-1.734-.204-2.312-.578-2.312-1.53 0-.986 1.19-1.666 3.91-1.666 2.652 0 4.556.578 4.692 2.312Zm18.921 8.432c-1.462 0-2.278-.408-2.278-1.768v-8.398h4.964v-3.74h-4.964v-4.998h-5.814v4.998h-3.162v3.74h3.162v9.452c0 4.012 1.7 5.44 6.936 5.44 1.394 0 3.026-.17 3.808-.306v-4.59c-.816.136-2.006.17-2.652.17Z"/><defs><filter id="a" width="33.6" height="49.55" x="16.2" y=".41" color-interpolation-filters="sRGB" filterUnits="userSpaceOnUse"><feFlood flood-opacity="0" result="BackgroundImageFix"/><feColorMatrix in="SourceAlpha" values="0 0 0 0 0 0 0 0 0 0 0 0 0 0 0 0 0 0 127 0"/><feOffset dy=".16"/><feGaussianBlur stdDeviation=".4"/><feColorMatrix values="0 0 0 0 0 0 0 0 0 0 0 0 0 0 0 0 0 0 0.5 0"/><feBlend in2="BackgroundImageFix" result="effect1_dropShadow"/><feBlend in="SourceGraphic" in2="effect1_dropShadow" result="shape"/></filter><filter id="c" width="17.6" height="49.6" x=".2" y=".36" color-interpolation-filters="sRGB" filterUnits="userSpaceOnUse"><feFlood flood-opacity="0" result="BackgroundImageFix"/><feColorMatrix in="SourceAlpha" values="0 0 0 0 0 0 0 0 0 0 0 0 0 0 0 0 0 0 127 0"/><feOffset dy=".16"/><feGaussianBlur stdDeviation=".4"/><feColorMatrix values="0 0 0 0 0 0 0 0 0 0 0 0 0 0 0 0 0 0 0.5 0"/><feBlend in2="BackgroundImageFix" result="effect1_dropShadow"/><feBlend in="SourceGraphic" in2="effect1_dropShadow" result="shape"/></filter><linearGradient id="b" x1="49" x2="5.917" y1="1" y2="15.074" gradientUnits="userSpaceOnUse"><stop stop-color="#E7B28C"/><stop offset=".497" stop-color="#BD62B6"/><stop offset="1" stop-color="#6658C5"/></linearGradient></defs></svg>