<svg xmlns="http://www.w3.org/2000/svg" width="245" height="52" fill="none"><path fill="url(#a)" d="M32.558.962 16.83 17.297h8.436c5.68 0 8.27 5.553 8.27 8.676v24.639c0 .766.598 1.388 1.336 1.388h13.949c.738 0 1.336-.62 1.337-1.386.01-7.139.083-21.837.083-33.317C50.242 7.237 42.52.724 34.918.011c-.883-.083-1.734.3-2.36.951Z"/><path fill="#1B1B42" fill-rule="evenodd" d="M0 1.387C0 .62.603 0 1.346 0H3.03c.743 0 1.346.62 1.346 1.387v14.56c0 .765-.603 1.386-1.346 1.386H1.346c-.743 0-1.346-.62-1.346-1.386V1.387ZM7.574 0C6.83 0 6.227.62 6.227 1.387v14.56c0 .765.603 1.386 1.347 1.386h1.683c.744 0 1.347-.62 1.347-1.386V1.387C10.604.62 10 0 9.257 0H7.574ZM13.8 0c-.743 0-1.346.62-1.346 1.387v14.56c0 .765.603 1.386 1.346 1.386h3.03l-3.587 3.695a2.816 2.816 0 0 0-.79 1.96v27.625c0 .766.604 1.387 1.347 1.387h1.683c.744 0 1.347-.62 1.347-1.387V1.387C16.83.62 16.228 0 15.484 0h-1.683ZM.79 33.854A2.815 2.815 0 0 0 0 35.815v14.798C0 51.38.603 52 1.346 52H3.03c.743 0 1.346-.62 1.346-1.387V30.997c0-.309-.363-.464-.575-.245L.79 33.854Zm5.438-4.452c0-.736.284-1.44.79-1.96l3.012-3.104c.212-.218.575-.063.575.246v26.03C10.604 51.378 10 52 9.257 52H7.574c-.744 0-1.347-.62-1.347-1.387v-21.21Z" clip-rule="evenodd"/><path fill="#1B1B42" d="M70.254 36.608V12.215h-5.945v24.393h5.945ZM80.25 18.194h-5.705v18.414h5.843v-9.053c0-3.895 2.87-5.125 5.363-5.125 2.802 0 4.51 1.161 4.51 4.065v10.113h5.842V24.582c0-4.749-3.416-6.833-8.029-6.833-3.108 0-5.637.855-7.652 2.768h-.171v-2.323ZM111 15.29c1.025 0 1.538.068 2.016.136v-4.134c-.478-.068-1.367-.239-3.109-.239-5.125 0-8.131 1.333-8.131 5.842v1.299h-3.177v3.758h3.177v14.69h5.842v-14.69h4.988v-3.759h-4.988v-.58c0-2.118 1.469-2.323 3.382-2.323ZM115.149 18.194v18.414h5.842v-8.063c0-4.304 3.416-5.295 6.628-5.295 1.127 0 2.186.17 2.938.341v-5.67c-.478-.137-1.162-.206-1.777-.206-3.519 0-5.944.957-7.755 2.904h-.171v-2.425h-5.705ZM153.5 33.636v-10.42c0-4.408-4.202-5.672-10.113-5.672-5.432 0-10.181 1.538-10.317 6.15h6.149c.137-1.537 1.914-2.187 4.203-2.187 2.835 0 3.997.684 3.997 1.709 0 .956-.649 1.366-2.118 1.503l-7.619.786c-3.348.341-5.842 1.81-5.842 5.808 0 4.168 3.69 5.978 7.584 5.978 3.519 0 6.56-1.025 8.371-3.28v.615c0 .957.205 1.675.512 1.982h5.705v-.205c-.478-.58-.512-1.708-.512-2.767Zm-5.842-5.057c0 3.724-3.895 4.954-6.491 4.954-1.913 0-3.28-.58-3.28-2.255 0-1.537 1.059-2.118 2.631-2.323l5.432-.785c.615-.069 1.332-.206 1.708-.479v.888ZM168.114 32.884c-3.485 0-5.501-1.947-5.501-5.466 0-3.52 2.016-5.466 5.501-5.466 3.724 0 4.954 1.605 5.261 3.211h6.389c-.581-4.339-3.622-7.619-11.65-7.619-7.448 0-11.548 3.622-11.548 9.874 0 6.218 4.1 9.873 11.548 9.873 8.028 0 11.137-3.314 11.718-7.72h-6.423c-.307 1.707-1.571 3.313-5.295 3.313ZM193.875 17.544c-7.653 0-11.752 3.656-11.752 9.874s4.099 9.873 11.752 9.873c7.653 0 11.753-3.655 11.753-9.873s-4.1-9.874-11.753-9.874Zm0 15.34c-3.69 0-5.705-1.947-5.705-5.466 0-3.52 2.015-5.466 5.705-5.466s5.706 1.947 5.706 5.466-2.016 5.466-5.706 5.466ZM222.911 23.694h6.149c-.17-4.612-4.919-6.15-10.83-6.15-5.773 0-10.146 1.47-10.146 5.843 0 3.792 2.596 4.987 6.525 5.5l6.32.82c1.743.239 2.46.615 2.46 1.708 0 1.196-1.332 1.982-4.612 1.982-3.041 0-4.92-.65-5.056-2.802h-6.287c.205 5.398 4.92 6.696 11.24 6.696 6.902 0 11.104-1.4 11.104-6.183 0-4.1-2.46-5.296-6.457-5.74l-6.731-.786c-1.742-.205-2.323-.58-2.323-1.537 0-.99 1.196-1.674 3.929-1.674 2.665 0 4.578.58 4.715 2.323ZM241.923 32.167c-1.469 0-2.289-.41-2.289-1.777v-8.438h4.988v-3.759h-4.988v-5.022h-5.842v5.023h-3.177v3.758h3.177v9.497c0 4.032 1.708 5.466 6.97 5.466 1.4 0 3.04-.17 3.826-.307v-4.612c-.82.137-2.016.17-2.665.17Z"/><defs><linearGradient id="a" x1="50.242" x2="4.941" y1="-.054" y2="14.193" gradientUnits="userSpaceOnUse"><stop stop-color="#E7B28C"/><stop offset=".497" stop-color="#BD62B6"/><stop offset="1" stop-color="#6658C5"/></linearGradient></defs></svg>