<svg width="313" height="76" viewBox="0 0 313 76" fill="none" xmlns="http://www.w3.org/2000/svg">
<path d="M98.32 31.11H87.06V24.4H117.19V31.11H105.94V64.69H98.32V31.11Z" fill="black"/>
<path d="M125.15 59.24C128.202 59.2249 131.235 58.7564 134.15 57.85L135.3 63.42C131.827 64.6703 128.161 65.3032 124.47 65.29C115.22 65.29 112 61 112 53.92V46.12C112 39.89 114.78 34.62 124.22 34.62C133.66 34.62 135.77 40.13 135.77 46.48V52.77H119.4V54.28C119.4 57.85 120.67 59.24 125.15 59.24ZM119.4 46.84H128.77V45.39C128.77 42.61 127.93 40.67 124.3 40.67C120.67 40.67 119.4 42.61 119.4 45.39V46.84Z" fill="black"/>
<path d="M155.51 41.4C152.804 42.6287 150.197 44.0629 147.71 45.69V64.69H140.33V35.23H146.56L147.04 38.49C149.446 36.8723 152.051 35.5715 154.79 34.62L155.51 41.4Z" fill="black"/>
<path d="M173.54 41.4C170.832 42.6307 168.221 44.0648 165.73 45.69V64.69H158.35V35.23H164.59L165.07 38.49C167.472 36.8702 170.073 35.5693 172.81 34.62L173.54 41.4Z" fill="black"/>
<path d="M198.22 64.69H192.17L191.63 62.69C189.017 64.3887 185.967 65.292 182.85 65.29C177.47 65.29 175.17 61.6 175.17 56.52C175.17 50.52 177.77 48.23 183.76 48.23H190.84V45.15C190.84 41.88 189.93 40.73 185.21 40.73C182.467 40.7626 179.733 41.0674 177.05 41.64L176.14 36C179.431 35.0931 182.827 34.6257 186.24 34.61C195.5 34.61 198.24 37.88 198.24 45.26L198.22 64.69ZM190.84 53.56H185.39C182.97 53.56 182.31 54.22 182.31 56.46C182.31 58.52 182.97 59.46 185.31 59.46C187.265 59.4317 189.181 58.9088 190.88 57.94L190.84 53.56Z" fill="black"/>
<path d="M220.9 28.51C219.509 28.2122 218.092 28.0514 216.67 28.03C213.77 28.03 213.34 29.3 213.34 31.54V35.23H220.84L220.42 41.1H213.34V64.69H206V41.1H201.28V35.23H206V31.11C206 25 208.81 22 215.34 22C217.486 21.9878 219.623 22.2739 221.69 22.85L220.9 28.51Z" fill="black"/>
<path d="M235.3 65.29C225.2 65.29 222.48 59.73 222.48 53.68V46.24C222.48 40.24 225.2 34.62 235.3 34.62C245.4 34.62 248.13 40.19 248.13 46.24V53.68C248.13 59.73 245.4 65.29 235.3 65.29ZM235.3 40.91C231.37 40.91 229.86 42.67 229.86 46V53.92C229.86 57.25 231.37 59 235.3 59C239.23 59 240.74 57.25 240.74 53.92V46C240.74 42.67 239.23 40.91 235.3 40.91V40.91Z" fill="black"/>
<path d="M267.12 41.4C264.414 42.6287 261.807 44.0629 259.32 45.69V64.69H251.94V35.23H258.17L258.65 38.49C261.051 36.8702 263.653 35.5693 266.39 34.62L267.12 41.4Z" fill="black"/>
<path d="M287.38 64.69V44.12C287.38 42.55 286.72 41.76 285.02 41.76C283.32 41.76 280.02 42.85 277.34 44.24V64.69H270V35.23H275.63L276.35 37.71C280.024 35.8675 284.044 34.8149 288.15 34.62C290.99 34.62 292.75 35.77 293.72 37.77C297.398 35.8816 301.44 34.8072 305.57 34.62C310.47 34.62 312.23 38.07 312.23 43.33V64.69H304.85V44.12C304.85 42.55 304.18 41.76 302.49 41.76C299.782 42.0419 297.163 42.8866 294.8 44.24V64.69H287.38Z" fill="black"/>
<path fill-rule="evenodd" clip-rule="evenodd" d="M21.84 16.53L41.52 27.89V50.61L21.84 39.25V16.53Z" fill="#623CE4"/>
<path fill-rule="evenodd" clip-rule="evenodd" d="M43.67 27.89V50.61L63.35 39.25V16.52L43.67 27.89Z" fill="#3C2AA8"/>
<path fill-rule="evenodd" clip-rule="evenodd" d="M0 3.84V26.56L19.68 37.93V15.2L0 3.84Z" fill="#623CE4"/>
<path fill-rule="evenodd" clip-rule="evenodd" d="M21.84 64.46L41.51 75.83V53.25V53.1L21.84 41.74V64.46Z" fill="#623CE4"/>
<path d="M94.88 14.43V8.78H89.7V14.43H87.06V0.85H89.7V6.55H94.88V0.85H97.52V14.43H94.88ZM107.2 14.43H105.11L104.92 13.77C104.018 14.3268 102.98 14.6243 101.92 14.63C100.06 14.63 99.26 13.41 99.26 11.72C99.26 9.72 100.16 8.96 102.26 8.96H104.72V7.96C104.72 6.88 104.4 6.5 102.72 6.5C101.769 6.50972 100.822 6.61018 99.89 6.8L99.57 4.93C100.711 4.62087 101.888 4.46286 103.07 4.46C106.28 4.46 107.22 5.55 107.22 8L107.2 14.43ZM104.65 10.73H102.76C101.92 10.73 101.69 10.95 101.69 11.73C101.69 12.51 101.92 12.73 102.69 12.73C103.364 12.7199 104.026 12.5484 104.62 12.23L104.65 10.73ZM112.56 14.63C111.366 14.612 110.181 14.4234 109.04 14.07L109.39 12.2C110.368 12.4662 111.376 12.6073 112.39 12.62C113.53 12.62 113.69 12.38 113.69 11.62C113.69 10.86 113.57 10.71 111.91 10.33C109.42 9.75 109.12 9.14 109.12 7.25C109.12 5.36 110.03 4.41 112.94 4.41C113.969 4.41106 114.996 4.52507 116 4.75L115.75 6.75C114.822 6.58318 113.883 6.48624 112.94 6.46C111.83 6.46 111.64 6.71 111.64 7.31C111.64 8.09 111.7 8.16 113.09 8.5C115.94 9.22 116.21 9.58 116.21 11.6C116.21 13.62 115.64 14.63 112.56 14.63V14.63ZM124.26 14.43V7.59C124.26 7.07 124.03 6.81 123.45 6.81C122.519 6.90946 121.616 7.18789 120.79 7.63V14.43H118.23V0.66L120.79 1.04V5.38C121.948 4.78625 123.22 4.44539 124.52 4.38C126.21 4.38 126.82 5.53 126.82 7.28V14.38L124.26 14.43ZM129 3.25V0.85H131.56V3.25H129ZM129 14.43V4.63H131.56V14.43H129ZM133.6 4.71C133.6 2.26 135.09 0.83 138.6 0.83C139.879 0.829382 141.155 0.977034 142.4 1.27L142.1 3.47C140.974 3.26305 139.834 3.14602 138.69 3.12C136.87 3.12 136.28 3.73 136.28 5.12V10.27C136.28 11.7 136.87 12.27 138.69 12.27C139.799 12.2655 140.905 12.1752 142 12L142.3 14.19C141.055 14.483 139.779 14.6306 138.5 14.63C135.03 14.63 133.5 13.21 133.5 10.75L133.6 4.71ZM148 14.63C144.5 14.63 143.55 12.78 143.55 10.77V8.3C143.55 6.3 144.5 4.43 148 4.43C151.5 4.43 152.44 6.28 152.44 8.3V10.77C152.42 12.78 151.48 14.63 148 14.63ZM148 6.53C146.63 6.53 146.11 7.11 146.11 8.22V10.85C146.11 11.96 146.63 12.54 148 12.54C149.37 12.54 149.88 11.96 149.88 10.85V8.22C149.86 7.11 149.34 6.53 148 6.53ZM159.64 6.69C158.705 7.09337 157.802 7.56811 156.94 8.11V14.43H154.38V4.63H156.54L156.7 5.72C157.539 5.17821 158.442 4.74476 159.39 4.43L159.64 6.69ZM169.86 11.17C169.86 13.35 168.86 14.63 166.49 14.63C165.573 14.6217 164.659 14.5279 163.76 14.35V18.35L161.2 18.73V4.63H163.2L163.45 5.46C164.394 4.79453 165.525 4.44453 166.68 4.46C168.73 4.46 169.82 5.63 169.82 7.86L169.86 11.17ZM163.76 12.28C164.503 12.4389 165.26 12.526 166.02 12.54C166.95 12.54 167.3 12.12 167.3 11.23V7.77C167.3 6.97 166.99 6.53 166.05 6.53C165.209 6.55673 164.402 6.86685 163.76 7.41V12.28Z" fill="black"/>
</svg>
