<svg width="194" height="206" viewBox="0 0 194 206" fill="none" xmlns="http://www.w3.org/2000/svg">
<path d="M10.52 176.31H0.919998V170.58H26.64V176.31H17V205H10.52V176.31Z" fill="white"/>
<path d="M33.43 200.32C36.0382 200.307 38.63 199.906 41.12 199.13L42.12 203.88C39.1577 204.951 36.03 205.493 32.88 205.48C24.98 205.48 22.24 201.82 22.24 195.77V189.11C22.24 183.8 24.62 179.3 32.67 179.3C40.72 179.3 42.53 184 42.53 189.42V194.79H28.53V196.08C28.52 199.13 29.6 200.32 33.43 200.32ZM28.52 189.73H36.52V188.49C36.52 186.12 35.8 184.49 32.7 184.49C29.6 184.49 28.52 186.14 28.52 188.49V189.73Z" fill="white"/>
<path d="M59.35 185.09C57.0366 186.138 54.8068 187.362 52.68 188.75V205H46.39V179.82H51.7L52.12 182.61C54.1679 181.22 56.3905 180.107 58.73 179.3L59.35 185.09Z" fill="white"/>
<path d="M74.73 185.09C72.4199 186.138 70.1934 187.362 68.07 188.75V205H61.77V179.82H67.09L67.5 182.61C69.5491 181.222 71.7714 180.109 74.11 179.3L74.73 185.09Z" fill="white"/>
<path d="M95.8 205H90.64L90.17 203.29C87.941 204.74 85.339 205.511 82.68 205.51C78.09 205.51 76.13 202.36 76.13 198.03C76.13 192.91 78.35 190.95 83.46 190.95H89.46V188.32C89.46 185.53 88.69 184.55 84.66 184.55C82.3069 184.574 79.9621 184.832 77.66 185.32L76.88 180.52C79.6914 179.744 82.5934 179.344 85.51 179.33C93.41 179.33 95.73 182.12 95.73 188.42L95.8 205ZM89.5 195.49H84.85C82.79 195.49 82.22 196.06 82.22 197.97C82.22 199.73 82.79 200.5 84.75 200.5C86.4165 200.475 88.05 200.032 89.5 199.21V195.49Z" fill="white"/>
<path d="M115.16 174.09C113.974 173.831 112.764 173.69 111.55 173.67C109.07 173.67 108.71 174.76 108.71 176.67V179.82H115.11L114.75 184.82H108.75V205H102.45V184.83H98.45V179.83H102.45V176.32C102.45 171.1 104.88 168.52 110.45 168.52C112.281 168.512 114.104 168.755 115.87 169.24L115.16 174.09Z" fill="white"/>
<path d="M127.45 205.48C118.83 205.48 116.5 200.73 116.5 195.57V189.22C116.5 184.05 118.83 179.3 127.45 179.3C136.07 179.3 138.45 184.05 138.45 189.22V195.57C138.4 200.73 136.08 205.48 127.45 205.48ZM127.45 184.67C124.1 184.67 122.8 186.17 122.8 189.01V195.77C122.8 198.61 124.1 200.11 127.45 200.11C130.8 200.11 132.1 198.61 132.1 195.77V189C132.1 186.17 130.81 184.67 127.45 184.67Z" fill="white"/>
<path d="M154.61 185.09C152.299 186.136 150.072 187.36 147.95 188.75V205H141.65V179.82H147L147.41 182.61C149.453 181.224 151.668 180.111 154 179.3L154.61 185.09Z" fill="white"/>
<path d="M171.91 205V187.41C171.91 186.07 171.34 185.41 169.91 185.41C167.604 185.666 165.373 186.384 163.35 187.52V205H157V179.82H161.8L162.42 181.94C165.556 180.369 168.986 179.47 172.49 179.3C174.92 179.3 176.41 180.3 177.24 181.99C180.382 180.379 183.833 179.462 187.36 179.3C191.54 179.3 193.04 182.25 193.04 186.74V205H186.74V187.41C186.74 186.07 186.17 185.41 184.74 185.41C182.431 185.65 180.197 186.369 178.18 187.52V205H171.91Z" fill="white"/>
<path d="M7.59 162.07V157.24H3.17V162.07H0.919998V150.47H3.17V155.34H7.59V150.47H9.85V162.07H7.59ZM18.11 162.07H16.32L16.16 161.5C15.3827 161.984 14.4855 162.24 13.57 162.24C11.97 162.24 11.3 161.19 11.3 159.75C11.3 158.05 12.06 157.4 13.84 157.4H15.93V156.52C15.93 155.59 15.66 155.27 14.26 155.27C13.45 155.277 12.6428 155.364 11.85 155.53L11.58 153.93C12.5587 153.669 13.567 153.534 14.58 153.53C17.32 153.53 18.12 154.46 18.12 156.53L18.11 162.07ZM15.93 158.91H14.32C13.6 158.91 13.41 159.1 13.41 159.73C13.41 160.36 13.6 160.57 14.28 160.57C14.8558 160.565 15.4218 160.421 15.93 160.15V158.91ZM22.68 162.24C21.6623 162.223 20.6523 162.061 19.68 161.76L19.98 160.16C20.8271 160.394 21.7013 160.515 22.58 160.52C23.58 160.52 23.68 160.32 23.68 159.68C23.68 159.04 23.58 158.91 22.16 158.58C20.03 158.08 19.78 157.58 19.78 155.95C19.78 154.32 20.55 153.53 23.04 153.53C23.9178 153.534 24.7927 153.631 25.65 153.82L25.44 155.49C24.6472 155.35 23.8449 155.27 23.04 155.25C22.09 155.25 21.93 155.46 21.93 155.97C21.93 156.64 21.93 156.69 23.17 156.97C25.6 157.59 25.83 157.9 25.83 159.62C25.83 161.34 25.31 162.24 22.68 162.24ZM32.68 162.07V156.23C32.68 155.78 32.49 155.56 31.99 155.56C31.1924 155.646 30.4186 155.884 29.71 156.26V162.07H27.52V150.31L29.7 150.64V154.34C30.6957 153.852 31.782 153.576 32.89 153.53C34.34 153.53 34.89 154.53 34.89 156.01V162.07H32.68ZM36.68 152.52V150.47H38.86V152.52H36.68ZM36.68 162.07V153.7H38.86V162.07H36.68ZM40.6 153.77C40.6 151.68 41.87 150.46 44.84 150.46C45.9311 150.46 47.0185 150.588 48.08 150.84L47.83 152.71C46.8693 152.536 45.8962 152.439 44.92 152.42C43.36 152.42 42.86 152.93 42.86 154.15V158.55C42.86 159.77 43.36 160.28 44.92 160.28C45.8962 160.261 46.8693 160.164 47.83 159.99L48.08 161.86C47.0185 162.112 45.9311 162.24 44.84 162.24C41.84 162.24 40.6 161.02 40.6 158.93V153.77ZM52.9 162.24C49.9 162.24 49.11 160.66 49.11 158.94V156.83C49.11 155.11 49.92 153.53 52.9 153.53C55.88 153.53 56.7 155.11 56.7 156.83V158.94C56.71 160.66 55.9 162.24 52.91 162.24H52.9ZM52.9 155.32C51.74 155.32 51.29 155.82 51.29 156.76V159C51.29 160 51.74 160.44 52.9 160.44C54.06 160.44 54.51 159.95 54.51 159V156.75C54.52 155.82 54.08 155.32 52.91 155.32H52.9ZM62.84 155.46C62.0389 155.805 61.2665 156.213 60.53 156.68V162.07H58.36V153.7H60.2L60.35 154.63C61.0635 154.167 61.833 153.798 62.64 153.53L62.84 155.46ZM71.57 159.29C71.57 161.14 70.71 162.29 68.69 162.29C67.9075 162.284 67.1273 162.204 66.36 162.05V165.47L64.18 165.79V153.79H65.91L66.13 154.5C66.9322 153.927 67.8939 153.619 68.88 153.62C70.64 153.62 71.57 154.62 71.57 156.53V159.29ZM66.36 160.23C66.9948 160.365 67.6411 160.439 68.29 160.45C69.08 160.45 69.38 160.09 69.38 159.34V156.34C69.38 155.66 69.12 155.28 68.31 155.28C67.5939 155.302 66.9066 155.567 66.36 156.03V160.23Z" fill="white"/>
<path fill-rule="evenodd" clip-rule="evenodd" d="M78.2 24.74L115.79 46.44V89.85L78.2 68.15V24.74Z" fill="#623CE4"/>
<path fill-rule="evenodd" clip-rule="evenodd" d="M119.91 46.45V89.85L157.5 68.15V24.74L119.91 46.45Z" fill="#3C2AA8"/>
<path fill-rule="evenodd" clip-rule="evenodd" d="M36.5 0.519989V43.92L74.09 65.62V22.22L36.5 0.519989Z" fill="#623CE4"/>
<path fill-rule="evenodd" clip-rule="evenodd" d="M78.21 116.31L115.79 138.01V94.89V94.61L78.21 72.9V116.31Z" fill="#623CE4"/>
</svg>
