<svg width="24" height="24" viewBox="0 0 24 24" fill="none" xmlns="http://www.w3.org/2000/svg">
<path fill-rule="evenodd" clip-rule="evenodd" d="M0 0H24V24H0V0ZM7.07184 5.85296L11.1913 13.5699V18.64H12.7757V13.6631L16.9324 5.85296H15.1802L12.7198 10.7366C12.5955 10.9976 12.4743 11.2492 12.3563 11.4916C12.2382 11.7339 12.1295 11.9607 12.0301 12.1719C11.9928 12.0725 11.9493 11.9638 11.8996 11.8457C11.8499 11.7277 11.794 11.6065 11.7318 11.4822C11.7194 11.4574 11.707 11.4294 11.6946 11.3984C11.6821 11.3673 11.6635 11.3331 11.6386 11.2958C11.6014 11.1964 11.5579 11.1001 11.5082 11.0069C11.4585 10.9137 11.415 10.8236 11.3777 10.7366L8.95448 5.85296H7.07184Z" fill="#EBEBF2"/>
</svg>
