<svg width="796" height="527" viewBox="0 0 796 527" fill="none" xmlns="http://www.w3.org/2000/svg">
<g clip-path="url(#clip0_655_734)">
<rect x="520" y="404" width="137" height="18" rx="5" fill="url(#paint0_linear_655_734)"/>
<rect x="520" y="387" width="137" height="18" rx="5" fill="url(#paint1_linear_655_734)"/>
<rect x="501" y="368" width="137" height="18" rx="5" fill="url(#paint2_linear_655_734)"/>
<rect x="520" y="350" width="137" height="18" rx="5" fill="url(#paint3_linear_655_734)"/>
<rect x="501" y="333" width="137" height="18" rx="5" fill="url(#paint4_linear_655_734)"/>
<rect x="520" y="316" width="137" height="18" rx="5" fill="url(#paint5_linear_655_734)"/>
<circle cx="583" cy="245" r="41" fill="#FFE779"/>
<circle cx="583" cy="245" r="35.1429" fill="#F8AB5D"/>
<path d="M583.184 256.579C584.784 256.391 585.995 255.866 586.815 255.005C587.649 254.144 588.066 253.035 588.066 251.676C588.066 251.098 587.958 250.594 587.743 250.163C587.528 249.733 587.232 249.356 586.855 249.034C586.492 248.711 586.055 248.435 585.544 248.206C585.033 247.964 584.481 247.742 583.89 247.541L583.184 256.579ZM582.195 234.367C581.388 234.447 580.695 234.615 580.117 234.871C579.539 235.113 579.061 235.416 578.685 235.779C578.308 236.129 578.032 236.525 577.857 236.969C577.683 237.413 577.595 237.884 577.595 238.381C577.595 238.946 577.696 239.444 577.898 239.874C578.1 240.305 578.375 240.688 578.725 241.024C579.088 241.347 579.512 241.636 579.996 241.892C580.48 242.134 581.005 242.362 581.57 242.578L582.195 234.367ZM584.212 243.425C585.181 243.721 586.136 244.05 587.077 244.414C588.032 244.763 588.886 245.221 589.639 245.785C590.393 246.337 590.998 247.03 591.455 247.863C591.926 248.697 592.161 249.74 592.161 250.99C592.161 252.214 591.953 253.371 591.536 254.46C591.132 255.536 590.534 256.491 589.74 257.325C588.947 258.146 587.972 258.818 586.815 259.343C585.672 259.854 584.367 260.156 582.901 260.251L582.659 263.479C582.646 263.761 582.531 264.017 582.316 264.245C582.101 264.487 581.825 264.608 581.489 264.608H579.875L580.218 260.19C578.631 260.002 577.151 259.585 575.779 258.939C574.421 258.28 573.258 257.46 572.289 256.478L573.601 254.481C573.722 254.306 573.876 254.165 574.065 254.057C574.266 253.936 574.482 253.875 574.71 253.875C574.993 253.875 575.295 253.99 575.618 254.218C575.954 254.447 576.344 254.716 576.788 255.025C577.232 255.321 577.757 255.617 578.362 255.913C578.967 256.196 579.68 256.404 580.5 256.538L581.247 246.754C580.305 246.471 579.371 246.155 578.443 245.806C577.528 245.442 576.701 244.965 575.961 244.373C575.235 243.781 574.643 243.042 574.186 242.154C573.742 241.266 573.52 240.15 573.52 238.805C573.52 237.796 573.715 236.814 574.105 235.86C574.508 234.905 575.087 234.057 575.84 233.318C576.607 232.564 577.548 231.952 578.664 231.482C579.781 230.997 581.058 230.722 582.498 230.654L582.699 227.951C582.713 227.655 582.827 227.393 583.042 227.164C583.258 226.936 583.533 226.821 583.869 226.821H585.483L585.181 230.776C586.593 230.977 587.817 231.367 588.853 231.946C589.888 232.511 590.789 233.17 591.556 233.923L590.507 235.537C590.211 236.007 589.848 236.243 589.417 236.243C589.216 236.243 588.974 236.169 588.691 236.021C588.422 235.873 588.099 235.698 587.723 235.496C587.36 235.295 586.943 235.093 586.472 234.891C586.001 234.689 585.477 234.535 584.898 234.427L584.212 243.425Z" fill="#FFE779"/>
<rect x="529" y="298" width="137" height="18" rx="5" fill="url(#paint6_linear_655_734)"/>
<rect x="512" y="283" width="126" height="18" rx="5" fill="url(#paint7_linear_655_734)"/>
<path d="M237.414 65.1266L394.014 48.9266C394.692 48.8585 395.377 48.9402 396.02 49.1659C396.663 49.3916 397.248 49.7559 397.735 50.2329C398.221 50.7099 398.597 51.288 398.836 51.9263C399.074 52.5646 399.169 53.2475 399.114 53.9266L385.714 206.327C385.561 208.13 384.715 209.804 383.354 210.998C381.993 212.191 380.223 212.811 378.414 212.727L226.314 204.527C225.083 204.454 223.931 203.899 223.107 202.982C222.283 202.064 221.854 200.858 221.914 199.627L231.114 71.7266C231.231 70.0649 231.925 68.4961 233.075 67.2911C234.225 66.0861 235.76 65.3206 237.414 65.1266Z" fill="#6DAFA7"/>
<path d="M231.714 63.4267L390.114 47.0267C390.802 46.9525 391.498 47.0334 392.151 47.2634C392.803 47.4935 393.396 47.8668 393.885 48.3561C394.374 48.8453 394.748 49.438 394.978 50.0905C395.208 50.743 395.289 51.4388 395.214 52.1267L381.714 206.227C381.579 208.055 380.724 209.756 379.337 210.956C377.95 212.155 376.144 212.756 374.314 212.627L220.414 204.327C219.794 204.297 219.186 204.142 218.626 203.873C218.067 203.603 217.567 203.224 217.157 202.758C216.746 202.291 216.434 201.747 216.238 201.158C216.041 200.569 215.965 199.946 216.014 199.327L225.314 69.9267C225.49 68.2795 226.218 66.7402 227.38 65.5599C228.542 64.3795 230.07 63.6276 231.714 63.4267Z" fill="#B0D7C0"/>
<path d="M248.114 96.627L240.914 97.027L240.014 110.427L247.114 110.227L248.114 96.627Z" fill="#6DAFA7"/>
<path d="M240.014 110.427L239.514 117.027L246.614 116.827L247.114 110.227L240.014 110.427Z" fill="#B0D7C0"/>
<path d="M263.614 78.4268L256.414 78.9268L255.214 96.2268L262.314 95.9268L263.614 78.4268Z" fill="#6DAFA7"/>
<path d="M255.214 96.2268L253.714 116.627L260.814 116.427L262.314 95.9268L255.214 96.2268Z" fill="#B0D7C0"/>
<path d="M270.214 84.7266L269.414 95.5266L276.514 95.1266L277.314 84.2266L270.214 84.7266Z" fill="#6DAFA7"/>
<path d="M269.414 95.527L267.914 116.327L275.014 116.127L276.514 95.127L269.414 95.527Z" fill="#B0D7C0"/>
<path d="M290.714 94.3267L283.614 94.7267L283.114 102.327L290.214 101.927L290.714 94.3267Z" fill="#6DAFA7"/>
<path d="M283.114 102.327L282.114 115.927L289.214 115.727L290.214 101.927L283.114 102.327Z" fill="#B0D7C0"/>
<path d="M305.814 82.2266L304.914 93.6266L304.414 101.127L297.314 101.527L297.814 93.9266L298.714 82.7266L305.814 82.2266Z" fill="#6DAFA7"/>
<path d="M297.314 101.527L296.214 115.527L303.314 115.427L304.414 101.127L297.314 101.527Z" fill="#B0D7C0"/>
<path d="M362.914 74.0266L350.214 94.1266L339.114 79.0266C343.414 75.4162 348.721 73.2166 354.314 72.7266C357.242 72.5151 360.18 72.9592 362.914 74.0266Z" fill="#FFE779"/>
<path d="M372.814 92.5269L350.214 94.1268L362.914 74.0269C369.914 76.8269 374.014 83.8269 372.814 92.5269Z" fill="#F8AB5D"/>
<path d="M372.814 92.5269C372.814 92.8269 372.714 93.1268 372.714 93.4268C370.614 105.327 359.514 115.227 347.814 116.127L350.214 94.1268L372.814 92.5269Z" fill="#B0D7C0"/>
<path d="M350.214 94.127L347.814 116.127C347.185 116.21 346.549 116.244 345.914 116.227C334.014 116.227 326.714 106.527 329.214 94.827C330.659 88.631 334.146 83.1012 339.114 79.127L350.214 94.127Z" fill="white"/>
<path d="M369.614 133.227L364.714 184.927L233.714 181.527L233.914 177.627L262.214 158.127C262.846 157.678 263.606 157.446 264.381 157.464C265.156 157.482 265.904 157.749 266.514 158.227L277.114 166.027C277.507 166.318 277.954 166.529 278.429 166.646C278.904 166.764 279.398 166.786 279.881 166.712C280.365 166.637 280.829 166.468 281.247 166.213C281.664 165.958 282.027 165.623 282.314 165.227L292.814 151.227C293.165 150.757 293.622 150.378 294.148 150.12C294.674 149.862 295.254 149.732 295.84 149.742C296.426 149.752 297.001 149.9 297.518 150.176C298.035 150.451 298.479 150.846 298.814 151.327L308.114 164.227C308.404 164.635 308.773 164.981 309.199 165.243C309.625 165.505 310.099 165.679 310.594 165.754C311.089 165.829 311.594 165.803 312.078 165.678C312.563 165.553 313.017 165.331 313.414 165.027C314.044 164.55 314.808 164.283 315.598 164.266C316.388 164.248 317.163 164.479 317.814 164.927L324.414 169.627C324.826 169.916 325.291 170.12 325.782 170.227C326.274 170.333 326.782 170.34 327.276 170.247C327.77 170.153 328.24 169.962 328.659 169.684C329.078 169.405 329.437 169.046 329.714 168.627L344.514 145.827C344.792 145.407 345.151 145.048 345.57 144.769C345.988 144.491 346.459 144.3 346.953 144.206C347.447 144.113 347.955 144.12 348.447 144.227C348.938 144.333 349.403 144.537 349.814 144.827L354.114 147.927C354.507 148.219 354.954 148.431 355.429 148.55C355.904 148.668 356.398 148.691 356.882 148.616C357.366 148.542 357.83 148.372 358.248 148.116C358.666 147.86 359.028 147.524 359.314 147.127L369.614 133.227Z" fill="#6DAFA7"/>
<path d="M274.514 149.327H268.814C268.683 149.323 268.552 149.348 268.432 149.4C268.311 149.452 268.203 149.529 268.114 149.627L266.814 150.927C266.627 151.11 266.376 151.213 266.114 151.213C265.853 151.213 265.601 151.11 265.414 150.927L264.414 149.627C264.326 149.529 264.218 149.452 264.097 149.4C263.976 149.348 263.846 149.323 263.714 149.327H258.214C258.099 149.333 257.983 149.313 257.877 149.269C257.77 149.224 257.675 149.156 257.598 149.07C257.521 148.983 257.464 148.88 257.433 148.769C257.401 148.658 257.395 148.541 257.414 148.427L258.214 137.627C258.233 137.368 258.344 137.124 258.528 136.94C258.712 136.757 258.955 136.645 259.214 136.627L275.514 136.027C275.753 136.027 275.982 136.122 276.151 136.29C276.32 136.459 276.414 136.688 276.414 136.927L275.514 148.227C275.528 148.366 275.513 148.507 275.469 148.64C275.425 148.773 275.354 148.896 275.259 149C275.165 149.103 275.05 149.186 274.922 149.242C274.793 149.299 274.655 149.328 274.514 149.327Z" fill="white"/>
<path d="M327.914 154.727L322.214 154.627C322.083 154.623 321.952 154.648 321.832 154.7C321.711 154.752 321.602 154.829 321.514 154.927L320.214 156.227C320.123 156.326 320.01 156.403 319.885 156.452C319.76 156.502 319.625 156.522 319.49 156.513C319.356 156.503 319.226 156.463 319.109 156.397C318.992 156.33 318.891 156.238 318.814 156.127L317.814 154.827C317.726 154.729 317.618 154.652 317.497 154.6C317.376 154.548 317.246 154.523 317.114 154.527L311.714 154.427C311.214 154.427 310.914 154.027 310.914 153.427L311.714 142.527C311.727 142.282 311.824 142.05 311.988 141.868C312.151 141.686 312.373 141.566 312.614 141.527L328.914 141.127C329.041 141.129 329.165 141.157 329.28 141.21C329.395 141.262 329.497 141.338 329.582 141.431C329.666 141.525 329.73 141.635 329.77 141.755C329.81 141.875 329.825 142.001 329.814 142.127L328.914 153.727C328.923 153.861 328.903 153.995 328.856 154.12C328.809 154.245 328.736 154.359 328.641 154.454C328.546 154.548 328.433 154.622 328.307 154.669C328.182 154.716 328.048 154.736 327.914 154.727Z" fill="white"/>
<path fill-rule="evenodd" clip-rule="evenodd" d="M151.262 133.49C146.654 128.081 143.536 121.453 144.057 114.025C145.558 92.625 175.349 97.3328 181.143 108.134C186.938 118.935 186.25 146.333 178.76 148.263C175.774 149.033 169.411 147.147 162.935 143.244L167 172H143L151.262 133.49Z" fill="#B28B67"/>
<path fill-rule="evenodd" clip-rule="evenodd" d="M133.593 106.902C132.818 106.134 132.395 105.037 132.03 103.996C131.65 102.914 131.281 101.822 131.028 100.696C130.525 98.4468 130.52 95.8602 132.124 94.1136C133.411 92.7131 135.342 92.0849 137.124 91.9484C138.311 91.8573 139.531 92.0236 140.669 92.3978C141.798 92.7689 142.771 93.5086 143.866 93.9678C143.908 91.5439 144.323 89.0077 145.553 86.9381C146.736 84.9468 148.622 83.8293 150.771 83.5337C152.976 83.2303 155.154 83.7463 157.128 84.8139C157.622 85.0813 158.112 85.3614 158.581 85.6784C158.973 85.9439 159.381 86.2636 159.841 86.3716C160.355 86.4921 160.609 86.1957 160.942 85.8212C161.334 85.3822 161.774 84.9955 162.24 84.6527C164.302 83.1373 167.007 82.5142 169.396 83.4225C170.496 83.8411 171.567 84.5518 172.313 85.5313C172.979 86.4043 173.454 87.7892 174.372 88.3975C174.762 88.6557 175.037 88.3136 175.392 88.0608C175.925 87.6809 176.434 87.2617 176.973 86.8921C177.731 86.3729 178.552 85.9845 179.43 85.7812C180.717 85.4836 182.494 85.5534 182.862 87.2382C183 87.871 182.894 88.5479 182.85 89.1855C182.789 90.0611 182.725 90.9363 182.649 91.8106C182.591 92.4744 182.518 93.1155 182.393 93.7674C182.326 94.1148 182.117 94.7626 182.266 95.1106C182.452 95.5455 183.311 95.2982 183.679 95.3134C184.404 95.3433 185.132 95.4705 185.803 95.7804C186.322 96.0206 186.869 96.3738 187.088 96.9694C187.223 97.3353 187.187 97.7112 187.124 98.0876C187.047 98.5393 187.135 98.779 187.192 99.2348C188.166 98.7552 191.541 97.6896 191.965 99.4351C192.107 100.016 191.785 100.673 191.539 101.163C191.108 102.023 190.543 102.809 189.966 103.558C188.761 105.121 187.323 106.47 185.776 107.623C187.589 108.429 188.062 110.806 186.493 112.222C185.8 112.848 184.868 112.987 183.994 112.947C183.674 112.932 183.213 112.809 182.961 112.865C182.825 112.895 182.68 113.01 182.493 113.022C181.259 113.107 179.866 112.81 178.66 112.536C176.512 112.048 174.477 111.03 172.816 109.48C172.39 109.082 172.038 108.853 171.464 108.859C170.962 108.864 170.468 109.002 169.966 109.015C168.638 109.048 167.44 108.399 166.206 107.967C166.13 109.633 165.655 111.469 164.974 112.969C164.418 114.191 163.257 114.369 162.116 114.476C158.467 114.82 154.806 114.437 151.152 114.442C154.689 115.241 158.343 115.571 161.848 116.511C163.432 116.936 162.222 118.004 161.545 118.744C160.43 119.963 159.6 121.474 159.025 123.065C157.295 120.81 154.237 119.324 151.528 120.017C148.535 120.782 146.427 124.83 148.341 127.74C149.453 129.429 151.459 130.081 153.129 130.807C151.827 132.161 151.511 134.161 150.727 135.846C150.341 136.677 149.798 137.617 148.933 137.906C148.613 138.013 148.238 138.022 147.986 138.283C147.673 138.606 147.599 138.967 147.199 139.245C145.606 140.352 143.117 140.267 141.705 138.821C140.428 137.514 140.76 135.445 141.827 134.12C140.129 133.412 137.036 132.502 137.711 129.857C134.032 129.613 125.1 123.646 130.037 119.286C127.327 117.755 124.838 114.012 126.578 110.713C127.919 108.172 131.036 107.036 133.593 106.902Z" fill="#191847"/>
<path fill-rule="evenodd" clip-rule="evenodd" d="M99.6226 297H176.877L187 421H72L99.6226 297Z" fill="#C5CFD6"/>
<path fill-rule="evenodd" clip-rule="evenodd" d="M99.6226 297H123.383L137.604 421H72L99.6226 297Z" fill="black" fill-opacity="0.1"/>
<path fill-rule="evenodd" clip-rule="evenodd" d="M264.953 275.756C273.19 270.81 287.009 277.165 287 284.238C286.972 305.403 267.657 405.151 266.648 411.457C265.64 417.762 254.837 419.428 254.208 411.477C253.207 398.827 251.347 355.033 253.208 334.763C253.976 326.395 254.803 318.427 255.617 311.318C245.482 329.621 229.807 355.826 208.593 389.934L197.077 384.672C206.12 354.876 213.536 333.841 219.323 321.567C229.233 300.55 238.525 282.552 242.436 276.212C248.588 266.24 259.295 269.719 264.953 275.756Z" fill="#B28B67"/>
<path fill-rule="evenodd" clip-rule="evenodd" d="M197.9 368.125L237.427 274.487C246.897 259.255 273.446 277.587 270.217 286.422C262.886 306.479 225.6 371.414 223.415 377.39L197.9 368.125Z" fill="#1F28CF"/>
<path fill-rule="evenodd" clip-rule="evenodd" d="M195.705 378.767C193.242 380.794 191.641 382.45 190.899 383.734C189.998 385.295 188.942 387.725 187.733 391.021C189.544 392.067 205.826 401.467 236.578 419.222C240.27 415.758 240.845 413.07 238.304 411.156C235.762 409.243 233.665 407.629 232.012 406.315L215.152 383.087C214.828 382.64 214.202 382.54 213.756 382.865C213.748 382.87 213.74 382.876 213.733 382.882L210.23 385.579C207.016 385.299 204.618 384.702 203.035 383.788C201.749 383.045 200.273 381.5 198.607 379.153C197.967 378.253 196.719 378.041 195.818 378.68C195.779 378.708 195.741 378.737 195.705 378.767Z" fill="#E4E4E4"/>
<path fill-rule="evenodd" clip-rule="evenodd" d="M251.678 406.402C250.559 409.388 250 411.623 250 413.106C250 414.909 250.3 417.54 250.901 421C252.993 421 271.794 421 307.303 421C308.769 416.155 307.923 413.539 304.765 413.152C301.607 412.766 298.984 412.417 296.895 412.106L270.68 400.419C270.176 400.194 269.584 400.421 269.359 400.925C269.356 400.934 269.352 400.942 269.348 400.951L267.663 405.039C264.74 406.403 262.364 407.085 260.537 407.085C259.052 407.085 257.001 406.485 254.384 405.286C253.38 404.825 252.193 405.266 251.733 406.27C251.713 406.313 251.695 406.357 251.678 406.402Z" fill="#E4E4E4"/>
<path fill-rule="evenodd" clip-rule="evenodd" d="M289.77 291.433C289.77 318 277.154 379.97 277.146 385.82L250 385.841C253.973 330.545 255.382 302.6 254.227 302.004C252.493 301.111 183.176 308.925 162.386 308.925C132.408 308.925 120.006 290.02 119 255H178.386C190.478 256.294 253.549 269.015 276.972 273.388C287 275.261 289.77 284.115 289.77 291.433Z" fill="#2B44FF"/>
<path fill-rule="evenodd" clip-rule="evenodd" d="M187.638 192.7L222.348 173.69C228.12 166.835 233.807 161.512 239.409 157.72C241.121 157.005 244.114 156.573 241.315 161.541C238.515 166.51 235.794 171.863 237.22 173.394C238.647 174.924 242.203 172.786 243.905 175.329C245.039 177.025 238.963 179.704 225.677 183.365L200.456 206.458L187.638 192.7ZM242 208.74L257.247 200.364C259.386 192.224 261.943 188.128 264.918 188.077C267.204 187.014 263.224 197.3 267.556 196.408C271.889 195.516 282.464 187.651 284.286 189.248C286.982 191.61 284.579 198.864 281.746 202.473C276.453 209.218 272.071 211.524 261.238 214.544C255.575 216.123 249.451 219.289 242.868 224.04L242 208.74Z" fill="#997659"/>
<path fill-rule="evenodd" clip-rule="evenodd" d="M170.734 188.465C182.892 188.337 199.104 185.769 216.402 174.789L223.196 189.938C211.264 201.78 194.486 211.509 179.816 211.097C168.255 210.773 162.347 196.789 170.734 188.465Z" fill="#2026A2"/>
<path fill-rule="evenodd" clip-rule="evenodd" d="M187.104 212.761C200.011 215.98 221.655 212.184 252.036 201.373C259.572 216.964 263.055 228.078 262.487 234.717C236.424 248.331 214.087 254.401 195.683 254.802C196.268 265.721 194.939 276.112 190.474 285.606C181.295 305.124 127.545 287.048 109.473 290.606C98.1554 253.851 120.038 238.914 120.056 215.397C120.075 189.642 140.754 150 143.797 150L171.544 150C173.075 169.669 180.78 191.346 187.104 212.761Z" fill="#1F28CF"/>
<ellipse cx="512" cy="368" rx="66" ry="63" fill="#FFE779"/>
<ellipse cx="512" cy="368" rx="56.5714" ry="54" fill="#F8AB5D"/>
<path d="M512.295 385.792C514.872 385.503 516.82 384.697 518.141 383.374C519.484 382.051 520.155 380.346 520.155 378.259C520.155 377.37 519.981 376.595 519.635 375.934C519.289 375.273 518.812 374.694 518.206 374.198C517.622 373.702 516.918 373.278 516.095 372.927C515.272 372.555 514.385 372.214 513.432 371.904L512.295 385.792ZM510.704 351.661C509.405 351.785 508.29 352.043 507.359 352.436C506.428 352.808 505.659 353.273 505.053 353.831C504.447 354.368 504.003 354.978 503.722 355.66C503.44 356.342 503.3 357.065 503.3 357.83C503.3 358.698 503.462 359.463 503.787 360.124C504.111 360.785 504.555 361.374 505.118 361.891C505.703 362.387 506.385 362.831 507.164 363.224C507.944 363.596 508.788 363.947 509.697 364.278L510.704 351.661ZM513.952 365.58C515.511 366.035 517.048 366.541 518.563 367.099C520.101 367.636 521.475 368.339 522.688 369.207C523.9 370.054 524.875 371.119 525.611 372.4C526.368 373.681 526.747 375.283 526.747 377.205C526.747 379.086 526.412 380.863 525.741 382.537C525.091 384.19 524.128 385.658 522.85 386.939C521.573 388.2 520.003 389.233 518.141 390.039C516.301 390.824 514.201 391.289 511.841 391.434L511.451 396.394C511.429 396.828 511.245 397.221 510.899 397.572C510.553 397.944 510.109 398.13 509.567 398.13H506.969L507.521 391.341C504.967 391.052 502.585 390.411 500.377 389.419C498.19 388.406 496.317 387.146 494.758 385.637L496.869 382.568C497.064 382.299 497.313 382.082 497.616 381.917C497.941 381.731 498.287 381.638 498.655 381.638C499.11 381.638 499.597 381.814 500.117 382.165C500.658 382.516 501.286 382.93 502 383.405C502.715 383.86 503.559 384.314 504.534 384.769C505.508 385.203 506.655 385.523 507.976 385.73L509.178 370.695C507.662 370.261 506.157 369.775 504.664 369.238C503.191 368.68 501.86 367.946 500.669 367.037C499.5 366.128 498.547 364.991 497.811 363.627C497.097 362.263 496.739 360.548 496.739 358.481C496.739 356.931 497.053 355.422 497.681 353.955C498.331 352.488 499.262 351.186 500.474 350.049C501.708 348.892 503.224 347.951 505.021 347.228C506.818 346.484 508.875 346.06 511.191 345.957L511.516 341.803C511.538 341.348 511.722 340.945 512.068 340.594C512.415 340.243 512.858 340.067 513.4 340.067H515.998L515.511 346.143C517.784 346.453 519.754 347.052 521.421 347.941C523.088 348.809 524.539 349.822 525.773 350.979L524.084 353.459C523.608 354.182 523.023 354.544 522.331 354.544C522.006 354.544 521.616 354.43 521.161 354.203C520.728 353.976 520.209 353.707 519.603 353.397C519.018 353.087 518.347 352.777 517.589 352.467C516.831 352.157 515.987 351.919 515.056 351.754L513.952 365.58Z" fill="#FFE779"/>
<ellipse cx="678" cy="389" rx="35" ry="33" fill="#FFE779"/>
<ellipse cx="678" cy="389" rx="30" ry="28.2857" fill="#F8AB5D"/>
<path d="M678.157 398.319C679.523 398.168 680.556 397.746 681.257 397.053C681.969 396.36 682.324 395.467 682.324 394.373C682.324 393.908 682.233 393.502 682.049 393.156C681.865 392.809 681.613 392.506 681.291 392.246C680.981 391.986 680.608 391.765 680.172 391.581C679.735 391.386 679.265 391.207 678.759 391.045L678.157 398.319ZM677.313 380.441C676.624 380.506 676.033 380.641 675.539 380.847C675.045 381.042 674.638 381.286 674.316 381.578C673.995 381.859 673.759 382.179 673.61 382.536C673.461 382.893 673.386 383.272 673.386 383.673C673.386 384.127 673.472 384.528 673.644 384.874C673.817 385.221 674.052 385.529 674.351 385.8C674.661 386.06 675.022 386.292 675.436 386.498C675.849 386.693 676.297 386.877 676.779 387.05L677.313 380.441ZM679.035 387.732C679.862 387.97 680.677 388.235 681.481 388.528C682.296 388.809 683.025 389.177 683.668 389.632C684.311 390.076 684.827 390.633 685.218 391.304C685.62 391.976 685.821 392.815 685.821 393.821C685.821 394.807 685.643 395.737 685.287 396.614C684.942 397.48 684.431 398.249 683.754 398.92C683.076 399.581 682.244 400.122 681.257 400.544C680.281 400.955 679.167 401.199 677.916 401.275L677.709 403.873C677.697 404.1 677.6 404.306 677.416 404.49C677.232 404.685 676.997 404.782 676.71 404.782H675.332L675.625 401.226C674.27 401.074 673.007 400.739 671.836 400.219C670.676 399.689 669.683 399.028 668.857 398.238L669.976 396.631C670.079 396.49 670.211 396.376 670.372 396.29C670.544 396.192 670.728 396.143 670.923 396.143C671.164 396.143 671.423 396.235 671.698 396.42C671.985 396.604 672.318 396.82 672.697 397.069C673.076 397.307 673.524 397.545 674.041 397.783C674.557 398.011 675.166 398.179 675.866 398.287L676.503 390.411C675.7 390.184 674.902 389.93 674.109 389.648C673.329 389.356 672.623 388.972 671.991 388.495C671.371 388.019 670.866 387.424 670.476 386.709C670.097 385.995 669.907 385.096 669.907 384.014C669.907 383.202 670.074 382.411 670.407 381.643C670.751 380.874 671.245 380.192 671.888 379.597C672.542 378.991 673.346 378.498 674.299 378.119C675.252 377.729 676.343 377.508 677.571 377.453L677.743 375.277C677.755 375.039 677.852 374.828 678.036 374.644C678.22 374.46 678.455 374.368 678.742 374.368H680.12L679.862 377.551C681.067 377.713 682.112 378.027 682.996 378.493C683.88 378.947 684.649 379.478 685.304 380.084L684.408 381.383C684.156 381.762 683.846 381.951 683.478 381.951C683.306 381.951 683.099 381.892 682.858 381.773C682.629 381.654 682.353 381.513 682.032 381.351C681.722 381.188 681.366 381.026 680.964 380.863C680.562 380.701 680.114 380.577 679.621 380.49L679.035 387.732Z" fill="#FFE779"/>
<path d="M625.875 431.009C596.828 445.022 560.066 440.085 546.635 421.478C534.945 405.19 546.625 385.228 570.59 375.242C593.616 365.853 623.265 367.278 639.594 380.085C657.782 393.948 653.217 417.422 625.875 431.009Z" fill="#F8AB5D"/>
<path d="M624.457 422.155C595.41 436.168 558.648 431.232 545.217 412.624C533.528 396.336 545.207 376.375 569.172 366.388C592.198 357 621.847 358.424 638.176 371.231C656.364 385.095 651.799 408.568 624.457 422.155Z" fill="#FFE779"/>
<path d="M616.608 413.97C594.946 424.467 567.071 420.858 556.406 407.214C546.884 394.952 555.238 379.085 573.915 371.147C591.876 363.534 615.537 365.08 627.822 375.056C641.523 386.635 637.331 404.07 616.608 413.97Z" fill="#F8AB5D"/>
<path d="M569.368 399.619L572.012 398.595C572.95 397.998 573.394 397.452 573.069 396.735C572.05 395.523 571.531 393.967 571.618 392.386C571.567 391.891 572.232 391.072 573.443 390.696L573.937 390.645C575.148 390.269 576.462 390.883 576.292 391.651C576.42 393.423 577.121 395.105 578.289 396.444C579.526 397.78 581.168 398.672 582.963 398.983C584.757 399.294 586.603 399.006 588.218 398.164C588.931 397.921 589.586 397.532 590.142 397.023C590.697 396.514 591.141 395.895 591.446 395.206C591.75 394.517 591.908 393.772 591.91 393.018C591.912 392.264 591.758 391.519 591.457 390.828C591.018 389.889 590.786 388.867 590.777 387.831C590.769 386.794 590.984 385.769 591.408 384.823C591.832 383.877 592.455 383.034 593.234 382.351C594.013 381.668 594.931 381.161 595.923 380.864C598.008 379.864 600.301 379.376 602.613 379.44C604.924 379.505 607.187 380.121 609.212 381.236C609.758 381.679 610.748 381.577 611.959 381.201L614.603 380.177C615.064 379.894 615.602 379.761 616.142 379.794C616.682 379.828 617.199 380.026 617.622 380.363C618.168 380.807 617.998 381.575 617.059 382.172L614.91 383.145C613.972 383.742 613.529 384.288 614.348 384.953C615.136 385.824 615.678 386.89 615.918 388.04C616.242 388.757 615.304 389.354 614.093 389.73L613.599 389.781C612.388 390.157 611.074 389.543 611.244 388.775C610.9 387.288 610.057 385.964 608.855 385.023C607.678 383.935 606.201 383.226 604.616 382.989C603.031 382.753 601.411 382.998 599.967 383.695C597.102 384.992 596.812 387.022 597.717 390.928C598.122 391.973 598.301 393.091 598.243 394.21C598.185 395.329 597.891 396.422 597.381 397.42C596.871 398.417 596.155 399.295 595.282 399.996C594.408 400.698 593.397 401.206 592.313 401.489C589.976 402.607 587.398 403.126 584.811 403.002C582.224 402.878 579.708 402.113 577.489 400.777C577.073 400.526 576.596 400.396 576.11 400.403C575.625 400.409 575.151 400.55 574.742 400.812L571.877 402.109C571.4 402.342 570.872 402.448 570.342 402.415C569.813 402.382 569.301 402.212 568.857 401.922C567.765 401.036 568.157 399.995 569.368 399.619Z" fill="#FFE779"/>
</g>
<defs>
<linearGradient id="paint0_linear_655_734" x1="588.5" y1="404" x2="588.5" y2="422" gradientUnits="userSpaceOnUse">
<stop stop-color="#FFE779"/>
<stop offset="0.130208" stop-color="#F8AB5D"/>
<stop offset="0.890625" stop-color="#F8AB5D"/>
<stop offset="1" stop-color="#FFE779"/>
</linearGradient>
<linearGradient id="paint1_linear_655_734" x1="588.5" y1="387" x2="588.5" y2="405" gradientUnits="userSpaceOnUse">
<stop stop-color="#FFE779"/>
<stop offset="0.130208" stop-color="#F8AB5D"/>
<stop offset="0.890625" stop-color="#F8AB5D"/>
<stop offset="1" stop-color="#FFE779"/>
</linearGradient>
<linearGradient id="paint2_linear_655_734" x1="569.5" y1="368" x2="569.5" y2="386" gradientUnits="userSpaceOnUse">
<stop stop-color="#FFE779"/>
<stop offset="0.130208" stop-color="#F8AB5D"/>
<stop offset="0.890625" stop-color="#F8AB5D"/>
<stop offset="1" stop-color="#FFE779"/>
</linearGradient>
<linearGradient id="paint3_linear_655_734" x1="588.5" y1="350" x2="588.5" y2="368" gradientUnits="userSpaceOnUse">
<stop stop-color="#FFE779"/>
<stop offset="0.130208" stop-color="#F8AB5D"/>
<stop offset="0.890625" stop-color="#F8AB5D"/>
<stop offset="1" stop-color="#FFE779"/>
</linearGradient>
<linearGradient id="paint4_linear_655_734" x1="569.5" y1="333" x2="569.5" y2="351" gradientUnits="userSpaceOnUse">
<stop stop-color="#FFE779"/>
<stop offset="0.130208" stop-color="#F8AB5D"/>
<stop offset="0.890625" stop-color="#F8AB5D"/>
<stop offset="1" stop-color="#FFE779"/>
</linearGradient>
<linearGradient id="paint5_linear_655_734" x1="588.5" y1="316" x2="588.5" y2="334" gradientUnits="userSpaceOnUse">
<stop stop-color="#FFE779"/>
<stop offset="0.130208" stop-color="#F8AB5D"/>
<stop offset="0.890625" stop-color="#F8AB5D"/>
<stop offset="1" stop-color="#FFE779"/>
</linearGradient>
<linearGradient id="paint6_linear_655_734" x1="597.5" y1="298" x2="597.5" y2="316" gradientUnits="userSpaceOnUse">
<stop stop-color="#FFE779"/>
<stop offset="0.130208" stop-color="#F8AB5D"/>
<stop offset="0.890625" stop-color="#F8AB5D"/>
<stop offset="1" stop-color="#FFE779"/>
</linearGradient>
<linearGradient id="paint7_linear_655_734" x1="575" y1="283" x2="575" y2="301" gradientUnits="userSpaceOnUse">
<stop stop-color="#FFE779"/>
<stop offset="0.130208" stop-color="#F8AB5D"/>
<stop offset="0.890625" stop-color="#F8AB5D"/>
<stop offset="1" stop-color="#FFE779"/>
</linearGradient>
<clipPath id="clip0_655_734">
<rect width="796" height="527" fill="white"/>
</clipPath>
</defs>
</svg>
