<svg width="904" height="574" viewBox="0 0 904 574" fill="none" xmlns="http://www.w3.org/2000/svg">
<path d="M814.289 49H326.131C318.879 49 313 54.879 313 62.13V383.46C313 390.712 318.879 396.59 326.131 396.59H814.289C821.541 396.59 827.419 390.712 827.419 383.46V62.13C827.419 54.879 821.541 49 814.289 49Z" fill="url(#paint0_linear_656_1134)"/>
<path d="M803.338 275.391H712.382C709.008 275.391 706.273 278.126 706.273 281.5V380.208C706.273 383.582 709.008 386.317 712.382 386.317H803.338C806.712 386.317 809.447 383.582 809.447 380.208V281.5C809.447 278.126 806.712 275.391 803.338 275.391Z" fill="white"/>
<path d="M465.812 274.352H334.255C331.397 274.352 329.081 276.668 329.081 279.525V381.144C329.081 384.001 331.397 386.317 334.255 386.317H465.812C468.669 386.317 470.985 384.001 470.985 381.144V279.525C470.985 276.668 468.669 274.352 465.812 274.352Z" fill="white"/>
<path d="M689.99 274.352H487.915C484.4 274.352 481.55 277.201 481.55 280.716V379.952C481.55 383.468 484.4 386.317 487.915 386.317H689.99C693.505 386.317 696.355 383.468 696.355 379.952V280.716C696.355 277.201 693.505 274.352 689.99 274.352Z" fill="white"/>
<path d="M801.281 94.3984H618.302C613.792 94.3984 610.136 98.0544 610.136 102.564V256.197C610.136 260.707 613.792 264.363 618.302 264.363H801.281C805.791 264.363 809.447 260.707 809.447 256.197V102.564C809.447 98.0544 805.791 94.3984 801.281 94.3984Z" fill="#1C85E8"/>
<path d="M734.528 176.868C734.528 172.302 733.287 167.823 730.936 163.909C728.586 159.995 725.215 156.794 721.186 154.648C717.156 152.503 712.619 151.494 708.059 151.729C703.5 151.964 699.09 153.434 695.303 155.983C691.515 158.531 688.491 162.062 686.556 166.197C684.621 170.332 683.846 174.915 684.316 179.456C684.785 183.998 686.481 188.326 689.221 191.977C691.961 195.629 695.643 198.466 699.871 200.186V208.447H718.839V200.186C723.476 198.3 727.446 195.074 730.241 190.92C733.035 186.766 734.528 181.874 734.528 176.868Z" stroke="white" stroke-width="3.71807" stroke-linecap="round" stroke-linejoin="round"/>
<path d="M699.872 208.447H718.903V212.498C718.903 214.214 718.221 215.86 717.007 217.074C715.794 218.288 714.147 218.97 712.431 218.97H706.344C704.627 218.97 702.981 218.288 701.767 217.074C700.554 215.86 699.872 214.214 699.872 212.498V208.447Z" stroke="white" stroke-width="3.71807" stroke-linecap="round" stroke-linejoin="round"/>
<path d="M705.102 208.447V179.549C705.102 178.858 704.827 178.194 704.338 177.705C703.849 177.216 703.186 176.941 702.494 176.941H702.416C701.724 176.941 701.061 177.216 700.572 177.705C700.083 178.194 699.808 178.858 699.808 179.549C699.808 179.892 699.875 180.231 700.007 180.547C700.138 180.864 700.33 181.151 700.572 181.393C700.814 181.635 701.101 181.827 701.418 181.958C701.734 182.089 702.073 182.157 702.416 182.157H716.295C716.638 182.157 716.977 182.089 717.293 181.958C717.609 181.827 717.897 181.635 718.139 181.393C718.381 181.151 718.573 180.864 718.704 180.547C718.835 180.231 718.903 179.892 718.903 179.549C718.903 178.858 718.628 178.194 718.139 177.705C717.65 177.216 716.987 176.941 716.295 176.941H716.067C715.375 176.941 714.712 177.216 714.223 177.705C713.734 178.194 713.459 178.858 713.459 179.549V208.447" stroke="white" stroke-width="3.71807" stroke-linecap="round" stroke-linejoin="round"/>
<path d="M709.387 138.197V144.657" stroke="white" stroke-width="3.71807" stroke-linecap="round" stroke-linejoin="round"/>
<path d="M686.1 144.42L689.33 150.015" stroke="white" stroke-width="3.71807" stroke-linecap="round" stroke-linejoin="round"/>
<path d="M669.045 161.452L674.639 164.682" stroke="white" stroke-width="3.71807" stroke-linecap="round" stroke-linejoin="round"/>
<path d="M749.698 161.508L744.103 164.738" stroke="white" stroke-width="3.71807" stroke-linecap="round" stroke-linejoin="round"/>
<path d="M732.666 144.451L729.436 150.046" stroke="white" stroke-width="3.71807" stroke-linecap="round" stroke-linejoin="round"/>
<path d="M589.184 94.3984H337.195C332.714 94.3984 329.081 98.0314 329.081 102.513V256.086C329.081 260.568 332.714 264.2 337.195 264.2H589.184C593.665 264.2 597.298 260.568 597.298 256.086V102.513C597.298 98.0314 593.665 94.3984 589.184 94.3984Z" fill="#1C85E8"/>
<path d="M503.389 298.477H516.861" stroke="#D4DCF4" stroke-width="12" stroke-miterlimit="10" stroke-linecap="round"/>
<path d="M546.515 298.477H671.97" stroke="#5661AE" stroke-width="12" stroke-miterlimit="10" stroke-linecap="round"/>
<path d="M503.389 327.986H516.861" stroke="#D4DCF4" stroke-width="12" stroke-miterlimit="10" stroke-linecap="round"/>
<path d="M546.515 327.986H604.927" stroke="#5661AE" stroke-width="12" stroke-miterlimit="10" stroke-linecap="round"/>
<path d="M503.389 358.012H516.861" stroke="#D4DCF4" stroke-width="12" stroke-miterlimit="10" stroke-linecap="round"/>
<path d="M546.515 358.012H646.967" stroke="#5661AE" stroke-width="12" stroke-miterlimit="10" stroke-linecap="round"/>
<path d="M353.998 120.104H398.332" stroke="white" stroke-width="10.0826" stroke-miterlimit="10" stroke-linecap="round"/>
<path opacity="0.4" d="M353.998 140.793H445.617" stroke="white" stroke-width="10.0826" stroke-miterlimit="10" stroke-linecap="round"/>
<path d="M326.536 49H813.884C817.474 49 820.916 50.426 823.455 52.965C825.993 55.503 827.419 58.946 827.419 62.536V82.927H313V62.536C313 58.946 314.426 55.503 316.965 52.965C319.503 50.426 322.946 49 326.536 49Z" fill="#5CA4E6"/>
<path d="M353.788 223.322L393.7 183.421C396.526 180.596 399.889 178.354 403.584 176.821C407.279 175.288 411.237 174.499 415.241 174.499C419.244 174.499 423.202 175.288 426.897 176.821C430.603 178.354 433.956 180.596 436.793 183.421L459.74 206.369C465.448 212.089 473.204 215.303 481.28 215.303C489.368 215.303 497.112 212.089 502.832 206.369L552.113 157.088" stroke="white" stroke-width="16.866" stroke-miterlimit="10" stroke-linecap="round"/>
<path d="M521.238 147H553.635C555.98 147 558.221 147.938 559.88 149.597C561.539 151.255 562.477 153.509 562.477 155.854V181.489" stroke="white" stroke-width="16.866" stroke-miterlimit="10" stroke-linecap="round"/>
<path fill-rule="evenodd" clip-rule="evenodd" d="M202.257 149.941C197.266 144.082 193.887 136.902 194.452 128.856C196.078 105.675 228.348 110.774 234.625 122.474C240.902 134.174 240.156 163.852 232.044 165.943C228.808 166.777 221.916 164.735 214.902 160.507L219.305 191.655H193.307L202.257 149.941Z" fill="#B28B67"/>
<path fill-rule="evenodd" clip-rule="evenodd" d="M246.142 106.254C245.604 104.362 244.156 102.742 242.204 102.261C241.731 102.144 241.242 102.097 240.755 102.117C240.581 102.124 240.532 102.174 240.45 102.052C240.39 101.962 240.388 101.74 240.363 101.634C240.286 101.303 240.189 100.976 240.069 100.658C239.661 99.5721 238.975 98.6112 238.147 97.8017C236.6 96.2874 234.51 95.2422 232.338 95.0531C231.149 94.9497 229.969 95.1428 228.845 95.5295C228.263 95.7297 227.699 95.979 227.149 96.2546C226.984 96.3375 226.447 96.7438 226.281 96.7175C226.098 96.6884 225.729 96.2327 225.58 96.1184C223.737 94.7044 221.461 94.1484 219.166 94.1654C216.575 94.1846 214.08 94.314 211.919 95.8936C211.461 96.228 211.026 96.5941 210.611 96.9796C210.392 97.1826 210.181 97.3931 209.979 97.6124C209.857 97.7448 209.739 97.8801 209.625 98.019C209.431 98.2548 209.462 98.3323 209.191 98.1677C208.151 97.5359 206.946 97.2404 205.732 97.3896C205.011 97.4782 204.31 97.6946 203.644 97.9794C203.417 98.0764 202.892 98.4632 202.651 98.467C202.411 98.4707 201.894 98.1121 201.647 98.021C200.313 97.5287 198.875 97.4073 197.474 97.6348C196.027 97.8695 194.607 98.4465 193.382 99.2437C192.793 99.6272 192.278 100.052 191.866 100.622C191.687 100.869 191.526 101.129 191.324 101.357C191.206 101.491 190.971 101.628 190.908 101.797C190.946 101.696 189.326 101.072 189.174 101.032C188.359 100.819 187.53 100.862 186.733 101.125C185.234 101.618 183.945 102.724 182.885 103.859C182.341 104.441 181.865 105.085 181.461 105.771C181.267 106.1 181.09 106.438 180.928 106.783C180.849 106.95 180.797 107.16 180.694 107.31C180.56 107.504 180.471 107.508 180.229 107.593C179.002 108.023 177.884 108.75 177.032 109.733C176.171 110.728 175.612 111.953 175.377 113.242C175.363 113.318 175.355 113.633 175.311 113.674C175.25 113.731 175.003 113.706 174.91 113.717C174.587 113.755 174.266 113.811 173.949 113.886C173.365 114.024 172.797 114.228 172.26 114.493C170.165 115.53 168.667 117.473 167.933 119.66C167.164 121.955 167.178 124.584 168.097 126.836C168.246 127.199 168.422 127.552 168.63 127.886C168.758 128.091 168.799 128.092 168.716 128.307C168.624 128.546 168.455 128.779 168.346 129.013C167.988 129.776 167.738 130.585 167.58 131.412C167.322 132.768 167.193 134.193 167.449 135.559C167.567 136.193 167.774 136.813 168.089 137.379C168.25 137.667 168.438 137.94 168.65 138.193C168.761 138.324 168.878 138.449 169 138.569C169.07 138.638 169.162 138.698 169.222 138.775C169.367 138.961 169.398 138.808 169.323 139.082C169.218 139.466 168.98 139.844 168.835 140.217C168.685 140.602 168.549 140.992 168.425 141.385C168.174 142.182 167.962 142.994 167.829 143.82C167.574 145.405 167.619 147.093 168.369 148.548C168.689 149.17 169.149 149.716 169.707 150.141C169.98 150.349 170.276 150.528 170.586 150.675C170.745 150.75 170.949 150.783 171.021 150.937C171.1 151.103 170.983 151.432 170.957 151.617C170.726 153.229 170.611 154.922 171.09 156.502C171.531 157.957 172.503 159.242 173.765 160.092C176.213 161.742 179.512 161.649 182.084 160.328C182.754 159.984 183.381 159.556 183.941 159.052C185.366 160.97 188.297 160.909 190.379 160.363C192.974 159.682 195.055 157.878 196.255 155.508C197.894 157.504 201.336 156.857 202.473 154.691C202.752 154.161 202.917 153.577 202.998 152.986C203.041 152.675 203.013 152.361 203.046 152.053C203.087 151.66 203.349 151.278 203.5 150.898C203.794 150.158 203.976 149.394 203.984 148.596C203.988 148.179 203.935 147.773 203.896 147.36C203.86 146.988 203.963 146.641 204.022 146.274C203.357 146.383 202.546 146.204 201.919 146.011C201.304 145.822 200.728 145.323 200.294 144.868C199.286 143.81 198.67 142.424 198.249 141.045C197.324 138.017 197.703 134.384 200.749 132.722C202.167 131.948 206.418 131.951 208.108 132.333C209.884 132.736 211.899 136.656 211.998 137.024C212.059 137.253 212.028 137.535 212.238 137.687C212.698 138.021 213.458 137.441 213.797 137.155C214.383 136.661 214.801 136.004 215.163 135.338C215.952 133.886 216.588 132.33 217.037 130.741C217.384 129.517 217.605 128.254 218.058 127.06C218.508 125.872 219.218 124.811 220.322 124.138C221.523 123.406 222.9 123.02 224.219 122.56C225.526 122.105 226.81 121.547 227.823 120.58C228.046 120.368 228.262 120.142 228.441 119.891C228.583 119.693 228.723 119.315 228.938 119.19C229.274 118.995 229.763 119.502 230.053 119.686C231.483 120.594 232.677 121.861 233.639 123.245C234.596 124.622 235.381 125.946 236.02 127.483C236.493 128.623 236.788 130.083 237.621 131.018C237.993 131.435 240.755 131.687 241.65 131.323C242.545 130.959 243.548 130.013 243.849 129.42C244.156 128.814 244.229 128.147 244.098 127.483C244.021 127.093 243.863 126.728 243.777 126.344C243.704 126.022 243.638 125.717 243.481 125.422C243.184 124.862 242.676 124.46 242.063 124.292C242.701 123.704 243.229 123.001 243.595 122.215C243.974 121.398 244.296 120.405 244.388 119.509C244.462 118.781 244.347 118.026 243.949 117.401C243.531 116.744 242.79 116.316 242.149 115.907C243.128 115.141 243.966 114.209 244.655 113.178C245.994 111.173 246.822 108.645 246.142 106.254Z" fill="#191847"/>
<path fill-rule="evenodd" clip-rule="evenodd" d="M184.653 281.588L236.736 419.403L273.242 520.98H294.058L243.877 281.588L184.653 281.588Z" fill="#1F28CF"/>
<path fill-rule="evenodd" clip-rule="evenodd" d="M171.78 281.588C171.214 328.875 171.624 392.54 170.304 395.487C169.425 397.453 142.072 419.842 88.2458 462.657L98.9752 480.901C162.879 439.691 196.465 416.34 199.732 410.85C204.633 402.614 229.254 326.827 242.064 281.588H171.78Z" fill="#2B44FF"/>
<path fill-rule="evenodd" clip-rule="evenodd" d="M69.3697 474.934L87.4917 461.142L102.114 478.568C103.238 491.705 107.588 506.438 115.162 522.767L111.843 525.552L85.3842 494.02L77.9921 481.84L76.3325 483.232L69.3697 474.934Z" fill="#191847"/>
<path fill-rule="evenodd" clip-rule="evenodd" d="M271.311 540.478L272.394 517.73H295.142C305.928 525.313 320.01 531.451 337.387 536.145V540.478H296.225L282.143 538.312V540.478H271.311Z" fill="#191847"/>
<path fill-rule="evenodd" clip-rule="evenodd" d="M277.807 238.581L320.576 232.747C329.131 227.988 337.002 224.767 344.188 223.082C346.21 223.023 349.427 223.758 344.634 227.753C339.842 231.749 334.98 236.168 335.834 238.3C336.688 240.432 341.144 239.639 341.883 242.918C342.375 245.104 335.142 245.46 320.184 243.984L285.48 257.742L277.807 238.581ZM143.454 248.48L167.174 248.569C141.165 307.1 127.603 337.746 126.489 340.507C123.983 346.718 129.287 356.179 131.555 361.263C124.167 364.569 124.955 352.326 115.635 356.662C107.129 360.619 100.658 367.79 90.8307 361.726C89.6224 360.98 88.2983 358.173 91.4974 355.979C99.4675 350.514 110.953 340.95 112.505 337.801C114.621 333.508 124.938 303.734 143.454 248.48Z" fill="#997659"/>
<path fill-rule="evenodd" clip-rule="evenodd" d="M208.426 173.251L226.998 174.488C231.572 215.869 256.485 242.006 312.265 233.158L319.676 286.446C267.541 293.184 221.818 272.311 212.448 215.798C210.022 201.169 208.107 185.944 208.426 173.251Z" fill="#AFB9C5"/>
<path fill-rule="evenodd" clip-rule="evenodd" d="M199.263 167.852L227.402 174.297C227.402 222.694 242.819 253.573 250.726 289.156H174.731C173.661 301.452 173.003 314.089 172.661 327.069H115.758C128.653 258.462 155.869 205.384 197.406 167.835H199.248L199.263 167.852Z" fill="#C5CFD6"/>
<path fill-rule="evenodd" clip-rule="evenodd" d="M186.721 220.11C184.763 250.269 185.915 273.284 190.177 289.156H174.731C176.852 264.798 180.594 241.783 186.721 220.11Z" fill="black" fill-opacity="0.1"/>
<defs>
<linearGradient id="paint0_linear_656_1134" x1="557.403" y1="48.174" x2="611.735" y2="789.82" gradientUnits="userSpaceOnUse">
<stop stop-color="white"/>
<stop offset="1" stop-color="#94B9FF"/>
</linearGradient>
</defs>
</svg>
