<svg width="1280" height="720" viewBox="0 0 1280 720" fill="none" xmlns="http://www.w3.org/2000/svg">
<g clip-path="url(#clip0_653_660)">
<path fill-rule="evenodd" clip-rule="evenodd" d="M225.499 221.747C217.699 216.422 211.402 209.021 209.528 199.34C204.131 171.446 244.192 167.166 255.373 178.979C266.554 190.791 275.056 226.076 266.052 231.136C262.461 233.153 253.603 232.941 243.908 230.188L259.01 265.566L228.036 273.865L225.499 221.747Z" fill="#B28B67"/>
<path fill-rule="evenodd" clip-rule="evenodd" d="M236.252 195.42C241.824 211.472 247.153 218.817 252.24 217.454C259.871 215.409 265.059 208.872 268.408 207.975C270.848 207.321 271.115 210.495 270.098 213.173C269.26 215.382 263.237 218.909 264.007 221.78C264.776 224.651 269.317 221.054 269.773 222.757C270.528 225.573 272.849 230.627 267.917 231.949C262.926 233.286 248.131 235.318 243.711 228.632C240.859 224.318 237.204 214.773 232.748 199.997C232.435 200.042 232.122 200.106 231.81 200.19C227.533 201.336 224.987 205.701 226.123 209.94C226.699 212.092 228.114 213.797 229.927 214.805C228.806 217.792 227.5 220.949 225.923 224.267C215.901 221.443 203.422 207.72 208 191C208.438 183.293 214.746 178.487 220.521 175.057C225.018 171.604 230.207 169.96 234.977 170.03C243.866 168.44 252.33 168.987 254.947 169.958C257.133 178.113 256.187 180.959 242.512 184.395C239.636 187.043 237.871 190.748 236.252 195.42Z" fill="#191847"/>
<path fill-rule="evenodd" clip-rule="evenodd" d="M243.116 381.722L308.696 547.064L352.68 686.847H370.048L302.806 381.722L243.116 381.722Z" fill="#997659"/>
<path fill-rule="evenodd" clip-rule="evenodd" d="M229.911 381.722C229.212 439.825 219.028 518.05 217.401 521.672C216.316 524.086 178.87 554.791 105.062 613.787L117.025 626.539C204.111 575.958 249.67 547.294 253.699 540.547C259.744 530.428 279.425 437.308 295.225 381.722H229.911Z" fill="#B28B67"/>
<path fill-rule="evenodd" clip-rule="evenodd" d="M103.383 609.504C99.3652 610.924 96.5976 612.271 95.08 613.544C93.2343 615.093 90.7989 617.661 87.7739 621.247C89.5706 623.388 105.717 642.631 136.214 678.976C142.433 676.315 144.384 673.202 142.067 669.638C139.75 666.074 137.854 663.089 136.379 660.684L125.826 623.815C125.623 623.106 124.884 622.695 124.174 622.898C124.162 622.902 124.15 622.905 124.138 622.909L118.507 624.695C114.6 622.874 111.862 621.029 110.292 619.158C109.017 617.638 107.869 615.024 106.85 611.316C106.459 609.893 104.988 609.056 103.565 609.447C103.503 609.464 103.443 609.483 103.383 609.504Z" fill="#E4E4E4"/>
<path fill-rule="evenodd" clip-rule="evenodd" d="M345.568 680.525C344.073 684.515 343.326 687.501 343.326 689.482C343.326 691.891 343.727 695.407 344.53 700.03C347.325 700.03 372.445 700.03 419.89 700.03C421.848 693.555 420.718 690.06 416.498 689.544C412.279 689.028 408.774 688.562 405.983 688.146L370.957 672.531C370.283 672.23 369.493 672.533 369.192 673.207C369.187 673.219 369.182 673.23 369.177 673.242L366.926 678.703C363.02 680.526 359.846 681.437 357.404 681.437C355.42 681.437 352.68 680.636 349.184 679.033C347.842 678.418 346.256 679.007 345.641 680.349C345.615 680.406 345.59 680.465 345.568 680.525Z" fill="#E4E4E4"/>
<path fill-rule="evenodd" clip-rule="evenodd" d="M287.208 672.449L369.787 663.522L308.586 381.722H234.624L287.208 672.449Z" fill="#69A1AC"/>
<path fill-rule="evenodd" clip-rule="evenodd" d="M122.143 593.214L176.31 657.081C233.362 595.01 266.624 554.508 276.095 535.577C285.566 516.645 294.08 465.36 301.637 381.722H218.369C214.241 455.303 211.458 493.806 210.021 497.23C208.584 500.654 179.291 532.649 122.143 593.214Z" fill="#89C5CC"/>
<path fill-rule="evenodd" clip-rule="evenodd" d="M345.396 351.064L392.777 374.333C404.7 375.382 414.881 377.508 423.321 380.711C425.414 382.029 428.178 384.957 420.595 385.704C413.012 386.451 405.068 387.576 404.484 390.297C403.899 393.019 408.962 395.258 407.48 399.052C406.491 401.582 398.908 397.013 384.73 385.345L340.142 375.524L345.396 351.064ZM184.429 380.539L211.945 375.798C204.584 433.33 200.521 463.885 199.756 467.46C198.035 475.506 206.494 485.805 210.333 491.464C202.064 497.043 200.411 482.076 190.014 489.313C180.525 495.918 174.193 505.972 160.963 500.747C159.336 500.104 157.129 496.995 160.548 493.658C169.065 485.345 180.978 471.324 182.192 467.186C183.847 461.543 184.593 432.661 184.429 380.539Z" fill="#B28B67"/>
<path fill-rule="evenodd" clip-rule="evenodd" d="M242.328 251.946L253.363 247.998C301.978 276.843 331.611 343.501 389.869 371.308L380.123 388.867C288.402 393.635 251.157 312.522 242.328 251.946Z" fill="#E87613"/>
<path fill-rule="evenodd" clip-rule="evenodd" d="M217.816 402.976C263.438 394.932 296.997 389.015 318.492 385.225C323.092 384.413 321.06 377.956 319.807 374.738C305.344 337.596 268.066 301.383 258.404 246.585L228.566 247.175C211.324 289.85 211.363 338.643 217.816 402.976Z" fill="#DDE3E9"/>
<path fill-rule="evenodd" clip-rule="evenodd" d="M198.968 291.353C194.538 290.89 190.701 288.665 187.46 284.678C173.485 267.492 175.468 256.324 186.203 250.875C196.938 245.426 208.306 250.746 226.379 247.56C227.362 247.386 228.273 247.289 229.112 247.267L238.294 246.18C279.887 329.544 297.429 386.963 290.919 418.437L211.679 432.409C208.905 444.13 206.029 454.088 203.05 462.282L181.459 466.089C167.898 401.068 173.735 342.822 198.968 291.353Z" fill="#FF9B21"/>
<path fill-rule="evenodd" clip-rule="evenodd" d="M220.969 384.191C227.119 404.5 233.825 418.844 241.086 427.224L211.679 432.409C214.915 418.736 218.012 402.664 220.969 384.191Z" fill="black" fill-opacity="0.1"/>
<g filter="url(#filter0_d_653_660)">
<path fill-rule="evenodd" clip-rule="evenodd" d="M766.134 265.653H768.898V265.598C810.085 264.05 843 230.198 843 188.665C843 150.289 814.899 118.471 778.136 112.635C761.823 70.7131 721.045 41 673.323 41C621.328 41 577.578 76.2708 564.73 124.173C561.418 123.701 558.033 123.457 554.591 123.457C515.293 123.457 483.436 155.289 483.436 194.555C483.436 232.267 512.82 263.121 549.96 265.505V265.653H554.3C554.397 265.653 554.494 265.653 554.591 265.653C554.655 265.653 554.718 265.653 554.782 265.653C554.815 265.653 554.848 265.653 554.881 265.653H673.033C673.129 265.653 673.226 265.653 673.323 265.653L673.422 265.653C673.486 265.653 673.549 265.653 673.613 265.653H765.767C765.828 265.653 765.889 265.653 765.951 265.653C766.012 265.653 766.073 265.653 766.134 265.653Z" fill="white"/>
</g>
<path fill-rule="evenodd" clip-rule="evenodd" d="M1007.82 350.493C1013.31 344.057 1017.02 336.169 1016.4 327.33C1014.61 301.864 979.175 307.466 972.282 320.32C965.389 333.173 966.208 365.776 975.117 368.074C978.669 368.99 986.237 366.746 993.94 362.101L989.105 396.32H1017.65L1007.82 350.493Z" fill="#B28B67"/>
<path fill-rule="evenodd" clip-rule="evenodd" d="M959.635 302.501C960.226 300.422 961.816 298.642 963.959 298.114C964.479 297.986 965.016 297.934 965.55 297.956C965.742 297.964 965.796 298.019 965.886 297.885C965.952 297.785 965.954 297.542 965.981 297.425C966.066 297.062 966.173 296.703 966.304 296.353C966.752 295.16 967.506 294.105 968.414 293.215C970.113 291.552 972.409 290.404 974.794 290.196C976.099 290.082 977.395 290.294 978.629 290.719C979.268 290.939 979.887 291.213 980.491 291.516C980.673 291.607 981.262 292.053 981.444 292.024C981.646 291.992 982.05 291.492 982.214 291.366C984.238 289.813 986.737 289.202 989.258 289.221C992.103 289.242 994.843 289.384 997.216 291.119C997.718 291.486 998.196 291.889 998.652 292.312C998.892 292.535 999.124 292.767 999.346 293.007C999.479 293.153 999.609 293.301 999.735 293.454C999.947 293.713 999.913 293.798 1000.21 293.617C1001.35 292.923 1002.68 292.599 1004.01 292.763C1004.8 292.86 1005.57 293.098 1006.3 293.411C1006.55 293.517 1007.13 293.942 1007.39 293.946C1007.66 293.95 1008.22 293.556 1008.5 293.456C1009.96 292.915 1011.54 292.782 1013.08 293.032C1014.67 293.29 1016.23 293.924 1017.57 294.799C1018.22 295.221 1018.78 295.688 1019.24 296.314C1019.43 296.585 1019.61 296.871 1019.83 297.121C1019.96 297.268 1020.22 297.419 1020.29 297.605C1020.25 297.493 1022.02 296.808 1022.19 296.764C1023.09 296.53 1024 296.578 1024.87 296.866C1026.52 297.408 1027.93 298.623 1029.1 299.869C1029.69 300.509 1030.22 301.217 1030.66 301.97C1030.87 302.332 1031.07 302.703 1031.25 303.082C1031.33 303.266 1031.39 303.496 1031.5 303.661C1031.65 303.875 1031.75 303.879 1032.01 303.972C1033.36 304.444 1034.59 305.243 1035.52 306.323C1036.47 307.416 1037.08 308.761 1037.34 310.178C1037.36 310.261 1037.37 310.607 1037.41 310.653C1037.48 310.715 1037.75 310.687 1037.85 310.699C1038.21 310.741 1038.56 310.803 1038.91 310.885C1039.55 311.037 1040.17 311.26 1040.76 311.552C1043.07 312.691 1044.71 314.826 1045.52 317.228C1046.36 319.749 1046.35 322.637 1045.34 325.111C1045.17 325.511 1044.98 325.899 1044.75 326.266C1044.61 326.491 1044.57 326.491 1044.66 326.728C1044.76 326.991 1044.94 327.246 1045.06 327.503C1045.46 328.341 1045.73 329.23 1045.9 330.138C1046.19 331.628 1046.33 333.193 1046.05 334.694C1045.92 335.391 1045.69 336.073 1045.34 336.693C1045.17 337.01 1044.96 337.31 1044.73 337.588C1044.61 337.732 1044.48 337.87 1044.34 338.002C1044.27 338.077 1044.17 338.143 1044.1 338.227C1043.94 338.432 1043.91 338.263 1043.99 338.565C1044.1 338.986 1044.37 339.402 1044.53 339.812C1044.69 340.234 1044.84 340.663 1044.98 341.095C1045.25 341.971 1045.48 342.862 1045.63 343.769C1045.91 345.511 1045.86 347.366 1045.04 348.964C1044.69 349.648 1044.18 350.247 1043.57 350.714C1043.27 350.942 1042.94 351.139 1042.6 351.3C1042.43 351.383 1042.2 351.419 1042.12 351.588C1042.04 351.77 1042.17 352.132 1042.2 352.335C1042.45 354.107 1042.58 355.966 1042.05 357.702C1041.56 359.3 1040.5 360.711 1039.11 361.646C1036.42 363.459 1032.8 363.356 1029.98 361.905C1029.24 361.527 1028.55 361.057 1027.94 360.503C1026.37 362.61 1023.15 362.543 1020.87 361.943C1018.02 361.195 1015.73 359.214 1014.42 356.61C1012.62 358.803 1008.84 358.092 1007.59 355.712C1007.28 355.13 1007.1 354.488 1007.01 353.839C1006.96 353.497 1006.99 353.153 1006.96 352.814C1006.91 352.382 1006.63 351.963 1006.46 351.545C1006.14 350.732 1005.94 349.893 1005.93 349.016C1005.92 348.559 1005.98 348.112 1006.03 347.658C1006.06 347.25 1005.95 346.869 1005.89 346.465C1006.62 346.586 1007.51 346.389 1008.2 346.177C1008.87 345.969 1009.5 345.421 1009.98 344.921C1011.09 343.759 1011.76 342.236 1012.23 340.721C1013.24 337.395 1012.83 333.404 1009.48 331.578C1007.92 330.728 1003.26 330.73 1001.4 331.151C999.449 331.593 997.238 335.9 997.129 336.304C997.061 336.555 997.095 336.865 996.865 337.032C996.36 337.399 995.526 336.762 995.153 336.448C994.509 335.905 994.05 335.183 993.653 334.451C992.787 332.857 992.088 331.147 991.595 329.402C991.215 328.057 990.971 326.669 990.474 325.358C989.98 324.053 989.2 322.887 987.988 322.148C986.669 321.343 985.157 320.92 983.709 320.415C982.274 319.914 980.864 319.302 979.751 318.239C979.507 318.006 979.269 317.757 979.072 317.482C978.917 317.265 978.763 316.849 978.526 316.712C978.158 316.497 977.621 317.054 977.303 317.257C975.732 318.255 974.422 319.646 973.365 321.167C972.314 322.679 971.451 324.134 970.751 325.823C970.231 327.075 969.906 328.679 968.992 329.705C968.584 330.164 965.55 330.441 964.568 330.041C963.585 329.641 962.484 328.602 962.154 327.951C961.816 327.284 961.736 326.552 961.88 325.823C961.965 325.394 962.138 324.993 962.233 324.571C962.313 324.217 962.385 323.882 962.557 323.558C962.884 322.943 963.442 322.501 964.114 322.317C963.414 321.671 962.834 320.898 962.433 320.035C962.016 319.138 961.662 318.047 961.562 317.062C961.48 316.262 961.606 315.433 962.044 314.746C962.503 314.025 963.316 313.555 964.02 313.105C962.945 312.264 962.025 311.24 961.269 310.108C959.798 307.905 958.888 305.128 959.635 302.501Z" fill="#191847"/>
<path fill-rule="evenodd" clip-rule="evenodd" d="M1097.35 545.07H960.558C950.047 545.07 941.526 553.595 941.526 564.11V673.59C941.526 684.106 950.047 692.63 960.558 692.63H1097.35C1107.86 692.63 1116.38 684.106 1116.38 673.59V564.11C1116.38 553.595 1107.86 545.07 1097.35 545.07ZM1078.32 578.39C1080.94 578.39 1083.07 580.521 1083.07 583.15V654.55C1083.07 657.179 1080.94 659.31 1078.32 659.31H979.589C976.962 659.31 974.832 657.179 974.832 654.55V583.15C974.832 580.521 976.962 578.39 979.589 578.39H1078.32Z" fill="#C5CFD6"/>
<path fill-rule="evenodd" clip-rule="evenodd" d="M856.468 688.655C871.708 654.909 882.73 625.524 887.154 610.02C894.729 583.475 900.492 560.116 901.949 551.392C905.422 530.591 875.231 529.379 871.24 539.717C865.2 555.365 854.656 606.775 841.986 684.428L856.468 688.655ZM1033.25 582.75C1019.27 577.22 970.297 559.915 946.68 555.02C939.893 553.613 933.315 552.306 927.131 551.125C908.749 547.614 899.226 580.791 916.93 583.34C961.02 589.688 1023.53 596.244 1028.87 596.98C1036.37 598.011 1042.04 586.225 1033.25 582.75Z" fill="#B28B67"/>
<path fill-rule="evenodd" clip-rule="evenodd" d="M915.849 541.996L991.484 503.476V495.09H982.489C909.315 513.744 871.924 525.699 870.314 530.954C870.297 531.011 870.281 531.068 870.266 531.124C870.23 531.173 870.193 531.221 870.158 531.27C855.656 551.223 846.972 648.632 844.121 655.926L871.909 660.074C882.539 620.639 916.547 593.168 915.644 545.938C915.888 544.552 915.95 543.239 915.849 541.996Z" fill="#1F28CF"/>
<path fill-rule="evenodd" clip-rule="evenodd" d="M985.2 564.873C992.12 563.487 998.493 562.25 1003.95 561.293C1039.17 555.112 1049.44 536.248 1043.37 495.09L978.469 495.09C967.868 498.137 912.772 521.252 884.186 533.547C865.266 541.684 871.23 571.018 881.944 578.652C882.003 579.12 882.195 579.438 882.539 579.58C940.174 603.479 985.769 590.939 1001 594.946L1008.05 572.712L985.2 564.873Z" fill="#2B44FF"/>
<path fill-rule="evenodd" clip-rule="evenodd" d="M1028.47 579.216C1032.24 579.578 1034.92 580.146 1036.51 580.919C1038.44 581.86 1041.09 583.555 1044.48 586.003C1043.39 588.24 1033.59 608.348 1015.07 646.325C1009.13 645.365 1006.77 643.095 1008.01 639.516C1009.24 635.937 1010.23 632.949 1010.99 630.553L1012.16 596.417C1012.18 595.761 1012.73 595.247 1013.39 595.269C1013.4 595.27 1013.41 595.27 1013.42 595.271L1018.67 595.601C1021.66 593.187 1023.62 591.002 1024.58 589.047C1025.35 587.459 1025.78 584.953 1025.86 581.528C1025.89 580.214 1026.98 579.175 1028.3 579.206C1028.35 579.208 1028.41 579.211 1028.47 579.216Z" fill="#E4E4E4"/>
<path fill-rule="evenodd" clip-rule="evenodd" d="M863.404 682.399C864.735 685.952 865.4 688.612 865.4 690.376C865.4 692.522 865.043 695.653 864.328 699.77C861.84 699.77 839.477 699.77 797.24 699.77C795.496 694.004 796.503 690.891 800.259 690.431C804.015 689.972 807.135 689.556 809.62 689.186L840.802 675.279C841.402 675.011 842.105 675.281 842.372 675.881C842.377 675.891 842.381 675.902 842.386 675.912L844.39 680.776C847.867 682.399 850.693 683.211 852.867 683.211C854.633 683.211 857.073 682.497 860.185 681.07C861.379 680.522 862.791 681.047 863.339 682.242C863.362 682.293 863.384 682.345 863.404 682.399Z" fill="#E4E4E4"/>
<path fill-rule="evenodd" clip-rule="evenodd" d="M922.442 476.196L888.747 509.081C878.942 513.265 870.909 517.885 864.647 522.941C863.239 524.64 861.706 527.896 868.332 526.439C874.957 524.982 881.992 523.748 883.237 525.903C884.483 528.059 880.813 531.362 883.115 534.183C884.649 536.064 889.809 530.082 898.595 516.236L933.633 495.569L922.442 476.196ZM1072 480.834L1047.15 480.931C1062.49 530.499 1070.78 556.8 1072 559.833C1074.75 566.657 1068.93 577.05 1066.44 582.635C1074.55 586.266 1073.69 572.817 1083.92 577.58C1093.26 581.928 1100.37 589.805 1111.16 583.143C1112.49 582.324 1113.94 579.241 1110.43 576.831C1101.67 570.827 1089.06 560.319 1087.36 556.861C1085.03 552.144 1079.92 526.802 1072 480.834Z" fill="#B28B67"/>
<path fill-rule="evenodd" clip-rule="evenodd" d="M1001.36 376.485L991.077 374.72C973.369 418.977 942.452 459.189 898.327 495.358L931.67 535.885C975.79 484.386 1002.99 431.252 1001.36 376.485Z" fill="#191847"/>
<path fill-rule="evenodd" clip-rule="evenodd" d="M1046.2 505.8H954.611C975.83 454.184 986.439 410.337 986.439 374.258L1014.07 370.14C1035.78 405.077 1041.91 448.091 1046.2 505.8Z" fill="#DDE3E9"/>
<path fill-rule="evenodd" clip-rule="evenodd" d="M1014.65 370.16C1014.65 370.153 1014.65 370.147 1014.64 370.14L1012.84 370.14C1010.68 370.214 1007.39 370.348 1002.98 370.542L996.301 389.629C995.595 412.9 991.471 459.797 983.93 530.321H1043.97C1043.81 535.192 1043.55 540.108 1043.19 545.07H1087.83C1081.15 469.7 1056.77 411.39 1014.67 370.14L1014.65 370.16Z" fill="#2F3676"/>
<path fill-rule="evenodd" clip-rule="evenodd" d="M1040 467.998C1038.29 498.36 1034.02 519.291 1027.17 530.79H1043.95C1044.69 508.945 1043.37 488.014 1040 467.998Z" fill="black" fill-opacity="0.1"/>
<path fill-rule="evenodd" clip-rule="evenodd" d="M1030.6 493.9L1001 480.131V493.9H1030.6Z" fill="white" fill-opacity="0.2"/>
<path d="M556.077 190.465C556.359 190.465 556.604 190.576 556.812 190.799L558.883 193.048C557.576 194.622 555.973 195.839 554.072 196.7C552.172 197.546 549.901 197.97 547.258 197.97C544.913 197.97 542.79 197.569 540.889 196.767C539.004 195.951 537.393 194.822 536.057 193.382C534.721 191.927 533.689 190.198 532.962 188.194C532.249 186.189 531.893 183.985 531.893 181.58C531.893 179.175 532.271 176.97 533.029 174.966C533.801 172.947 534.877 171.217 536.258 169.777C537.653 168.323 539.316 167.194 541.246 166.393C543.19 165.591 545.328 165.19 547.659 165.19C549.975 165.19 552.016 165.569 553.783 166.326C555.564 167.068 557.108 168.063 558.415 169.31L556.7 171.737C556.581 171.9 556.44 172.041 556.277 172.16C556.114 172.279 555.891 172.338 555.609 172.338C555.312 172.338 554.971 172.205 554.585 171.937C554.214 171.655 553.731 171.351 553.137 171.024C552.558 170.683 551.823 170.379 550.933 170.111C550.057 169.829 548.958 169.688 547.637 169.688C546.108 169.688 544.705 169.956 543.428 170.49C542.151 171.024 541.053 171.804 540.132 172.828C539.212 173.853 538.492 175.1 537.972 176.569C537.467 178.039 537.215 179.709 537.215 181.58C537.215 183.465 537.482 185.15 538.017 186.635C538.551 188.105 539.286 189.352 540.221 190.376C541.157 191.385 542.255 192.157 543.517 192.692C544.779 193.226 546.137 193.494 547.592 193.494C548.483 193.494 549.277 193.449 549.975 193.36C550.688 193.256 551.341 193.1 551.935 192.892C552.529 192.67 553.085 192.395 553.605 192.068C554.139 191.742 554.666 191.341 555.186 190.866C555.483 190.599 555.78 190.465 556.077 190.465ZM567.37 164.656V197.613H562.582V164.656H567.37ZM583.1 174.543C584.777 174.543 586.292 174.818 587.643 175.367C589.008 175.916 590.166 176.696 591.116 177.705C592.081 178.715 592.824 179.939 593.343 181.379C593.863 182.819 594.123 184.438 594.123 186.234C594.123 188.03 593.863 189.649 593.343 191.089C592.824 192.529 592.081 193.761 591.116 194.785C590.166 195.795 589.008 196.574 587.643 197.123C586.292 197.673 584.777 197.947 583.1 197.947C581.407 197.947 579.878 197.673 578.512 197.123C577.161 196.574 576.003 195.795 575.038 194.785C574.073 193.761 573.331 192.529 572.812 191.089C572.292 189.649 572.032 188.03 572.032 186.234C572.032 184.438 572.292 182.819 572.812 181.379C573.331 179.939 574.073 178.715 575.038 177.705C576.003 176.696 577.161 175.916 578.512 175.367C579.878 174.818 581.407 174.543 583.1 174.543ZM583.1 194.206C585.148 194.206 586.67 193.523 587.665 192.157C588.674 190.777 589.179 188.81 589.179 186.256C589.179 183.703 588.674 181.736 587.665 180.355C586.67 178.96 585.148 178.262 583.1 178.262C581.021 178.262 579.477 178.96 578.468 180.355C577.458 181.736 576.954 183.703 576.954 186.256C576.954 188.81 577.458 190.777 578.468 192.157C579.477 193.523 581.021 194.206 583.1 194.206ZM617.874 174.899V197.613H614.979C614.341 197.613 613.932 197.309 613.754 196.7L613.398 194.585C612.923 195.089 612.418 195.55 611.884 195.965C611.364 196.381 610.807 196.737 610.214 197.034C609.62 197.331 608.981 197.561 608.298 197.725C607.63 197.888 606.91 197.97 606.138 197.97C604.891 197.97 603.793 197.762 602.843 197.346C601.893 196.93 601.091 196.344 600.438 195.587C599.799 194.83 599.317 193.924 598.99 192.87C598.664 191.801 598.5 190.628 598.5 189.352V174.899H603.288V189.352C603.288 190.881 603.637 192.068 604.335 192.915C605.047 193.761 606.124 194.184 607.564 194.184C608.618 194.184 609.598 193.946 610.503 193.471C611.424 192.981 612.285 192.313 613.086 191.467V174.899H617.874ZM638.185 180.489C637.517 179.628 636.782 179.026 635.981 178.685C635.179 178.343 634.31 178.173 633.375 178.173C631.505 178.173 630.042 178.863 628.988 180.244C627.934 181.61 627.407 183.636 627.407 186.323C627.407 187.719 627.526 188.914 627.763 189.908C628.001 190.888 628.342 191.69 628.788 192.313C629.233 192.937 629.775 193.39 630.413 193.672C631.052 193.954 631.772 194.095 632.573 194.095C633.791 194.095 634.837 193.835 635.713 193.315C636.604 192.781 637.428 192.031 638.185 191.066V180.489ZM642.973 164.656V197.613H640.078C639.44 197.613 639.031 197.309 638.853 196.7L638.43 194.228C637.48 195.342 636.396 196.24 635.179 196.923C633.976 197.606 632.573 197.947 630.97 197.947C629.693 197.947 628.535 197.695 627.496 197.19C626.457 196.671 625.566 195.921 624.824 194.941C624.082 193.961 623.503 192.751 623.087 191.311C622.686 189.856 622.486 188.194 622.486 186.323C622.486 184.631 622.708 183.064 623.154 181.624C623.614 180.184 624.267 178.937 625.113 177.883C625.96 176.814 626.984 175.983 628.187 175.389C629.404 174.78 630.762 174.476 632.262 174.476C633.598 174.476 634.734 174.691 635.669 175.122C636.604 175.538 637.443 176.124 638.185 176.881V164.656H642.973ZM666.042 169.755V180.021H678.58V184.23H666.042V197.613H660.809V165.546H680.806V169.755H666.042ZM690.002 174.899V197.613H685.215V174.899H690.002ZM690.804 168.04C690.804 168.471 690.715 168.879 690.537 169.265C690.374 169.651 690.143 169.993 689.846 170.29C689.55 170.572 689.201 170.802 688.8 170.98C688.414 171.143 687.998 171.225 687.553 171.225C687.122 171.225 686.714 171.143 686.328 170.98C685.957 170.802 685.63 170.572 685.348 170.29C685.066 169.993 684.836 169.651 684.658 169.265C684.495 168.879 684.413 168.471 684.413 168.04C684.413 167.595 684.495 167.179 684.658 166.793C684.836 166.407 685.066 166.073 685.348 165.791C685.63 165.494 685.957 165.264 686.328 165.101C686.714 164.923 687.122 164.834 687.553 164.834C687.998 164.834 688.414 164.923 688.8 165.101C689.201 165.264 689.55 165.494 689.846 165.791C690.143 166.073 690.374 166.407 690.537 166.793C690.715 167.179 690.804 167.595 690.804 168.04ZM700.494 177.905C700.984 177.401 701.489 176.948 702.008 176.547C702.543 176.131 703.107 175.775 703.701 175.478C704.295 175.181 704.926 174.951 705.594 174.788C706.262 174.625 706.989 174.543 707.776 174.543C709.023 174.543 710.114 174.751 711.049 175.166C712 175.582 712.794 176.169 713.432 176.926C714.085 177.683 714.575 178.596 714.902 179.665C715.229 180.719 715.392 181.884 715.392 183.161V197.613H710.626V183.161C710.626 181.632 710.27 180.444 709.557 179.598C708.86 178.752 707.791 178.329 706.351 178.329C705.282 178.329 704.287 178.574 703.367 179.063C702.461 179.553 701.607 180.221 700.806 181.068V197.613H696.018V174.899H698.913C699.566 174.899 699.982 175.204 700.16 175.812L700.494 177.905ZM751.525 181.58C751.525 183.955 751.139 186.145 750.367 188.149C749.595 190.153 748.504 191.883 747.094 193.338C745.698 194.778 744.013 195.906 742.039 196.723C740.079 197.539 737.897 197.947 735.492 197.947C733.102 197.947 730.919 197.539 728.945 196.723C726.985 195.906 725.3 194.778 723.89 193.338C722.479 191.883 721.388 190.153 720.616 188.149C719.844 186.145 719.458 183.955 719.458 181.58C719.458 179.204 719.844 177.015 720.616 175.011C721.388 173.006 722.479 171.277 723.89 169.822C725.3 168.367 726.985 167.231 728.945 166.415C730.919 165.598 733.102 165.19 735.492 165.19C737.897 165.19 740.079 165.598 742.039 166.415C744.013 167.231 745.698 168.367 747.094 169.822C748.504 171.277 749.595 173.006 750.367 175.011C751.139 177.015 751.525 179.204 751.525 181.58ZM746.203 181.58C746.203 179.739 745.951 178.084 745.446 176.614C744.956 175.144 744.243 173.897 743.308 172.873C742.388 171.848 741.267 171.062 739.945 170.512C738.624 169.963 737.14 169.688 735.492 169.688C733.859 169.688 732.382 169.963 731.06 170.512C729.739 171.062 728.611 171.848 727.675 172.873C726.74 173.897 726.02 175.144 725.515 176.614C725.011 178.084 724.758 179.739 724.758 181.58C724.758 183.436 725.011 185.098 725.515 186.568C726.02 188.038 726.74 189.285 727.675 190.309C728.611 191.319 729.739 192.098 731.06 192.647C732.382 193.182 733.859 193.449 735.492 193.449C737.14 193.449 738.624 193.182 739.945 192.647C741.267 192.098 742.388 191.319 743.308 190.309C744.243 189.285 744.956 188.038 745.446 186.568C745.951 185.098 746.203 183.436 746.203 181.58ZM760.74 191.912C761.408 192.774 762.135 193.382 762.922 193.739C763.724 194.08 764.607 194.251 765.572 194.251C767.443 194.251 768.898 193.568 769.937 192.202C770.991 190.836 771.518 188.802 771.518 186.1C771.518 184.705 771.399 183.517 771.162 182.537C770.924 181.543 770.583 180.734 770.137 180.11C769.692 179.487 769.15 179.034 768.512 178.752C767.873 178.47 767.153 178.329 766.352 178.329C765.134 178.329 764.08 178.596 763.19 179.13C762.314 179.65 761.497 180.4 760.74 181.379V191.912ZM760.495 178.195C761.445 177.082 762.521 176.183 763.724 175.5C764.941 174.818 766.352 174.476 767.955 174.476C769.232 174.476 770.39 174.736 771.429 175.256C772.468 175.76 773.359 176.503 774.101 177.482C774.843 178.462 775.415 179.68 775.816 181.134C776.232 182.574 776.439 184.23 776.439 186.1C776.439 187.778 776.209 189.344 775.749 190.799C775.304 192.239 774.658 193.494 773.812 194.562C772.965 195.617 771.941 196.448 770.739 197.057C769.536 197.65 768.178 197.947 766.663 197.947C765.327 197.947 764.192 197.732 763.256 197.302C762.336 196.871 761.497 196.277 760.74 195.52V205.162H755.952V174.899H758.847C759.5 174.899 759.916 175.204 760.094 175.812L760.495 178.195ZM794.653 179.019C794.534 179.227 794.401 179.375 794.252 179.464C794.104 179.553 793.918 179.598 793.696 179.598C793.443 179.598 793.168 179.524 792.872 179.375C792.575 179.212 792.226 179.034 791.825 178.841C791.424 178.648 790.949 178.477 790.4 178.329C789.865 178.165 789.234 178.084 788.507 178.084C787.913 178.084 787.371 178.158 786.881 178.306C786.406 178.44 785.998 178.64 785.657 178.908C785.33 179.16 785.078 179.464 784.899 179.821C784.721 180.162 784.632 180.533 784.632 180.934C784.632 181.468 784.795 181.914 785.122 182.27C785.449 182.626 785.879 182.938 786.414 183.205C786.948 183.458 787.557 183.688 788.24 183.896C788.923 184.104 789.62 184.326 790.333 184.564C791.046 184.801 791.743 185.076 792.426 185.388C793.109 185.7 793.718 186.086 794.252 186.546C794.787 186.991 795.217 187.54 795.544 188.194C795.87 188.832 796.034 189.611 796.034 190.532C796.034 191.601 795.841 192.588 795.455 193.494C795.069 194.399 794.505 195.186 793.762 195.854C793.02 196.522 792.092 197.042 790.979 197.413C789.88 197.784 788.618 197.97 787.193 197.97C786.406 197.97 785.642 197.895 784.899 197.747C784.172 197.613 783.474 197.428 782.806 197.19C782.153 196.938 781.537 196.641 780.958 196.299C780.394 195.958 779.889 195.587 779.444 195.186L780.557 193.36C780.691 193.137 780.854 192.967 781.047 192.848C781.255 192.714 781.507 192.647 781.804 192.647C782.116 192.647 782.42 192.751 782.717 192.959C783.029 193.152 783.385 193.367 783.786 193.605C784.202 193.842 784.699 194.065 785.278 194.273C785.857 194.466 786.577 194.562 787.438 194.562C788.151 194.562 788.767 194.481 789.286 194.318C789.806 194.139 790.236 193.902 790.578 193.605C790.919 193.308 791.172 192.974 791.335 192.603C791.498 192.217 791.58 191.809 791.58 191.378C791.58 190.799 791.417 190.324 791.09 189.953C790.763 189.582 790.326 189.263 789.776 188.995C789.242 188.728 788.626 188.491 787.928 188.283C787.245 188.075 786.547 187.852 785.835 187.615C785.122 187.377 784.417 187.102 783.719 186.791C783.036 186.479 782.42 186.086 781.871 185.61C781.336 185.121 780.906 184.534 780.579 183.851C780.253 183.153 780.089 182.307 780.089 181.313C780.089 180.407 780.267 179.546 780.624 178.729C780.995 177.913 781.529 177.193 782.227 176.569C782.94 175.946 783.808 175.456 784.833 175.1C785.872 174.728 787.067 174.543 788.418 174.543C789.947 174.543 791.335 174.788 792.582 175.278C793.829 175.768 794.876 176.436 795.722 177.282L794.653 179.019Z" fill="#141433"/>
<path d="M1049.14 249.134C1049.8 249.047 1050.48 249.01 1051.17 249.022C1051.87 249.035 1052.57 249.109 1053.29 249.245C1054.02 249.39 1054.76 249.62 1055.5 249.933C1056.26 250.244 1057.02 250.661 1057.77 251.185C1058.79 251.887 1059.61 252.676 1060.25 253.552C1060.91 254.424 1061.36 255.34 1061.6 256.3C1061.86 257.256 1061.89 258.231 1061.71 259.224C1061.54 260.205 1061.13 261.159 1060.49 262.087C1059.84 263.014 1059.15 263.727 1058.41 264.224C1057.68 264.709 1056.93 265.058 1056.17 265.271C1055.41 265.484 1054.65 265.61 1053.9 265.651C1053.16 265.678 1052.45 265.705 1051.79 265.73C1051.14 265.751 1050.54 265.817 1050 265.927C1049.47 266.033 1049.04 266.26 1048.71 266.608L1046.43 269.087L1043.75 267.236L1045.57 264.025C1045.91 263.409 1046.34 262.979 1046.87 262.733C1047.4 262.487 1048 262.32 1048.66 262.233C1049.32 262.155 1050.02 262.12 1050.73 262.128C1051.47 262.133 1052.2 262.076 1052.91 261.957C1053.62 261.838 1054.31 261.624 1054.95 261.314C1055.6 261.005 1056.18 260.49 1056.67 259.77C1057 259.294 1057.21 258.804 1057.29 258.299C1057.37 257.781 1057.35 257.274 1057.2 256.777C1057.06 256.281 1056.82 255.807 1056.48 255.356C1056.14 254.905 1055.72 254.502 1055.21 254.147C1054.49 253.648 1053.82 253.311 1053.2 253.135C1052.58 252.96 1052.02 252.853 1051.52 252.815C1051.03 252.765 1050.61 252.745 1050.26 252.755C1049.92 252.753 1049.67 252.697 1049.51 252.588C1049.14 252.325 1048.97 251.966 1049.01 251.51L1049.14 249.134ZM1037.6 273.297C1037.85 272.943 1038.14 272.656 1038.47 272.435C1038.83 272.211 1039.19 272.059 1039.57 271.979C1039.97 271.908 1040.36 271.911 1040.76 271.988C1041.17 272.074 1041.55 272.239 1041.91 272.484C1042.26 272.729 1042.54 273.025 1042.75 273.37C1042.98 273.724 1043.13 274.098 1043.2 274.49C1043.27 274.883 1043.26 275.284 1043.18 275.694C1043.1 276.092 1042.94 276.468 1042.69 276.822C1042.44 277.188 1042.14 277.477 1041.79 277.69C1041.45 277.902 1041.08 278.043 1040.69 278.114C1040.29 278.186 1039.9 278.172 1039.49 278.075C1039.1 277.998 1038.72 277.836 1038.37 277.591C1038.01 277.346 1037.72 277.046 1037.5 276.692C1037.28 276.359 1037.13 275.996 1037.06 275.603C1037 275.219 1037.01 274.828 1037.09 274.43C1037.18 274.041 1037.35 273.663 1037.6 273.297Z" fill="#141433"/>
<path d="M967.846 225.915C968.29 225.107 968.805 224.318 969.393 223.548C969.98 222.778 970.647 222.046 971.392 221.353C972.157 220.653 973.02 220.017 973.982 219.446C974.957 218.849 976.05 218.342 977.262 217.925C978.884 217.368 980.45 217.092 981.959 217.097C983.482 217.076 984.88 217.328 986.153 217.852C987.438 218.35 988.563 219.11 989.527 220.134C990.484 221.138 991.218 222.383 991.728 223.868C992.239 225.354 992.467 226.717 992.414 227.96C992.353 229.182 992.128 230.309 991.739 231.338C991.35 232.368 990.869 233.32 990.295 234.195C989.715 235.05 989.164 235.862 988.642 236.632C988.132 237.375 987.714 238.098 987.388 238.8C987.074 239.476 986.975 240.144 987.093 240.803L987.989 245.412L983.709 246.883L981.606 242.197C981.193 241.312 981.067 240.47 981.229 239.672C981.392 238.873 981.695 238.069 982.138 237.261C982.601 236.446 983.133 235.641 983.733 234.844C984.346 234.022 984.881 233.161 985.336 232.261C985.792 231.361 986.113 230.42 986.3 229.438C986.487 228.456 986.382 227.389 985.986 226.236C985.724 225.473 985.342 224.84 984.841 224.335C984.333 223.81 983.741 223.423 983.065 223.175C982.39 222.926 981.66 222.806 980.876 222.813C980.091 222.82 979.289 222.965 978.468 223.247C977.315 223.644 976.385 224.116 975.678 224.665C974.97 225.214 974.39 225.753 973.938 226.28C973.479 226.787 973.11 227.242 972.833 227.643C972.549 228.025 972.28 228.259 972.026 228.346C971.42 228.555 970.88 228.445 970.405 228.018L967.846 225.915ZM985.437 258.778C985.243 258.212 985.159 257.65 985.186 257.095C985.227 256.513 985.359 255.975 985.583 255.483C985.827 254.984 986.156 254.543 986.571 254.16C987.005 253.771 987.505 253.478 988.072 253.283C988.639 253.089 989.204 253.015 989.766 253.062C990.348 253.102 990.889 253.244 991.388 253.488C991.887 253.731 992.331 254.07 992.721 254.505C993.104 254.919 993.392 255.41 993.587 255.977C993.789 256.563 993.866 257.138 993.819 257.7C993.772 258.263 993.627 258.793 993.383 259.292C993.139 259.791 992.797 260.226 992.356 260.596C991.941 260.979 991.451 261.268 990.884 261.463C990.317 261.658 989.743 261.735 989.161 261.694C988.605 261.667 988.077 261.531 987.578 261.288C987.099 261.037 986.668 260.705 986.285 260.29C985.921 259.869 985.639 259.365 985.437 258.778Z" fill="#141433"/>
<path d="M283.43 98.6099C284.349 98.5311 285.291 98.5228 286.258 98.585C287.225 98.6472 288.203 98.7963 289.193 99.0322C290.199 99.2808 291.207 99.6471 292.215 100.131C293.253 100.612 294.281 101.241 295.299 102.018C296.662 103.059 297.76 104.21 298.592 105.47C299.453 106.725 300.019 108.028 300.288 109.378C300.586 110.724 300.576 112.082 300.259 113.451C299.953 114.805 299.324 116.105 298.371 117.353C297.417 118.602 296.409 119.548 295.345 120.192C294.294 120.819 293.232 121.256 292.159 121.503C291.086 121.75 290.027 121.877 288.981 121.884C287.948 121.875 286.966 121.867 286.036 121.859C285.135 121.847 284.302 121.899 283.536 122.017C282.799 122.13 282.189 122.418 281.706 122.881L278.366 126.182L274.769 123.434L277.504 119.087C278.011 118.252 278.643 117.681 279.398 117.374C280.153 117.066 280.989 116.873 281.908 116.794C282.842 116.728 283.808 116.724 284.803 116.782C285.828 116.837 286.841 116.804 287.842 116.685C288.844 116.566 289.805 116.311 290.726 115.923C291.647 115.534 292.477 114.855 293.217 113.886C293.707 113.245 294.023 112.576 294.165 111.879C294.32 111.165 294.314 110.459 294.146 109.759C293.979 109.058 293.675 108.384 293.234 107.735C292.793 107.087 292.228 106.499 291.538 105.972C290.569 105.232 289.66 104.72 288.811 104.436C287.962 104.151 287.193 103.967 286.503 103.882C285.826 103.781 285.244 103.726 284.756 103.718C284.281 103.693 283.937 103.599 283.723 103.436C283.214 103.047 283.006 102.537 283.098 101.906L283.43 98.6099ZM265.826 131.466C266.19 130.99 266.611 130.609 267.089 130.324C267.595 130.035 268.116 129.847 268.65 129.761C269.2 129.687 269.75 129.717 270.298 129.85C270.863 129.995 271.384 130.25 271.86 130.614C272.337 130.977 272.711 131.406 272.984 131.901C273.273 132.408 273.454 132.936 273.528 133.487C273.602 134.037 273.566 134.595 273.42 135.16C273.287 135.708 273.039 136.221 272.675 136.697C272.299 137.19 271.864 137.572 271.369 137.845C270.875 138.118 270.353 138.291 269.802 138.365C269.252 138.438 268.701 138.394 268.148 138.232C267.599 138.099 267.087 137.851 266.611 137.487C266.134 137.124 265.752 136.688 265.463 136.181C265.177 135.704 264.998 135.189 264.924 134.639C264.867 134.101 264.905 133.558 265.038 133.009C265.187 132.473 265.45 131.959 265.826 131.466Z" fill="#141433"/>
<path d="M140.065 190.582C139.843 190.161 139.65 189.715 139.485 189.243C139.32 188.771 139.194 188.276 139.108 187.758C139.024 187.229 138.995 186.677 139.023 186.1C139.043 185.51 139.135 184.895 139.3 184.255C139.521 183.397 139.847 182.644 140.279 181.995C140.703 181.334 141.209 180.803 141.796 180.404C142.376 179.992 143.024 179.723 143.739 179.599C144.443 179.472 145.188 179.51 145.973 179.712C146.758 179.915 147.411 180.204 147.93 180.581C148.44 180.954 148.861 181.371 149.194 181.832C149.527 182.292 149.8 182.77 150.014 183.266C150.218 183.759 150.411 184.227 150.594 184.671C150.769 185.102 150.962 185.487 151.171 185.828C151.373 186.155 151.633 186.387 151.95 186.524L154.19 187.448L153.607 189.71L150.991 189.284C150.492 189.21 150.094 189.025 149.796 188.728C149.498 188.431 149.238 188.072 149.016 187.651C148.797 187.22 148.601 186.762 148.428 186.277C148.248 185.779 148.029 185.304 147.771 184.852C147.513 184.4 147.199 183.994 146.829 183.634C146.459 183.275 145.97 183.016 145.36 182.859C144.957 182.755 144.576 182.74 144.216 182.812C143.845 182.882 143.511 183.027 143.211 183.247C142.912 183.467 142.653 183.747 142.433 184.087C142.213 184.427 142.047 184.814 141.936 185.248C141.779 185.857 141.718 186.392 141.753 186.853C141.789 187.314 141.856 187.717 141.954 188.062C142.042 188.404 142.133 188.692 142.227 188.925C142.311 189.156 142.335 189.338 142.301 189.473C142.218 189.793 142.017 189.995 141.699 190.078L140.065 190.582ZM159.223 192.348C158.923 192.27 158.658 192.147 158.426 191.977C158.187 191.794 157.993 191.584 157.845 191.348C157.699 191.101 157.603 190.834 157.555 190.546C157.511 190.249 157.528 189.95 157.605 189.65C157.682 189.351 157.811 189.087 157.991 188.858C158.174 188.618 158.388 188.426 158.635 188.28C158.882 188.135 159.155 188.04 159.452 187.995C159.74 187.948 160.033 187.963 160.333 188.04C160.643 188.12 160.912 188.25 161.141 188.43C161.37 188.611 161.557 188.824 161.703 189.071C161.849 189.318 161.939 189.589 161.973 189.884C162.02 190.172 162.005 190.465 161.927 190.765C161.85 191.064 161.72 191.334 161.537 191.573C161.367 191.804 161.159 191.993 160.912 192.139C160.668 192.274 160.402 192.365 160.115 192.412C159.83 192.449 159.533 192.427 159.223 192.348Z" fill="#141433"/>
<path d="M921.887 277.042C921.829 276.57 921.807 276.084 921.82 275.584C921.834 275.084 921.892 274.577 921.995 274.062C922.104 273.538 922.274 273.011 922.505 272.482C922.733 271.938 923.038 271.396 923.419 270.856C923.93 270.133 924.503 269.545 925.137 269.091C925.768 268.623 926.43 268.307 927.121 268.143C927.809 267.963 928.51 267.942 929.222 268.08C929.926 268.212 930.609 268.512 931.271 268.98C931.933 269.448 932.44 269.95 932.792 270.487C933.135 271.017 933.381 271.556 933.529 272.105C933.677 272.654 933.762 273.197 933.786 273.737C933.801 274.27 933.815 274.776 933.829 275.256C933.84 275.721 933.883 276.15 933.958 276.543C934.03 276.92 934.19 277.23 934.438 277.47L936.204 279.13L934.856 281.038L932.561 279.71C932.121 279.464 931.815 279.149 931.642 278.765C931.469 278.382 931.353 277.954 931.295 277.482C931.243 277.001 931.223 276.503 931.234 275.989C931.242 275.459 931.206 274.937 931.126 274.423C931.045 273.909 930.896 273.418 930.678 272.95C930.46 272.482 930.094 272.067 929.58 271.704C929.24 271.464 928.889 271.313 928.527 271.253C928.156 271.187 927.791 271.203 927.434 271.303C927.076 271.403 926.734 271.572 926.407 271.812C926.081 272.052 925.789 272.354 925.53 272.72C925.167 273.234 924.92 273.713 924.789 274.156C924.659 274.599 924.578 275 924.548 275.357C924.509 275.708 924.492 276.009 924.496 276.261C924.493 276.507 924.451 276.686 924.371 276.799C924.18 277.069 923.921 277.186 923.593 277.151L921.887 277.042ZM939.168 285.497C938.916 285.319 938.711 285.109 938.555 284.868C938.396 284.612 938.29 284.347 938.235 284.073C938.186 283.791 938.191 283.507 938.249 283.222C938.314 282.927 938.435 282.654 938.614 282.401C938.792 282.149 939.006 281.947 939.256 281.797C939.512 281.639 939.781 281.535 940.064 281.487C940.346 281.438 940.635 281.446 940.929 281.51C941.214 281.569 941.483 281.687 941.736 281.865C941.997 282.05 942.203 282.267 942.353 282.517C942.503 282.767 942.602 283.033 942.651 283.316C942.699 283.598 942.687 283.883 942.614 284.171C942.556 284.457 942.437 284.726 942.259 284.978C942.08 285.231 941.863 285.437 941.607 285.595C941.366 285.752 941.104 285.854 940.822 285.902C940.545 285.942 940.264 285.933 939.979 285.875C939.7 285.808 939.429 285.682 939.168 285.497Z" fill="#141433"/>
<path d="M189.493 118.326C189.85 117.768 190.257 117.228 190.716 116.704C191.174 116.181 191.687 115.689 192.255 115.228C192.836 114.763 193.486 114.35 194.203 113.987C194.931 113.606 195.739 113.295 196.627 113.056C197.817 112.734 198.953 112.612 200.034 112.689C201.127 112.748 202.116 112.996 203.003 113.433C203.901 113.852 204.67 114.452 205.311 115.232C205.948 115.998 206.414 116.926 206.708 118.015C207.002 119.104 207.1 120.093 207.001 120.981C206.899 121.854 206.683 122.65 206.354 123.37C206.026 124.089 205.635 124.748 205.181 125.347C204.724 125.932 204.29 126.487 203.878 127.014C203.477 127.522 203.143 128.02 202.874 128.507C202.617 128.976 202.514 129.45 202.566 129.928L202.985 133.275L199.846 134.122L198.566 130.662C198.313 130.008 198.263 129.398 198.418 128.833C198.574 128.269 198.83 127.708 199.186 127.15C199.558 126.588 199.978 126.037 200.447 125.495C200.926 124.935 201.351 124.344 201.721 123.721C202.091 123.098 202.367 122.439 202.548 121.745C202.73 121.05 202.706 120.28 202.478 119.434C202.327 118.875 202.084 118.402 201.749 118.016C201.41 117.615 201.005 117.31 200.533 117.099C200.061 116.888 199.543 116.766 198.981 116.733C198.419 116.701 197.836 116.766 197.234 116.928C196.389 117.156 195.699 117.45 195.166 117.81C194.632 118.169 194.191 118.526 193.841 118.882C193.487 119.224 193.201 119.532 192.983 119.806C192.761 120.066 192.557 120.221 192.37 120.271C191.926 120.391 191.544 120.286 191.225 119.958L189.493 118.326ZM200.509 142.731C200.397 142.316 200.364 141.909 200.411 141.512C200.468 141.097 200.589 140.718 200.773 140.377C200.972 140.031 201.229 139.731 201.545 139.476C201.875 139.218 202.248 139.033 202.664 138.92C203.079 138.808 203.488 138.783 203.889 138.844C204.304 138.901 204.684 139.029 205.03 139.227C205.376 139.426 205.678 139.691 205.936 140.021C206.191 140.336 206.374 140.702 206.486 141.118C206.602 141.548 206.63 141.963 206.569 142.364C206.508 142.765 206.378 143.138 206.179 143.484C205.981 143.83 205.714 144.125 205.38 144.369C205.064 144.623 204.699 144.807 204.283 144.919C203.867 145.031 203.452 145.059 203.037 145.001C202.64 144.955 202.268 144.832 201.922 144.633C201.591 144.431 201.298 144.171 201.044 143.856C200.804 143.536 200.626 143.161 200.509 142.731Z" fill="#141433"/>
</g>
<defs>
<filter id="filter0_d_653_660" x="479.436" y="41" width="367.564" height="232.653" filterUnits="userSpaceOnUse" color-interpolation-filters="sRGB">
<feFlood flood-opacity="0" result="BackgroundImageFix"/>
<feColorMatrix in="SourceAlpha" type="matrix" values="0 0 0 0 0 0 0 0 0 0 0 0 0 0 0 0 0 0 127 0" result="hardAlpha"/>
<feOffset dy="4"/>
<feGaussianBlur stdDeviation="2"/>
<feComposite in2="hardAlpha" operator="out"/>
<feColorMatrix type="matrix" values="0 0 0 0 0 0 0 0 0 0 0 0 0 0 0 0 0 0 0.12 0"/>
<feBlend mode="normal" in2="BackgroundImageFix" result="effect1_dropShadow_653_660"/>
<feBlend mode="normal" in="SourceGraphic" in2="effect1_dropShadow_653_660" result="shape"/>
</filter>
<clipPath id="clip0_653_660">
<rect width="1280" height="720" fill="white"/>
</clipPath>
</defs>
</svg>
