<svg width="1024" height="768" viewBox="0 0 1024 768" fill="none" xmlns="http://www.w3.org/2000/svg">
<path d="M767.3 559.1L247.3 544.2C235.608 543.875 224.436 539.299 215.876 531.328C207.316 523.357 201.956 512.539 200.8 500.9L175.7 252.9C175.032 246.262 175.75 239.557 177.808 233.21C179.866 226.864 183.22 221.014 187.658 216.032C192.095 211.049 197.519 207.042 203.585 204.266C209.652 201.489 216.229 200.002 222.9 199.9L801.7 191.9C808.583 191.807 815.406 193.189 821.71 195.953C828.014 198.717 833.654 202.799 838.249 207.924C842.844 213.05 846.287 219.1 848.349 225.667C850.411 232.235 851.042 239.168 850.2 246L816.5 517C815.012 528.883 809.144 539.783 800.045 547.569C790.946 555.355 779.27 559.467 767.3 559.1Z" fill="#EAF9F3"/>
<mask id="mask0_657_1281" style="mask-type:luminance" maskUnits="userSpaceOnUse" x="175" y="191" width="676" height="369">
<path d="M767.3 559.1L247.3 544.2C235.608 543.875 224.436 539.299 215.876 531.328C207.316 523.357 201.956 512.539 200.8 500.9L175.7 252.9C175.032 246.262 175.75 239.557 177.808 233.21C179.866 226.864 183.22 221.014 187.658 216.032C192.095 211.049 197.519 207.042 203.585 204.266C209.652 201.489 216.229 200.002 222.9 199.9L801.7 191.9C808.583 191.807 815.406 193.189 821.71 195.953C828.014 198.717 833.654 202.799 838.249 207.924C842.844 213.05 846.287 219.1 848.349 225.667C850.411 232.235 851.042 239.168 850.2 246L816.5 517C815.012 528.883 809.144 539.783 800.045 547.569C790.946 555.355 779.27 559.467 767.3 559.1Z" fill="white"/>
</mask>
<g mask="url(#mask0_657_1281)">
<path d="M342.9 604.2H-72.6C-76.5782 604.2 -80.3935 602.62 -83.2066 599.807C-86.0196 596.994 -87.6 593.178 -87.6 589.2V353.5C-87.6 349.522 -86.0196 345.706 -83.2066 342.893C-80.3935 340.08 -76.5782 338.5 -72.6 338.5H342.9C346.878 338.5 350.694 340.08 353.507 342.893C356.32 345.706 357.9 349.522 357.9 353.5V589.1C357.908 593.09 356.333 596.92 353.522 599.751C350.71 602.581 346.89 604.181 342.9 604.2Z" stroke="#B8D8C7" stroke-width="1.8" stroke-linecap="round" stroke-linejoin="round"/>
<path d="M892 588.3H472.9C468.922 588.3 465.106 586.72 462.293 583.907C459.48 581.094 457.9 577.278 457.9 573.3V229C457.9 225.022 459.48 221.206 462.293 218.393C465.106 215.58 468.922 214 472.9 214H892C895.978 214 899.794 215.58 902.607 218.393C905.42 221.206 907 225.022 907 229V573.3C907 577.278 905.42 581.094 902.607 583.907C899.794 586.72 895.978 588.3 892 588.3Z" stroke="#B8D8C7" stroke-width="1.8" stroke-linecap="round" stroke-linejoin="round"/>
<path d="M228.1 338.5H207.8C206.742 338.503 205.72 338.117 204.928 337.417C204.135 336.717 203.627 335.75 203.5 334.7L201.9 320.3C201.834 319.696 201.896 319.084 202.082 318.505C202.268 317.927 202.574 317.394 202.979 316.941C203.385 316.488 203.881 316.126 204.436 315.877C204.991 315.629 205.592 315.501 206.2 315.5H229.7C230.307 315.502 230.908 315.632 231.462 315.881C232.016 316.129 232.512 316.492 232.917 316.944C233.322 317.397 233.628 317.929 233.815 318.507C234.001 319.085 234.064 319.696 234 320.3L232.4 334.7C232.273 335.75 231.765 336.717 230.972 337.417C230.18 338.117 229.158 338.503 228.1 338.5Z" stroke="#B8D8C7" stroke-width="1.8" stroke-linecap="round" stroke-linejoin="round"/>
<path d="M215.5 315.6C215.5 315.6 207.5 314.8 205.9 304C205.9 304 213.1 306.1 215.4 311.2C215.4 311.2 216.4 299.8 221.8 298.7C221.8 298.7 224.2 307.2 220.4 311.4C220.4 311.4 223.3 306.6 230.7 306.7C230.001 308.806 228.797 310.709 227.193 312.243C225.59 313.777 223.635 314.895 221.5 315.5" fill="#B8D8C7"/>
<path d="M339.8 388.2H249.6C248.489 388.192 247.425 387.747 246.639 386.961C245.853 386.175 245.408 385.111 245.4 384V356.6C245.408 355.488 245.853 354.425 246.639 353.639C247.425 352.853 248.489 352.408 249.6 352.4H339.8C340.912 352.408 341.975 352.853 342.761 353.639C343.547 354.425 343.992 355.488 344 356.6V384C343.992 385.111 343.547 386.175 342.761 386.961C341.975 387.747 340.912 388.192 339.8 388.2Z" stroke="#B8D8C7" stroke-width="1.8" stroke-linecap="round" stroke-linejoin="round"/>
<path d="M305 362.1H284.2C283.805 362.09 283.43 361.929 283.151 361.65C282.871 361.37 282.71 360.995 282.7 360.6C282.71 360.205 282.871 359.83 283.151 359.551C283.43 359.271 283.805 359.11 284.2 359.1H305C305.395 359.11 305.77 359.271 306.049 359.551C306.329 359.83 306.49 360.205 306.5 360.6C306.504 360.798 306.468 360.995 306.394 361.179C306.32 361.363 306.21 361.53 306.07 361.67C305.93 361.81 305.763 361.92 305.579 361.994C305.395 362.068 305.198 362.104 305 362.1Z" fill="#B8D8C7"/>
<path d="M339.8 434H249.6C248.489 433.992 247.425 433.547 246.639 432.761C245.853 431.975 245.408 430.912 245.4 429.8V402.4C245.408 401.289 245.853 400.225 246.639 399.439C247.425 398.653 248.489 398.208 249.6 398.2H339.8C340.912 398.208 341.975 398.653 342.761 399.439C343.547 400.225 343.992 401.289 344 402.4V429.8C343.992 430.912 343.547 431.975 342.761 432.761C341.975 433.547 340.912 433.992 339.8 434Z" stroke="#B8D8C7" stroke-width="1.8" stroke-linecap="round" stroke-linejoin="round"/>
<path d="M305 407.9H284.2C283.805 407.89 283.43 407.729 283.151 407.449C282.871 407.17 282.71 406.795 282.7 406.4C282.71 406.005 282.871 405.63 283.151 405.35C283.43 405.071 283.805 404.91 284.2 404.9H305C305.395 404.91 305.77 405.071 306.049 405.35C306.329 405.63 306.49 406.005 306.5 406.4C306.504 406.598 306.468 406.795 306.394 406.979C306.32 407.163 306.21 407.33 306.07 407.47C305.93 407.61 305.763 407.72 305.579 407.794C305.395 407.868 305.198 407.904 305 407.9Z" fill="#B8D8C7"/>
<path d="M802.9 466.4H712.7C711.589 466.392 710.525 465.947 709.739 465.161C708.953 464.375 708.508 463.312 708.5 462.2V434.8C708.508 433.689 708.953 432.625 709.739 431.839C710.525 431.053 711.589 430.608 712.7 430.6H802.9C804.012 430.608 805.075 431.053 805.861 431.839C806.647 432.625 807.092 433.689 807.1 434.8V462.2C807.114 462.755 807.014 463.308 806.808 463.823C806.602 464.339 806.293 464.808 805.9 465.2C805.508 465.593 805.039 465.902 804.523 466.108C804.008 466.315 803.455 466.414 802.9 466.4Z" stroke="#B8D8C7" stroke-width="1.8" stroke-linecap="round" stroke-linejoin="round"/>
<path d="M768.2 440.2H747.4C747.005 440.19 746.63 440.029 746.351 439.75C746.071 439.47 745.91 439.095 745.9 438.7C745.91 438.306 746.071 437.93 746.351 437.651C746.63 437.372 747.005 437.21 747.4 437.2H768.2C768.595 437.21 768.97 437.372 769.249 437.651C769.529 437.93 769.69 438.306 769.7 438.7C769.704 438.898 769.668 439.095 769.594 439.279C769.52 439.463 769.41 439.63 769.27 439.77C769.13 439.91 768.963 440.02 768.779 440.094C768.595 440.168 768.398 440.204 768.2 440.2Z" fill="#B8D8C7"/>
<path d="M687.1 466.4H596.9C595.789 466.392 594.725 465.947 593.939 465.161C593.153 464.375 592.708 463.312 592.7 462.2V434.8C592.708 433.689 593.153 432.625 593.939 431.839C594.725 431.053 595.789 430.608 596.9 430.6H687.1C688.211 430.608 689.275 431.053 690.061 431.839C690.847 432.625 691.292 433.689 691.3 434.8V462.2C691.314 462.755 691.214 463.308 691.008 463.823C690.802 464.339 690.493 464.808 690.1 465.2C689.708 465.593 689.239 465.902 688.723 466.108C688.208 466.315 687.655 466.414 687.1 466.4Z" stroke="#B8D8C7" stroke-width="1.8" stroke-linecap="round" stroke-linejoin="round"/>
<path d="M652.4 440.2H631.6C631.205 440.19 630.83 440.029 630.551 439.75C630.271 439.47 630.11 439.095 630.1 438.7C630.11 438.306 630.271 437.93 630.551 437.651C630.83 437.372 631.205 437.21 631.6 437.2H652.4C652.795 437.21 653.17 437.372 653.449 437.651C653.729 437.93 653.89 438.306 653.9 438.7C653.904 438.898 653.868 439.095 653.794 439.279C653.72 439.463 653.61 439.63 653.47 439.77C653.33 439.91 653.163 440.02 652.979 440.094C652.795 440.168 652.598 440.204 652.4 440.2Z" fill="#B8D8C7"/>
<path d="M224.8 388.2H134.6C133.489 388.192 132.425 387.747 131.639 386.961C130.853 386.175 130.408 385.111 130.4 384V356.6C130.408 355.488 130.853 354.425 131.639 353.639C132.425 352.853 133.489 352.408 134.6 352.4H224.8C225.912 352.408 226.975 352.853 227.761 353.639C228.547 354.425 228.992 355.488 229 356.6V384C228.992 385.111 228.547 386.175 227.761 386.961C226.975 387.747 225.912 388.192 224.8 388.2Z" stroke="#B8D8C7" stroke-width="1.8" stroke-linecap="round" stroke-linejoin="round"/>
<path d="M190 362.1H169.2C168.805 362.09 168.43 361.929 168.15 361.65C167.871 361.37 167.71 360.995 167.7 360.6C167.71 360.205 167.871 359.83 168.15 359.551C168.43 359.271 168.805 359.11 169.2 359.1H190C190.395 359.11 190.77 359.271 191.049 359.551C191.329 359.83 191.49 360.205 191.5 360.6C191.504 360.798 191.468 360.995 191.394 361.179C191.32 361.363 191.21 361.53 191.07 361.67C190.93 361.81 190.763 361.92 190.579 361.994C190.395 362.068 190.198 362.104 190 362.1Z" fill="#B8D8C7"/>
<path d="M224.8 434H134.6C133.489 433.992 132.425 433.547 131.639 432.761C130.853 431.975 130.408 430.912 130.4 429.8V402.4C130.408 401.289 130.853 400.225 131.639 399.439C132.425 398.653 133.489 398.208 134.6 398.2H224.8C225.912 398.208 226.975 398.653 227.761 399.439C228.547 400.225 228.992 401.289 229 402.4V429.8C228.992 430.912 228.547 431.975 227.761 432.761C226.975 433.547 225.912 433.992 224.8 434Z" stroke="#B8D8C7" stroke-width="1.8" stroke-linecap="round" stroke-linejoin="round"/>
<path d="M190 407.9H169.2C168.805 407.89 168.43 407.729 168.15 407.449C167.871 407.17 167.71 406.795 167.7 406.4C167.71 406.005 167.871 405.63 168.15 405.35C168.43 405.071 168.805 404.91 169.2 404.9H190C190.395 404.91 190.77 405.071 191.049 405.35C191.329 405.63 191.49 406.005 191.5 406.4C191.504 406.598 191.468 406.795 191.394 406.979C191.32 407.163 191.21 407.33 191.07 407.47C190.93 407.61 190.763 407.72 190.579 407.794C190.395 407.868 190.198 407.904 190 407.9Z" fill="#B8D8C7"/>
<path d="M934.3 318.9H479.3C478.084 318.887 476.922 318.398 476.062 317.538C475.202 316.678 474.713 315.516 474.7 314.3V234.6C474.713 233.384 475.202 232.222 476.062 231.362C476.922 230.502 478.084 230.013 479.3 230H934.3C935.516 230.013 936.678 230.502 937.538 231.362C938.398 232.222 938.887 233.384 938.9 234.6V314.3C938.887 315.516 938.398 316.678 937.538 317.538C936.678 318.398 935.516 318.887 934.3 318.9Z" stroke="#B8D8C7" stroke-width="1.8" stroke-linecap="round" stroke-linejoin="round"/>
<path d="M934.3 417.8H479.3C478.084 417.787 476.922 417.298 476.062 416.438C475.202 415.578 474.713 414.416 474.7 413.2V333.5C474.713 332.284 475.202 331.121 476.062 330.262C476.922 329.402 478.084 328.913 479.3 328.9H934.3C935.516 328.913 936.678 329.402 937.538 330.262C938.398 331.121 938.887 332.284 938.9 333.5V413.2C938.887 414.416 938.398 415.578 937.538 416.438C936.678 417.298 935.516 417.787 934.3 417.8Z" stroke="#B8D8C7" stroke-width="1.8" stroke-linecap="round" stroke-linejoin="round"/>
<path d="M515.2 268.6H505.3V318.9H515.2V268.6Z" stroke="#B8D8C7" stroke-width="1.8" stroke-linecap="round" stroke-linejoin="round"/>
<path d="M525.4 282.3H515.1V318.9H525.4V282.3Z" stroke="#B8D8C7" stroke-width="1.8" stroke-linecap="round" stroke-linejoin="round"/>
<path d="M813.6 367.4H803.7V417.7H813.6V367.4Z" stroke="#B8D8C7" stroke-width="1.8" stroke-linecap="round" stroke-linejoin="round"/>
<path d="M823.8 381.1H813.5V417.7H823.8V381.1Z" stroke="#B8D8C7" stroke-width="1.8" stroke-linecap="round" stroke-linejoin="round"/>
<path d="M793.4 367.4H783.5V417.7H793.4V367.4Z" stroke="#B8D8C7" stroke-width="1.8" stroke-linecap="round" stroke-linejoin="round"/>
<path d="M774.151 366.239L759.009 414.206L768.45 417.186L783.592 369.22L774.151 366.239Z" stroke="#B8D8C7" stroke-width="1.8" stroke-linecap="round" stroke-linejoin="round"/>
<path d="M803.7 381.1H793.4V417.7H803.7V381.1Z" stroke="#B8D8C7" stroke-width="1.8" stroke-linecap="round" stroke-linejoin="round"/>
<path d="M680 268.6H670.1V318.9H680V268.6Z" stroke="#B8D8C7" stroke-width="1.8" stroke-linecap="round" stroke-linejoin="round"/>
<path d="M690.3 282.3H680V318.9H690.3V282.3Z" stroke="#B8D8C7" stroke-width="1.8" stroke-linecap="round" stroke-linejoin="round"/>
<path d="M582.3 268.6H572.4V318.9H582.3V268.6Z" stroke="#B8D8C7" stroke-width="1.8" stroke-linecap="round" stroke-linejoin="round"/>
<path d="M563.085 267.371L547.943 315.338L557.384 318.318L572.526 270.352L563.085 267.371Z" stroke="#B8D8C7" stroke-width="1.8" stroke-linecap="round" stroke-linejoin="round"/>
<path d="M592.5 282.3H582.2V318.9H592.5V282.3Z" stroke="#B8D8C7" stroke-width="1.8" stroke-linecap="round" stroke-linejoin="round"/>
<path d="M813.4 275.1L814.5 260.2C814.521 259.967 814.493 259.732 814.416 259.51C814.34 259.289 814.217 259.086 814.056 258.916C813.896 258.746 813.7 258.612 813.484 258.523C813.267 258.434 813.034 258.392 812.8 258.4H804.2C803.968 258.401 803.74 258.449 803.527 258.541C803.315 258.633 803.123 258.767 802.964 258.936C802.805 259.104 802.682 259.303 802.603 259.52C802.523 259.738 802.488 259.969 802.5 260.2L803.6 275.1C803.6 275.1 794.6 280.9 794.7 285.7C794.8 289.4 797 307.1 798 314.9C798.127 315.95 798.635 316.917 799.428 317.617C800.22 318.317 801.242 318.703 802.3 318.7H814.7C815.758 318.703 816.78 318.317 817.572 317.617C818.365 316.917 818.873 315.95 819 314.9C820 307.1 822.2 289.4 822.3 285.7C822.4 280.9 813.4 275.1 813.4 275.1Z" fill="#B8D8C7"/>
<path d="M773.6 275.1L774.7 260.2C774.721 259.967 774.693 259.732 774.616 259.51C774.54 259.289 774.417 259.086 774.256 258.916C774.096 258.746 773.9 258.612 773.684 258.523C773.467 258.434 773.234 258.392 773 258.4H764.4C764.169 258.401 763.94 258.449 763.727 258.541C763.515 258.633 763.323 258.767 763.164 258.936C763.005 259.104 762.882 259.303 762.803 259.52C762.723 259.738 762.688 259.969 762.7 260.2L763.8 275.1C763.8 275.1 754.8 280.9 754.9 285.7C755 289.4 757.2 307.1 758.2 314.9C758.327 315.95 758.835 316.917 759.628 317.617C760.42 318.317 761.442 318.703 762.5 318.7H774.9C775.958 318.703 776.98 318.317 777.772 317.617C778.565 316.917 779.073 315.95 779.2 314.9C780.2 307.1 782.4 289.4 782.5 285.7C782.6 280.9 773.6 275.1 773.6 275.1Z" fill="#B8D8C7"/>
<path d="M174.3 512.2H1130.1" stroke="#B8D8C7" stroke-width="1.8" stroke-linecap="round" stroke-linejoin="round"/>
</g>
<path d="M274.5 426.1L261.8 603.7C261.777 604.057 261.827 604.415 261.947 604.752C262.066 605.089 262.254 605.398 262.497 605.66C262.741 605.922 263.035 606.132 263.362 606.276C263.689 606.421 264.042 606.497 264.4 606.5C265.06 606.517 265.701 606.275 266.187 605.827C266.672 605.379 266.964 604.76 267 604.1L282.3 426.1H274.5Z" fill="#B0D7C0"/>
<path d="M788.6 426.1L801.3 603.7C801.323 604.057 801.273 604.415 801.153 604.752C801.033 605.089 800.846 605.398 800.603 605.66C800.359 605.922 800.065 606.132 799.738 606.276C799.411 606.421 799.058 606.497 798.7 606.5C798.04 606.517 797.399 606.275 796.913 605.827C796.428 605.379 796.136 604.76 796.1 604.1L780.8 426.1H788.6Z" fill="#B0D7C0"/>
<path d="M385.7 206.3C385.7 206.3 394.6 224.4 401 240.7C407.4 257 408.5 272.1 402.3 275.3C393.6 279.8 383.9 280.1 372.7 258.9C361.5 237.7 369.9 189.8 385.7 206.3Z" fill="#22272E"/>
<path d="M337.8 536.9C337.9 538.1 334.3 558.4 334.5 559.9C334.7 561.4 319.2 565.3 311.7 558.6C311.7 558.6 312.8 532.1 312.8 528.1C312.8 524.1 337.1 525.7 337.8 536.9Z" fill="#A47A81"/>
<path d="M334.8 556.3C334.8 556.3 336.5 563.8 339 568.4C341.5 573 355.3 585.9 353.8 590.3C352.3 594.7 339.6 595.1 329.8 594.7C320 594.3 315.6 590.9 311.7 583.9C307.8 576.9 310.4 572.2 310.9 558.6C310.9 558.6 311.2 556.3 311.8 555.9C311.8 555.9 313.8 559.4 316.1 559.7C318.4 560 320.7 554.4 326.3 553.8C331.9 553.2 332.6 558.8 333.2 558.8C333.8 558.8 334.6 557.9 334.8 556.3Z" fill="#442020"/>
<path d="M387.8 533.4C387.9 534.6 384.3 554.9 384.5 556.4C384.7 557.9 369.2 561.8 361.7 555.1C361.7 555.1 362.8 528.6 362.8 524.6C362.8 520.6 387.2 522.2 387.8 533.4Z" fill="#F4C2C9"/>
<path d="M384.9 552.7C384.9 552.7 386.6 560.2 389.1 564.8C391.6 569.4 405.4 582.3 403.9 586.7C402.4 591.1 389.7 591.5 379.9 591.1C370.1 590.7 365.7 587.3 361.8 580.3C357.9 573.3 360.5 568.6 361 555C361 555 361.3 552.7 361.9 552.3C361.9 552.3 363.9 555.8 366.2 556.1C368.5 556.4 370.8 550.8 376.4 550.2C382 549.6 382.7 555.2 383.3 555.2C383.9 555.2 384.7 554.4 384.9 552.7Z" fill="#22272E"/>
<path d="M293.1 317.6C293.1 317.6 290.1 335.1 298.7 376.2C301.3 388.7 303.4 405 304.9 422.1C308.4 461.1 305.4 500.9 303.6 516.6C301 539.1 312.5 543.4 324.9 544.4C337.3 545.4 341.9 539.7 342.5 533.4C343.1 527.1 350.5 443.1 353.3 424.1C356.1 405.1 356.4 379.1 355.5 375.3C354.6 371.5 365.4 372.3 360.9 325.3C356.5 278.1 296.7 305.1 293.1 317.6Z" fill="#FFE779"/>
<path d="M379.2 319.9C379.2 319.9 394.2 384.1 396 404.1C397.8 424.1 394.1 522.2 394.2 528.1C394.3 534 388.9 539.3 375.5 539.6C362.1 539.9 356.7 531 356.8 526.2C357.1 510.2 357.3 446.5 356.3 436.7C355.3 426.9 340.7 378.7 337.8 374.1C334.9 369.5 328.5 334.9 341.1 328.9C353.7 322.9 373.5 313.9 379.2 319.9Z" fill="#DCC664"/>
<path d="M360.3 191.8C360.3 191.8 334.7 190.9 322.8 189.3C310.9 187.7 288.7 187.6 279.9 205.5C271.1 223.4 298.4 232.2 297.7 244.9C297 257.6 295.2 279.1 295.2 279.1C295.2 279.1 292.7 303.2 289.9 312.3C287.1 321.4 292.4 326 294.9 326.8C297.4 327.6 323.4 332.9 343.1 331.8C362.8 330.7 378.9 326.2 380.3 321.8C381.7 317.4 379.4 304.5 380.3 291C381.2 277.5 383.8 253.9 383.8 244.9C383.8 235.9 388.2 213.1 383.8 203.7C379.4 194.3 368.8 192.1 360.3 191.8Z" fill="#323AD9"/>
<path d="M346.8 242C349.041 239.65 351.113 237.144 353 234.5C355.1 231.3 357.9 227.8 360.2 226.5C362.5 225.2 367.3 224.3 368.6 223.6C369.9 222.9 371.4 225.4 368.6 227.7C365.8 230 367 236.7 363.1 240.3C359.2 243.9 348.2 246.1 346.8 242Z" fill="#B28D93"/>
<path d="M375.9 182.8L426.4 179.5C426.752 179.477 427.104 179.533 427.432 179.664C427.759 179.794 428.053 179.996 428.293 180.255C428.532 180.514 428.711 180.822 428.816 181.159C428.921 181.495 428.95 181.851 428.9 182.2L416.5 258.4C416.372 259.219 415.98 259.975 415.385 260.552C414.79 261.129 414.023 261.497 413.2 261.6L364.9 268.2C364.544 268.239 364.185 268.2 363.846 268.084C363.508 267.969 363.199 267.78 362.941 267.532C362.684 267.284 362.484 266.983 362.356 266.649C362.228 266.315 362.174 265.957 362.2 265.6L372.4 186.2C372.45 185.297 372.838 184.447 373.486 183.817C374.135 183.187 374.996 182.824 375.9 182.8Z" fill="#FFE779"/>
<path d="M300.531 260.617C300.531 260.617 306.831 235.317 308.431 225.617C310.031 215.917 303.931 205.117 294.531 202.717C283.531 200.017 280.131 205.817 280.131 205.817C280.131 205.817 275.731 213.517 271.331 237.717C266.931 261.917 264.431 284.417 280.131 289.917C295.831 295.417 328.031 277.517 338.331 269.817C348.631 262.117 352.431 258.917 354.431 258.417C356.431 257.917 364.331 260.017 368.531 255.317C372.731 250.617 376.331 246.917 376.731 246.917C377.131 246.917 387.131 248.417 388.831 247.117C390.731 245.617 387.931 244.117 385.931 243.817C383.931 243.517 378.231 241.617 378.231 241.617C378.231 241.617 382.731 240.217 385.931 239.017C389.131 237.817 392.431 237.117 392.231 235.417C392.031 233.717 390.031 233.917 388.031 233.817C386.451 233.811 384.875 233.979 383.331 234.317C383.331 234.317 388.831 232.817 390.231 231.217C391.631 229.617 390.431 228.217 387.531 228.517C385.679 228.733 383.842 229.067 382.031 229.517C382.031 229.517 387.631 229.017 387.231 226.517C386.931 224.817 381.931 225.717 378.631 226.117C374.894 226.602 371.188 227.303 367.531 228.217C365.443 228.702 363.402 229.371 361.431 230.217C357.931 231.917 349.131 240.317 347.731 242.017C346.331 243.717 328.731 246.517 314.331 249.717C299.931 252.917 291.531 255.517 287.131 259.617L300.531 260.617Z" fill="#B28D93"/>
<path d="M351 260.332C348.488 262.154 344.669 265.19 338.639 269.644C328.287 277.336 295.927 295.455 280.149 289.989C264.371 284.523 266.984 261.647 271.305 237.152C275.627 212.657 280.149 204.863 280.149 204.863C280.149 204.863 283.566 198.992 294.621 201.725C303.967 204.053 310.198 214.985 308.59 224.905C307.585 231.079 304.67 243.63 302.66 252.032C306.178 251.019 310.198 250.108 314.821 249.096C325.072 246.869 337.031 244.744 343.563 243.124C342.731 246.792 343.119 250.633 344.669 254.056C346.98 259.319 351 260.332 351 260.332Z" fill="#1F28CF"/>
<path d="M325.9 165.5C325.9 165.5 325.6 178.3 324.8 186.3C324 194.3 338.9 197.6 346.1 196.2C353.3 194.8 354.4 192.6 354.4 192.6C354.4 192.6 353.8 181.8 354.4 177.9C355 174 326 161.3 325.9 165.5Z" fill="#A47A81"/>
<path d="M366 148.5C366 148.5 371 145.9 372.5 137.7C374 129.5 372.2 117.3 366.6 115.9C361 114.5 364.9 131.7 361.1 134.9C357.3 138.1 366 144 366 148.5Z" fill="#22272E"/>
<path d="M365.8 134.4C366.94 139.99 367.31 145.71 366.9 151.4C366.3 161.6 368.3 178.8 357.2 183.8C346.1 188.8 331.4 183.6 325.4 167.2C319.4 150.8 319.3 134.5 328.5 127.5C337.7 120.5 362.5 121.4 365.8 134.4Z" fill="#B28D93"/>
<path d="M326.6 154.1C326.6 154.1 330 153 330.1 146.9C330.2 140.8 333.4 135.6 340 137.4C346.6 139.2 355.8 144.3 361.2 144.2C367.6 144 369.6 137.1 370.1 128.6C370.6 120.1 367.8 114.8 364.5 115.7C361.2 116.6 358.4 119.4 354.3 114.2C348.7 107.2 343.7 107.4 339.7 110.7C332.7 116.6 334.3 119.7 327.9 117.2C324.2 115.7 321.6 116.1 319.8 123C318 129.9 318.7 131.8 314.4 131.2C310.1 130.6 312.8 153.4 319.8 158.5C319.9 158.5 325.3 153.6 326.6 154.1Z" fill="#22272E"/>
<path d="M326.2 154.4C326.2 154.4 323.3 149.4 319.4 150.7C315.5 152 315.6 158 317.5 161.6C318.564 163.474 320.154 164.994 322.074 165.972C323.994 166.949 326.159 167.342 328.3 167.1" fill="#B28D93"/>
<path d="M190.1 497.9L184.3 618.3C184.278 618.625 184.323 618.952 184.435 619.259C184.546 619.566 184.72 619.846 184.946 620.081C185.172 620.317 185.445 620.502 185.747 620.626C186.049 620.75 186.374 620.809 186.7 620.8C187.303 620.802 187.885 620.577 188.33 620.169C188.775 619.761 189.05 619.201 189.1 618.6L199.2 497.8H190.1V497.9Z" fill="#B0D7C0"/>
<path d="M247.2 497.9L253 618.3C253.022 618.625 252.976 618.952 252.865 619.259C252.754 619.566 252.58 619.846 252.354 620.081C252.128 620.317 251.855 620.502 251.553 620.626C251.251 620.75 250.926 620.809 250.6 620.8C249.997 620.802 249.415 620.577 248.97 620.169C248.525 619.761 248.25 619.201 248.2 618.6L238.1 497.8H247.2V497.9Z" fill="#B0D7C0"/>
<path d="M229.1 474.2L229 594.7C229.002 595.024 228.937 595.345 228.811 595.644C228.685 595.943 228.499 596.212 228.265 596.437C228.031 596.661 227.754 596.836 227.451 596.95C227.147 597.064 226.824 597.115 226.5 597.1C225.909 597.043 225.357 596.782 224.938 596.362C224.518 595.943 224.257 595.391 224.2 594.8L220 473.7L229.1 474.2Z" fill="#B0D7C0"/>
<path d="M251.2 486.2C239.927 484.731 228.568 484.029 217.2 484.1C205.832 484.033 194.473 484.734 183.2 486.2H164.4V493C164.4 497.9 188 501.9 217.2 501.9C246.4 501.9 270 497.9 270 493V486.2H251.2Z" fill="#22272E"/>
<path d="M217.2 495.1C246.361 495.1 270 491.115 270 486.2C270 481.284 246.361 477.3 217.2 477.3C188.039 477.3 164.4 481.284 164.4 486.2C164.4 491.115 188.039 495.1 217.2 495.1Z" fill="#33454E"/>
<path d="M254.9 580.2C254.9 580.2 253.6 589.8 251.8 592.7C250 595.6 247 602.8 247.1 604.5C247.4 607.6 257 615.5 262.6 620.3C268.2 625.1 272.8 625.3 283.2 626.1C293.6 626.9 297.8 625.3 297.8 622.1C297.8 618.9 295.7 617.4 291.1 612.1C286.5 606.8 279.3 599.3 276.9 595C274.5 590.7 279.3 584.2 281.5 580.2C283.7 576.2 259.5 568.9 254.9 580.2Z" fill="#E4E4E4"/>
<path d="M281.5 580.2C279.4 584.2 274.6 590.7 276.9 595C277.1 595.4 277.4 595.8 277.6 596.2C276.819 595.133 275.794 594.268 274.612 593.676C273.429 593.085 272.122 592.785 270.8 592.8C266 592.8 263.4 598.4 259.7 595.7C257.3 593.9 254.2 591.9 252.4 590.8C253.457 587.302 254.226 583.723 254.7 580.1C259.5 568.9 283.7 576.2 281.5 580.2Z" fill="#F4C2C9"/>
<path d="M251.3 416.9C251.3 416.9 255.5 427.1 257.6 430C259.7 432.9 311.2 437.9 316.7 458.8C322.2 479.7 289.6 567.9 286.1 576.2C282.6 584.5 282.1 591.8 270.3 590.6C258.5 589.4 249 581.8 251.3 573.5C253.6 565.2 262.6 543.1 266.3 516.6C270 490.1 283.4 484.5 259.4 476.4C235.4 468.3 216.3 470.9 222.9 448.5C229.5 426.1 246.7 414.5 251.3 416.9Z" fill="#6A771E"/>
<path d="M288.5 594.8C288.5 594.8 292.7 609.8 292.7 611.4C292.7 613 290 625.9 290.6 629.7C291.2 633.5 296.4 635.6 303.3 641.9C310.7 648.8 316.7 648.4 325.8 647.7C333.6 647.1 344 643.3 345.1 640.2C346.2 637.1 345 634.9 338.8 631.6C333.3 628.6 319.5 613.3 318.8 611.6C318.1 609.9 313.9 587.6 313.7 585.5C313.5 583.4 286 589.1 288.5 594.8Z" fill="#E4E4E4"/>
<path d="M318.1 609.5C316 606.9 313 604.7 309 607.1C304.8 609.6 304.4 615 302.2 615.3C300 615.6 299.8 612.5 296.9 611.6C295.118 611.088 293.499 610.124 292.2 608.8C291.1 604.1 288.5 594.7 288.5 594.7C286 589 313.5 583.2 313.6 585.4C313.8 587.3 316.8 603.5 318.1 609.5Z" fill="#F4C2C9"/>
<path d="M180.9 415.3C180.9 415.3 176.1 427.9 173.2 435.8C170.3 443.7 166.6 459.9 174.9 473C183.2 486.1 199.2 488.4 224.9 491.6C250.3 494.7 255.8 496.7 255.8 496.7C259.857 514.083 264.932 531.213 271 548C280.4 573.4 283.9 588.2 284.3 591.8C284.7 595.4 286.6 598.9 292.9 600.4C299.2 601.9 315.6 598.3 316.7 591C317.8 583.7 310.7 561.4 306.1 531.8C301.5 502.2 299.4 477.4 290.7 465.9C282 454.4 247.7 453.2 247.7 449.9C247.7 446.6 197.6 407.3 180.9 415.3Z" fill="#93A527"/>
<path d="M247.6 449.9C247.6 449.9 248.4 444.7 247.6 442.3" stroke="#22272E" stroke-width="1.8" stroke-linecap="round" stroke-linejoin="round"/>
<path d="M688.8 235.3L554.2 229.8C551.3 229.7 549.3 227 549.7 223.7L560.7 142.8C560.91 141.266 561.623 139.845 562.727 138.759C563.83 137.674 565.263 136.985 566.8 136.8L701.4 131.3C702.222 131.218 703.051 131.324 703.825 131.611C704.599 131.898 705.298 132.358 705.867 132.957C706.436 133.555 706.861 134.275 707.109 135.062C707.358 135.85 707.423 136.684 707.3 137.5L696.3 228.8C696.097 230.628 695.212 232.313 693.822 233.518C692.432 234.723 690.639 235.359 688.8 235.3Z" fill="#C4B055"/>
<path d="M686.5 233.6L551.9 228.1C549 228 547 225.3 547.4 222L558.4 141.1C558.61 139.566 559.323 138.145 560.427 137.06C561.53 135.974 562.963 135.285 564.5 135.1L699.1 129.6C699.922 129.518 700.751 129.624 701.525 129.911C702.299 130.199 702.998 130.659 703.567 131.257C704.136 131.855 704.561 132.575 704.809 133.363C705.058 134.15 705.123 134.984 705 135.8L694 227.1C693.782 228.922 692.892 230.597 691.506 231.799C690.119 233.001 688.334 233.643 686.5 233.6Z" fill="#FFE779"/>
<path d="M579.6 181.4H615.2" stroke="#D6C36D" stroke-width="1.8" stroke-linecap="round" stroke-linejoin="round"/>
<path d="M611.4 210.7L592.2 210.2C591.498 210.173 590.809 209.994 590.183 209.675C589.556 209.357 589.005 208.907 588.568 208.356C588.132 207.806 587.819 207.167 587.652 206.484C587.485 205.801 587.467 205.09 587.6 204.4L593.7 158.5C593.901 156.982 594.616 155.578 595.726 154.523C596.835 153.467 598.273 152.824 599.8 152.7L619 152.2" stroke="#D6C36D" stroke-width="1.8" stroke-linecap="round" stroke-linejoin="round"/>
<path d="M640 157.5L617.7 157.9C617.41 157.903 617.123 157.843 616.858 157.725C616.594 157.606 616.358 157.431 616.168 157.212C615.978 156.994 615.837 156.736 615.757 156.458C615.676 156.179 615.657 155.887 615.7 155.6L616.6 148.9C616.685 148.259 616.992 147.669 617.467 147.231C617.942 146.792 618.555 146.534 619.2 146.5L641.5 145.8C641.796 145.79 642.09 145.845 642.363 145.96C642.635 146.075 642.88 146.248 643.079 146.467C643.279 146.685 643.429 146.944 643.519 147.226C643.608 147.508 643.636 147.806 643.6 148.1L642.7 154.9C642.634 155.584 642.326 156.222 641.831 156.699C641.336 157.176 640.686 157.46 640 157.5Z" fill="#D6C36D"/>
<path d="M678.4 187.4L654.5 187.3C654.188 187.302 653.88 187.236 653.597 187.105C653.314 186.974 653.063 186.783 652.862 186.544C652.662 186.305 652.516 186.025 652.436 185.724C652.357 185.422 652.344 185.107 652.4 184.8L653.3 177.8C653.386 177.133 653.703 176.517 654.197 176.061C654.69 175.604 655.328 175.335 656 175.3L679.9 175.2C680.219 175.187 680.537 175.245 680.831 175.37C681.124 175.495 681.386 175.685 681.597 175.925C681.808 176.164 681.963 176.448 682.05 176.755C682.137 177.063 682.154 177.385 682.1 177.7L681.2 184.8C681.145 185.506 680.826 186.165 680.307 186.647C679.789 187.128 679.108 187.397 678.4 187.4Z" fill="#D6C36D"/>
<path d="M632.5 217.1L610.2 216.5C609.903 216.496 609.611 216.427 609.344 216.299C609.076 216.171 608.839 215.987 608.649 215.759C608.459 215.531 608.321 215.265 608.243 214.979C608.166 214.692 608.151 214.393 608.2 214.1L609.1 207.3C609.172 206.663 609.477 206.075 609.958 205.65C610.438 205.225 611.059 204.994 611.7 205L634 205.4C634.309 205.406 634.613 205.479 634.892 205.612C635.171 205.746 635.418 205.937 635.617 206.174C635.816 206.411 635.962 206.687 636.045 206.985C636.128 207.283 636.147 207.595 636.1 207.9L635.2 214.8C635.088 215.438 634.757 216.017 634.264 216.437C633.772 216.857 633.147 217.091 632.5 217.1Z" fill="#D6C36D"/>
<path d="M639.4 181.3H652.9" stroke="#D6C36D" stroke-width="1.8" stroke-linecap="round" stroke-linejoin="round"/>
<path d="M636.3 187.2L614 187.1C613.703 187.095 613.411 187.027 613.144 186.899C612.876 186.771 612.639 186.587 612.449 186.359C612.259 186.131 612.121 185.865 612.043 185.579C611.966 185.292 611.951 184.993 612 184.7L612.9 178C612.985 177.36 613.292 176.769 613.767 176.331C614.242 175.892 614.855 175.634 615.5 175.6L637.8 175.5C638.101 175.502 638.399 175.568 638.673 175.693C638.947 175.818 639.192 176 639.39 176.227C639.589 176.454 639.737 176.721 639.825 177.009C639.913 177.297 639.938 177.601 639.9 177.9L639 184.8C638.893 185.449 638.566 186.041 638.075 186.478C637.583 186.915 636.957 187.17 636.3 187.2Z" fill="#D6C36D"/>
<path d="M579.6 181.4C580.1 177.7 577.7 174.8 574.3 174.8C570.9 174.8 567.8 177.8 567.3 181.4C566.8 185 569.1 188 572.5 188C574.269 187.906 575.949 187.194 577.247 185.988C578.545 184.781 579.377 183.158 579.6 181.4Z" fill="#D6C36D"/>
<path d="M675.6 478.6V485.4C675.6 489.8 653.5 493.4 626.1 493.4C598.7 493.4 576.6 489.8 576.6 485.4V478.6H599.9C617.33 477 634.87 477 652.3 478.6H675.6Z" fill="#22272E"/>
<path d="M626.1 486.6C653.438 486.6 675.6 483.018 675.6 478.6C675.6 474.181 653.438 470.6 626.1 470.6C598.762 470.6 576.6 474.181 576.6 478.6C576.6 483.018 598.762 486.6 626.1 486.6Z" fill="#3A4950"/>
<path d="M626.1 567.4C625.796 567.406 625.495 567.35 625.213 567.236C624.932 567.122 624.676 566.953 624.462 566.739C624.247 566.524 624.078 566.268 623.964 565.987C623.85 565.705 623.795 565.404 623.8 565.1V486.7H628.5V565.1C628.493 565.409 628.426 565.713 628.302 565.996C628.178 566.278 627.999 566.534 627.776 566.747C627.554 566.961 627.291 567.129 627.003 567.241C626.716 567.353 626.409 567.407 626.1 567.4Z" fill="#B0D7C0"/>
<path d="M626.1 564.9C626.1 564.9 598.9 566.9 590.3 585" stroke="#B0D7C0" stroke-width="4" stroke-linecap="round" stroke-linejoin="round"/>
<path d="M662 585C653.3 566.9 626.2 564.9 626.2 564.9C626.2 564.9 621.7 568.4 619.8 589.1" stroke="#B0D7C0" stroke-width="4" stroke-linecap="round" stroke-linejoin="round"/>
<path d="M590.29 593.74C594.322 593.74 597.59 590.471 597.59 586.44C597.59 582.408 594.322 579.14 590.29 579.14C586.258 579.14 582.99 582.408 582.99 586.44C582.99 590.471 586.258 593.74 590.29 593.74Z" stroke="#22272E" stroke-width="1.8" stroke-linecap="round" stroke-linejoin="round"/>
<path d="M653.1 404.9C657.9 416.4 666.4 434.9 666.3 455.7C666.3 480.9 635.8 491.2 632.7 495.2C629.6 499.2 566.1 503.6 559.6 490.9C553.1 478.2 553.5 464.8 570.9 432.7C582.5 411.2 581 405.2 581.1 404.9C581.1 404.9 582.7 406.6 583.4 399.9C584.1 393.2 650.2 398.1 653.1 404.9Z" fill="#413A70"/>
<path d="M574.7 464.8C568.5 465.8 558.1 469.1 557 485.6C555.9 502.1 569.1 566.1 569.3 577.4C569.5 588.7 568.4 589.2 560.7 596.1C553 603 537.7 610.5 539 615.8C540.3 621.1 557.8 625.6 569.3 623.5C580.8 621.4 583.4 608.3 585.6 607.2C587.8 606.1 589.2 602 589.5 599.4C589.8 596.8 597.9 505 598.7 491.5C599.8 474.8 592.9 461.9 574.7 464.8Z" fill="#FFE9EC"/>
<path d="M590.3 591.6C589.9 596 589.6 598.8 589.6 599.3C589.3 602 587.9 606 585.7 607.1C583.5 608.2 581 621.3 569.4 623.4C557.8 625.5 540.3 621 539.1 615.7C538.1 611.6 547.2 606.1 554.9 600.6C554.7 600.8 552.5 603 554.9 603.5C557.3 604 561.9 602.1 570.5 606.9C579.1 611.7 581.6 604.2 583.3 599.1C584.8 594.8 587.8 596.2 590.3 591.6Z" fill="#2B2B2B"/>
<path d="M604.9 467.8C597.4 472.8 594.4 478.9 593 501.9C591.1 533.5 587.7 583.2 586.1 588.5C584.5 593.8 582.5 596.2 580.6 601.5C578.7 606.8 562.6 622.1 563.6 627.9C564.6 633.7 573.8 639.5 579.6 641.4C585.4 643.3 592.3 644.1 596.5 641.4C600.7 638.7 602.8 621.8 603.9 617.8C605 613.8 606.2 610.8 607.2 603.7C608.2 596.6 615.5 564.6 618.6 555.4C621.7 546.2 635.6 501.5 636 484C636.2 466.5 615.9 460.6 604.9 467.8Z" fill="#FFE3E7"/>
<path d="M608.3 597.4C607.814 599.478 607.447 601.581 607.2 603.7C606.3 610.7 605 613.7 603.9 617.8C602.8 621.9 600.8 638.8 596.6 641.4C592.4 644 585.5 643.3 579.7 641.4C573.9 639.5 564.7 633.7 563.7 628C563 623.8 571.2 614.7 576.5 607.9C576.2 608.3 572.4 614 579.2 619C585.1 623.4 596.1 626.1 598.9 619.5C601.7 612.9 603.2 606.7 604.5 604.7C606.204 602.521 607.492 600.046 608.3 597.4Z" fill="#2B2B2B"/>
<path d="M583.5 321.3C583.5 321.3 569.9 321.5 560.7 341.8C551.5 362.1 536.9 390.7 539 402.8C541.1 414.9 569 402.8 582.2 380.1C595.4 357.4 594.1 321.9 583.5 321.3Z" fill="#F07D19"/>
<path d="M594 280.9C594 280.9 587.1 280.5 584.9 271.6C582.7 262.7 591.8 251.6 600.2 248.9C608.6 246.2 610.7 251.4 616.2 252C621.7 252.6 636.4 251 642.3 264.1C648.2 277.2 638.4 289.6 645.9 299.4C653.4 309.2 659.7 327.4 637.6 335.2C615.5 343 590.1 336.9 582.2 322.8C574.3 308.7 589.5 300.4 591.8 293.1C594.3 285.9 595.4 284.1 594 280.9Z" fill="#22272E"/>
<path d="M616.4 316.1C616.4 316.1 596 315.9 584.9 320.1C581.6 321.3 578.8 323.4 578 333.8C577.3 343.2 576.8 343.1 574.2 347.7C570.1 355.1 568.4 363.6 576.3 377.4C581.4 386.4 579.8 403.3 579 411.8C578.2 420.3 579.2 424.1 595.7 428.3C612.2 432.5 647.6 428.3 651.6 424.3C655.6 420.3 657.4 380.7 656.6 373C655.8 365.3 670.6 344.8 669.5 336.7C668.4 328.6 658.8 317.5 616.4 316.1Z" fill="#E87613"/>
<path d="M628 296.3C626.681 303.187 626.045 310.188 626.1 317.2C624.934 320.297 622.79 322.93 619.993 324.699C617.196 326.467 613.898 327.275 610.6 327C599.4 326.4 602 317.4 602 317.4C602 317.4 604.7 307.4 604.8 304.8C604.9 302.2 625.2 293.6 628 296.3Z" fill="#FFE3E7"/>
<path d="M592.7 270.9C592.827 276.455 592.459 282.011 591.6 287.5C590.2 296.1 591.7 309.7 601 312.9C613.9 317.3 627.3 308.5 630.6 295.7C633.9 282.9 635.6 267.2 619.2 262.5C602.8 257.8 593.6 264.6 592.7 270.9Z" fill="#FFE9EC"/>
<path d="M592.2 274.5C592.2 274.5 591.5 271.4 594.4 270.8C597.269 270.066 600.052 269.026 602.7 267.7C604.6 266.8 607 267.1 608.9 271.3C613.1 280.3 618.4 293.8 629.4 290C629.4 290 633.6 290.9 634.8 283.9C636 276.9 635.5 267.5 623.3 261.8C611.1 256.1 597.1 260 594.5 262.9C590.5 267.4 592.2 274.5 592.2 274.5Z" fill="#22272E"/>
<path d="M457.4 443.4L463.2 579C463.236 579.343 463.201 579.69 463.098 580.019C462.996 580.349 462.827 580.654 462.602 580.916C462.378 581.178 462.102 581.391 461.792 581.543C461.482 581.695 461.145 581.783 460.8 581.8C460.163 581.751 459.565 581.469 459.123 581.008C458.68 580.547 458.423 579.939 458.4 579.3L448.3 443.3H457.4V443.4Z" fill="#B0D7C0"/>
<path d="M469.9 427.5L475.4 556.5C475.436 556.83 475.404 557.164 475.306 557.481C475.208 557.799 475.047 558.093 474.832 558.346C474.616 558.598 474.352 558.804 474.054 558.951C473.756 559.098 473.432 559.183 473.1 559.2C472.497 559.178 471.925 558.928 471.498 558.502C471.072 558.075 470.822 557.503 470.8 556.9L461.2 427.5H469.9Z" fill="#B0D7C0"/>
<path d="M366.5 443.5L348.3 578C348.24 578.335 348.246 578.679 348.319 579.011C348.392 579.344 348.53 579.658 348.725 579.937C348.921 580.216 349.169 580.454 349.457 580.636C349.744 580.818 350.065 580.942 350.4 581C351.027 581.014 351.638 580.798 352.117 580.393C352.596 579.987 352.91 579.421 353 578.8L375.5 444.3L366.5 443.5Z" fill="#B0D7C0"/>
<path d="M487.9 299.6C487.9 299.6 493.8 302.3 488.7 326C483.6 349.7 474.2 381.1 475.5 416.6C476.8 452.1 453.5 466.8 415.4 464.1C377.3 461.4 437.1 353.8 437.1 353.8C437.1 353.8 480 289.9 487.9 299.6Z" fill="#B8D8C7"/>
<path d="M385.7 306.8C386.7 302.4 388.8 295.3 396.7 292.4C404.6 289.5 487.6 290.9 488.7 301.2C489.8 311.5 468.1 359.5 468.2 393.9C468.3 428.3 474.4 456.8 433.9 462.5C393.4 468.2 350 459.8 354.4 446C358.8 432.2 372.2 413.7 376.3 375.8C380.4 337.9 382 323.8 385.7 306.8Z" fill="white"/>
<path d="M366.9 416.9C366.9 416.9 336.4 455.1 335.5 467.8C334.6 480.5 385.6 480 385.7 477.4C385.8 474.8 394.3 460 398.3 459.7C400.9 459.5 404.9 459.3 405.6 462.5C406.6 467 405.6 476.4 405.6 476.4L449.5 497L453.8 478.7C453.8 478.7 461.2 466.8 461.2 447.2C461.2 427.6 455.5 398.7 455.5 398.7C455.5 398.7 371.9 407.5 366.9 416.9Z" fill="#0F2B53"/>
<path d="M402.9 601.1C402.9 601.1 400.2 602.9 399.6 607.4C399 611.9 396.6 618.6 395 624.1C393.4 629.6 388.7 640.3 391.1 642.1C394.5 644.8 403.5 646.7 413.9 647.6C424.3 648.5 429.3 647.9 430.9 644.9C432.5 641.9 429.1 624.7 428.5 618.2C427.9 611.7 428.5 604.9 427.3 602.6C426.1 600.3 407.7 594.9 402.9 601.1Z" fill="#E4E4E4"/>
<path d="M366 595.3C364.962 597.161 364.156 599.143 363.6 601.2C362.4 605.1 351.8 621.5 351.9 626.7C352 631.9 362.1 632 366 632.2C370.7 632.4 382.6 631.5 386.5 628.8C390.4 626.1 390.5 616.8 390.8 613.8C391.4 607.8 391.3 604.2 389.9 595.2C389.5 592.3 385.1 591.5 382.7 593.2C380.3 594.9 367.8 591.4 366 595.3Z" fill="#E4E4E4"/>
<path d="M404.5 589.2C404.5 589.2 402.7 602.301 402.5 603.901C402.3 605.501 405.2 609 413.6 610.8C420.8 612.4 425.1 609.7 425.8 608.7C426.5 607.7 429.8 591 430.9 587.2C432 583.4 406.8 584.7 404.5 589.2Z" fill="#C0A3A6"/>
<path d="M363.6 586.4C363.6 586.4 366.3 595.6 366.3 596.8C366.3 598 370.9 600.5 377.3 600.3C383.7 600.1 389.1 596.6 389.1 594.9C389.1 593.2 387.2 576.9 387.2 576.9C387.2 576.9 364.2 581.8 363.6 586.4Z" fill="#C0A3A6"/>
<path d="M403 606.4C403.663 606.749 404.401 606.931 405.15 606.931C405.899 606.931 406.637 606.749 407.3 606.4C409.6 605.2 412 603 416.7 603.9C422.4 605 423.5 610.9 426.6 608.3C426.6 608.3 426.7 612.3 418.9 612.7C411.1 613.1 403.1 607.7 403 606.4Z" fill="#E4E4E4"/>
<path d="M365.9 597C365.9 597 367 598.2 368.8 596.5C370.6 594.8 370.4 592.9 375.3 592.2C378.5 591.8 381.2 594.1 383.6 596C386 597.9 388.4 595.3 388.9 593.1C388.9 593.1 390.5 598.8 388.3 601.6C386.7 603.7 380.5 602.2 376.8 602.3C373.1 602.4 365.1 600.6 365.1 600.6L365.9 597Z" fill="#E4E4E4"/>
<path d="M417.4 456.7C417.4 456.7 405.3 458.4 404.5 488.6C403.7 518.8 401.2 567.299 397.8 574.099C394.4 580.899 395.6 588.899 401.9 592.099C408.2 595.299 415.5 599 424.7 598C433.9 597 438.3 591.7 438.3 581C438.3 570.3 442.2 540.3 448.2 515.9C454.2 491.5 458.2 467.4 446 458.7C433.8 450 417.4 456.7 417.4 456.7Z" fill="#2B44FF"/>
<path d="M345.7 454.3C345.7 454.3 327.5 456.6 337.8 501.7C348.1 546.8 355 570.5 353.4 577.4C351.8 584.3 356.8 588 362.5 589.3C368.2 590.6 379.1 590.4 385.3 586.9C391.5 583.4 392.2 577.8 389.7 567.1C387.2 556.4 386.6 513.6 386.3 498.9C386 484.2 389.7 459.2 371.9 452C354.1 444.8 345.7 454.3 345.7 454.3Z" fill="#1F28CF"/>
<path d="M462.2 267.8C462.2 267.8 468.1 265.9 470 261.6C471.9 257.3 471.7 244.3 468.2 240.2C464.7 236.1 454.9 237.9 448.7 236.1C442.5 234.3 438.2 230.3 426.7 232.5C415.2 234.7 404.6 245 404.1 250.6C403.6 256.2 406.9 258.5 405.7 262.1C404.5 265.7 402.9 269.2 408.5 274.7C414.1 280.2 411.9 283.8 416.1 283.8C420.3 283.8 412.7 271 418.1 260C423.5 249 459.2 255.4 462.2 267.8Z" fill="#22272E"/>
<path d="M346 334C346 334 332.8 351.4 330.5 364.5C328.2 377.6 335.3 386.1 344.1 387.5C352.9 388.9 382.4 350.4 383.8 342.6C385.2 334.8 350.2 327.9 346 334Z" fill="#C0A3A6"/>
<path d="M388.1 300C388.1 300 381.4 298.1 365.3 312C351.8 323.6 341.1 334.7 341.1 334.7C341.1 334.7 369.5 360.5 373.4 367.2C373.4 367.2 390.9 347 392.4 326.6C393.9 306.2 390.6 299.2 388.1 300Z" fill="#21190E"/>
<path d="M380.2 308.5C382.7 302.9 387.7 298.8 393.9 298.6C399.9 298.4 409 298.5 422.2 299.4C450.6 301.4 472.5 309.5 478.3 313.7C484.1 317.9 477 343.9 471 358.3C465 372.7 458.5 385.8 457.4 390.8C456.3 395.8 460.3 419.4 458.2 424.2C456.1 429 433.8 437.3 405.4 435.7C377 434.1 365.2 424.9 364.3 421.5C363.4 418.1 367 388.6 368.7 378.5C370.4 368.4 371.6 346.2 371.8 343C373.6 322.4 377.6 314.3 380.2 308.5Z" fill="#21190E"/>
<path d="M504.2 355C497.1 342.8 472.5 367.1 473.1 372.5C473.1 372.5 477.5 381.7 477.5 382.7C477.5 383.7 473.1 409 470.1 423.2C469.2 427.6 466.5 432.5 463.2 437.2C470.935 440.136 478.894 442.443 487 444.1C497.6 425.6 509.8 397.3 511.7 390.3C515.2 377.2 511.3 367.2 504.2 355Z" fill="#C0A3A6"/>
<path d="M478.3 313.6C478.3 313.6 486.4 318.1 494.4 331.6C502.4 345.1 508.6 357.4 508.6 357.4L473.4 375.8C473.4 375.8 463.2 359.1 459 351.6C454.8 344.1 454.4 328.7 460.3 320.1C466 311.6 475.5 311.7 478.3 313.6Z" fill="#21190E"/>
<path d="M468.1 428.8C468.1 428.8 454 430.2 450.8 432C447.6 433.8 442.8 444.7 443.2 445.7C443.6 446.7 446.6 445.7 446.6 445.7C446.6 445.7 446.2 447.8 448.6 447.8C451 447.8 451.4 446.8 451.4 446.8C451.333 447.134 451.347 447.479 451.443 447.806C451.538 448.133 451.711 448.432 451.946 448.678C452.182 448.923 452.474 449.108 452.797 449.217C453.12 449.325 453.464 449.354 453.8 449.3C456.6 449.1 462.4 444.1 462.4 444.1C462.4 444.1 459.3 449.6 461.2 450.9C463.1 452.2 467.2 447.6 467.8 446.7C468.4 445.8 484.3 455.4 490.4 437.7C490.4 437.7 478.9 425.2 468.1 428.8Z" fill="#F4C2C9"/>
<path d="M414.5 272.9C414.5 272.9 414.8 282.1 412.5 289.6C411.6 292.487 410.393 295.27 408.9 297.9C408.087 299.357 407.545 300.949 407.3 302.6C406.7 306.7 407 313.8 414.5 317.2C426.5 322.6 439.1 312.7 440.8 304.8C440.8 304.8 441.5 296.6 443.3 293.3C445.1 290 420.3 269.8 414.5 272.9Z" fill="#C0A3A6"/>
<path d="M463.4 250.8C463.4 250.8 465.6 257.4 462.5 267.2C459.4 277 457.3 280.7 454.7 288.5C452.1 296.3 445.8 303.1 435.1 302C423.9 300.8 415.1 290.6 414.6 277.9C414.1 265.2 413 245.4 428.1 241.9C443 238.5 460.8 247.4 463.4 250.8Z" fill="#CDB5B8"/>
<path d="M417.2 266.6C417.2 266.6 420.5 265.8 422.6 257.1C422.6 257.1 423.3 255.1 426.8 257.8C430.3 260.5 436.1 264.9 446.3 260.1C456.5 255.3 457.8 253.7 459.2 255.4C459.2 255.4 460.7 263 465.9 260.6C471.1 258.2 468.3 244.7 451.1 240.3C433.9 235.9 421.7 237.4 416.2 247C410.7 256.6 412.8 266 417.2 266.6Z" fill="#22272E"/>
<path d="M419 268.3C419 268.3 417.3 261.5 412.3 261.6C407.3 261.7 405 275.3 416.5 277.4" fill="#CDB5B8"/>
<path d="M234.9 451.4L220.2 656.4C220.18 656.809 220.242 657.218 220.383 657.602C220.524 657.986 220.741 658.338 221.021 658.637C221.301 658.935 221.638 659.175 222.013 659.34C222.387 659.506 222.791 659.594 223.2 659.6C223.946 659.604 224.667 659.33 225.222 658.83C225.777 658.331 226.125 657.643 226.2 656.9L243.9 451.5H234.9V451.4Z" fill="#B0D7C0"/>
<path d="M828.2 451.4L842.9 656.4C842.92 656.809 842.858 657.218 842.717 657.602C842.576 657.986 842.359 658.338 842.079 658.637C841.799 658.935 841.462 659.175 841.087 659.34C840.713 659.506 840.309 659.594 839.9 659.6C839.154 659.604 838.433 659.33 837.878 658.83C837.323 658.331 836.975 657.643 836.9 656.9L819.2 451.5H828.2V451.4Z" fill="#B0D7C0"/>
<path d="M859.5 447.1H203.6L278.6 416.9H784.4L859.5 447.1Z" fill="white"/>
<path d="M859.6 447.1H203.6V454.6H859.6V447.1Z" fill="#B0D7C0"/>
<path d="M464.4 411.9H506.5C507.645 411.892 508.763 412.242 509.7 412.9L547.9 438.4C548.175 438.576 548.387 438.837 548.502 439.143C548.618 439.448 548.632 439.783 548.542 440.098C548.452 440.412 548.263 440.689 548.004 440.888C547.744 441.086 547.427 441.196 547.1 441.2H486.2C485.5 441.207 484.809 441.048 484.183 440.735C483.557 440.422 483.014 439.964 482.6 439.4L463.2 414.4C463.02 414.174 462.906 413.901 462.874 413.613C462.841 413.326 462.891 413.035 463.016 412.774C463.141 412.513 463.337 412.292 463.582 412.138C463.827 411.983 464.11 411.901 464.4 411.9Z" fill="#FFE779"/>
<path d="M490.4 433.3H529.7" stroke="#BEAD5E" stroke-width="1.8" stroke-linecap="round" stroke-linejoin="round"/>
<path d="M518.8 425.8L510.6 419.6C510.257 419.335 509.834 419.194 509.4 419.2H498.7C498.3 419.2 498.2 419.6 498.4 419.9L504.6 425.9C504.969 426.277 505.472 426.492 506 426.5H518.6C519 426.5 519.1 426.1 518.8 425.8Z" fill="#BEAD5E"/>
<path d="M496.6 426.5H485.8" stroke="#BEAD5E" stroke-width="1.8" stroke-linecap="round" stroke-linejoin="round"/>
<path d="M493.1 422.4H483.4" stroke="#BEAD5E" stroke-width="1.8" stroke-linecap="round" stroke-linejoin="round"/>
<path d="M707.5 445.3L695.5 446.2C694.457 446.299 693.405 446.197 692.4 445.9L637.6 430.9C636.994 430.724 636.461 430.356 636.082 429.851C635.703 429.346 635.499 428.731 635.5 428.1L728.7 425.8L707.5 445.3Z" fill="#3E484D"/>
<path d="M694.1 441.9L717.3 380.2C717.697 379.121 718.421 378.194 719.372 377.548C720.322 376.903 721.451 376.571 722.6 376.6L817.8 378.4C818.294 378.408 818.778 378.538 819.21 378.778C819.641 379.019 820.007 379.362 820.274 379.777C820.541 380.193 820.702 380.668 820.741 381.16C820.78 381.653 820.698 382.147 820.5 382.6L798.5 436.5C798.098 437.468 797.438 438.306 796.591 438.923C795.744 439.541 794.744 439.913 793.7 440L697.1 446.1C696.6 446.087 696.109 445.959 695.667 445.724C695.225 445.49 694.843 445.156 694.552 444.748C694.261 444.341 694.069 443.872 693.991 443.377C693.912 442.883 693.949 442.377 694.1 441.9Z" fill="#22272E"/>
<path d="M697.5 446.1L695.5 446.2C694.457 446.299 693.405 446.197 692.4 445.9L637.6 430.9C637.001 430.712 636.476 430.34 636.099 429.838C635.723 429.336 635.513 428.728 635.5 428.1L695.6 442.5L697.5 446.1Z" fill="#22272E"/>
<path d="M237.6 314.5C237.6 314.5 247.4 311.8 256 327.2C264.6 342.6 268.9 371.2 271.6 374.1C274.3 377 278.7 379.2 292.9 388.3C307.1 397.4 307.9 397.7 320.2 399.2C332.5 400.7 333.3 404.9 337.1 409.1C340.9 413.3 343.6 416.2 340 416.5C336.4 416.8 332.5 411.6 330.2 413.1C327.768 414.872 325.018 416.162 322.1 416.9C317.9 417.9 319.2 419.6 315.3 419.2C311.4 418.8 303.8 419 306.2 416.9C308.6 414.8 306.2 414.3 306.2 414.3C306.2 414.3 263.9 408.6 250.2 397.5C236.5 386.4 232.9 349.6 230.2 337.4C227.5 325.2 234.2 314.5 237.6 314.5Z" fill="#E3C9AA"/>
<path d="M242.4 265.8C242.4 265.8 249.8 258.8 246.9 249.7C244 240.6 235 239.7 227.7 241.9C220.4 244.1 200.4 240.4 193.1 251.5C185.8 262.6 190.4 272.6 185.8 275.5C181.2 278.4 174.7 280.5 175.8 287.8C176.9 295.1 196.4 305.7 190.4 314.1C184.4 322.5 178.7 342 201.9 353.1C225.1 364.2 226.5 337.7 228 322.3C229.5 306.9 224.9 289.1 231.5 282.5C238.2 275.7 243.7 272 242.4 265.8Z" fill="#22272E"/>
<path d="M208.6 310.9C208.6 310.9 235.1 311.5 239.7 313.6C244.3 315.7 246.4 322.8 247.8 328.2C249.2 333.6 259.7 340.1 261.6 352C263.5 363.9 253.3 377.7 252.8 379.9C252.3 382.1 252.2 404.5 253.4 409.1C254.6 413.7 256.7 421.2 256.5 424.5C256.3 427.8 242.3 434.3 221.5 433.1C200.7 431.9 178.9 421.4 178.2 419.1C177.5 416.8 184.4 406 182.5 383.4C180.6 360.8 169.8 336.5 177.7 323.1C185.6 309.9 204.6 310.8 208.6 310.9Z" fill="#22272E"/>
<path fill-rule="evenodd" clip-rule="evenodd" d="M208.505 310.695C208.68 303.288 207.6 291.9 207.6 291.9C208.1 291 229.1 289.6 229.3 296C229.592 302.422 232.061 311.684 232.194 312.179C233.6 312.37 234.4 312.5 234.4 312.5C241 329.3 238.6 336 233.5 336.6C228.4 337.2 221.1 331.1 215.4 322.9C212.247 318.267 208.324 314.208 203.8 310.9C205.36 310.793 206.935 310.727 208.505 310.695Z" fill="#F0D8BB"/>
<path d="M298.1 405.5L340 402.9C340.5 402.9 341.1 401.8 341.3 402.2C341.35 402.799 341.35 403.401 341.3 404C341.308 404.326 341.202 404.644 341 404.9L309.4 437.3C308.755 437.956 307.971 438.458 307.105 438.77C306.24 439.081 305.315 439.194 304.4 439.1L263.2 435C263.008 434.997 262.821 434.938 262.662 434.832C262.502 434.726 262.377 434.576 262.3 434.4C261.668 433.386 261.132 432.314 260.7 431.2C260.7 430.9 263 430.9 263.3 430.7L295.3 406.6C296.098 405.954 297.076 405.57 298.1 405.5Z" fill="#63737A"/>
<path d="M297.6 402.9L340.1 401.1C340.346 401.094 340.588 401.162 340.795 401.294C341.002 401.427 341.165 401.619 341.261 401.845C341.358 402.071 341.385 402.321 341.339 402.563C341.292 402.804 341.174 403.026 341 403.2L308.3 435.4C307.641 436.06 306.836 436.558 305.951 436.853C305.066 437.148 304.124 437.233 303.2 437.1L261.5 432C261.254 431.976 261.021 431.878 260.832 431.718C260.643 431.559 260.507 431.345 260.442 431.107C260.377 430.868 260.386 430.615 260.468 430.382C260.549 430.149 260.7 429.946 260.9 429.8L294.6 403.9C295.47 403.26 296.52 402.91 297.6 402.9Z" fill="#22272E"/>
<path d="M316.4 401C316.4 401 315.3 401.2 315.3 403.3C315.3 405.4 316.1 411 314 411.4C311.9 411.8 311 409.3 310 407.1C309 404.9 306 404.8 304.1 401.6" fill="#FFE7CA"/>
<path d="M239.8 255.1C241.651 260.384 242.729 265.907 243 271.5C243.3 280.3 246.3 285.3 244.6 292.9C242.9 300.5 236.9 306.4 229.5 306.7C222.1 307 211.3 300.4 205.4 292.5C199.5 284.6 197.7 268.1 201.2 260.1C204.5 252.2 230.7 243.9 239.8 255.1Z" fill="#FFE7CA"/>
<path d="M243.2 263.7C241.786 263.764 240.382 263.433 239.146 262.744C237.91 262.055 236.889 261.036 236.2 259.8C236.2 259.8 229.7 274.8 219.2 275.8C212 276.5 210.6 273.1 207.6 275.8C204.6 278.5 213.3 294.1 210.6 306.8C207.9 319.5 195.1 323 186.1 315.2C174.8 305.3 187.1 303.4 189.4 289.4C191.7 275.4 189.4 264.8 196.8 256.7C204.2 248.6 211.5 243.6 223.2 244.7C234.9 245.8 239.8 247.6 243.2 263.7Z" fill="#22272E"/>
<path d="M212.3 273.9C212.3 273.9 211.6 279.2 211.9 280.9C212.2 282.6 208.8 279 205.7 281.3C204 282.6 202.4 274.4 205.7 271.9C209 269.4 210.8 271.5 212.3 273.9Z" fill="#22272E"/>
<path d="M210.4 281C210.4 281 206.6 276.1 202.5 279.1C198.4 282.1 203.7 291.2 209.9 290.5" fill="#FFE7CA"/>
<path d="M294.5 428.4C294.5 428.4 300.2 433.1 302.4 434.7C304.6 436.3 303.2 437.7 300.8 437.7C298.4 437.7 290.5 431.4 294.5 428.4Z" fill="#FFE7CA"/>
<path d="M181.2 319C178.821 320.132 176.86 321.987 175.6 324.3C171.576 331.872 170.405 340.637 172.3 349C176 365.9 184.7 391.3 188.6 397.3C192.5 403.3 210.8 415.3 223.7 423.3C236.6 431.3 246.5 435.7 248.9 437.5C251.3 439.3 256.1 443.9 265.2 445C274.3 446.1 277.3 442.8 280.1 443.5C282.9 444.2 287.6 447.4 290.2 447.1C292.8 446.8 291.4 444.8 290.4 443.8C289.4 442.8 283.5 437.5 283.5 437.5C286.529 438.843 289.469 440.379 292.3 442.1C296.7 444.7 298.8 444.8 300 444.7C301.2 444.6 302.6 444.2 302.4 443.1C302.744 443.295 303.138 443.38 303.531 443.344C303.924 443.308 304.297 443.153 304.6 442.9C305.6 442 305.9 441.2 303.5 438.5C301.1 435.8 295 428.7 292 425.6C289 422.5 285.5 422.2 278.1 422.6C270.7 423 260.3 421.4 260 421.7C259.7 422 227.9 388.3 218.3 378.7C218.3 378.7 210.6 353.6 208.3 342.8C203.6 321.1 192.2 313.8 181.2 319Z" fill="#FFE7CA"/>
<path d="M486.8 221.7H451.6L448 224C447.739 224.159 447.441 224.247 447.136 224.258C446.831 224.268 446.528 224.2 446.257 224.059C445.985 223.918 445.755 223.71 445.587 223.455C445.42 223.199 445.321 222.905 445.3 222.6V197.7C445.299 197.096 445.417 196.497 445.647 195.938C445.878 195.38 446.217 194.872 446.644 194.444C447.072 194.017 447.579 193.678 448.138 193.448C448.697 193.217 449.296 193.099 449.9 193.1H486.7C487.304 193.099 487.903 193.217 488.462 193.448C489.021 193.678 489.528 194.017 489.956 194.444C490.383 194.872 490.722 195.38 490.953 195.938C491.183 196.497 491.301 197.096 491.3 197.7V217.1C491.313 217.699 491.207 218.295 490.987 218.853C490.766 219.41 490.437 219.918 490.018 220.347C489.599 220.775 489.098 221.116 488.546 221.348C487.993 221.581 487.399 221.7 486.8 221.7Z" fill="#FFD7F6"/>
<path d="M455.8 212.5L459.3 209C459.744 208.549 460.273 208.19 460.857 207.946C461.441 207.701 462.067 207.575 462.7 207.575C463.333 207.575 463.959 207.701 464.543 207.946C465.127 208.19 465.656 208.549 466.1 209C466.544 209.451 467.073 209.809 467.657 210.054C468.241 210.298 468.867 210.424 469.5 210.424C470.133 210.424 470.759 210.298 471.343 210.054C471.927 209.809 472.456 209.451 472.9 209L479.6 202.3" stroke="#7D2E6B" stroke-width="1.8" stroke-linecap="round" stroke-linejoin="round"/>
<path d="M480.7 204.3L481.9 200L477.6 201.2L480.7 204.3Z" fill="#7D2E6B"/>
<path d="M795.8 337.9L703.6 327.1C702.979 327.04 702.378 326.844 701.841 326.527C701.304 326.209 700.843 325.778 700.49 325.263C700.137 324.749 699.901 324.163 699.8 323.547C699.698 322.931 699.732 322.301 699.9 321.7L721.2 224.3C721.508 223.129 722.158 222.076 723.066 221.275C723.974 220.473 725.1 219.96 726.3 219.8L822.5 209.7C823.052 209.604 823.618 209.645 824.15 209.821C824.681 209.996 825.162 210.3 825.547 210.706C825.933 211.112 826.213 211.606 826.362 212.146C826.51 212.686 826.524 213.254 826.4 213.8L800.9 334.2C800.63 335.323 799.968 336.313 799.033 336.991C798.098 337.669 796.951 337.992 795.8 337.9Z" fill="#477057"/>
<path d="M792.1 337.9L699.1 327C698.474 326.943 697.869 326.751 697.325 326.437C696.781 326.122 696.312 325.693 695.95 325.18C695.589 324.666 695.343 324.08 695.231 323.461C695.119 322.843 695.142 322.208 695.3 321.6L716.8 223.5C717.082 222.298 717.737 221.215 718.671 220.407C719.604 219.599 720.77 219.106 722 219L818.9 208.8C819.452 208.704 820.018 208.745 820.55 208.921C821.081 209.096 821.562 209.401 821.947 209.806C822.333 210.212 822.613 210.706 822.762 211.246C822.91 211.786 822.924 212.354 822.8 212.9L797 334.3C796.765 335.396 796.137 336.367 795.234 337.03C794.331 337.694 793.216 338.003 792.1 337.9Z" fill="#B0D7C0"/>
<path d="M757.8 243.8L722.8 245.5C722.594 245.515 722.388 245.482 722.197 245.404C722.006 245.326 721.836 245.205 721.701 245.049C721.565 244.894 721.467 244.71 721.415 244.51C721.363 244.311 721.358 244.102 721.4 243.9L724.2 230.9C724.301 230.536 724.507 230.21 724.791 229.961C725.075 229.713 725.426 229.552 725.8 229.5L761.1 226.5C761.309 226.468 761.524 226.489 761.723 226.562C761.922 226.634 762.1 226.756 762.239 226.916C762.379 227.075 762.476 227.267 762.521 227.474C762.567 227.681 762.56 227.897 762.5 228.1L759.4 242.5C759.292 242.851 759.083 243.162 758.798 243.393C758.513 243.625 758.166 243.766 757.8 243.8Z" fill="#6DAFA7"/>
<path d="M711.5 316.7C711.323 316.689 711.15 316.639 710.994 316.554C710.839 316.469 710.703 316.351 710.598 316.208C710.493 316.065 710.421 315.9 710.387 315.726C710.353 315.552 710.357 315.372 710.4 315.2L715.6 290.8C715.677 290.414 715.892 290.069 716.205 289.829C716.518 289.59 716.907 289.473 717.3 289.5C717.48 289.503 717.657 289.548 717.816 289.631C717.976 289.714 718.115 289.833 718.221 289.978C718.328 290.123 718.399 290.291 718.43 290.468C718.461 290.645 718.451 290.827 718.4 291L713.2 315.5C713.114 315.874 712.893 316.203 712.579 316.425C712.266 316.646 711.881 316.744 711.5 316.7Z" fill="#6DAFA7"/>
<path d="M723.9 316.4L730.1 287.6C730.177 287.214 730.392 286.869 730.705 286.63C731.018 286.39 731.407 286.273 731.8 286.3H732C732.183 286.304 732.363 286.348 732.528 286.429C732.692 286.51 732.837 286.626 732.951 286.769C733.066 286.912 733.148 287.079 733.19 287.257C733.233 287.435 733.237 287.621 733.2 287.8L727 316.6C726.902 316.995 726.667 317.342 726.338 317.58C726.008 317.818 725.605 317.931 725.2 317.9H725C724.818 317.903 724.638 317.862 724.475 317.781C724.311 317.7 724.17 317.581 724.062 317.435C723.955 317.288 723.884 317.117 723.855 316.937C723.827 316.757 723.842 316.573 723.9 316.4Z" fill="#6DAFA7"/>
<path d="M737.4 317.5L744.4 284.6C744.498 284.171 744.74 283.788 745.086 283.515C745.431 283.242 745.86 283.096 746.3 283.1C746.507 283.099 746.712 283.146 746.899 283.237C747.085 283.328 747.248 283.461 747.374 283.626C747.5 283.791 747.586 283.983 747.625 284.187C747.664 284.39 747.656 284.6 747.6 284.8L740.6 317.7C740.487 318.14 740.227 318.529 739.863 318.801C739.5 319.074 739.054 319.215 738.6 319.2C738.4 319.189 738.206 319.132 738.031 319.035C737.856 318.938 737.706 318.803 737.59 318.639C737.475 318.476 737.398 318.289 737.365 318.092C737.332 317.894 737.344 317.692 737.4 317.5Z" fill="#6DAFA7"/>
<path d="M787.4 255.4L789.7 260.3C786.9 263.5 783.5 265.5 780.3 265.5C774.1 265.5 770.8 258 772.8 248.7C774.8 239.4 781.4 231.5 787.7 231C791 230.7 793.5 232.4 795 235.4L790.6 240.6C790.265 239.75 789.667 239.029 788.894 238.543C788.12 238.058 787.211 237.832 786.3 237.9C782.5 238.2 778.5 242.9 777.2 248.6C775.9 254.3 778 258.8 781.8 258.7C784.022 258.362 786.028 257.18 787.4 255.4Z" fill="#6DAFA7"/>
<path d="M796 247.6C794.987 252.241 792.859 256.565 789.8 260.2L787.5 255.3C789.355 253.158 790.629 250.575 791.2 247.8C791.83 245.377 791.654 242.814 790.7 240.5L795.1 235.3C796.6 238.4 797 242.7 796 247.6Z" fill="#FFE779"/>
<path d="M760.7 303.9C758.7 313.2 762 320.7 768.2 320.7C771.4 320.7 774.8 318.7 777.6 315.5L775.3 310.6C773.919 312.353 771.911 313.5 769.7 313.8C765.9 313.9 763.9 309.3 765.1 303.7C765.616 301.262 766.675 298.971 768.2 297L766.1 292.4C763.456 295.777 761.609 299.708 760.7 303.9Z" fill="#6DAFA7"/>
<path d="M774.2 293.1C775.11 293.04 776.015 293.269 776.787 293.754C777.559 294.238 778.159 294.955 778.5 295.8L782.9 290.6C781.4 287.6 778.8 285.9 775.6 286.2C772.2 286.5 768.8 288.9 766 292.4L768.1 297C769.9 294.8 772 293.2 774.2 293.1Z" fill="#FFE779"/>
<path d="M783.8 303C782.787 307.641 780.659 311.966 777.6 315.6L775.3 310.7C777.155 308.558 778.429 305.976 779 303.2C779.63 300.777 779.454 298.215 778.5 295.9L782.9 290.7C784.4 293.7 784.9 298.1 783.8 303Z" fill="#F8AB5D"/>
<path d="M720.2 254.2L744.8 253.3" stroke="#6DAFA7" stroke-width="1.8" stroke-linecap="round" stroke-linejoin="round"/>
<path d="M718.8 259.8L754 259.4" stroke="#6DAFA7" stroke-width="1.8" stroke-linecap="round" stroke-linejoin="round"/>
<path d="M717.7 265.6H753.3" stroke="#6DAFA7" stroke-width="1.8" stroke-linecap="round" stroke-linejoin="round"/>
<path d="M445.3 439.5V439.8C445.301 440.037 445.256 440.272 445.166 440.491C445.076 440.71 444.943 440.909 444.776 441.076C444.608 441.243 444.409 441.376 444.19 441.466C443.971 441.556 443.737 441.602 443.5 441.6H358.7C358.463 441.602 358.229 441.556 358.01 441.466C357.791 441.376 357.592 441.243 357.424 441.076C357.257 440.909 357.124 440.71 357.034 440.491C356.944 440.272 356.899 440.037 356.9 439.8C356.938 439.172 357.185 438.574 357.6 438.1L374 421.9C374.739 421.147 375.745 420.715 376.8 420.7H432.5C433.205 420.71 433.896 420.898 434.508 421.248C435.121 421.598 435.634 422.098 436 422.7L445 438.2C445.137 438.624 445.237 439.059 445.3 439.5Z" fill="#22272E"/>
<path d="M792 504.3C792 504.3 749.6 494.8 740 528.4C730.4 562 733.4 594.2 733.4 594.2" stroke="#22272E" stroke-width="1.8" stroke-linecap="round" stroke-linejoin="round"/>
<path d="M740.1 528.4C740.1 528.4 732.4 511.9 751.7 501.5C771 491.1 797.8 501.4 795.4 505C791.659 510.863 787.409 516.384 782.7 521.5C776.6 528.2 759.1 538.6 740.1 528.4Z" fill="#38736C"/>
<path d="M701.9 566.2L708.8 647.5C708.8 650.6 721.4 653 737 653C752.6 653 765.2 650.5 765.2 647.5L772.1 566.2H701.9Z" fill="#DEF1EA"/>
<path d="M737 571.5C756.33 571.5 772 569.127 772 566.2C772 563.273 756.33 560.9 737 560.9C717.67 560.9 702 563.273 702 566.2C702 569.127 717.67 571.5 737 571.5Z" fill="#6DAFA7"/>
<path d="M738.4 564.9C738.4 564.9 731 538.9 719.5 526.1C708 513.3 672.3 528 666 558.9" stroke="#22272E" stroke-width="1.8" stroke-linecap="round" stroke-linejoin="round"/>
<path d="M728.1 549.3C728.1 549.3 716.8 543.7 709.5 556.3C702.2 568.9 707.6 587.9 712.6 590.7C717.6 593.5 738.4 584 738.4 564.9C738.4 547.9 728.1 549.3 728.1 549.3Z" fill="#438E85"/>
<path d="M719.5 526.2C719.5 526.2 707.6 507.7 683.8 519.6C660 531.5 660.7 564.3 664.4 566.2C668.1 568.1 723.8 548.7 719.5 526.2Z" fill="#5C9790"/>
<path d="M751.7 536.6C751.7 536.6 741.6 533.1 737 545.6C732.5 557.8 737.8 585.6 763.8 594C764.472 594.208 765.189 594.214 765.865 594.019C766.54 593.823 767.143 593.434 767.6 592.9C774.105 585.03 777.613 575.11 777.5 564.9C777.4 544.6 766.2 529.9 751.7 536.6Z" fill="#6DAFA7"/>
<path d="M539 402.8C539 402.8 539.4 415.4 557.6 416.6C575.8 417.8 611 413.8 617.9 411.9C624.8 410 624.4 398.9 620 395.8C615.6 392.7 589.2 391.3 575.7 389.3C572.6 388.8 569 388.2 565.3 387.9C562.145 387.569 558.972 387.436 555.8 387.5C546.7 387.9 539.1 391.4 539 402.8Z" fill="#FF9B21"/>
<path d="M664.9 330.9C668.2 332 670.6 334.6 674.8 347.3C680.3 363.9 687.3 399.1 683.7 408.6C680.1 418.1 672.9 423 648.7 424.1C624.5 425.2 601 423.3 597.9 423.3C594.8 423.3 589.6 411.9 592.9 404.4C592.9 404.4 613.4 399.4 625 396.3C636.6 393.2 649.4 389.9 654.7 389.3C654.7 389.3 646.1 368.2 643.3 360.8C640.5 353.4 642.8 340.8 649.4 335.1C656 329.4 662.1 330 664.9 330.9Z" fill="#FF9B21"/>
<path d="M329.6 377.758C329.6 377.758 330.918 385.084 352.494 391.496C374.07 397.909 406.132 399.091 410.519 399.941C414.907 400.792 415.912 402.227 419.771 404.542C428.841 410.223 433.138 411.613 434.705 411.722C437.84 411.94 440.055 410.774 440.57 408.945C441.085 407.115 442.633 407.45 443.729 406.207C445.73 403.844 444.997 402.928 445.359 402.908C445.721 402.888 448.765 403.645 449.699 403.255C452.191 402.018 451.948 400.09 451.948 400.09C454.64 400.905 457.264 401.924 459.799 403.138C463.867 405.104 467.021 405.096 466.745 403.029C466.469 400.963 458.661 396.871 453.773 393.939C448.886 391.006 447.118 390.064 446.88 389.683C445.361 387.94 442.355 384.592 440.45 383.686C438.544 382.78 435.595 383.03 430.926 382.842C425.658 382.589 420.454 381.662 415.439 380.083C410.865 378.764 383.112 364.961 364.847 358.278C362.27 357.326 359.864 356.476 357.749 355.92C355.686 355.288 353.567 354.852 351.418 354.615C339.565 354.156 324.056 362.314 329.6 377.758Z" fill="#B39C9E"/>
<path d="M594.9 404.6C594.9 404.6 589.6 405.1 584.2 405.1C578.8 405.1 571.5 406 569.8 406.8C568.1 407.6 550.9 424.8 551.3 427.1C551.7 429.4 554.9 427.9 557.7 426C560.5 424.1 565.7 418.9 566.8 418.2C565.723 420.803 564.821 423.476 564.1 426.2C562.8 431 561.5 435.8 562.8 436.6C564.5 437.6 566.1 435.9 566.6 434.9C566.6 434.9 566.5 437.4 568.5 437.5C570.5 437.6 572.4 433.8 574 430.6C575.509 428.007 577.214 425.533 579.1 423.2C579.1 423.2 577.5 428.3 576.9 431.1C576.3 433.9 575.9 437.2 577.4 437.5C579.7 438 581.8 431.2 583.1 428.6C584.4 426 589.5 427.7 593.2 425.4C595.006 424.171 596.953 423.163 599 422.4C599 422.4 601.5 419.9 601.5 414.5C601.5 409.1 597 404.4 594.9 404.6Z" fill="#FFE9EC"/>
<path d="M610.8 394.4C613.416 393.531 615.986 392.529 618.5 391.4C622.2 389.7 623.7 389 626.6 388.8C629.5 388.6 638.6 388.5 639.9 389.3C641.2 390.1 642.9 393.9 643.8 395.8C644.7 397.7 641.8 405.2 641.8 405.2C641.8 405.2 643.1 411.8 641.5 412.5C640.5 412.9 639.6 412.7 638.3 409.2C638.3 409.2 639.2 412.2 637.4 412.4C635.6 412.6 633.6 407.4 632.3 405.1C631.172 403.269 629.902 401.531 628.5 399.9C628.5 399.9 629.6 403.5 629.8 404.7C630 405.9 630.8 409 630.3 410.2C629.8 411.4 628 409.8 626.2 405.7C624.4 401.6 623.8 400.2 622.7 400.3C616.5 400.9 616.9 399.5 613.9 399.3L607.3 401C607.2 400.9 606.5 396.9 610.8 394.4Z" fill="#FFE9EC"/>
</svg>
