<svg width="447" height="78" fill="none" xmlns="http://www.w3.org/2000/svg"><g clip-path="url(#a)"><path d="m4.187 53.88.553.618 27.908 7.788.126-4.828L13.23 52.63l-.957-.34-8.085 1.59" fill="silver"/><path d="M60.812 53.88 32.31 63.248l-.085-5.788 19.545-4.83.852-.943 8.19 2.194" fill="silver"/><path d="m32.225 20.794 19.545 4.484 8.596-.401.446-.848-27.233-9.65-1.354 6.415" fill="#AFAFAF"/><path d="m13.229 52.63-9.042 1.25-.251-.924V25.002l.251-.973 8.17.598.872.652v27.35Z" fill="#fff"/><path d="M32.774 20.794 13.23 25.278l-9.042-1.25.341-.526 28.12-7.879.126 5.17" fill="#AFAFAF"/><path d="M32.46.005 0 16.135l.015 45.648 32.446 16.122.483-.723V.942l-.483-.937ZM22.97 59.43 4.187 53.88V24.03l18.782-5.547V59.43Zm28.801-6.8 9.042 1.25.506-.882V24.877l-.506-.848-9.042 1.25v27.35" fill="#9D9D9D"/><path d="m32.46 77.905 32.524-16.121L65 16.137 32.46.005v77.9Zm9.57-59.423 18.782 5.547V53.88L42.03 59.43V18.482Z" fill="#fff"/></g><path d="M109.032 55.636c-2.592.992-5.488 1.488-8.688 1.488-5.408 0-9.504-1.44-12.288-4.32-2.784-2.912-4.176-7.168-4.176-12.768 0-5.536 1.456-9.824 4.368-12.864 2.912-3.04 7.008-4.56 12.288-4.56 2.816 0 5.488.448 8.016 1.344v5.664c-2.912-.64-5.296-.96-7.152-.96-3.328 0-5.824.88-7.488 2.64-1.632 1.76-2.448 4.448-2.448 8.064v1.104c0 3.584.8 6.256 2.4 8.016 1.6 1.728 4.048 2.592 7.344 2.592 1.856 0 4.464-.368 7.824-1.104v5.664Zm15.659.384c-1.344.544-2.784.816-4.32.816-4.32 0-6.48-2.416-6.48-7.248V20.98h7.008v28.032c0 .896.144 1.536.432 1.92.32.352.832.528 1.536.528.448 0 1.056-.048 1.824-.144v4.704Zm15.237 1.2c-3.808 0-6.784-1.136-8.928-3.408-2.144-2.304-3.216-5.504-3.216-9.6 0-4.064 1.072-7.232 3.216-9.504 2.144-2.304 5.12-3.456 8.928-3.456 3.808 0 6.784 1.152 8.928 3.456 2.144 2.272 3.216 5.44 3.216 9.504 0 4.096-1.072 7.296-3.216 9.6-2.144 2.272-5.12 3.408-8.928 3.408Zm0-5.376c3.36 0 5.04-2.544 5.04-7.632 0-5.056-1.68-7.584-5.04-7.584-3.36 0-5.04 2.528-5.04 7.584 0 5.088 1.68 7.632 5.04 7.632Zm33.924 4.656-.672-2.592c-2.848 2.208-5.824 3.312-8.928 3.312-2.176 0-3.872-.64-5.088-1.92-1.216-1.312-1.824-3.104-1.824-5.376V31.972h7.008v15.984c0 2.592 1.12 3.888 3.36 3.888 1.664 0 3.296-.512 4.896-1.536V31.972h7.008V56.5h-5.76Zm29.021 0-.576-2.16c-1.984 1.792-4.336 2.688-7.056 2.688-2.016 0-3.792-.496-5.328-1.488-1.536-1.024-2.736-2.496-3.6-4.416-.832-1.92-1.248-4.176-1.248-6.768 0-3.968.944-7.136 2.832-9.504 1.888-2.4 4.384-3.6 7.488-3.6 2.528 0 4.72.72 6.576 2.16V20.98h7.008V56.5h-6.096Zm-5.328-4.752c1.536 0 3.008-.448 4.416-1.344V37.732c-1.376-.8-2.96-1.2-4.752-1.2-1.696 0-2.96.64-3.792 1.92-.832 1.248-1.248 3.152-1.248 5.712 0 2.56.432 4.464 1.296 5.712.896 1.248 2.256 1.872 4.08 1.872Zm18.639 4.752V23.236h20.928v5.568h-13.728v8.352h10.944v5.568h-10.944V56.5h-7.2Zm35.869.72c-3.808 0-6.784-1.136-8.928-3.408-2.144-2.304-3.216-5.504-3.216-9.6 0-4.064 1.072-7.232 3.216-9.504 2.144-2.304 5.12-3.456 8.928-3.456 3.808 0 6.784 1.152 8.928 3.456 2.144 2.272 3.216 5.44 3.216 9.504 0 4.096-1.072 7.296-3.216 9.6-2.144 2.272-5.12 3.408-8.928 3.408Zm0-5.376c3.36 0 5.04-2.544 5.04-7.632 0-5.056-1.68-7.584-5.04-7.584-3.36 0-5.04 2.528-5.04 7.584 0 5.088 1.68 7.632 5.04 7.632Zm17.604 4.656V31.972h5.76l.864 3.648c1.28-1.408 2.48-2.4 3.6-2.976a7.707 7.707 0 0 1 3.648-.912c.608 0 1.248.048 1.92.144v6.48c-.896-.192-1.888-.288-2.976-.288-2.08 0-4.016.368-5.808 1.104V56.5h-7.008Zm49.837 0V39.892c0-2.176-.976-3.264-2.928-3.264-1.728 0-3.472.416-5.232 1.248V56.5h-7.008V39.892c0-2.176-.976-3.264-2.928-3.264-1.792 0-3.552.432-5.28 1.296V56.5h-7.008V31.972h5.76l.624 2.352c1.696-1.12 3.216-1.904 4.56-2.352 1.376-.48 2.784-.72 4.224-.72 2.88 0 4.912 1.024 6.096 3.072 1.632-1.088 3.168-1.872 4.608-2.352 1.44-.48 2.928-.72 4.464-.72 2.24 0 3.968.624 5.184 1.872 1.248 1.248 1.872 2.992 1.872 5.232V56.5h-7.008Zm27.696 0-.576-2.16a11.913 11.913 0 0 1-3.456 2.16c-1.28.512-2.528.768-3.744.768-2.368 0-4.272-.672-5.712-2.016-1.408-1.344-2.112-3.136-2.112-5.376 0-1.536.384-2.88 1.152-4.032.768-1.184 1.872-2.112 3.312-2.784 1.44-.672 3.136-1.008 5.088-1.008 1.536 0 3.232.208 5.088.624v-2.4c0-1.472-.304-2.48-.912-3.024-.608-.544-1.728-.816-3.36-.816-2.624 0-5.52.496-8.688 1.488v-4.656c1.184-.608 2.672-1.088 4.464-1.44a26.042 26.042 0 0 1 5.472-.576c3.296 0 5.696.672 7.2 2.016 1.536 1.312 2.304 3.392 2.304 6.24V56.5h-5.52Zm-5.808-3.936c.8 0 1.616-.176 2.448-.528a9.203 9.203 0 0 0 2.4-1.44V46.42c-1.408-.224-2.672-.336-3.792-.336-2.784 0-4.176 1.12-4.176 3.36 0 .992.272 1.76.816 2.304.544.544 1.312.816 2.304.816Zm32.539 3.312c-1.728.672-3.664 1.008-5.808 1.008-2.72 0-4.736-.64-6.048-1.92-1.28-1.28-1.92-3.264-1.92-5.952V37.156h-3.696v-4.32l3.888-.768 1.056-6.72h5.76v6.624h6.624v5.184h-6.624v11.52c0 1.024.256 1.744.768 2.16.512.416 1.376.624 2.592.624.992 0 2.128-.096 3.408-.288v4.704Zm4.49.624V31.972h7.008V56.5h-7.008Zm3.504-28.32c-1.216 0-2.192-.336-2.928-1.008-.736-.672-1.104-1.584-1.104-2.736 0-1.152.368-2.064 1.104-2.736.736-.672 1.712-1.008 2.928-1.008s2.192.336 2.928 1.008c.736.672 1.104 1.584 1.104 2.736 0 1.152-.368 2.064-1.104 2.736-.736.672-1.712 1.008-2.928 1.008Zm21.31 29.04c-3.808 0-6.784-1.136-8.928-3.408-2.144-2.304-3.216-5.504-3.216-9.6 0-4.064 1.072-7.232 3.216-9.504 2.144-2.304 5.12-3.456 8.928-3.456 3.808 0 6.784 1.152 8.928 3.456 2.144 2.272 3.216 5.44 3.216 9.504 0 4.096-1.072 7.296-3.216 9.6-2.144 2.272-5.12 3.408-8.928 3.408Zm0-5.376c3.36 0 5.04-2.544 5.04-7.632 0-5.056-1.68-7.584-5.04-7.584-3.36 0-5.04 2.528-5.04 7.584 0 5.088 1.68 7.632 5.04 7.632Zm33.348 4.656V40.42c0-1.312-.288-2.272-.864-2.88-.576-.608-1.456-.912-2.64-.912-1.76 0-3.504.544-5.232 1.632V56.5h-7.008V31.972h5.76l.672 2.64c2.88-2.24 5.952-3.36 9.216-3.36 2.272 0 4.016.624 5.232 1.872 1.248 1.216 1.872 2.96 1.872 5.232V56.5h-7.008Z" fill="#fff"/><defs><clipPath id="a"><path fill="#fff" d="M0 0h65v78H0z"/></clipPath></defs></svg>