<svg width="54" height="32" fill="none" xmlns="http://www.w3.org/2000/svg"><g clip-path="url(#a)" fill="#fff"><path d="M15.192 11.675c0 .65.07 1.178.193 1.564.141.387.317.81.563 1.266.088.141.123.282.123.405 0 .176-.105.351-.334.527l-1.108.739a.843.843 0 0 1-.457.158c-.176 0-.351-.088-.527-.246a5.434 5.434 0 0 1-.633-.827 13.619 13.619 0 0 1-.545-1.037c-1.372 1.618-3.095 2.427-5.17 2.427-1.476 0-2.654-.422-3.516-1.267-.861-.843-1.301-1.969-1.301-3.375 0-1.495.527-2.708 1.6-3.622 1.072-.915 2.497-1.372 4.308-1.372.597 0 1.213.053 1.863.141.65.088 1.32.229 2.022.387V6.259c0-1.336-.281-2.268-.826-2.813-.563-.545-1.512-.809-2.866-.809a8 8 0 0 0-1.899.229c-.65.158-1.283.351-1.899.598a5.045 5.045 0 0 1-.615.228 1.079 1.079 0 0 1-.281.053c-.247 0-.37-.176-.37-.545v-.862c0-.28.035-.492.123-.615s.247-.246.493-.37c.615-.316 1.354-.58 2.215-.79A10.66 10.66 0 0 1 9.091.228c2.092 0 3.622.475 4.607 1.425.967.95 1.459 2.39 1.459 4.325v5.697h.035Zm-7.138 2.672c.58 0 1.178-.105 1.81-.316.633-.211 1.196-.598 1.67-1.126a2.79 2.79 0 0 0 .599-1.125 6.31 6.31 0 0 0 .176-1.53v-.738a14.68 14.68 0 0 0-1.618-.299 13.247 13.247 0 0 0-1.653-.105c-1.178 0-2.04.228-2.62.703-.58.475-.861 1.143-.861 2.022 0 .826.21 1.442.65 1.864.422.44 1.038.65 1.847.65Zm14.118 1.9c-.316 0-.527-.054-.668-.177-.14-.105-.264-.351-.37-.686l-4.131-13.59c-.105-.352-.158-.58-.158-.704 0-.281.14-.44.422-.44h1.723c.334 0 .563.053.686.176.14.106.246.352.351.686l2.954 11.64 2.743-11.64c.088-.352.193-.58.334-.686.14-.105.387-.176.703-.176h1.407c.334 0 .563.053.703.176.14.106.264.352.334.686l2.778 11.78 3.042-11.78c.105-.352.229-.58.352-.686.14-.105.369-.176.685-.176h1.636c.28 0 .44.141.44.44 0 .088-.018.176-.036.281a2.497 2.497 0 0 1-.123.44l-4.237 13.591c-.106.352-.23.58-.37.686-.14.105-.369.176-.668.176h-1.512c-.334 0-.563-.053-.703-.176s-.264-.352-.334-.704l-2.726-11.34-2.707 11.323c-.088.352-.194.58-.334.703-.141.123-.387.176-.704.176h-1.512Zm22.594.474c-.915 0-1.829-.106-2.708-.317-.88-.21-1.565-.44-2.022-.703-.281-.158-.475-.334-.545-.492a1.242 1.242 0 0 1-.106-.493v-.896c0-.37.141-.545.405-.545.105 0 .21.017.316.052.106.036.264.106.44.176a9.562 9.562 0 0 0 1.934.616c.703.14 1.389.21 2.092.21 1.108 0 1.97-.193 2.567-.58.598-.386.915-.95.915-1.67 0-.492-.159-.897-.475-1.23-.317-.335-.914-.634-1.776-.915l-2.55-.791c-1.283-.405-2.232-1.002-2.813-1.794-.58-.773-.879-1.635-.879-2.55 0-.738.158-1.388.475-1.95a4.522 4.522 0 0 1 1.266-1.442A5.58 5.58 0 0 1 43.13.492c.704-.21 1.442-.299 2.216-.299.387 0 .791.018 1.178.07.404.053.773.124 1.143.194.351.088.685.176 1.002.281.316.106.563.211.738.317.247.14.422.281.528.44.105.14.158.333.158.58V2.9c0 .37-.14.563-.404.563-.14 0-.37-.07-.668-.211-1.003-.457-2.128-.686-3.376-.686-1.002 0-1.794.158-2.339.492-.545.334-.826.844-.826 1.565 0 .492.176.914.527 1.248.352.335 1.003.669 1.934.967l2.497.792c1.266.404 2.18.967 2.725 1.688.546.72.81 1.547.81 2.461a4.52 4.52 0 0 1-.458 2.04 4.73 4.73 0 0 1-1.283 1.547c-.545.44-1.196.756-1.952.985a8.362 8.362 0 0 1-2.514.369Z"/><path fill-rule="evenodd" clip-rule="evenodd" d="M48.089 25.266c-5.785 4.272-14.19 6.54-21.416 6.54-10.127 0-19.252-3.745-26.145-9.969-.545-.492-.052-1.16.598-.773 7.455 4.325 16.65 6.945 26.163 6.945 6.417 0 13.468-1.337 19.956-4.08.967-.439 1.793.634.844 1.337Z"/><path fill-rule="evenodd" clip-rule="evenodd" d="M50.498 22.523c-.739-.95-4.888-.457-6.77-.229-.562.07-.65-.422-.14-.79 3.305-2.322 8.738-1.654 9.371-.88.633.791-.176 6.224-3.27 8.826-.475.405-.932.194-.721-.334.703-1.74 2.268-5.661 1.53-6.593Z"/></g><defs><clipPath id="a"><path fill="#fff" d="M0 0h53.451v32H0z"/></clipPath></defs></svg>