<svg xmlns="http://www.w3.org/2000/svg" width="105" height="34" fill="none" xmlns:v="https://vecta.io/nano"><path d="M13.42 2a1.63 1.63 0 0 0-1.545 1.103l-9.788 28.75a1.62 1.62 0 0 0-.087.522A1.63 1.63 0 0 0 3.631 34h7.906a1.63 1.63 0 0 0 1.545-1.103l9.788-28.75a1.62 1.62 0 0 0 .087-.522A1.63 1.63 0 0 0 21.326 2H13.42z" fill="url(#A)"/><path d="M21.628 22.75l-9.589.125a.63.63 0 0 0-.627.625.62.62 0 0 0 .201.456L21.888 33.5c.269.25.692.5 1.263.5h11.476L21.628 22.75z" fill="#a6a6a6"/><path d="M13.42 2a1.63 1.63 0 0 0-1.545 1.103l-9.788 28.75 12.955-4.712 6.846 6.359c.269.25.692.5 1.263.5h11.476L21.628 22.75l-5.114.067 6.356-18.67L21.326 2H13.42z" fill="url(#B)"/><path d="M13.363 2a1.63 1.63 0 0 1 1.545 1.103l9.788 28.75a1.62 1.62 0 0 1 .086.522A1.63 1.63 0 0 1 23.151 34h11.351a1.63 1.63 0 0 0 1.631-1.625 1.62 1.62 0 0 0-.087-.522l-9.788-28.75A1.63 1.63 0 0 0 24.714 2H13.363z" fill="url(#C)"/><path d="M75.175 28.85c-2.273-.155-3.594-1.536-3.945-4.12-.093-.687-.093-.705-.103-5.167l-.009-4.319h1.006 1.006l.008 4.177.045 4.471c.137 1.075.41 1.798.874 2.317.371.415.806.658 1.408.787.284.061 1.092.061 1.351 0 .61-.143 1.1-.427 1.531-.887.492-.524.856-1.268 1.032-2.11l.059-.284.007-4.213.007-4.213h1.027 1.027v6.622 6.622h-1.016-1.016v-1.051l-.023-1.043c-.013.005-.065.09-.116.189-.35.681-.934 1.304-1.573 1.68-.766.45-1.535.61-2.585.538zm23.068-.011c-.802-.064-1.647-.358-2.337-.814-1.455-.96-2.316-2.543-2.568-4.721-.087-.754-.098-1.766-.025-2.407.163-1.431.69-2.836 1.441-3.839.192-.257.629-.723.87-.928.651-.554 1.412-.942 2.221-1.131a6.78 6.78 0 0 1 1.801-.112c1.257.124 2.409.755 3.192 1.749.796 1.009 1.233 2.42 1.289 4.157l.004 1.06-.011.566-4.402.006-4.402.006v.21c0 .638.145 1.364.397 1.983.217.533.59 1.115.895 1.397.626.578 1.393.923 2.232 1.006a8.17 8.17 0 0 0 1.458-.06c1.011-.166 1.973-.589 2.749-1.21l.194-.152c.023-.015.029.176.028.978l-.001.997-.208.137c-.878.579-1.884.951-2.95 1.091a15.87 15.87 0 0 1-1.865.03zm3.832-8.408c0-1.069-.423-2.256-1.02-2.867-.426-.436-.942-.703-1.554-.804-.29-.048-.901-.029-1.206.036-.646.139-1.18.442-1.647.933-.49.517-.858 1.145-1.09 1.86a6.3 6.3 0 0 0-.211.915l-.014.112h3.371 3.371v-.186zm-59.716 8.075l3.322-9.309 3.313-9.279h1.064 1.064l.088.242 6.632 18.365c0 .006-.509.011-1.132.011h-1.132l-.917-2.604-.917-2.604h-3.692-3.692l-.032.088a852.39 852.39 0 0 0-.87 2.604l-.839 2.515h-1.135c-.898 0-1.133-.006-1.125-.029zM53.07 21.34a1792.93 1792.93 0 0 0-1.371-3.965l-1.601-4.971c-.052-.306-.079-.315-.11-.035-.022.2-.118.647-.192.896l-1.412 4.134-1.345 3.93c0 .011 1.357.02 3.016.02l3.016-.008zm5.457 6.856v-.339l3.678-5.394 3.678-5.393-3.33-.012-3.33-.012-.006-.901-.006-.901h4.817 4.817v.304.305l-3.679 5.423-3.679 5.434c0 .006 1.636.011 3.634.011h3.634v.907.907h-5.115-5.115v-.339zm26.991.323c-.008-.009-.015-2.999-.015-6.646v-6.63h1.005 1.005v1.367l.019 1.367c.01 0 .059-.123.109-.273.226-.689.618-1.333 1.123-1.845.455-.461.975-.737 1.588-.842.172-.03.318-.035.663-.026.433.012.659.046.922.138l.083.029v1.113 1.113l-.238-.127c-.419-.224-.834-.313-1.331-.285-.324.018-.537.062-.795.166-.533.213-.965.59-1.267 1.104a6.7 6.7 0 0 0-.841 2.579c-.016.158-.026 1.442-.03 3.974l-.006 3.741h-.99c-.545 0-.997-.007-1.005-.016z" fill="#fff"/><defs><linearGradient id="A" x1="2" y1="2" x2="2" y2="34" gradientUnits="userSpaceOnUse"><stop stop-color="#b3b3b3"/><stop offset="1" stop-color="#e6e6e6"/></linearGradient><linearGradient id="B" x1="21.606" y1="32.897" x2="24.693" y2="31.846" gradientUnits="userSpaceOnUse"><stop stop-opacity="0"/><stop offset=".5" stop-opacity=".025"/><stop offset="1" stop-opacity=".125"/></linearGradient><linearGradient id="C" x1="36.133" y1="2" x2="36.133" y2="34" gradientUnits="userSpaceOnUse"><stop stop-color="#fff"/><stop offset="1" stop-color="#ccc"/></linearGradient></defs></svg>