<svg xmlns="http://www.w3.org/2000/svg" width="24" height="24" viewBox="0 0 24 24" version="1.1"><path fill="white" fill-rule="evenodd" d="M 5.773438 0.0117188 L 17.976562 0.0117188 C 18.445312 0.0117188 18.824219 0.386719 18.824219 0.859375 L 18.824219 1.707031 L 19.414062 1.707031 C 19.738281 1.707031 20.050781 1.835938 20.28125 2.066406 C 20.511719 2.296875 20.640625 2.609375 20.640625 2.9375 L 20.640625 3.449219 L 21.179688 3.449219 C 21.503906 3.449219 21.816406 3.578125 22.046875 3.808594 C 22.277344 4.039062 22.40625 4.351562 22.40625 4.675781 L 22.40625 22.152344 C 22.40625 22.832031 21.855469 23.382812 21.175781 23.386719 L 2.578125 23.386719 C 1.898438 23.382812 1.347656 22.832031 1.34375 22.152344 L 1.34375 4.675781 C 1.34375 4.351562 1.472656 4.039062 1.703125 3.808594 C 1.933594 3.578125 2.246094 3.449219 2.574219 3.449219 L 3.109375 3.449219 L 3.109375 2.9375 C 3.109375 2.609375 3.238281 2.296875 3.46875 2.066406 C 3.699219 1.835938 4.011719 1.707031 4.339844 1.707031 L 4.925781 1.707031 L 4.925781 0.859375 C 4.925781 0.386719 5.304688 0.0117188 5.773438 0.0117188 Z M 5.222656 7.589844 C 5.222656 6.296875 6.269531 5.25 7.558594 5.25 C 8.851562 5.25 9.898438 6.296875 9.898438 7.589844 C 9.898438 8.570312 9.292969 9.410156 8.4375 9.757812 L 8.4375 13.738281 L 15.488281 11.410156 L 15.488281 9.804688 C 14.585938 9.457031 13.988281 8.589844 13.988281 7.621094 C 13.988281 6.328125 15.035156 5.285156 16.328125 5.28125 C 17.617188 5.285156 18.664062 6.328125 18.667969 7.621094 C 18.664062 8.574219 18.089844 9.429688 17.207031 9.785156 L 17.207031 12.53125 L 17.1875 12.53125 L 17.207031 12.566406 L 8.472656 15.453125 L 8.472656 17.296875 C 9.339844 17.664062 9.902344 18.511719 9.902344 19.453125 C 9.902344 20.746094 8.855469 21.792969 7.566406 21.792969 C 6.273438 21.792969 5.226562 20.746094 5.226562 19.453125 C 5.226562 18.5 5.808594 17.640625 6.691406 17.285156 L 6.691406 14.3125 L 6.707031 14.3125 L 6.707031 9.765625 C 5.8125 9.414062 5.222656 8.550781 5.222656 7.589844 Z M 6.042969 7.582031 C 6.042969 8.421875 6.71875 9.101562 7.558594 9.101562 C 8.398438 9.101562 9.078125 8.421875 9.078125 7.582031 C 9.078125 6.746094 8.398438 6.066406 7.558594 6.066406 C 6.722656 6.066406 6.042969 6.746094 6.042969 7.582031 Z M 9.078125 19.460938 C 9.078125 20.296875 8.398438 20.976562 7.5625 20.976562 C 6.722656 20.976562 6.042969 20.296875 6.042969 19.460938 C 6.042969 18.621094 6.722656 17.941406 7.558594 17.941406 C 8.398438 17.941406 9.078125 18.621094 9.078125 19.460938 Z M 16.328125 9.132812 C 15.488281 9.136719 14.808594 8.453125 14.808594 7.617188 C 14.808594 6.777344 15.488281 6.097656 16.328125 6.097656 C 17.167969 6.097656 17.847656 6.777344 17.847656 7.617188 C 17.847656 8.457031 17.160156 9.132812 16.328125 9.132812 Z M 16.328125 9.132812 "></path></svg>
