<svg width="156" height="30" fill="none" xmlns="http://www.w3.org/2000/svg"><path d="M1.218 5.173a.696.696 0 0 0-.696.807L3.474 23.9a.946.946 0 0 0 .925.79h14.162a.696.696 0 0 0 .695-.585l2.96-18.118a.694.694 0 0 0-.696-.807L1.218 5.173Zm12.43 12.952h-4.52l-1.224-6.39h6.84l-1.096 6.39Z" fill="#fff"/><path d="M21.27 11.734h-6.527l-1.095 6.39h-4.52l-5.337 6.34c.169.146.384.227.608.229h14.165a.695.695 0 0 0 .696-.584l2.01-12.375Z" fill="url(#a)"/><path d="M41.158 4.589c4.099 0 6.088 2.02 6.088 5.264 0 2.434-1.102 3.915-3.366 4.468 2.97.49 4.437 2.11 4.437 4.958 0 3.213-2.173 5.417-6.67 5.417h-8.292V4.59h7.803Zm-5.049 2.632v5.994h4.68c2.6 0 3.672-1.192 3.672-3.129S43.3 7.211 40.789 7.211l-4.68.01Zm0 8.446v6.258h5.63c2.631 0 3.824-.949 3.824-2.97 0-2.141-1.134-3.302-3.884-3.302l-5.57.014ZM52.816 3.518a1.718 1.718 0 0 1 1.836 1.836 1.836 1.836 0 1 1-3.672 0 1.718 1.718 0 0 1 1.836-1.836ZM51.47 9.391h2.633v15.298H51.47V9.391ZM64.151 22.123a8.34 8.34 0 0 0 1.651-.215v2.538a6.321 6.321 0 0 1-1.773.243c-3.275 0-4.867-1.926-4.867-4.773v-8.078h-2.48V9.405h2.48V6.15h2.555v3.244h4.068v2.434h-4.068v8.028c0 1.346.796 2.267 2.434 2.267ZM76.65 24.995c-2.232 0-3.946-1.008-4.867-2.997v2.691H69.15V3h2.65v9.145c.98-2.02 2.816-3.06 5.17-3.06 4.068 0 6.119 3.456 6.119 7.955-.014 4.315-2.156 7.955-6.44 7.955Zm-.4-13.463c-2.364 0-4.45 1.503-4.45 4.896v1.224c0 3.397 1.927 4.896 4.173 4.896 2.969 0 4.499-1.958 4.499-5.508-.028-3.672-1.495-5.507-4.221-5.507ZM85.83 9.39h2.632v9.256c0 2.754 1.102 3.978 3.61 3.978 2.433 0 4.13-1.62 4.13-4.711V9.39h2.632v15.298h-2.632v-2.506a5.367 5.367 0 0 1-4.833 2.816c-3.519 0-5.539-2.434-5.539-6.641V9.39ZM113.611 24.293c-.918.49-2.326.695-3.734.695-5.445 0-7.997-3.303-7.997-7.997 0-4.62 2.538-7.924 7.997-7.924a8.084 8.084 0 0 1 3.647.755v2.434a7.71 7.71 0 0 0-3.477-.723c-3.978 0-5.598 2.51-5.598 5.476s1.666 5.462 5.675 5.462a9.671 9.671 0 0 0 3.477-.55l.01 2.372ZM116.612 24.69V3h2.632v13.56l6.578-7.159h3.428l-7.193 7.507 7.496 7.781h-3.581l-6.732-7.159v7.16h-2.628ZM138.273 24.995c-5.723 0-8.23-3.303-8.23-7.997 0-4.62 2.57-7.924 7.222-7.924 4.711 0 6.606 3.276 6.606 7.924v1.193h-11.168c.369 2.6 2.051 4.284 5.66 4.284a13.563 13.563 0 0 0 4.653-.828v2.434c-1.255.67-3.182.914-4.743.914Zm-5.598-9.04h8.536c-.153-2.844-1.439-4.468-4.068-4.468-2.788-.014-4.193 1.79-4.468 4.454v.014ZM153.05 22.123a8.34 8.34 0 0 0 1.652-.215v2.538a6.325 6.325 0 0 1-1.773.243c-3.276 0-4.868-1.926-4.868-4.773v-8.078h-2.479V9.405h2.479V6.15h2.569v3.244h4.068v2.434h-4.068v8.028c.004 1.346.793 2.267 2.42 2.267Z" fill="#fff"/><defs><linearGradient id="a" x1="22.778" y1="13.521" x2="11.993" y2="21.942" gradientUnits="userSpaceOnUse"><stop offset=".18" stop-color="#D1D1E0"/><stop offset="1" stop-color="#fff"/></linearGradient></defs></svg>