<svg width="135" height="32" fill="none" xmlns="http://www.w3.org/2000/svg"><path d="M14.096 19.334a3.334 3.334 0 1 0 0-6.668 3.334 3.334 0 0 0 0 6.668Z" fill="#FBFBFB"/><path d="M14.096 2C7.573 2 2.092 6.462.536 12.5a.667.667 0 0 0 .643.833h5.646c.269 0 .499-.16.604-.39l.011-.023a7.333 7.333 0 1 1 0 6.16.664.664 0 0 0-.616-.413H1.181a.667.667 0 0 0-.643.833C2.092 25.538 7.573 30 14.096 30c7.732 0 14-6.268 14-14s-6.268-14-14-14Zm36.607 17.282h-1.905a.41.41 0 0 0-.325.16 6.154 6.154 0 1 1 0-6.887.409.409 0 0 0 .325.162h1.905a.41.41 0 0 0 .366-.594 8.616 8.616 0 1 0 0 7.753.406.406 0 0 0-.366-.594Zm5.744-14.769a1.641 1.641 0 1 1-3.283 0 1.641 1.641 0 0 1 3.283 0Zm-.41 19.282v-16h-2.462v16a.41.41 0 0 0 .41.41h1.642a.408.408 0 0 0 .41-.41Zm10.672-16.4c-2.482.116-4.465 1.303-5.75 3.114V8.204a.41.41 0 0 0-.41-.41h-1.64a.41.41 0 0 0-.411.41v15.59c0 .227.183.41.41.41h1.641a.409.409 0 0 0 .41-.41V16a6.155 6.155 0 0 1 5.743-6.14.411.411 0 0 0 .411-.411V7.804a.41.41 0 0 0-.404-.41Zm16.348 11.887h-1.904a.408.408 0 0 0-.326.16 6.154 6.154 0 1 1 0-6.887.409.409 0 0 0 .326.162h1.904a.41.41 0 0 0 .365-.594 8.616 8.616 0 1 0 0 7.753.406.406 0 0 0-.365-.594Zm4.923-16.82h-1.641a.41.41 0 0 0-.41.41v20.923c0 .226.183.41.41.41h1.64a.41.41 0 0 0 .411-.41V2.87a.41.41 0 0 0-.41-.41Zm11.488 4.922a8.616 8.616 0 1 0 7.693 12.493.405.405 0 0 0-.165-.544.404.404 0 0 0-.2-.05h-1.904a.408.408 0 0 0-.331.168 6.145 6.145 0 0 1-5.093 2.703 6.154 6.154 0 0 1-6.099-5.333h14.293a.41.41 0 0 0 .409-.39 8.615 8.615 0 0 0-8.603-9.047Zm-5.931 6.975a6.156 6.156 0 0 1 5.93-4.513 6.157 6.157 0 0 1 5.932 4.513H93.537ZM131.912 2.05a2.463 2.463 0 1 0 0 4.926 2.463 2.463 0 0 0 0-4.926Zm2.052 5.743v16a.415.415 0 0 1-.411.41h-3.282a.409.409 0 0 1-.41-.41v-16h4.103Zm-14.805 16.822c4.022 0 7.396-2.756 8.347-6.48a.41.41 0 0 0-.4-.494h-3.472a.412.412 0 0 0-.373.239h-.001A4.511 4.511 0 0 1 114.647 16a4.512 4.512 0 0 1 8.613-1.88l.001-.001a.413.413 0 0 0 .373.24h3.472a.41.41 0 0 0 .4-.493A8.617 8.617 0 0 0 110.544 16a8.616 8.616 0 0 0 8.615 8.616Z" fill="#FBFBFB"/></svg>