<svg width="160" height="40" xmlns="http://www.w3.org/2000/svg"><defs><linearGradient x1="121.803%" y1="50%" x2="-379.74%" y2="50%" id="a"><stop stop-color="#fff" offset="0%"/><stop stop-color="#fff" offset="18%"/><stop stop-color="#fff" offset="34%"/><stop stop-color="#fff" offset="43%"/><stop stop-color="#fff" offset="51%"/><stop stop-color="#fff" offset="56%"/><stop stop-color="#fff" offset="58%"/><stop stop-color="#fff" offset="64%"/><stop stop-color="#fff" offset="69%"/><stop stop-color="#fff" offset="74%"/><stop stop-color="#fff" offset="77%"/><stop stop-color="#fff" offset="82%"/><stop stop-color="#fff" offset="87%"/><stop stop-color="#fff" offset="91%"/><stop stop-color="#fff" offset="95%"/></linearGradient><linearGradient x1="-71.182%" y1="49.976%" x2="113.592%" y2="49.976%" id="b"><stop stop-color="#fff" offset="0%"/><stop stop-color="#fff" offset="18%"/><stop stop-color="#fff" offset="34%"/><stop stop-color="#fff" offset="43%"/><stop stop-color="#fff" offset="51%"/><stop stop-color="#fff" offset="56%"/><stop stop-color="#fff" offset="58%"/><stop stop-color="#fff" offset="64%"/><stop stop-color="#fff" offset="69%"/><stop stop-color="#fff" offset="74%"/><stop stop-color="#fff" offset="77%"/><stop stop-color="#fff" offset="82%"/><stop stop-color="#fff" offset="87%"/><stop stop-color="#fff" offset="91%"/><stop stop-color="#fff" offset="95%"/></linearGradient><linearGradient x1="50%" y1="-376.458%" x2="50%" y2="142.7%" id="c"><stop stop-color="#fff" offset="0%"/><stop stop-color="#fff" offset="18%"/><stop stop-color="#fff" offset="34%"/><stop stop-color="#fff" offset="43%"/><stop stop-color="#fff" offset="51%"/><stop stop-color="#fff" offset="56%"/><stop stop-color="#fff" offset="58%"/><stop stop-color="#fff" offset="64%"/><stop stop-color="#fff" offset="69%"/><stop stop-color="#fff" offset="74%"/><stop stop-color="#fff" offset="77%"/><stop stop-color="#fff" offset="82%"/><stop stop-color="#fff" offset="87%"/><stop stop-color="#fff" offset="91%"/><stop stop-color="#fff" offset="95%"/></linearGradient><linearGradient x1="-12.365%" y1="49.976%" x2="178.899%" y2="49.976%" id="d"><stop stop-color="#fff" offset="0%"/><stop stop-color="#fff" offset="18%"/><stop stop-color="#fff" offset="34%"/><stop stop-color="#fff" offset="43%"/><stop stop-color="#fff" offset="51%"/><stop stop-color="#fff" offset="56%"/><stop stop-color="#fff" offset="58%"/><stop stop-color="#fff" offset="64%"/><stop stop-color="#fff" offset="69%"/><stop stop-color="#fff" offset="74%"/><stop stop-color="#fff" offset="77%"/><stop stop-color="#fff" offset="82%"/><stop stop-color="#fff" offset="87%"/><stop stop-color="#fff" offset="91%"/><stop stop-color="#fff" offset="95%"/></linearGradient><linearGradient x1="127.683%" y1="50%" x2="-238.266%" y2="50%" id="e"><stop stop-color="#fff" offset="0%"/><stop stop-color="#fff" offset="18%"/><stop stop-color="#fff" offset="40%"/><stop stop-color="#fff" offset="52%"/><stop stop-color="#fff" offset="63%"/><stop stop-color="#fff" offset="70%"/><stop stop-color="#fff" offset="72%"/><stop stop-color="#fff" offset="80%"/><stop stop-color="#fff" offset="87%"/><stop stop-color="#fff" offset="93%"/></linearGradient><linearGradient x1="299.118%" y1="50%" x2="-66.83%" y2="50%" id="f"><stop stop-color="#fff" offset="0%"/><stop stop-color="#fff" offset="18%"/><stop stop-color="#fff" offset="40%"/><stop stop-color="#fff" offset="52%"/><stop stop-color="#fff" offset="63%"/><stop stop-color="#fff" offset="70%"/><stop stop-color="#fff" offset="72%"/><stop stop-color="#fff" offset="80%"/><stop stop-color="#fff" offset="87%"/><stop stop-color="#fff" offset="93%"/></linearGradient><linearGradient x1="-42.884%" y1="213.497%" x2="155.424%" y2="-135.641%" id="g"><stop stop-color="#fff" offset="7%"/><stop stop-color="#fff" offset="13%"/><stop stop-color="#fff" offset="20%"/><stop stop-color="#fff" offset="28%"/><stop stop-color="#fff" offset="30%"/><stop stop-color="#fff" offset="37%"/><stop stop-color="#fff" offset="48%"/><stop stop-color="#fff" offset="60%"/><stop stop-color="#fff" offset="82%"/><stop stop-color="#fff" offset="100%"/></linearGradient></defs><g transform="translate(0 .4)" fill-rule="nonzero" fill="none"><path d="M69.677 39.129H56.88c-2.776 0-4.96-.706-6.55-2.118-1.59-1.412-2.385-3.386-2.383-5.922V19.461c0-2.533.794-4.507 2.383-5.922 1.589-1.414 3.772-2.121 6.55-2.12h5.072c2.777 0 4.95.707 6.519 2.12 1.57 1.414 2.354 3.388 2.354 5.922v6.893c0 .543-.278.815-.835.815H52.896c-.403 0-.604.163-.604.488v3.315c0 3.15 1.69 4.726 5.07 4.727h12.324c.564 0 .846.254.846.76v1.974c-.009.462-.29.696-.855.696Zm-16.78-14.83h13.037c.403 0 .604-.18.604-.543v-4.178c0-3.114-1.69-4.671-5.07-4.673h-4.106c-3.38 0-5.07 1.558-5.07 4.673v4.178c0 .361.201.54.604.54v.003ZM81.811 39.129h-2.715c-.564 0-.846-.253-.846-.76V12.182c0-.507.282-.761.846-.763h2.715c.564 0 .846.254.846.763V14.3h.24c1.007-1.92 3.06-2.88 6.158-2.88h3.382c2.736 0 4.868.706 6.397 2.12 1.53 1.413 2.295 3.387 2.298 5.921V38.37c0 .508-.278.761-.835.76H97.58c-.564 0-.835-.253-.835-.76V19.634c0-3.15-1.69-4.725-5.072-4.726h-3.402c-1.81 0-3.203.434-4.178 1.303-.975.869-1.457 2.1-1.448 3.695v18.473c.007.501-.271.751-.835.75ZM106.803 11.42h2.839a.9.9 0 0 1 .965.762l7.244 22.976h.303l7.183-22.976a.99.99 0 0 1 1.034-.763h2.838c.557 0 .759.254.604.763l-8.702 26.132c-.12.543-.483.815-1.086.815h-4.098a1.044 1.044 0 0 1-1.086-.815l-8.642-26.132c-.16-.507.042-.761.604-.763ZM150.933 39.129h-6.037c-2.738 0-4.9-.785-6.49-2.354-1.589-1.57-2.384-3.763-2.385-6.58V9.247c0-2.777.795-4.96 2.385-6.55 1.59-1.59 3.754-2.385 6.49-2.384h6.037c2.736 0 4.9.795 6.49 2.384 1.59 1.588 2.385 3.772 2.385 6.55v20.948c0 2.819-.795 5.012-2.386 6.58-1.59 1.568-3.753 2.353-6.49 2.354Zm-5.494-3.862h4.953c3.38 0 5.07-1.751 5.071-5.253V9.429c-.001-3.501-1.692-5.251-5.071-5.251h-4.95c-3.343 0-5.014 1.75-5.014 5.253v20.585c0 3.5 1.67 5.25 5.011 5.25Z" fill="#fff"/><circle fill="url(#a)" cx="33.69" cy="4.403" r="4.263"/><rect fill="url(#b)" transform="rotate(-180 11.766 4.401)" x=".194" y=".138" width="23.144" height="8.526" rx="1"/><path d="M-6.421 22.979h21.753a1 1 0 0 1 1 1v6.526a1 1 0 0 1-1 1H-6.42a1 1 0 0 1-1-1v-6.526a1 1 0 0 1 1-1Z" fill="url(#c)" transform="rotate(90 4.455 27.242)"/><rect fill="url(#d)" transform="rotate(-180 26.383 34.853)" x="14.811" y="30.59" width="23.144" height="8.526" rx="1"/><circle fill="url(#e)" cx="33.69" cy="19.628" r="4.263"/><circle fill="url(#f)" cx="19.073" cy="19.628" r="4.263"/><rect fill="url(#g)" transform="rotate(-180 147.582 19.793)" x="144.309" y="16.52" width="6.546" height="6.546" rx="1"/></g></svg>