<svg width="48" height="48" fill="none" xmlns="http://www.w3.org/2000/svg"><path clip-rule="evenodd" d="M10 1a9 9 0 0 1 9 9 9 9 0 0 1-9 9 9 9 0 0 1-9-9 9 9 0 0 1 9-9ZM23 19a6 6 0 1 1 0 12 6 6 0 0 1 0-12ZM23 35a6 6 0 1 1 0 12 6 6 0 0 1 0-12ZM41 35a6 6 0 1 1 0 12 6 6 0 0 1 0-12Z" stroke="#fff" stroke-width="2" stroke-linecap="round" stroke-linejoin="round"/><path d="m25.037 23.607-3.07 3.065-1.49-1.485" stroke="#fff" stroke-width="2" stroke-linecap="round" stroke-linejoin="round"/><path clip-rule="evenodd" d="M41 19a6 6 0 1 1 0 12 6 6 0 0 1 0-12Z" stroke="#fff" stroke-width="2" stroke-linecap="round" stroke-linejoin="round"/><path d="m43.036 23.607-3.069 3.065-1.49-1.485M7 6.812a1 1 0 0 1 1.533-.846l5.113 3.22a1 1 0 0 1-.006 1.697l-5.113 3.17A1 1 0 0 1 7 13.203V6.813ZM9 19v15c0 3.866 3.177 7 7 7h1" stroke="#fff" stroke-width="2" stroke-linecap="round" stroke-linejoin="round"/><path d="M16.949 26a1 1 0 1 0 0-2v2ZM8 19.035A6.965 6.965 0 0 0 14.965 26v-2A4.965 4.965 0 0 1 10 19.035H8ZM14.965 26h1.984v-2h-1.984v2Z" fill="#fff"/><path d="M29.055 25h5.944" stroke="#fff" stroke-width="2" stroke-linecap="round" stroke-linejoin="round"/><path fill-rule="evenodd" clip-rule="evenodd" d="M21 40a1 1 0 1 1-.001 2.001A1 1 0 0 1 21 40ZM25 40a1 1 0 1 1-.001 2.001A1 1 0 0 1 25 40Z" fill="#fff"/><path d="m34.005 41.007-1.013.033" stroke="#fff" stroke-width="2" stroke-linecap="round"/></svg>