<svg width="72" height="32" fill="none" xmlns="http://www.w3.org/2000/svg"><g clip-path="url(#a)"><path fill-rule="evenodd" clip-rule="evenodd" d="M29.86 21.919h-.031c.014 0 .023.014.038.017l.01-.001-.017-.016Zm.007.017c-.148.002-.52.078-.911.078-1.238 0-1.667-.571-1.667-1.317v-4.968h2.524c.143 0 .254-.127.254-.301v-2.699c0-.142-.127-.27-.254-.27h-2.524V9.112c0-.127-.079-.206-.222-.206H23.64c-.143 0-.222.079-.222.206v3.444s-1.73.428-1.841.444a.272.272 0 0 0-.207.27v2.159c0 .174.127.301.27.301h1.762v5.206c0 3.872 2.698 4.27 4.539 4.27.841 0 1.857-.27 2.016-.35.095-.032.143-.143.143-.254v-2.38a.28.28 0 0 0-.232-.285Zm37.608-3.493c0-2.873-1.159-3.254-2.38-3.127a4.117 4.117 0 0 0-1.715.54v5.587s.778.54 1.936.571c1.635.048 2.159-.54 2.159-3.571Zm3.857-.254c0 5.444-1.762 7-4.841 7-2.603 0-4-1.318-4-1.318s-.063.73-.142.825c-.048.095-.127.127-.223.127h-2.349c-.158 0-.301-.127-.301-.27l.032-17.632c0-.143.127-.27.27-.27h3.38c.143 0 .27.127.27.27v5.983s1.301-.841 3.206-.841l-.016-.032c1.904 0 4.714.714 4.714 6.158Zm-13.84-5.73h-3.333c-.175 0-.27.128-.27.302v8.634s-.873.619-2.063.619c-1.19 0-1.54-.54-1.54-1.73v-7.539a.278.278 0 0 0-.27-.27H46.62a.278.278 0 0 0-.27.27v8.11c0 3.492 1.953 4.365 4.635 4.365 2.206 0 4-1.222 4-1.222s.079.619.126.714c.032.08.143.143.254.143h2.127c.175 0 .27-.127.27-.27l.032-11.856c0-.142-.127-.27-.302-.27Zm-37.614-.015h-3.381c-.143 0-.27.143-.27.317v11.65c0 .317.206.428.476.428h3.048c.317 0 .396-.143.396-.428V12.714a.278.278 0 0 0-.27-.27ZM18.21 7.079c-1.222 0-2.19.968-2.19 2.19 0 1.223.968 2.19 2.19 2.19 1.19 0 2.159-.967 2.159-2.19 0-1.222-.969-2.19-2.159-2.19Zm26.172-.396h-3.35a.278.278 0 0 0-.27.27v6.49h-5.252v-6.49a.278.278 0 0 0-.27-.27h-3.38a.278.278 0 0 0-.27.27v17.632c0 .143.142.27.27.27h3.38c.143 0 .27-.127.27-.27v-7.539h5.253l-.032 7.54c0 .142.127.269.27.269h3.38c.143 0 .27-.127.27-.27V6.952a.278.278 0 0 0-.27-.27Zm-29.95 7.808v9.11c0 .064-.015.175-.094.207 0 0-1.984 1.412-5.254 1.412-3.952 0-8.634-1.238-8.634-9.396 0-8.157 4.095-9.84 8.095-9.824 3.46 0 4.856.778 5.078.92.064.08.096.143.096.223l-.667 2.825c0 .143-.143.317-.317.27-.572-.175-1.429-.524-3.444-.524-2.333 0-4.841.666-4.841 5.92 0 5.253 2.38 5.872 4.095 5.872 1.46 0 1.984-.175 1.984-.175v-3.65H8.196c-.174 0-.301-.127-.301-.27v-2.92c0-.143.127-.27.301-.27h5.936c.175 0 .302.127.302.27Z" fill="#fff"/></g><defs><clipPath id="a"><path fill="#fff" transform="translate(.451)" d="M0 0h71v32H0z"/></clipPath></defs></svg>