<svg width="91" height="32" viewBox="0 0 91 32" fill="none" xmlns="http://www.w3.org/2000/svg">
<g clip-path="url(#clip0)">
<path fill-rule="evenodd" clip-rule="evenodd" d="M52.7055 10.7712C50.1836 10.7712 48.6171 12.7747 48.6171 16.0001C48.6171 19.2255 50.1836 21.229 52.7055 21.229C53.653 21.229 54.5333 20.9603 55.251 20.4517L55.2858 20.4272V16.8036H51.6569V15.517H56.7703V20.9166C55.6878 21.963 54.2831 22.5156 52.7055 22.5156C49.3201 22.5156 47.1326 19.958 47.1326 16.0001C47.1326 12.0422 49.3201 9.48463 52.7055 9.48463C54.3537 9.48463 55.745 10.0864 56.7352 11.2258L55.7462 12.0476C54.9996 11.2008 53.9769 10.7712 52.7055 10.7712ZM81.2569 22.3094H80.1109L79.7259 21.2458L79.6347 21.3278C79.622 21.3392 78.3433 22.4743 76.7336 22.4743C75.1086 22.4743 73.9294 21.3933 73.9294 19.9039C73.9294 17.7477 75.7907 17.2951 77.3519 17.2951C78.5683 17.2951 79.6578 17.5689 79.6686 17.5717L79.7714 17.598V17.3363C79.7714 16.1627 79.0387 15.5676 77.5933 15.5676C76.7177 15.5676 75.7925 15.7839 74.913 16.1931L74.3187 15.1684C75.095 14.6634 76.2737 14.0831 77.5933 14.0831C79.8874 14.0831 81.2569 15.3294 81.2569 17.4168V22.3094ZM78.0907 18.4375C76.3395 18.4375 75.414 18.9446 75.414 19.9039C75.414 20.5738 75.9195 20.9898 76.7336 20.9898C78.0746 20.9898 79.2518 20.4402 79.7359 20.1152L79.7724 20.0908V18.5766L79.7038 18.5649C79.6964 18.5636 78.9465 18.4375 78.0907 18.4375ZM73.1042 21.0228V22.3094H68.1562V10.1032H69.6408V21.0228H73.1042ZM86.3799 22.5156C85.4158 22.5156 84.3588 22.383 83.2378 22.1212V10.1032H84.7223V14.7321L84.8498 14.6493C84.8579 14.6441 85.686 14.1149 86.8272 14.1149C87.0549 14.1149 87.2827 14.1362 87.5027 14.1778C89.374 14.5611 90.4912 16.071 90.4912 18.2168C90.4912 20.7478 88.8007 22.5156 86.3799 22.5156ZM86.545 15.5676C85.9547 15.5676 85.3371 15.7697 84.7593 16.1517L84.7223 16.1763V21.0973L84.7928 21.1077C85.3501 21.1894 85.8841 21.231 86.3799 21.231C87.9265 21.231 89.0067 19.9914 89.0067 18.2168C89.0067 16.5332 88.1094 15.5676 86.545 15.5676ZM66.1754 14.2269V15.5135H63.7011V19.2908C63.7011 19.7535 63.8813 20.1885 64.2085 20.5154C64.5354 20.8427 64.9704 21.0228 65.4331 21.0228H66.1754V22.3094H65.4331C63.6596 22.3094 62.2166 20.8664 62.2166 19.0929V10.1032H63.7011V14.2269H66.1754ZM58.7512 10.9279H60.2357V12.4125H58.7512V10.9279ZM58.7512 14.2269H60.2357V22.3094H58.7512V14.2269Z" fill="white"/>
<path fill-rule="evenodd" clip-rule="evenodd" d="M17.7811 31.9432L24.1547 12.3273H11.4075L17.7811 31.9432Z" fill="white"/>
<path fill-rule="evenodd" clip-rule="evenodd" d="M17.7811 31.9432L11.4075 12.3274H2.47507L17.7811 31.9432Z" fill="#E9E9E9"/>
<path fill-rule="evenodd" clip-rule="evenodd" d="M2.47508 12.3275L0.538254 18.2885C0.361594 18.8322 0.555079 19.4278 1.01759 19.7638L17.7811 31.9433L2.47508 12.3275Z" fill="#B0B0B0"/>
<path fill-rule="evenodd" clip-rule="evenodd" d="M2.47508 12.3274H11.4075L7.56869 0.512945C7.37125 -0.095055 6.51121 -0.09489 6.31376 0.512945L2.47508 12.3274Z" fill="white"/>
<path fill-rule="evenodd" clip-rule="evenodd" d="M17.7811 31.9432L24.1547 12.3274H33.0872L17.7811 31.9432Z" fill="#E9E9E9"/>
<path fill-rule="evenodd" clip-rule="evenodd" d="M33.0872 12.3275L35.024 18.2885C35.2007 18.8322 35.0072 19.4278 34.5447 19.7638L17.7811 31.9433L33.0872 12.3275Z" fill="#B0B0B0"/>
<path fill-rule="evenodd" clip-rule="evenodd" d="M33.0872 12.3274H24.1547L27.9936 0.512945C28.191 -0.095055 29.0511 -0.09489 29.2485 0.512945L33.0872 12.3274Z" fill="white"/>
</g>
<defs>
<clipPath id="clip0">
<rect width="90.0619" height="32" fill="white" transform="translate(0.451416)"/>
</clipPath>
</defs>
</svg>
