<svg xmlns="http://www.w3.org/2000/svg" width="104" height="32" fill="none"  xmlns:v="https://vecta.io/nano"><path d="M73.115 7.774h-2.226l.01 16.591h9.015v-2.052h-6.79l-.01-14.539zm15.379 13.679a3.8 3.8 0 0 1-2.757 1.164c-1.695 0-2.379-.837-2.379-1.93 0-1.644 1.143-2.43 3.573-2.43.459 0 1.194.051 1.572.122v3.073h-.01zm-2.307-10.057a7.37 7.37 0 0 0-4.737 1.705l.786 1.368c.909-.531 2.021-1.062 3.624-1.062 1.828 0 2.634.939 2.634 2.512v.807c-.357-.072-1.092-.122-1.542-.122-3.9 0-5.881 1.368-5.881 4.227 0 2.563 1.572 3.849 3.951 3.849 1.603 0 3.145-.735 3.675-1.93l.408 1.623h1.572v-8.494c-.01-2.685-1.174-4.482-4.492-4.482zM97.86 22.693c-.837 0-1.572-.102-2.124-.357v-7.667c.755-.633 1.695-1.093 2.889-1.093 2.154 0 2.981 1.521 2.981 3.982 0 3.492-1.338 5.136-3.747 5.136zm.939-11.292c-1.991 0-3.063 1.358-3.063 1.358v-2.144l-.01-2.838h-2.175l.01 16.182c1.093.459 2.583.704 4.206.704 4.155 0 6.157-2.655 6.157-7.239-.011-3.625-1.859-6.024-5.126-6.024zM48.882 9.574c1.97 0 3.247.653 4.074 1.317l.96-1.664c-1.297-1.143-3.053-1.756-4.931-1.756-4.737 0-8.056 2.889-8.056 8.719 0 6.105 3.584 8.484 7.678 8.484 2.052 0 3.798-.48 4.942-.96l-.051-6.524v-2.052h-6.075v2.052h3.88l.051 4.952c-.511.255-1.389.46-2.583.46-3.288 0-5.493-2.073-5.493-6.432-.01-4.441 2.267-6.595 5.605-6.595zm15.674-1.803h-2.175l.01 2.787v9.628c0 2.685 1.164 4.482 4.482 4.482a7.16 7.16 0 0 0 1.337-.122v-1.95a6.36 6.36 0 0 1-1.011.072c-1.828 0-2.634-.939-2.634-2.512V13.52h3.645v-1.817h-3.645l-.01-3.931zm-7.705 16.594h2.175v-12.66h-2.175v12.66zm0-14.406h2.175V7.784h-2.175v2.175z" fill="#fff"/><path d="M17.601 31.942l.038-.016-.021.009zm-.159.045l.031-.006-.023.004zM1.952 12.249v-.001.002zM17.173 31.99zm.137.009l.077-.004-.072.004zm.442-.136l.021-.015-.021.015zm-.821.048zm.143.055l-.021-.006.036.01zm.142.029a.66.66 0 0 0 .077.004l-.077-.004zm-.251-.069l.037.016-.037-.016zm.45.065zM32.66 12.249v-.001zM17.663 31.915zm-.533.066l.031.006-.031-.006zm.409-.018l-.025.007.031-.009z" fill="#fca326"/><g fill="#fc6d26"><path d="M16.914 31.901a.79.79 0 0 1-.077-.047l-.006-.004.019.014.036.022.032.019zM32.66 12.249h0zm-15.008 19.67l-.04.017-.042.018.03-.011.038-.016.024-.011zM1.952 12.25h0zm15.08 19.703a.48.48 0 0 1-.04-.017l-.043-.018.036.016.036.015zm.385.038a.81.81 0 0 1-.115.009h0a.88.88 0 0 1-.116-.009l.022.004.081.005h.021l.077-.004.028-.004zm-.606-.156a.83.83 0 0 1-.074-.063.34.34 0 0 0 .027.026l.018.016.033.025zm.878.066c.006-.002.015-.008.024-.013l.028-.016.031-.021-.083.051z"/><path d="M17.127 31.979l-.059-.014.021.007.026.007.039.007-.026-.006zm.738-.207a.81.81 0 0 1-.073.063l.017-.012.03-.026.034-.031zm-.389.207l-.024.006.02-.003.041-.01.025-.007-.062.015z"/></g><path d="M34.503 17.925L29.002.987A1.44 1.44 0 0 0 27.62 0a1.42 1.42 0 0 0-1.364.995l-3.472 10.689H11.828L8.349.995A1.42 1.42 0 0 0 6.985 0C6.354 0 5.803.396 5.6.996L1.952 12.249.102 17.925a2.07 2.07 0 0 0 .751 2.317l16.078 11.669.101.042.02.007.097.024.023.005.128.01a.81.81 0 0 0 .115-.009l.025-.004.034-.008.058-.014.027-.008.051-.021.04-.017.019-.008.018-.011a.83.83 0 0 0 .076-.047l15.986-11.612a2.07 2.07 0 0 0 .751-2.317zM27.63 2.042l3.132 9.643h-6.264l3.132-9.643zm2.584 11.274L19.509 27.031l4.459-13.716h6.246zM16.526 31.437zm-1.43-4.405L4.397 13.315h6.246l4.453 13.716zM6.975 2.041l3.138 9.643H3.849l3.126-9.643zM1.812 18.923a.44.44 0 0 1-.16-.494l1.375-4.219 10.073 12.915-11.288-8.202zm14.982 12.9l-.029-.025-.034-.031.08.068c-.003-.001-.01-.006-.017-.012zm.508-3.277l-4.944-15.231h9.896l-4.951 15.231zm.536 3.251l-.018.016-.033.025a.86.86 0 0 0 .078-.066c-.004.005-.015.015-.027.025zm14.955-12.875l-11.287 8.2 10.077-12.911 1.369 4.217a.44.44 0 0 1-.159.494z" fill="#fff"/></svg>