<svg width="180" height="28" fill="none" xmlns="http://www.w3.org/2000/svg"><path d="M21.669 7.342h1.01l2.88-2.88.142-1.222A12.945 12.945 0 0 0 4.642 9.555c.321-.131.676-.153 1.01-.06l5.76-.95s.293-.485.445-.455a7.185 7.185 0 0 1 9.832-.748h-.02Z" fill="#fff"/><path d="M29.662 9.555a12.975 12.975 0 0 0-3.91-6.305l-4.043 4.042a7.186 7.186 0 0 1 2.638 5.699v.717a3.598 3.598 0 1 1 0 7.195h-7.195l-.718.727v4.315l.718.718h7.195a9.358 9.358 0 0 0 5.315-17.108Z" fill="#fff" fill-opacity=".7"/><path d="M9.947 26.622h7.195v-5.76H9.947c-.512 0-1.019-.11-1.485-.323l-1.01.313-2.9 2.88-.253 1.01a9.307 9.307 0 0 0 5.648 1.88Z" fill="#fff" fill-opacity=".9"/><path d="M9.947 7.938A9.357 9.357 0 0 0 4.3 24.712l4.173-4.173a3.597 3.597 0 1 1 4.76-4.76l4.173-4.173a9.346 9.346 0 0 0-7.458-3.668Z" fill="#fff" fill-opacity=".8"/><path d="M52.933 22.6a9.206 9.206 0 0 1-6.669-2.738 8.891 8.891 0 0 1-2.799-6.588 8.902 8.902 0 0 1 2.799-6.589 9.207 9.207 0 0 1 6.67-2.789 8.933 8.933 0 0 1 6.396 2.577l-1.8 1.83a6.477 6.477 0 0 0-4.597-1.82 6.406 6.406 0 0 0-4.749 2.021 6.597 6.597 0 0 0-1.95 4.8 6.597 6.597 0 0 0 1.95 4.74 6.78 6.78 0 0 0 9.458.11 5.376 5.376 0 0 0 1.384-3.142h-6.062v-2.587h8.579c.084.52.118 1.049.1 1.576a8.082 8.082 0 0 1-2.212 5.962 8.6 8.6 0 0 1-6.498 2.637Zm19.947-1.717a6.184 6.184 0 0 1-8.559 0 5.758 5.758 0 0 1-1.748-4.295 5.77 5.77 0 0 1 1.748-4.295 6.194 6.194 0 0 1 8.56 0 5.768 5.768 0 0 1 1.747 4.295 5.76 5.76 0 0 1-1.758 4.295h.01Zm-6.669-1.688a3.273 3.273 0 0 0 4.78 0A3.599 3.599 0 0 0 72 16.588a3.608 3.608 0 0 0-1.01-2.617 3.324 3.324 0 0 0-4.8 0 3.607 3.607 0 0 0-1.01 2.617 3.596 3.596 0 0 0 1.02 2.607h.01Zm19.826 1.688a6.184 6.184 0 0 1-8.56 0 5.76 5.76 0 0 1-1.747-4.295 5.77 5.77 0 0 1 1.748-4.295 6.184 6.184 0 0 1 8.559 0 5.769 5.769 0 0 1 1.748 4.295 5.76 5.76 0 0 1-1.748 4.295Zm-6.67-1.688a3.273 3.273 0 0 0 4.78 0 3.597 3.597 0 0 0 1.01-2.607 3.608 3.608 0 0 0-1.01-2.617 3.324 3.324 0 0 0-4.8 0 3.607 3.607 0 0 0-1.01 2.617 3.596 3.596 0 0 0 1.02 2.607h.01Zm15.32 8.801a5.294 5.294 0 0 1-3.365-1.07 6.194 6.194 0 0 1-1.96-2.486l2.303-.96a3.88 3.88 0 0 0 1.142 1.505 2.88 2.88 0 0 0 1.89.637 3.033 3.033 0 0 0 2.354-.91c.609-.734.91-1.676.839-2.627v-.869h-.091a3.851 3.851 0 0 1-3.163 1.364 5.486 5.486 0 0 1-4.042-1.758 5.811 5.811 0 0 1-1.728-4.234 5.87 5.87 0 0 1 1.728-4.264 5.478 5.478 0 0 1 4.042-1.768 4.343 4.343 0 0 1 1.86.414c.502.22.95.547 1.313.96h.09v-.96h2.507V21.73a6.28 6.28 0 0 1-1.607 4.7 5.658 5.658 0 0 1-4.113 1.565Zm.181-7.76a2.94 2.94 0 0 0 2.284-1.01c.623-.715.952-1.64.92-2.587a3.82 3.82 0 0 0-.92-2.638 2.93 2.93 0 0 0-2.284-1.01A3.122 3.122 0 0 0 92.504 14a3.689 3.689 0 0 0-1.01 2.617 3.617 3.617 0 0 0 1.01 2.587 3.133 3.133 0 0 0 2.364 1.03Zm9.994-15.663v17.664h-2.637V4.573h2.637Zm7.235 18.027a5.736 5.736 0 0 1-4.254-1.728 5.86 5.86 0 0 1-1.708-4.284 5.92 5.92 0 0 1 1.647-4.325 5.417 5.417 0 0 1 4.042-1.687 5.1 5.1 0 0 1 2.021.394 4.748 4.748 0 0 1 1.546 1.01c.382.369.721.779 1.011 1.223.234.375.434.77.596 1.182l.273.687-8.084 3.325a3.025 3.025 0 0 0 2.91 1.819 3.444 3.444 0 0 0 2.961-1.668l2.021 1.365a6.666 6.666 0 0 1-1.94 1.839 5.497 5.497 0 0 1-3.042.848Zm-3.375-6.194 5.376-2.233a1.86 1.86 0 0 0-.839-.92c-.422-.238-.9-.36-1.384-.353a3.124 3.124 0 0 0-2.173.96 3.21 3.21 0 0 0-.98 2.546ZM131.084 22.6a8.326 8.326 0 0 1-8.468-8.518 8.322 8.322 0 0 1 2.419-6.063 8.333 8.333 0 0 1 6.049-2.455 7.542 7.542 0 0 1 5.992 2.667l-1.455 1.415a5.497 5.497 0 0 0-4.527-2.071 6.175 6.175 0 0 0-4.496 1.798 6.31 6.31 0 0 0-1.829 4.709 6.31 6.31 0 0 0 1.829 4.709 6.163 6.163 0 0 0 4.496 1.799 6.424 6.424 0 0 0 5.053-2.365l1.455 1.455a7.949 7.949 0 0 1-2.799 2.132 8.57 8.57 0 0 1-3.719.788ZM141.512 22.237h-2.091V5.917h2.091v16.32ZM144.928 12.415a5.85 5.85 0 0 1 8.245 0 5.913 5.913 0 0 1 1.617 4.244 5.913 5.913 0 0 1-1.617 4.244 5.85 5.85 0 0 1-8.245 0 5.903 5.903 0 0 1-1.617-4.244 5.903 5.903 0 0 1 1.617-4.244Zm1.556 7.174a3.524 3.524 0 0 0 5.123 0 4.038 4.038 0 0 0 1.081-2.93 4.038 4.038 0 0 0-1.081-2.93 3.535 3.535 0 0 0-2.562-1.103 3.525 3.525 0 0 0-2.561 1.102 4.038 4.038 0 0 0-1.081 2.93 4.038 4.038 0 0 0 1.091 2.921l-.01.01ZM166.38 22.237h-2.021V20.69h-.06a3.891 3.891 0 0 1-1.476 1.394 4.121 4.121 0 0 1-2.071.556 3.93 3.93 0 0 1-3.173-1.273 5.054 5.054 0 0 1-1.081-3.416v-6.871h2.092v6.487c0 2.082.919 3.123 2.758 3.123a2.566 2.566 0 0 0 2.122-1.01c.542-.688.831-1.54.819-2.416v-6.184h2.091v11.156ZM173.484 22.6a4.912 4.912 0 0 1-3.739-1.707 6.067 6.067 0 0 1-1.566-4.234 6.068 6.068 0 0 1 1.566-4.234 4.917 4.917 0 0 1 3.739-1.708 4.742 4.742 0 0 1 2.284.546 3.867 3.867 0 0 1 1.515 1.364h.091l-.091-1.546V5.917h2.092v16.32h-2.021V20.69h-.091a3.868 3.868 0 0 1-1.515 1.364 4.744 4.744 0 0 1-2.264.545Zm.344-1.91a3.335 3.335 0 0 0 2.516-1.09 4.095 4.095 0 0 0 1.01-2.941 4.095 4.095 0 0 0-1.01-2.94 3.414 3.414 0 0 0-5.053 0 4.033 4.033 0 0 0-1.01 2.93 4.043 4.043 0 0 0 1.01 2.93 3.34 3.34 0 0 0 2.537 1.112Z" fill="#fff"/></svg>