<svg width="142" height="33" fill="none" xmlns="http://www.w3.org/2000/svg"><path d="M47.923 25.656v-7.603h-6.685v7.603h-3.413V7.65h3.413v7.414h6.685V7.65h3.413v18.006h-3.413ZM60.586 20.619h-2.424c-1.083 0-1.389.306-1.389 1.294 0 .918.306 1.319 1.318 1.319.965 0 1.86-.33 2.495-.683v-1.93Zm3.319 4.99h-2.707l-.235-.895a7.238 7.238 0 0 1-3.931 1.154c-2.4 0-3.436-1.648-3.436-3.907 0-2.684 1.153-3.696 3.836-3.696h3.154v-1.389c0-1.459-.4-1.977-2.518-1.977-1.2 0-2.495.165-3.649.4l-.4-2.518c1.248-.377 3.06-.612 4.52-.612 4.142 0 5.342 1.46 5.342 4.755l.024 8.685Zm6.379.259c-1.413 0-3.32-.33-4.543-.753l.47-2.519c1.107.33 2.566.565 3.931.565 1.46 0 1.672-.33 1.672-1.318 0-.8-.165-1.224-2.307-1.718-3.225-.777-3.601-1.6-3.601-4.143 0-2.66 1.153-3.813 4.919-3.813 1.224 0 2.801.165 3.954.47l-.33 2.613c-1.011-.188-2.588-.376-3.624-.376-1.436 0-1.671.33-1.671 1.13 0 1.059.07 1.13 1.86 1.6 3.671.965 4.024 1.46 4.024 4.166 0 2.542-.8 4.096-4.754 4.096Zm14.57-.26V16.43c0-.706-.306-1.059-1.06-1.059-.8 0-2.236.494-3.436 1.106v9.133h-3.296V7.06l3.296-.47v6.849c1.46-.753 3.413-1.271 4.801-1.271 2.19 0 2.966 1.553 2.966 3.884v9.532h-3.272v.024ZM90.573 25.609h3.295V12.451h-3.295V25.61Zm0-15.04h3.295V6.754h-3.295v3.813Zm5.602 1.977c0-3.296 1.93-5.226 6.402-5.226 1.671 0 3.413.212 4.896.589l-.376 2.942c-1.46-.259-3.155-.47-4.402-.47-2.354 0-3.107.8-3.107 2.73v6.92c0 1.93.753 2.73 3.107 2.73 1.247 0 2.942-.188 4.402-.47l.376 2.941c-1.483.377-3.225.589-4.896.589-4.495 0-6.402-1.93-6.402-5.226v-8.05Zm18.053 2.424c-1.765 0-2.424.777-2.424 2.26v3.53c0 1.483.683 2.26 2.424 2.26 1.766 0 2.425-.777 2.425-2.26v-3.53c0-1.46-.659-2.26-2.425-2.26Zm0 10.898c-4.519 0-5.719-2.495-5.719-5.178v-3.32c0-2.706 1.224-5.201 5.719-5.201 4.52 0 5.72 2.495 5.72 5.202v3.319c0 2.706-1.2 5.178-5.72 5.178Zm14.476-10.663c-1.271.565-2.307 1.154-3.483 1.93v8.498h-3.296V12.475h2.778l.212 1.46c.729-.495 2.306-1.413 3.46-1.742l.329 3.012Zm4.637 7.509c.871.188 1.977.353 2.919.353 1.2 0 1.647-.565 1.647-1.765v-4.66c0-1.084-.4-1.672-1.624-1.672-1.082 0-2.236.541-2.942 1.2v6.544Zm7.885-1.483c0 2.919-1.294 4.66-4.354 4.66a18.4 18.4 0 0 1-3.507-.376v5.437l-3.296.47V12.476h2.613l.33 1.106c1.153-.847 2.518-1.388 4.166-1.388 2.659 0 4.048 1.577 4.048 4.566v4.472ZM12.993 0 0 7.485v18.006l4.872 2.825V10.31l8.12-4.684V0Z" fill="#fff"/><path d="M18.171 0v14.335h-5.178V8.968l-4.872 2.824v18.383L12.993 33V18.712h5.178v5.32l4.873-2.825V2.825L18.17 0Z" fill="#fff"/><path d="m18.171 33 12.993-7.485V7.51l-4.872-2.825v18.007l-8.12 4.684V33Z" fill="#fff"/></svg>