<svg xmlns="http://www.w3.org/2000/svg" width="133" height="32" fill="none" xmlns:v="https://vecta.io/nano"><path d="M14.352 15.459l-1.708.253-2.305.262-1.491.036-1.455-.045-1.112-.343-.985-1.065-.768-2.175-.172-.469-1.021-.343-.597-.984-.425-1.408.47-1.236 1.112-.388.895.424.425.939.515-.081.172-.217-.172-.984-.045-1.236.253-1.706-.009-.975.777-1.245 1.365-.984 2.386-1.02 2.649.388 2.305 1.661 1.067 1.706.687 1.236.172 3.068-.515 2.644-.94 2.346-.886 1.254" fill="#f6f6f6"/><path d="M12.905 22.832l-6.101.253v1.02l.515 3.583-.253.298L2.8 26.532l-.298-.514-.425-4.819-1.003-2.888-.217-.686 3.417-2.346 1.067-.424.94 1.155.813.722.94.298.425.126.515 2.22.389.469.985-.343-.687 1.326 3.706 1.751-.461.253M2.782 7.959l1.112-.388.895.424.425.939.515-.081.127-.514-.253-.984.253-2.346-.217-1.281.768-.893L8.07 1.517 7.6.876 5.25 2.031l-.985.767-.551 1.191-.85 1.155-.253 1.363.172 1.453" fill="#aaa"/><path d="M4.535 3.953s.642-1.579 3.2-2.346.127-.551.127-.551L5.086 2.121 4.02 3.186l-.47.848.985-.081h0zM3.252 7.662s-.895-2.987 2.522-3.411l-.127-.514-2.35.551-.687 2.22.172 1.453.47-.298" fill="#f6f6f6"/><path d="M4.617 11.624l.56-.542a.36.36 0 0 0 .298.325c.045.298.172 2.987 2.007 4.431.172.135-1.365-.217-1.365-.217l-1.365-2.13-.135-1.868zm7.855-.812s.099-1.29.452-1.191.353.451.353.451-.85.542-.804.74h0zm3.543-4.729s-.705.144-.768.767.768.126.895.081l-.127-.848zm-5.161.045s-.94.126-.94.722 1.067.55 1.365.298l-.425-1.02zM5.05 8.898s-1.618-.984-1.79-.045-.551 1.615.253 2.599l-.551-.171-.515-1.318-.172-1.281.985-1.02 1.112.081.642.514.036.641h0zm.768-2.689s.723-3.754 4.393-4.476c3.019-.596 4.61.126 5.206.812 0 0-2.694-3.195-5.252-2.22-2.558.984-4.438 2.77-4.393 3.917l.045 1.967h0zm9.898-3.24s-1.238-.045-1.284 1.065c0 0 0 .172.081.343 0 0 .985-1.11 1.582-.514" fill="#333"/><g fill="#aaa"><path d="M10.302 4.494s-.217-1.697-1.663-.713c-.94.641-.85 1.534-.687 1.706.172.171.127.514.253.28s.09-1.002.56-1.218c.461-.217 1.238-.451 1.537-.054M6.289 16.009l-4.014 1.787s1.663 6.606.813 8.655l-.596-.217-.045-2.518-1.112-4.765-.47-1.318 4.185-2.816 1.238 1.191h0zm.407 3.655l.569.695v2.554h-.678l-.081-2.003c0-.217.081-.984.081-.984l.108-.262zm.018 3.637l-1.925.081.551.388 1.365.217m6.58-1.11l1.582-.045.389 3.917-1.618.217-.352-4.088"/><path d="M13.71 22.877l2.386-.126.985-2.599c0-.126.85-3.583.85-3.583l-1.925-2.003-.389-.343-1.021 1.02v3.962l-.886 3.673"/><path d="M14.776 22.579l-1.491.298.217 1.191c.551.253 1.491-.424 1.491-.424l-.217-1.065zm.045-7.463l2.992 2.22.081-1.02-2.26-2.084-.813.884"/></g><g fill="#f6f6f6"><path d="M8.196 31.27l-.886-3.583-.443-2.644-.072-1.958 4.004-.216h2.486l-.226 4.476.389 3.456-.045.641-3.245.253-1.961-.424"/><path d="M12.734 22.832s-.217 4.431.425 7.589c0 0-1.283.812-3.155 1.02l3.588-.126.425-.253-.515-6.985-.136-1.498m1.953 3.836l1.663-.469 3.155-.171.47-1.453-.85-2.518-.985-.126-1.365.424-1.302.641-.696-.126-.542.217"/><path d="M15.292 25.557s1.112-.514 1.284-.469l-.47-2.346.551-.217.389 2.473 2.603.126s.515-.984.389-2.003l.47 1.363.045.767-.687 1.02-.768.172-1.283-.045-.425-.55-1.491.216-.47.172m-1.819-3.702l-.94-2.382-.985-1.408s.217-.596.515-.596h.985l.94.343-.081 1.579-.434 2.464"/><path d="M13.8 21.722s-1.193-2.301-1.193-2.644c0 0 .217-.514.515-.388s.94.469.94.469v-.812l-1.455-.298-.985.126 1.663 3.935.344.045M8.576 16.1l-1.184-.126-1.112-.343v.388l.542.596 1.708.767"/><path d="M6.668 16.226s1.32.55 1.754.424l.045.514-1.193-.253-.723-.514.118-.171"/></g><g fill="#aaa"><path d="M15.319 18.293c-.723-.018-1.383-.108-1.952-.271.036-.235-.036-.46.027-.632.163-.117.425-.117.669-.144-.208-.099-.506-.145-.741-.081-.009-.163-.081-.262-.127-.388.407-.144 1.365-1.092 1.907-.785.262.153.371 1.002.389 1.426.018.343-.036.686-.172.875m-3.462-1.183c0 .054 0 .108-.009.162-.226.145-.588.145-.841.271.362.018.651.108.904.225l-.018.415c-.416.28-.795.704-1.283.975-.235.127-1.039.451-1.284.388-.136-.036-.154-.207-.208-.37-.118-.343-.389-.902-.416-1.426-.027-.659-.099-1.769.615-1.633a6.24 6.24 0 0 1 1.69.614c.28.162.434.343.85.379m.407.786c-.063-.361-.136-.46-.109-.776.967-.641 1.139 1.101.109.776"/><path d="M13.656 18.184s-.298-.424-.081-.55.425 0 .551-.217 0-.343.045-.596.253-.298.47-.343.813-.126.895.081l-.253-.767-.515-.171-1.618.939-.081.469v.939l.588.217zm-4.483 1.408l-.163-1.994c-.09-.993.235-.821 1.103-.821.136 0 .814.154.859.253.235.478-.389.37.271.731.551.298 1.537-.181 1.311-.857-.127-.153-.651-.045-.841-.145l-1.003-.514c-.425-.217-1.401-.541-1.853-.235-1.148.776.072 2.725.479 3.538"/></g><path d="M10.302 4.494c-1.166-.271-1.745.487-2.097 1.272-.316-.072-.19-.505-.108-.722.208-.569 1.049-1.336 1.735-1.227.289.036.687.307.47.677h0zm5.667 1.317h.054c.262.542.488 1.119.823 1.606-.226.523-1.681.975-1.663.054.316-.135.859-.027 1.139-.208-.163-.442-.389-.821-.353-1.453h0zm-5.08.018c.253.46.334.939.687 1.281.163.153.47.343.317.776-.036.099-.298.325-.452.37-.551.162-1.844.036-1.41-.659.461.018 1.076.298 1.419-.036-.262-.415-.732-1.245-.561-1.733zm4.872 4.638c-.832.533-1.763 1.119-3.137.984-.289-.253-.407-.821-.117-1.191.145.253.054.722.47.794.777.135 1.681-.478 2.242-.686.343-.587-.027-.794-.344-1.173-.642-.767-1.491-1.724-1.464-2.87.262-.19.28.289.316.37.335.776 1.175 1.778 1.781 2.446.154.162.398.325.425.433.081.307-.208.686-.172.893h0zm-11.01-.559c-.262-.153-.325-.803-.633-.821-.443-.027-.362.848-.362 1.363-.298-.271-.353-1.119-.136-1.552-.253-.126-.362.135-.506.226.19-1.308 1.925-.605 1.636.785h0zm11.534 1.11c-.389.74-.94 1.552-2.079 1.579-.027-.235-.045-.605 0-.749.877-.09 1.419-.532 2.079-.83zm-5.46.478c.723.379 2.061.424 3.055.397.054.217.054.487.054.749-1.274.054-2.775-.262-3.109-1.146zm-.136.704c.506 1.263 2.233 1.119 3.688 1.083-.063.162-.199.361-.38.424-.47.19-1.754.334-2.404-.009-.407-.217-.678-.713-.904-1.002-.099-.135-.642-.487 0-.496" fill="#333"/><path d="M15.698 19.159l-1.853 2.933c.289-.857.416-2.301.461-3.402.615-.289 1.139.063 1.392.469" fill="#aaa"/><path d="M18.871 22.787c-.66.135-1.121.776-1.772.731.361-.496.976-.713 1.772-.731h0zm.289 1.029c-.542.054-1.175.144-1.717.099.262-.397 1.256-.253 1.717-.099zm.19.893c-.606.009-1.356 0-1.934-.045.343-.37 1.546-.135 1.934.045z" fill="#333"/><path d="M14.559 27.146c.09.758.389 1.525.353 2.355-.335.108-.524.207-.976.207l-.099-2.464c.217.018.542-.153.723-.099m-.977-11.19c-.307.199-.56.442-.859.659-.651.036-1.003-.045-1.473-.415.009-.027.054-.018.054-.054.696.307 1.582-.126 2.278-.19" fill="#f6f6f6"/><path d="M9.95 20.675c.19-.821.94-1.255 1.618-1.706.696.884 1.121 2.021 1.591 3.122-1.112-.334-2.242-.866-3.209-1.417" fill="#aaa"/><path d="M13.836 27.254c-.027.677.063 1.751.099 2.464.452 0 .642-.099.976-.208.036-.83-.262-1.597-.353-2.355-.181-.063-.506.108-.723.099h0zm-6.978-3.826c.298 2.716.723 4.99 1.509 7.4 1.745.532 3.842.578 5.387.099-.28-1.354-.163-3.005-.325-4.458l-.235-3.294c-1.871-.388-4.51-.09-6.336.253zm6.779-.235c-.018 1.164.054 2.319.145 3.483l1.166-.208c-.136-1.119-.117-2.391-.398-3.384-.316.009-.597 0-.913.108h0zm2.269-.189c-.217-.045-.461 0-.66 0L15.653 26c.316.009.488-.144.75-.19.018-.875-.072-2.085-.497-2.807zm3.444 3.14c.669-.162 1.085-.975.895-1.814-.127-.559-.343-1.624-.588-1.985-.172-.262-.651-.614-1.04-.37-.624.397-1.717.514-2.169.993.226.758.298 1.787.389 2.743.777.045 1.727-.216 2.377.063-.452.144-1.03.144-1.419.361.325.153 1.067.126 1.555.009h0zm-6.201-4.052c-.47-1.101-.895-2.238-1.591-3.122-.678.451-1.419.884-1.618 1.706.976.55 2.106 1.083 3.209 1.417zm1.157-3.402c-.045 1.101-.172 2.545-.461 3.402.696-.893 1.265-1.922 1.853-2.933-.253-.406-.777-.758-1.392-.469h0zm-1.311-.46c-.262-.027-.488.307-.832.162l-.235.271c.759.92 1.112 2.22 1.699 3.294.316-1.038.28-2.166.353-3.294-.434.018-.678-.406-.985-.433h0zm-.841-1.11c-.027.316.045.415.108.776 1.031.325.859-1.417-.108-.776zm-1.148-.379c-.443-.244-1.112-.505-1.69-.614-.714-.135-.642.975-.615 1.633.027.523.298 1.074.416 1.426.054.162.072.334.208.37.244.054 1.058-.262 1.284-.388.488-.262.868-.686 1.284-.975l.018-.415c-.253-.126-.533-.208-.904-.226.244-.126.615-.126.841-.271 0-.054 0-.108.009-.163-.416-.045-.569-.226-.85-.379zm-4.248-.767c-.371.379 1.039.884 1.482.911 0-.235.136-.46.108-.632-.533-.09-1.229-.027-1.591-.28zm4.556.171c0 .036-.045.027-.054.054.479.37.832.451 1.473.415l.859-.659c-.705.063-1.591.496-2.278.19h0zm4.176 1.264c-.018-.415-.127-1.273-.389-1.426-.542-.316-1.5.641-1.907.785.045.126.118.226.127.388.244-.063.533-.018.741.081-.244.027-.506.027-.669.145-.054.171.018.397-.027.632.569.162 1.229.244 1.952.271.136-.18.19-.523.172-.875h0zm-9.355-1.074c-.118-.081-.904-1.101-1.012-1.056-1.419.56-2.748 1.525-3.932 2.446 1.13 2.428 1.591 5.397 1.672 8.257 1.293.605 2.431 1.48 4.194 1.57l-.506-4.079c-.443-.189-1.076.009-1.491-.054 0-.496.633-.217.687-.55.036-.253-.353-.271-.226-.668.325.117.497.379.841.478.316-.686 0-1.904.045-2.482.009-.108.054-.596.298-.514.217.072-.009 1.309.009 1.85.018.505-.063.984.145 1.3a48.6 48.6 0 0 1 5.27-.433c-.407-.172-.886-.334-1.41-.632-.289-.162-1.184-.496-1.265-.767-.136-.433.343-.659.425-1.029-.859.469-1.021-.451-1.229-1.092-.181-.587-.289-1.029-.334-1.363-.75-.379-1.546-.731-2.178-1.182h0zm8.605-.939c1.184-.568 1.401 2.139.931 3.014.072.262.316.361.416.596l-2.07 3.447c.497-.316 1.22-.054 1.808-.289.217-.081.371-.578.533-.975.452-1.083.922-2.455 1.13-3.483.045-.235.181-.749.145-.957-.054-.379-.561-.659-.823-.884l-1.284-1.209c-.19.298-.624.496-.786.74h0zM3.432 4.918c-.56.623-.443 1.778-.38 2.608 1.021-.641 2.368.054 2.359 1.137.488-.009.181-.605.09-.993-.289-1.254.488-2.608.036-3.754-.877.072-1.591.424-2.106 1.002h0zm4.031-3.601c-1.274.361-2.911 1.29-3.435 2.437.407-.063.687-.262 1.085-.289.154-.009.353.063.524.018.343-.09.642-.866.904-1.155.253-.28.56-.406.768-.659.136-.063.334-.063.343-.262-.054-.063-.118-.108-.19-.09h0zm6.644.343c-1.329-.749-3.57-1.308-4.98-.605-1.139.569-2.675 1.507-3.2 2.689.488 1.146-.145 2.193-.19 3.357-.018.623.289 1.155.316 1.832-.172.28-.678.307-1.03.289-.118-.596-.325-1.263-.94-1.336-.868-.099-1.509.623-1.546 1.372-.045.884.678 2.346 1.708 2.247.398-.036.497-.433.931-.433.235.469-.361.614-.425.947-.018.09.045.424.09.587.19.767.606 1.769 1.012 2.355.524.749 1.546.857 2.648.929.199-.424.922-.388 1.392-.28-.569-.226-1.094-.767-1.527-1.245-.497-.55-1.003-1.137-1.03-1.859.949 1.309 1.726 2.455 3.444 3.032 1.302.433 2.82-.199 3.823-.902.416-.289.66-.758.958-1.173 1.103-1.588 1.618-3.844 1.509-6.037-.045-.902-.045-1.805-.352-2.41-.316-.632-1.392-1.209-2.025-.632-.117-.623.524-1.002 1.274-.776-.533-.695-1.094-1.516-1.862-1.949h0zm2.477 20.404c1.04-.514 2.974-1.381 3.616 0a10.72 10.72 0 0 1 .642 1.904c.172.74-.19 2.31-.958 2.554-.678.217-1.464.208-2.278.045-.099-.081-.199-.217-.28-.361-.578-.018-1.13.027-1.582.271.045.433-.244.496-.524.587-.199.803.407 1.85.262 2.572-.1.523-.741.605-1.211.695-.018.289.018.533.054.776-.108.397-.588.623-1.049.677-1.509.18-3.796.262-5.243-.262-.407-.993-.723-2.193-1.058-3.321-1.41.153-2.558-.605-3.634-1.11-.371-.172-.886-.271-1.03-.569-.136-.289-.081-.839-.118-1.354-.081-1.327-.163-2.608-.506-3.962-.154-.614-.434-1.146-.624-1.733-.181-.541-.488-1.218-.569-1.76-.118-.803.642-.848 1.121-1.2.75-.541 1.338-.839 2.151-1.327.244-.144.967-.505 1.049-.677.163-.334-.28-.803-.398-1.065-.19-.415-.289-.767-.316-1.173a2.27 2.27 0 0 1-1.509-.966c-.515-.758-.877-2.157-.425-3.213.036-.081.208-.253.235-.379.054-.253-.099-.587-.109-.857-.045-1.381.235-2.572 1.166-2.987.38-1.507 1.735-2.003 3.01-2.752.479-.28 1.003-.46 1.546-.659 1.943-.713 4.935-.578 6.553.641.687.514 1.781 1.606 2.169 2.401 1.039 2.085.958 5.577.235 8.122-.099.343-.235.839-.434 1.254-.136.289-.561.857-.515 1.11.054.262.976.957 1.175 1.146.353.343 1.03.794 1.085 1.227.063.46-.199 1.092-.334 1.534l-1.365 4.169h0zM9.669 11.813c.054-.072.361-.19.795.018 0 0-.515.081-.47.939l-.217-.045c.009.009-.217-.767-.108-.912z" fill="#333"/><path d="M13.412 19.141a.24.24 0 0 1-.235.235.24.24 0 0 1-.235-.235.24.24 0 0 1 .235-.235c.136 0 .235.108.235.235zm.235 1.092a.24.24 0 0 1-.235.235.24.24 0 0 1-.235-.235.24.24 0 0 1 .235-.235c.136 0 .235.099.235.235z" fill="#aaa"/><path d="M43.475 8.661l-.847.121-.806.161c-.363.08-.565.242-.645.484s-.161.484-.161.807v9.838c0 .865-.193 1.719-.564 2.5a5.29 5.29 0 0 1-1.492 1.895c-.645.484-1.371.887-2.177 1.129S35.129 26 34.242 26c-1.573 0-2.822-.363-3.79-1.129S29 23.097 29 21.766c0-.766.202-1.411.645-1.935s1.048-.766 1.814-.766c.726 0 1.29.201 1.734.645a2.13 2.13 0 0 1 .645 1.573c0 .524-.202 1.049-.565 1.491s-.806.887-1.29 1.25v.161c.08.161.242.322.483.443s.524.161.766.161c1.008 0 1.814-.363 2.379-1.089s.847-1.814.847-3.266V10.355c0-.282-.041-.564-.121-.766s-.323-.363-.685-.524c-.242-.121-.565-.202-.927-.282l-.887-.161v-.968h9.516v1.008h.121 0zm14.919 13.871c-.282.484-.645.927-1.048 1.371s-.887.766-1.411 1.089c-.565.323-1.129.565-1.693.726s-1.25.242-1.976.242c-1.25 0-2.298-.161-3.226-.524-.887-.363-1.653-.806-2.218-1.411-.605-.605-1.008-1.291-1.331-2.097-.294-.843-.444-1.729-.443-2.621 0-.846.161-1.693.484-2.459s.766-1.492 1.331-2.097 1.29-1.089 2.177-1.452a7.6 7.6 0 0 1 2.903-.565c1.169 0 2.138.162 2.903.444s1.371.686 1.855 1.17.806 1.048 1.048 1.693c.202.645.322 1.331.322 2.056v.807h-8.507c0 1.734.323 3.024 1.008 3.911.645.887 1.734 1.33 3.145 1.33.807 0 1.492-.202 2.137-.645.644-.436 1.193-.999 1.613-1.654l.927.686h0zm-4.798-4.799a20.58 20.58 0 0 0-.081-1.532c-.041-.524-.121-.968-.282-1.29-.161-.403-.322-.685-.605-.887-.242-.201-.565-.282-.927-.282-.645 0-1.169.323-1.532.968-.404.645-.605 1.693-.645 3.105l4.072-.081h0zm22.579 7.782h-7.58v-.927c.161 0 .363-.041.565-.081.242-.04.403-.081.524-.121.161-.081.282-.242.363-.404s.121-.443.121-.766v-5.887c0-.846-.161-1.492-.484-1.935s-.766-.645-1.412-.645c-.323 0-.645.041-.927.161-.282.081-.565.242-.847.443-.242.161-.443.323-.605.524-.161.161-.282.323-.363.484v6.734c0 .282.041.524.121.726a.87.87 0 0 0 .403.444c.121.081.282.161.484.202l.605.121v.927h-7.661v-.927c.202 0 .403-.041.645-.081l.565-.121c.282-.081.443-.242.565-.444a1.97 1.97 0 0 0 .161-.766v-7.339c0-.242-.08-.524-.202-.766s-.323-.444-.524-.605c-.161-.081-.323-.202-.565-.242a2.35 2.35 0 0 0-.766-.121v-.927l6.008-.323.202.202v1.815h.041l.846-.766.927-.726c.323-.202.726-.363 1.21-.524s1.048-.202 1.613-.202c1.371 0 2.379.403 3.064 1.17s1.008 1.814 1.008 3.105v6.169c0 .323.041.565.121.726.081.202.282.323.524.444.121.041.282.121.484.161l.686.121v.967h.08 0zm17.338 0h-5.927L85.57 22.25l-1.694-2.46-.726.645v2.742c0 .282.041.565.121.726.08.202.242.323.524.443.161.081.323.121.524.161a3.09 3.09 0 0 0 .605.081v.927h-7.822v-.927c.202 0 .403-.041.645-.081l.565-.121c.282-.081.443-.242.564-.444.081-.202.161-.443.161-.766V9.145c0-.282-.081-.565-.202-.847s-.282-.524-.524-.686c-.161-.08-.403-.202-.726-.242-.323-.081-.605-.121-.887-.121v-.927L82.949 6l.201.202v12.984l2.097-1.935 1.855-1.814c.282-.283.444-.484.444-.645.04-.161.04-.242.04-.282 0-.161-.121-.282-.403-.363s-.645-.202-1.21-.282v-.887h6.37v.887l-1.935.645c-.444.202-.928.484-1.451.806l-1.008.726-1.129.927 2.258 3.307 2.177 3.226c.242.403.565.645.968.806.403.121.766.202 1.169.242v.967h.121 0zm8.064 0h-7.943v-.927c.201 0 .443-.041.645-.081l.524-.121c.282-.081.444-.242.565-.444s.161-.443.161-.766v-7.339a1.54 1.54 0 0 0-.201-.766c-.106-.219-.274-.401-.484-.524-.162-.081-.363-.202-.686-.282s-.605-.161-.847-.161v-.927l6.169-.323.202.202v10c0 .282.081.524.201.766.122.202.323.363.525.444a2.32 2.32 0 0 0 .564.202l.645.121v.927h-.04 0zM99.763 8.379c0 .645-.242 1.169-.726 1.612s-1.089.686-1.734.686c-.686 0-1.25-.242-1.774-.686-.483-.443-.726-1.008-.726-1.613 0-.645.242-1.169.726-1.653a2.57 2.57 0 0 1 1.774-.686c.686 0 1.25.242 1.734.686a2.17 2.17 0 0 1 .726 1.653h0zm19.595 17.137h-7.58v-.927c.162 0 .363-.041.565-.081.241-.04.403-.081.524-.121.161-.081.282-.242.363-.404s.121-.443.121-.766v-5.887c0-.846-.161-1.492-.484-1.935s-.766-.645-1.411-.645c-.323 0-.646.041-.928.161s-.565.242-.847.443c-.241.161-.443.323-.604.524a1.87 1.87 0 0 0-.363.484v6.734c0 .282.04.524.121.726a.87.87 0 0 0 .403.444c.121.081.282.161.484.202l.605.121v.927h-7.661v-.927c.201 0 .403-.041.645-.081l.564-.121c.282-.081.444-.242.565-.444a1.98 1.98 0 0 0 .161-.766v-7.339c0-.242-.081-.524-.201-.766s-.323-.444-.525-.605c-.161-.081-.322-.202-.564-.242a2.35 2.35 0 0 0-.766-.121v-.927l6.008-.323.201.202v1.815h.041l.846-.766.928-.726c.322-.202.725-.363 1.209-.524s1.049-.202 1.613-.202c1.371 0 2.379.403 3.064 1.17s1.008 1.814 1.008 3.105v6.169c0 .323.041.565.121.726.081.202.283.323.524.444.122.041.283.121.484.161l.686.121v.967h.08 0zm6.976.443c-.807 0-1.613-.121-2.379-.363s-1.371-.484-1.814-.766l-.363.847h-.968L120.649 21h.927c.121.363.323.806.645 1.29.283.484.645.887 1.008 1.29a6.95 6.95 0 0 0 1.371.968c.524.242 1.048.403 1.613.403.766 0 1.331-.161 1.694-.444s.564-.766.564-1.371c0-.323-.081-.605-.242-.847-.161-.201-.403-.403-.685-.565a6.84 6.84 0 0 0-1.089-.443l-1.451-.444c-.565-.161-1.049-.323-1.452-.524-.404-.161-.847-.444-1.25-.807-.363-.322-.685-.726-.887-1.169-.242-.444-.323-1.008-.323-1.653 0-1.17.484-2.138 1.492-2.863s2.298-1.089 3.911-1.089c.766 0 1.452.081 2.097.242s1.169.323 1.613.524l.282-.726h.967l.202 4.274h-.887c-.282-.887-.806-1.613-1.492-2.258-.726-.645-1.492-.968-2.298-.968-.645 0-1.169.121-1.532.403s-.565.645-.565 1.129a1.44 1.44 0 0 0 .807 1.371c.524.282 1.29.565 2.258.806 1.491.404 2.58.928 3.306 1.573.685.685 1.048 1.532 1.048 2.54 0 1.371-.524 2.46-1.613 3.186-1.209.725-2.621 1.128-4.354 1.128h0z" fill="#fff"/></svg>