<svg width="114" height="28" fill="none" xmlns="http://www.w3.org/2000/svg"><g clip-path="url(#a)" fill-rule="evenodd" clip-rule="evenodd"><path d="M5.373 15.55c1.04-.596 1.042-2.527.004-4.313-1.038-1.786-2.722-2.75-3.762-2.153-1.04.596-1.042 2.527-.004 4.313 1.038 1.786 2.722 2.75 3.762 2.153Zm.006 3.824c1.038 1.786 1.037 3.717-.003 4.314-1.04.596-2.725-.368-3.762-2.154-1.038-1.785-1.037-3.716.003-4.313 1.04-.596 2.725.367 3.762 2.153Zm7.087 4.07c1.038 1.787 1.036 3.718-.004 4.314-1.04.597-2.724-.367-3.762-2.153-1.037-1.786-1.036-3.717.004-4.314 1.04-.596 2.724.368 3.762 2.154Zm-.002-8.136c1.038 1.785 1.036 3.717-.004 4.313-1.04.597-2.724-.367-3.762-2.153-1.038-1.786-1.036-3.717.004-4.314 1.04-.596 2.724.368 3.762 2.154Z" fill="#D0D0D6"/><path d="M26.641 13.402c1.038-1.786 1.036-3.717-.004-4.314-1.04-.596-2.724.368-3.762 2.154-1.038 1.785-1.036 3.716.004 4.313 1.04.596 2.724-.368 3.762-2.153Zm0 3.821c1.04.597 1.042 2.528.004 4.314s-2.722 2.75-3.762 2.153c-1.04-.596-1.041-2.527-.004-4.313 1.038-1.786 2.722-2.75 3.762-2.154Zm-7.085 4.064c1.04.597 1.042 2.528.004 4.314-1.038 1.785-2.722 2.75-3.762 2.153-1.04-.596-1.042-2.528-.004-4.313 1.038-1.786 2.722-2.75 3.762-2.154Zm-.004-8.135c1.04.597 1.042 2.528.004 4.313-1.038 1.786-2.722 2.75-3.762 2.154-1.04-.597-1.042-2.528-.004-4.314 1.038-1.785 2.722-2.75 3.762-2.153Z" fill="#B8B8C1"/><path d="M17.883 2.16c0 1.193-1.683 2.16-3.758 2.16-2.076 0-3.758-.967-3.758-2.16S12.049 0 14.125 0c2.075 0 3.758.967 3.758 2.16Zm-7.085 4.06c0 1.193-1.683 2.16-3.759 2.16-2.075 0-3.758-.967-3.758-2.16S4.964 4.06 7.04 4.06c2.076 0 3.759.967 3.759 2.16Zm10.421 2.16c2.076 0 3.758-.967 3.758-2.16s-1.682-2.16-3.758-2.16c-2.075 0-3.758.967-3.758 2.16s1.683 2.16 3.758 2.16Zm-3.336 1.909c0 1.193-1.683 2.16-3.758 2.16-2.076 0-3.758-.967-3.758-2.16s1.682-2.16 3.758-2.16c2.075 0 3.758.967 3.758 2.16ZM68.426 5.019h1.397c.434 0 .675.24.675.67v16.118c0 .431-.241.67-.675.67h-1.397c-.434 0-.675-.239-.675-.67V5.69c0-.43.241-.67.675-.67ZM41.555 22.478c.433 0 .674-.24.674-.67V16.41h2.83c3.59 0 5.842-2.13 5.842-5.337 0-3.195-2.252-5.337-5.841-5.337H40.06c-.433 0-.674.24-.674.67v15.4c0 .431.24.67.674.67h1.494Zm.674-14.36h2.65c2.023 0 3.168 1.16 3.168 2.956 0 1.807-1.145 2.967-3.168 2.967h-2.65V8.118Zm10.696 2.645v6.964c0 3.051 1.987 5.026 4.986 5.026 1.59 0 2.951-.778 3.794-1.915v.97c0 .43.241.67.675.67h1.41c.433 0 .674-.24.674-.67V10.762c0-.431-.241-.67-.675-.67H62.38c-.434 0-.675.239-.675.67v6.079c0 2.058-1.493 3.506-3.227 3.506-1.663 0-2.807-1.173-2.807-2.848v-6.737c0-.431-.24-.67-.674-.67h-1.398c-.433 0-.674.239-.674.67Zm20.632 0v6.964c0 3.051 1.987 5.026 4.986 5.026 1.59 0 2.951-.778 3.795-1.915v.97c0 .43.24.67.674.67h1.41c.433 0 .674-.24.674-.67V10.762c0-.431-.241-.67-.675-.67h-1.409c-.433 0-.674.239-.674.67v6.079c0 2.058-1.494 3.506-3.228 3.506-1.662 0-2.807-1.173-2.807-2.848v-6.737c0-.431-.24-.67-.674-.67h-1.397c-.434 0-.675.239-.675.67Zm34.134 4.08v6.976c0 .431-.241.67-.674.67h-1.409c-.434 0-.675-.239-.675-.67v-6.736c0-1.676-1.048-2.848-2.59-2.848-1.553 0-3.023 1.555-3.023 3.434v6.15c0 .431-.24.67-.674.67h-1.41c-.433 0-.674-.239-.674-.67v-6.736c0-1.676-1.048-2.848-2.59-2.848-1.48 0-3.023 1.412-3.023 3.434v6.15c0 .431-.24.67-.674.67h-1.41c-.433 0-.674-.239-.674-.67V10.763c0-.431.241-.67.675-.67h1.409c.433 0 .674.239.674.67v.945c.88-1.149 2.144-1.903 3.602-1.903 1.879 0 3.456.97 4.24 2.573.818-1.555 2.336-2.573 4.118-2.573 2.711 0 4.782 1.987 4.782 5.038Zm6.143-8.125c0-.945-.747-1.675-1.711-1.675-.963 0-1.698.73-1.698 1.675 0 .934.735 1.664 1.698 1.664.964 0 1.711-.73 1.711-1.664Zm-.337 4.045c0-.431-.241-.67-.675-.67h-1.397c-.434 0-.675.239-.675.67v11.045c0 .43.241.67.675.67h1.397c.434 0 .675-.24.675-.67V10.763Z" fill="#fff"/></g><defs><clipPath id="a"><path fill="#fff" transform="translate(.834)" d="M0 0h113v28H0z"/></clipPath></defs></svg>