<svg width="143" height="46" xmlns="http://www.w3.org/2000/svg"><g fill="#fff" fill-rule="evenodd"><path d="m62.362 16.847 1.547 1.53v1.827h-2.561v-1.02l-.483-.478h-2.761l-.5.478v1.925l.366.362h4.608l1.365 1.366v3.784l-1.597 1.58h-5.79l-1.564-1.53v-1.843h2.562v1.036l.483.477h2.861l.483-.493v-1.991l-.366-.379h-4.592l-1.38-1.35v-3.701l1.613-1.58h5.706Zm11.412 0 1.663 1.662v4.081l-1.663 1.662h-4.775V28.2h-2.562V16.847h7.337Zm9.165 0L86.117 28.2h-2.63l-.648-2.55h-3.743l-.649 2.55h-2.445l3.177-11.354h3.76Zm12.127 0 1.68 1.662v2.205h-2.562v-1.366l-.615-.61h-2.596l-.665.66v6.285l.665.658h2.596l.615-.608v-1.448h2.562v2.254l-1.68 1.662h-5.623l-1.697-1.678v-7.998l1.697-1.678h5.623Zm11.71 0v1.942h-5.024v2.682h4.575v1.942h-4.575v2.846h5.057v1.942H99.19V16.847h7.586Zm5.04 0v9.33h4.392V28.2h-6.954V16.847h2.562Zm19.995 0v1.942h-4.841v2.945h4.409v1.925h-4.41v4.542h-2.561V16.847h7.403Zm10.197 0v2.04h-3.128v9.314h-2.562v-9.313h-3.127v-2.041h8.817Zm-20.543-.046v11.4h-2.614V16.8h2.614Zm-40.49 1.461-1.397 5.463h2.779l-1.381-5.463Zm-8.682.395h-3.294v3.785h3.294l.582-.576v-2.633l-.582-.576ZM18.558 44.792 1.762 35.167C.754 34.59.141 33.572.14 32.477L.14 18.915 24.316 32.77l-.745 1.106c-1 1.486-3.117 1.943-4.728 1.02L4.985 26.955v4.797l15.384 8.816 13.312-7.627L1.945 14.518c-1.692-.982-1.731-3.245-.074-4.277L19.186.318a2.596 2.596 0 0 1 2.556 0l17.33 9.931c1.008.578 1.62 1.596 1.621 2.692l.001 13.56-24.177-13.855.745-1.107c1-1.486 3.117-1.943 4.728-1.02l13.858 7.943v-4.797L20.464 4.848l-13.31 7.628 31.014 17.773c2.162 1.24 2.162 4.144 0 5.383l-15.987 9.16a3.677 3.677 0 0 1-3.623 0Z"/></g></svg>