<svg width="133" height="32" fill="none" xmlns="http://www.w3.org/2000/svg"><g clip-path="url(#a)" fill="#fff"><path d="M41.15 4.182V2.463h-1.596v1.719h-.776V.059h.803v1.729h1.596V.058h.803v4.124h-.83Zm3.724 0h-.638l-.058-.203c-.27.174-.584.27-.905.277-.564 0-.809-.372-.809-.883 0-.607.272-.835.905-.835h.745v-.33c0-.33-.096-.447-.59-.447a4.5 4.5 0 0 0-.857.09l-.107-.564a4.196 4.196 0 0 1 1.064-.138c.974 0 1.261.33 1.261 1.064l-.01 1.969Zm-.76-1.123h-.575c-.255 0-.324.07-.324.293 0 .223.069.298.313.298a1.26 1.26 0 0 0 .586-.155V3.06Zm2.399 1.197a3.789 3.789 0 0 1-1.064-.17l.106-.57c.3.083.61.126.92.128.347 0 .395-.074.395-.298 0-.223-.038-.276-.532-.388-.756-.176-.846-.362-.846-.936 0-.575.26-.878 1.149-.878.313 0 .625.037.93.106l-.074.59a5.67 5.67 0 0 0-.851-.084c-.335 0-.394.074-.394.255 0 .18 0 .255.437.362.867.218.947.33.947.941 0 .612-.187.942-1.123.942Zm3.554-.058v-2.07c0-.16-.07-.24-.25-.24a2.203 2.203 0 0 0-.809.24v2.054h-.777V0l.777.117v1.314c.354-.174.74-.271 1.133-.287.532 0 .703.346.703.878v2.16l-.777.016ZM51.493.803V.06h.776v.728l-.776.016Zm0 3.395v-2.99h.776v2.974l-.776.016Zm1.393-2.948c0-.745.453-1.18 1.506-1.18.387-.001.773.043 1.15.132l-.091.665a6.496 6.496 0 0 0-1.038-.106c-.532 0-.729.18-.729.617v1.548c0 .43.176.617.73.617a6.495 6.495 0 0 0 1.037-.106l.09.665a4.985 4.985 0 0 1-1.149.133c-1.064 0-1.506-.431-1.506-1.181V1.25Zm4.373 3.006c-1.063 0-1.346-.564-1.346-1.17V2.32c0-.612.288-1.17 1.347-1.17 1.058 0 1.346.563 1.346 1.17v.75c.005.611-.282 1.186-1.346 1.186Zm0-2.463c-.415 0-.574.175-.574.532v.798c0 .335.16.532.575.532.415 0 .574-.176.574-.532v-.83c0-.335-.16-.51-.575-.51v.01Zm3.533.048a6.157 6.157 0 0 0-.82.43v1.916h-.776v-2.98h.654l.054.33c.253-.163.527-.294.813-.388l.075.692Zm3.102 1.351a.92.92 0 0 1-1.022 1.064 4.449 4.449 0 0 1-.825-.085v1.202l-.776.117V1.234h.617l.074.25c.286-.204.628-.314.98-.314.622 0 .952.357.952 1.032v.99Zm-1.852.335c.226.049.456.076.686.08.282 0 .389-.128.389-.399V2.144c0-.245-.096-.378-.383-.378-.255.01-.499.105-.692.272v1.49Zm-18.535 6.868h-4.73V7.57h12.668v2.825H46.71V24.51h-3.192l-.01-14.114Z"/><path d="M54.365 22.222a12.973 12.973 0 0 0 3.788-.585l.484 2.34a13.3 13.3 0 0 1-4.553.788c-3.89 0-5.24-1.804-5.24-4.788v-3.272c0-2.617 1.17-4.83 5.138-4.83 3.97 0 4.858 2.314 4.858 4.984v2.66h-6.917v.639c.027 1.479.56 2.064 2.442 2.064Zm-2.415-5.198h3.942v-.628c0-1.17-.356-1.984-1.883-1.984-1.527 0-2.059.814-2.059 1.984v.628Zm15.183-2.303a24.28 24.28 0 0 0-3.293 1.803v7.98H60.74v-12.38h2.617l.202 1.373a13.881 13.881 0 0 1 3.256-1.628l.32 2.852Zm7.576 0a24.287 24.287 0 0 0-3.282 1.803v7.98h-3.102v-12.38h2.618l.202 1.373a13.877 13.877 0 0 1 3.256-1.628l.308 2.852Zm10.38 9.788h-2.543l-.23-.84a6.773 6.773 0 0 1-3.686 1.096c-2.26 0-3.23-1.554-3.23-3.687 0-2.516 1.097-3.485 3.613-3.485h2.974v-1.298c0-1.372-.383-1.856-2.367-1.856a17.304 17.304 0 0 0-3.432.383l-.383-2.368a16.161 16.161 0 0 1 4.256-.585c3.89 0 5.038 1.373 5.038 4.474l-.01 8.166Zm-3.102-4.681h-2.288c-1.016 0-1.298.282-1.298 1.218 0 .936.282 1.245 1.245 1.245a4.884 4.884 0 0 0 2.341-.638v-1.825ZM94.622 9.299a9.103 9.103 0 0 0-1.782-.202c-1.218 0-1.4.532-1.4 1.474v1.553h3.156l-.176 2.469h-2.974v9.916h-3.102v-9.916H86.36v-2.469h1.984v-1.729c0-2.57 1.198-3.84 3.943-3.84a9.826 9.826 0 0 1 2.66.356l-.325 2.388Zm6.054 15.466c-4.256 0-5.389-2.341-5.389-4.884v-3.128c0-2.543 1.144-4.884 5.389-4.884 4.246 0 5.389 2.34 5.389 4.884v3.128c.006 2.543-1.143 4.884-5.389 4.884Zm0-10.252c-1.654 0-2.287.74-2.287 2.128v3.33c0 1.4.638 2.128 2.287 2.128 1.65 0 2.288-.739 2.288-2.128v-3.32c0-1.398-.633-2.138-2.288-2.138Zm13.375.208a24.342 24.342 0 0 0-3.283 1.803v7.98h-3.101v-12.38h2.617l.202 1.373a13.893 13.893 0 0 1 3.256-1.628l.309 2.852Zm8.523 9.788v-8.645c0-.66-.282-.99-.99-.99a8.549 8.549 0 0 0-3.229 1.065v8.57h-3.102V12.124h2.368l.303 1.064a12.408 12.408 0 0 1 4.969-1.319 2.348 2.348 0 0 1 2.341 1.325 12.14 12.14 0 0 1 4.984-1.325c2.059 0 2.799 1.447 2.799 3.66v8.98h-3.102v-8.645c0-.66-.282-.99-.989-.99a8.214 8.214 0 0 0-3.23 1.065v8.57h-3.122ZM19.365 10.746v10.071l8.725-5.032V5.703l-8.725 5.043ZM9.682 5.703l8.725 5.043v10.071L9.682 15.78V5.703ZM0 .08v10.076l8.725 5.038V5.118L0 .08Zm9.682 26.882L18.407 32V21.924l-8.725-5.038v10.076Z"/></g><defs><clipPath id="a"><path fill="#fff" d="M0 0h133.001v32H0z"/></clipPath></defs></svg>