<svg width="202" height="33" fill="none" xmlns="http://www.w3.org/2000/svg"><path d="m158.741 25.796.237 1.918c-1.486.298-2.998.45-4.514.454-4.195 0-6.15-1.677-6.15-5.272v-7.96c0-3.604 1.955-5.281 6.15-5.281a23.24 23.24 0 0 1 4.514.482l-.237 1.918a27.832 27.832 0 0 0-4.2-.373c-2.972 0-3.986.86-3.986 3.391V22.8c0 2.532 1.014 3.387 3.986 3.387a27.866 27.866 0 0 0 4.2-.391ZM162.692 9.063v18.855h-2.187V9.378l2.187-.315ZM174.809 15.945c-.909-.95-2.296-1.431-4.091-1.431-4.636 0-5.332 3.086-5.332 4.927v3.827c0 1.818.696 4.923 5.332 4.923 1.818 0 3.182-.482 4.091-1.427a4.949 4.949 0 0 0 1.227-3.496v-3.827a4.939 4.939 0 0 0-1.227-3.495Zm-.959 7.405c0 1.96-1.055 2.955-3.146 2.955s-3.168-.996-3.168-2.955v-3.995c0-1.955 1.059-2.95 3.141-2.95s3.146.995 3.146 2.95l.027 3.995ZM188.741 14.786v13.137h-1.764l-.218-1.168-.055.027c-1.454.7-3.745 1.404-5.304 1.404-1.905 0-2.832-1.081-2.832-3.322V14.786h2.186v10.055c0 .868.423 1.273 1.323 1.273 1.018 0 3.055-.614 4.45-1.337h.027v-10l2.187.01ZM199.56 9.377v5.56h-.059c-1.24-.25-2.5-.386-3.764-.41-2.859 0-4.25 1.4-4.25 4.273v5.39c0 2.692 1.25 4 3.814 4a7.001 7.001 0 0 0 4.341-1.436l.068-.045.195 1.236h1.841V9.063l-2.186.314Zm0 15.296a6.123 6.123 0 0 1-3.782 1.59c-1.727 0-2.082-.831-2.082-2.086v-5.39c0-1.65.655-2.355 2.196-2.355a21.75 21.75 0 0 1 3.636.404h.041l-.009 7.837ZM44.754 12.846H39.64V9.79h13.691v3.055h-5.113v15.272h-3.464V12.846Z" fill="#fff"/><path d="M56.95 25.632A13.983 13.983 0 0 0 61.04 25l.523 2.527c-1.583.572-3.253.86-4.936.855-4.205 0-5.664-1.955-5.664-5.173v-3.545c0-2.832 1.264-5.223 5.555-5.223 4.29 0 5.254 2.5 5.254 5.386v2.864h-7.418v.686c0 1.623.56 2.255 2.596 2.255Zm-2.596-5.637h4.264v-.663c0-1.264-.387-2.141-2.037-2.141s-2.227.877-2.227 2.14v.665ZM70.755 17.518a25.768 25.768 0 0 0-3.55 1.955v8.645H63.85V14.714h2.832l.223 1.486a14.848 14.848 0 0 1 3.518-1.76l.332 3.078ZM78.945 17.518a25.984 25.984 0 0 0-3.545 1.955v8.645h-3.355V14.714h2.832l.219 1.486a14.883 14.883 0 0 1 3.522-1.76l.328 3.078ZM90.164 28.118h-2.75l-.246-.909a7.34 7.34 0 0 1-3.986 1.182c-2.45 0-3.495-1.677-3.495-3.986 0-2.728 1.186-3.769 3.904-3.769h3.218v-1.413c0-1.482-.409-2.005-2.554-2.005-1.249.013-2.493.15-3.714.41l-.413-2.555a17.421 17.421 0 0 1 4.59-.632c4.21 0 5.455 1.482 5.455 4.836l-.01 8.841Zm-3.355-5.072h-2.454c-1.1 0-1.405.304-1.405 1.322 0 .91.305 1.364 1.364 1.364a5.309 5.309 0 0 0 2.527-.686l-.032-2ZM100.477 11.664a9.613 9.613 0 0 0-1.927-.223c-1.318 0-1.509.577-1.509 1.595v1.678h3.409l-.186 2.668H97.05v10.736h-3.355V17.382H91.55v-2.669h2.145v-1.868c0-2.777 1.291-4.154 4.26-4.154.975-.004 1.946.126 2.886.386l-.364 2.587ZM107.018 28.382c-4.591 0-5.845-2.537-5.845-5.264v-3.4c0-2.727 1.236-5.277 5.827-5.277s5.832 2.527 5.832 5.277v3.4c.018 2.728-1.205 5.264-5.814 5.264Zm0-11.082c-1.786 0-2.473.796-2.473 2.31v3.6c0 1.513.687 2.313 2.473 2.313 1.787 0 2.477-.8 2.477-2.314v-3.6c0-1.49-.686-2.309-2.477-2.309ZM121.482 17.518a26.031 26.031 0 0 0-3.546 1.955v8.645h-3.354V14.714h2.832l.218 1.486a14.966 14.966 0 0 1 3.541-1.76l.309 3.078ZM130.718 28.118v-9.363c0-.714-.304-1.073-1.072-1.073-.769 0-2.273.495-3.491 1.132v9.304h-3.359V14.714h2.559l.332 1.127a13.442 13.442 0 0 1 5.359-1.4c1.295 0 2.091.523 2.531 1.427a13.185 13.185 0 0 1 5.391-1.427c2.228 0 3.023 1.564 3.023 3.959v9.718h-3.354v-9.363c0-.714-.305-1.073-1.073-1.073a8.827 8.827 0 0 0-3.491 1.132v9.304h-3.355Z" fill="#fff"/><path fill-rule="evenodd" clip-rule="evenodd" d="m9.637 6.523 8.682 5.013v10.028L9.637 16.55V6.523ZM19.267 11.536v10.028l8.687-5.014V6.523l-8.687 5.013ZM0 .927v10.028l8.682 5.013V5.941L0 .927ZM9.637 27.677l8.682 5.014V22.664L9.637 17.65v10.027Z" fill="#fff"/></svg>