<svg width="1456" height="832" viewBox="0 0 1456 832" fill="none" xmlns="http://www.w3.org/2000/svg">
<mask id="mask0_3_407" style="mask-type:alpha" maskUnits="userSpaceOnUse" x="0" y="0" width="1456" height="832">
<path d="M0 0H1456V832H0V0Z" fill="#FCA326"/>
<path d="M0 0H1456V832H0V0Z" fill="#FCA326"/>
<path d="M0 0H1456V832H0V0Z" fill="#FCA326"/>
<path d="M0 0H1456V832H0V0Z" fill="#FCA326"/>
</mask>
<g mask="url(#mask0_3_407)">
<path d="M0 0H1456V832H0V0Z" fill="#F1D4C8"/>
<path d="M961.5 0H1459.5V345L0 352.5V110.5C0 110.5 131.333 29.6667 174.5 0H455C499.833 38.5 618.2 112.4 733 100C847.8 87.6 933.167 28.1667 961.5 0Z" fill="url(#paint0_linear_3_407)"/>
<path d="M1266 73C1313.2 53 1412 42 1455.5 39V170V487.5L1166 649L909 621L561 294C657.5 289 766.5 328 943 251C1033.17 211.662 1207 98 1266 73Z" fill="url(#paint1_linear_3_407)"/>
<path d="M922.5 478.499C836.5 486.899 784.333 454.665 769 437.499V470.499L928 657.499L1187.5 661.499L1488.5 517.999L1473 444.999L1433.5 406.499C1408.67 385.165 1334.5 346.899 1236.5 364.499C1114 386.499 1030 467.999 922.5 478.499Z" fill="url(#paint2_linear_3_407)"/>
<path d="M891 539C874.5 530 641.102 321.296 592.5 299C441 229.5 364.991 311.276 240 299C147.295 289.895 87.9339 209.027 0 184V802.5H1454C1459.34 554.991 1544.5 305.301 1270.5 526C1088 673 1017.12 607.794 891 539Z" fill="url(#paint3_linear_3_407)"/>
<path d="M474.5 487.469C363.3 431.869 92 436.302 -1 453.469V831.969H1456V659.469C1431.5 661.636 1356.5 680.769 1252.5 739.969C1116 817.669 952.5 802.323 902.5 767.469C645 587.969 613.5 556.969 474.5 487.469Z" fill="url(#paint4_linear_3_407)"/>
<path d="M681.5 832.355C681.5 832.355 356 586.355 0 683.855V832.355H681.5Z" fill="url(#paint5_linear_3_407)"/>
</g>
<defs>
<linearGradient id="paint0_linear_3_407" x1="729.75" y1="0" x2="729.75" y2="352.5" gradientUnits="userSpaceOnUse">
<stop stop-color="#E4AB91"/>
<stop offset="1" stop-color="#FFCCAF"/>
</linearGradient>
<linearGradient id="paint1_linear_3_407" x1="1008.25" y1="39" x2="1008.25" y2="649" gradientUnits="userSpaceOnUse">
<stop stop-color="#F99E3E"/>
<stop offset="1" stop-color="#FFCFB9"/>
</linearGradient>
<linearGradient id="paint2_linear_3_407" x1="1128.75" y1="360" x2="1128.75" y2="661.499" gradientUnits="userSpaceOnUse">
<stop stop-color="#945EBE"/>
<stop offset="1" stop-color="#7C5CC1"/>
</linearGradient>
<linearGradient id="paint3_linear_3_407" x1="783.5" y1="493" x2="1513" y2="631.5" gradientUnits="userSpaceOnUse">
<stop stop-color="#BE63B5"/>
<stop offset="1" stop-color="#D5909F"/>
</linearGradient>
<linearGradient id="paint4_linear_3_407" x1="1271" y1="666" x2="610.5" y2="733.5" gradientUnits="userSpaceOnUse">
<stop stop-color="#7D5CC1"/>
<stop offset="1" stop-color="#945EBE"/>
</linearGradient>
<linearGradient id="paint5_linear_3_407" x1="340.75" y1="661" x2="340.75" y2="832.355" gradientUnits="userSpaceOnUse">
<stop stop-color="#785AC2"/>
<stop offset="1" stop-color="#785AC2" stop-opacity="0"/>
</linearGradient>
</defs>
</svg>
