<svg width="156" height="156" viewBox="0 0 156 156" fill="none" xmlns="http://www.w3.org/2000/svg">
<path d="M99.478 4.56593L52.0865 51.9574H78.3247C95.99 51.9574 104.043 68.5833 104.043 77.9358V149.636C104.043 153.08 106.835 155.871 110.278 155.871H149.506C152.949 155.871 155.741 153.082 155.747 149.639C155.787 127.586 156 85.2528 156 51.9574C156 22.7409 133.413 3.51517 110.48 0.435855C106.382 -0.114281 102.401 1.6428 99.478 4.56593Z" fill="white"/>
<path d="M0.129639 109.079C0.129639 105.772 1.4434 102.6 3.78191 100.262L13.6384 90.4052V149.636C13.6384 153.079 10.847 155.871 7.40359 155.871H6.36445C2.92106 155.871 0.129639 153.079 0.129639 149.636V109.079Z" fill="white" fill-opacity="0.44"/>
<path d="M19.3542 89.855C19.3542 86.5478 20.6679 83.3762 23.0065 81.0376L32.8629 71.1812V149.636C32.8629 153.079 30.0715 155.871 26.6281 155.871H25.589C22.1456 155.871 19.3542 153.079 19.3542 149.636V89.855Z" fill="white" fill-opacity="0.44"/>
<path d="M38.5787 70.6311C38.5787 67.324 39.8925 64.1523 42.231 61.8138L52.0875 51.9573V149.636C52.0875 153.079 49.2961 155.871 45.8527 155.871H44.8136C41.3702 155.871 38.5787 153.079 38.5787 149.636V70.6311Z" fill="white" fill-opacity="0.44"/>
<path d="M38.6418 6.23542C38.6418 2.79203 41.4332 0.000610352 44.8766 0.000610352H45.9157C49.3591 0.000610352 52.1505 2.79203 52.1505 6.23542V51.9574H44.8766C41.4332 51.9574 38.6418 49.166 38.6418 45.7226V6.23542Z" fill="white" fill-opacity="0.5"/>
<path d="M19.5468 6.23542C19.5468 2.79203 22.3382 0.000610352 25.7816 0.000610352H26.8208C30.2642 0.000610352 33.0556 2.79203 33.0556 6.23542V51.9574H25.7816C22.3382 51.9574 19.5468 49.166 19.5468 45.7226V6.23542Z" fill="white" fill-opacity="0.5"/>
<path d="M0.064209 6.23542C0.064209 2.79203 2.85563 0.000610352 6.29902 0.000610352H7.33816C10.7815 0.000610352 13.573 2.79203 13.573 6.23542V51.9574H6.29902C2.85563 51.9574 0.064209 49.166 0.064209 45.7226V6.23542Z" fill="white" fill-opacity="0.5"/>
</svg>
