<svg xmlns="http://www.w3.org/2000/svg" width="128" height="34" fill="#fff"  xmlns:v="https://vecta.io/nano"><path d="M74.497 9.4l7.364-2.742-7.364-2.82V0l12.612 5.092v3.133l-12.612 5.092V9.4zM4.857 33.684C2.193 33.684 0 32.353 0 29.376v-.157c0-3.603 3.133-4.857 6.972-4.857h1.802v-.705c0-1.488-.627-2.35-2.193-2.35-1.41 0-2.115.783-2.193 1.88H.47c.313-3.29 2.898-4.857 6.345-4.857 3.525 0 6.11 1.488 6.11 5.17v9.87H8.93v-1.723c-.783 1.097-2.115 2.037-4.073 2.037zm3.917-5.17v-1.41H7.129c-2.037 0-3.055.548-3.055 1.88v.157c0 1.018.627 1.723 2.037 1.723 1.41-.078 2.663-.862 2.663-2.35zm13.474 5.17c-4.073 0-7.05-2.507-7.05-7.52v-.235c0-5.013 3.133-7.677 7.05-7.677 3.369 0 6.11 1.723 6.424 5.562h-3.917c-.235-1.41-1.018-2.35-2.428-2.35-1.723 0-2.977 1.41-2.977 4.308v.47c0 2.977 1.097 4.308 2.977 4.308 1.41 0 2.428-1.018 2.663-2.663h3.76c-.235 3.447-2.507 5.797-6.502 5.797zm15.354 0c-4.073 0-7.05-2.507-7.05-7.52v-.235c0-5.013 3.133-7.677 7.05-7.677 3.368 0 6.11 1.723 6.424 5.562h-3.917c-.235-1.41-1.018-2.35-2.428-2.35-1.723 0-2.977 1.41-2.977 4.308v.47c0 2.977 1.097 4.308 2.977 4.308 1.41 0 2.428-1.018 2.663-2.663h3.76c-.235 3.447-2.507 5.797-6.502 5.797zm15.432 0c-4.23 0-7.129-2.507-7.129-7.442v-.313c0-4.935 3.055-7.677 7.05-7.677 3.682 0 6.737 2.037 6.737 6.972v1.802h-9.635c.157 2.663 1.332 3.682 3.055 3.682 1.567 0 2.428-.862 2.742-1.88h3.839c-.47 2.742-2.82 4.857-6.659 4.857zm-2.898-9.4h5.483c-.078-2.193-1.097-3.133-2.742-3.133-1.253.078-2.428.783-2.742 3.133zm12.064-5.64h4.152v2.193c.705-1.41 2.193-2.507 4.465-2.507 2.663 0 4.465 1.645 4.465 5.17v9.87H71.13v-9.244c0-1.723-.705-2.507-2.193-2.507-1.41 0-2.585.862-2.585 2.742v9.009H62.2V18.644zm20.68-4.465v4.465h2.82v3.055h-2.82v6.972c0 1.097.47 1.645 1.488 1.645.627 0 1.018-.078 1.41-.235v3.212c-.47.157-1.332.313-2.35.313-3.212 0-4.7-1.488-4.7-4.465v-7.442h-1.723v-3.055h1.723v-2.742l4.152-1.723zm18.33 19.192h-4.073v-2.193c-.705 1.41-2.115 2.507-4.309 2.507-2.663 0-4.622-1.645-4.622-5.092v-9.949h4.152v9.4c0 1.723.705 2.507 2.115 2.507s2.585-.94 2.585-2.742v-9.165h4.151v14.727zm3.055-14.727h4.152v2.742c.862-1.958 2.272-2.898 4.465-2.898v4.073c-2.82 0-4.465.862-4.465 3.29v7.598h-4.152V18.644zm16.999 15.04c-4.23 0-7.128-2.507-7.128-7.442v-.313c0-4.935 3.055-7.677 7.05-7.677 3.682 0 6.737 2.037 6.737 6.972v1.802h-9.557c.156 2.663 1.331 3.682 3.055 3.682 1.567 0 2.428-.862 2.742-1.88H128c-.627 2.742-2.898 4.857-6.737 4.857zm-2.977-9.4h5.562c-.078-2.193-1.096-3.133-2.742-3.133-1.253.078-2.428.783-2.82 3.133z"/></svg>