<svg xmlns="http://www.w3.org/2000/svg" width="122" height="32" fill="#fff"  xmlns:v="https://vecta.io/nano"><path d="M70.772 8.93l6.995-2.605-6.995-2.679V0l11.981 4.837v2.977l-11.981 4.837V8.93zM4.614 32C2.084 32 0 30.735 0 27.907v-.149c0-3.423 2.977-4.614 6.623-4.614h1.712v-.67c0-1.414-.595-2.233-2.084-2.233-1.34 0-2.009.744-2.084 1.786H.447c.298-3.126 2.753-4.614 6.028-4.614 3.349 0 5.805 1.414 5.805 4.912v9.377H8.484v-1.637C7.74 31.107 6.474 32 4.614 32zm3.721-4.912v-1.34H6.772c-1.935 0-2.902.521-2.902 1.786v.149c0 .967.595 1.637 1.935 1.637 1.34-.074 2.53-.819 2.53-2.233zM21.135 32c-3.87 0-6.698-2.381-6.698-7.144v-.223c0-4.763 2.977-7.293 6.698-7.293 3.2 0 5.805 1.637 6.102 5.284h-3.721c-.223-1.34-.968-2.233-2.307-2.233-1.637 0-2.828 1.34-2.828 4.093v.447c0 2.828 1.042 4.093 2.828 4.093 1.34 0 2.307-.967 2.53-2.53h3.572C27.088 29.767 24.93 32 21.135 32zm14.586 0c-3.87 0-6.698-2.381-6.698-7.144v-.223c0-4.763 2.977-7.293 6.698-7.293 3.2 0 5.805 1.637 6.102 5.284h-3.721c-.223-1.34-.967-2.233-2.307-2.233-1.637 0-2.828 1.34-2.828 4.093v.447c0 2.828 1.042 4.093 2.828 4.093 1.34 0 2.307-.967 2.53-2.53h3.572C41.674 29.767 39.516 32 35.721 32zm14.66 0c-4.019 0-6.772-2.381-6.772-7.07v-.298c0-4.688 2.902-7.293 6.698-7.293 3.498 0 6.4 1.935 6.4 6.623v1.712h-9.154c.149 2.53 1.265 3.498 2.902 3.498 1.488 0 2.307-.819 2.605-1.786h3.647C56.261 29.991 54.028 32 50.381 32zm-2.754-8.93h5.209c-.074-2.084-1.042-2.977-2.605-2.977-1.191.074-2.307.744-2.605 2.977zm11.461-5.358h3.944v2.084c.67-1.34 2.084-2.381 4.242-2.381 2.53 0 4.242 1.563 4.242 4.912v9.377h-3.944v-8.781c0-1.637-.67-2.381-2.084-2.381-1.34 0-2.456.819-2.456 2.605v8.558h-3.944V17.712zm19.646-4.242v4.242h2.679v2.902h-2.679v6.623c0 1.042.447 1.563 1.414 1.563.595 0 .967-.075 1.34-.223v3.051c-.447.149-1.265.298-2.233.298-3.051 0-4.465-1.414-4.465-4.242v-7.07h-1.637v-2.902h1.637v-2.605l3.944-1.637zm17.414 18.233h-3.87v-2.084C91.609 30.958 90.27 32 88.186 32c-2.53 0-4.391-1.563-4.391-4.837v-9.451h3.944v8.93c0 1.637.67 2.381 2.009 2.381s2.456-.893 2.456-2.605v-8.707h3.944v13.991zm2.902-13.991h3.944v2.605c.819-1.86 2.159-2.753 4.242-2.753v3.87c-2.679 0-4.242.819-4.242 3.126v7.219H99.05V17.712zM115.2 32c-4.019 0-6.772-2.381-6.772-7.07v-.298c0-4.688 2.902-7.293 6.698-7.293 3.497 0 6.4 1.935 6.4 6.623v1.712h-9.079c.148 2.53 1.265 3.498 2.902 3.498 1.488 0 2.307-.819 2.605-1.786h3.646c-.595 2.605-2.753 4.614-6.4 4.614zm-2.828-8.93h5.284c-.075-2.084-1.042-2.977-2.605-2.977-1.19.074-2.307.744-2.679 2.977z"/></svg>