<svg xmlns="http://www.w3.org/2000/svg" width="64" height="64" fill="#fff"  fill-rule="evenodd" xmlns:v="https://vecta.io/nano"><path d="M9.373 9.373A31.79 31.79 0 0 0 0 32a31.79 31.79 0 0 0 9.373 22.627C15.417 60.672 23.453 64 32 64c17.645 0 32-14.355 32-32a31.79 31.79 0 0 0-9.373-22.627A31.79 31.79 0 0 0 32 0 31.79 31.79 0 0 0 9.373 9.373zM1.319 32C1.319 15.056 15.056 1.319 32 1.319S62.681 15.056 62.681 32 48.945 62.681 32 62.681 1.319 48.945 1.319 32zm11.083 0c0 10.824 8.775 19.598 19.598 19.598S51.598 42.824 51.598 32 42.824 12.402 32 12.402 12.402 21.176 12.402 32zM32 32H13.663A18.34 18.34 0 0 1 32 13.663V32zm0 0h18.337A18.34 18.34 0 0 1 32 50.337V32zM15.002 13.064c.943-.585 1.947-.394 2.597.237.998.97.851 2.092-.098 3.224l-4.156 4.952-6.195-5.198 3.941-4.696c.816-.972 1.956-1.748 3.04-.839l.058.049c.295.246.443.369.825 1.066.096.263.169.739-.011 1.206zm20.153-7.633l-2.127 5.639h-1.766l-2.128-5.639v5.639h-1.617V2.994h2.429l2.198 5.752 2.198-5.752h2.429v8.076h-1.617V5.431zm16.566 13.308l3.044-4.31-1.34-1.655-4.848 2.082 3.173-4.15-1.249-1.543-5.066 6.517 1.481 1.814 4.786-1.97.017.021-2.922 4.272 1.467 1.826 7.428-3.601-1.25-1.543-4.719 2.24zm-38.477-5.973c-.399-.334-1.018-.348-1.292-.021l-2.367 2.821 1.464 1.229 2.34-2.789c.294-.351.293-.872-.145-1.24zm.404 6.209l2.467-2.94c.328-.39.28-.999-.198-1.4-.422-.355-1.049-.257-1.329.078L12.1 17.677l1.547 1.298z"/></svg>