<svg width="72" height="38" viewBox="0 0 72 38" fill="none" xmlns="http://www.w3.org/2000/svg">
<g clip-path="url(#clip0_1_4)">
<path d="M23.521 25.2449H20.364V37.7559H23.521V25.2449Z" fill="white"/>
<path d="M48.9768 28.8299C48.8498 28.7639 47.8348 28.1619 46.3248 28.1619C44.2798 28.1619 42.8648 29.5829 42.8648 31.4989C42.8648 33.3579 44.2208 34.8389 46.3248 34.8389C47.8088 34.8389 48.8408 34.2499 48.9768 34.1749V37.5329C48.5848 37.6439 47.5078 37.9779 46.0978 37.9779C42.5488 37.9779 39.4358 35.5299 39.4358 31.4989C39.4358 27.7629 42.2558 25.0229 46.0978 25.0229C47.5838 25.0229 48.6798 25.3839 48.9768 25.4719V28.8299Z" fill="white"/>
<path d="M16.0236 28.8299C15.8966 28.7639 14.8816 28.1619 13.3716 28.1619C11.3266 28.1619 9.9116 29.5829 9.9116 31.4989C9.9116 33.3579 11.2676 34.8389 13.3716 34.8389C14.8556 34.8389 15.8876 34.2499 16.0236 34.1749V37.5329C15.6316 37.6439 14.5546 37.9779 13.1446 37.9779C9.5956 37.9779 6.4826 35.5299 6.4826 31.4989C6.4826 27.7629 9.3026 25.0229 13.1446 25.0229C14.6306 25.0229 15.7266 25.3839 16.0236 25.4719V28.8299Z" fill="white"/>
<path d="M58.9084 28.2088C57.0354 28.2088 55.6444 29.6828 55.6444 31.4988C55.6444 33.3188 57.0354 34.7918 58.9084 34.7918C60.7794 34.7918 62.1744 33.3188 62.1744 31.4988C62.1744 29.6828 60.7794 28.2088 58.9084 28.2088ZM65.5194 31.4988C65.5194 35.0778 62.7564 37.9778 58.9084 37.9778C55.0604 37.9778 52.3014 35.0778 52.3014 31.4988C52.3014 27.9258 55.0604 25.0228 58.9084 25.0228C62.7564 25.0228 65.5194 27.9258 65.5194 31.4988Z" fill="white"/>
<path d="M35.4934 28.0887C35.4464 28.0737 34.1174 27.7067 33.0254 27.7067C31.7604 27.7067 31.0724 28.1307 31.0724 28.7317C31.0724 29.4937 32.0004 29.7597 32.5194 29.9237L33.3904 30.2007C35.4394 30.8527 36.3734 32.2557 36.3734 33.7797C36.3734 36.9227 33.6094 37.9787 31.1934 37.9787C29.5144 37.9787 27.9414 37.6697 27.7864 37.6367V34.7577C28.0644 34.8277 29.3884 35.2227 30.7674 35.2227C32.3384 35.2227 33.0604 34.7637 33.0604 34.0547C33.0604 33.4207 32.4354 33.0547 31.6524 32.8087C31.4614 32.7447 31.1744 32.6547 30.9784 32.5907C29.2204 32.0347 27.7544 31.0017 27.7544 28.9307C27.7544 26.5907 29.5064 25.0197 32.4164 25.0197C33.9534 25.0197 35.3994 25.3927 35.4934 25.4177V28.0887Z" fill="white"/>
<path d="M3.135 11.7996C3.135 10.9376 2.431 10.2386 1.568 10.2386C0.705 10.2386 0 10.9376 0 11.7996V15.0836C0 15.9506 0.705 16.6506 1.568 16.6506C2.431 16.6506 3.135 15.9506 3.135 15.0836V11.7996Z" fill="white"/>
<path d="M11.7443 7.48909C11.7443 6.62709 11.0403 5.92609 10.1773 5.92609C9.31331 5.92609 8.60931 6.62709 8.60931 7.48909V15.0841C8.60931 15.9511 9.31331 16.6501 10.1773 16.6501C11.0403 16.6501 11.7443 15.9511 11.7443 15.0841V7.48909Z" fill="white"/>
<path d="M20.3537 1.5916C20.3537 0.729602 19.6497 0.0296021 18.7867 0.0296021C17.9227 0.0296021 17.2187 0.729602 17.2187 1.5916V18.2046C17.2187 19.0716 17.9227 19.7716 18.7867 19.7716C19.6497 19.7716 20.3537 19.0716 20.3537 18.2046V1.5916Z" fill="white"/>
<path d="M28.9631 7.48909C28.9631 6.62709 28.2591 5.92609 27.3961 5.92609C26.5321 5.92609 25.8281 6.62709 25.8281 7.48909V15.0841C25.8281 15.9511 26.5321 16.6501 27.3961 16.6501C28.2591 16.6501 28.9631 15.9511 28.9631 15.0841V7.48909Z" fill="white"/>
<path d="M37.5627 11.7996C37.5627 10.9376 36.8637 10.2386 36.0047 10.2386C35.1417 10.2386 34.4377 10.9376 34.4377 11.7996V15.0836C34.4377 15.9506 35.1417 16.6506 36.0047 16.6506C36.8637 16.6506 37.5627 15.9506 37.5627 15.0836V11.7996Z" fill="white"/>
<path d="M37.5667 11.7996C37.5667 10.9376 36.8627 10.2386 35.9997 10.2386C35.1367 10.2386 34.4317 10.9376 34.4317 11.7996V15.0836C34.4317 15.9506 35.1367 16.6506 35.9997 16.6506C36.8627 16.6506 37.5667 15.9506 37.5667 15.0836V11.7996Z" fill="white"/>
<path d="M46.176 7.48909C46.176 6.62709 45.472 5.92609 44.609 5.92609C43.745 5.92609 43.041 6.62709 43.041 7.48909V15.0841C43.041 15.9511 43.745 16.6501 44.609 16.6501C45.472 16.6501 46.176 15.9511 46.176 15.0841V7.48909Z" fill="white"/>
<path d="M54.7854 1.5916C54.7854 0.729602 54.0814 0.0296021 53.2184 0.0296021C52.3544 0.0296021 51.6504 0.729602 51.6504 1.5916V18.2046C51.6504 19.0716 52.3544 19.7716 53.2184 19.7716C54.0814 19.7716 54.7854 19.0716 54.7854 18.2046V1.5916Z" fill="white"/>
<path d="M63.3948 7.48909C63.3948 6.62709 62.6908 5.92609 61.8278 5.92609C60.9638 5.92609 60.2598 6.62709 60.2598 7.48909V15.0841C60.2598 15.9511 60.9638 16.6501 61.8278 16.6501C62.6908 16.6501 63.3948 15.9511 63.3948 15.0841V7.48909Z" fill="white"/>
<path d="M71.9944 11.7996C71.9944 10.9376 71.2954 10.2386 70.4364 10.2386C69.5734 10.2386 68.8694 10.9376 68.8694 11.7996V15.0836C68.8694 15.9506 69.5734 16.6506 70.4364 16.6506C71.2954 16.6506 71.9944 15.9506 71.9944 15.0836V11.7996Z" fill="white"/>
<path d="M70.1936 36.1082V36.3042H69.6356V37.7552H69.4066V36.3042H68.8456V36.1082H70.1936Z" fill="white"/>
<path d="M70.3107 36.1082H70.6697L71.1627 37.4592H71.1707L71.6477 36.1082H71.9997V37.7552H71.7647V36.4052H71.7567L71.2567 37.7552H71.0397L70.5517 36.4052H70.5407V37.7552H70.3107V36.1082Z" fill="white"/>
</g>
<defs>
<clipPath id="clip0_1_4">
<rect width="72" height="38" fill="white"/>
</clipPath>
</defs>
</svg>
