<svg xmlns="http://www.w3.org/2000/svg" width="128" height="17" fill="none"  xmlns:v="https://vecta.io/nano"><g clip-path="url(#A)"><path d="M3.828.002C.511.002.421.209.582 1.199h1.105c1.036 0 1.267.14 1.267 1.036v10.87c0 1.543-.438 1.705-2.901 1.843-.074.299-.074.668 0 .898h8.653c6.584 0 9.302-3.179 9.302-7.923C18.008 2.995 15.126 0 8.492 0L3.828.002zm2.003 12.943V1.361h2.373c4.422 0 6.724 2.578 6.724 7.002 0 4.959-2.51 6.223-6.447 6.223-2.143 0-2.649-.23-2.649-1.634l-.001-.006zM28.218.163c-1.084 0-1.382.369-2.143 2.143l-4.559 10.801c-.622 1.471-.829 1.609-2.603 1.841-.069.299-.069.668 0 .898H25.5c.575 0 .736-.369.575-1.036h-1.979c-1.268 0-1.268-.345-.739-1.704l.944-2.512h5.942l1.451 3.478c.255.599 0 .806-2.51.875-.07.304-.07.673 0 .903h7.461c.599 0 .739-.369.599-1.034h-.525c-1.174 0-1.429-.206-1.683-.805l-5.32-12.135c-.369-.805-.525-1.191-.599-1.699l-.9-.012zM27.204 3.34l2.511 5.99h-4.906l2.395-5.99zM39.755.463c-.967 0-1.105.437-.967 1.034h1.106c1.059 0 1.266.139 1.266.969v11.008c0 .944-.443 1.174-2.282 1.474-.098.3-.098.669 0 .898h6.995c.69 0 .755-.37.599-1.036h-1.24c-.969 0-1.199-.161-1.199-.967V2.903c0-.967.296-1.404 2.299-1.544a2.07 2.07 0 0 0 0-.897l-6.577.001zm27.66 0l-5.32 11.077L56.313.462h-4.651c-.961 0-1.1.501-.961 1.034 2.282.066 2.422.32 2.348 1.059l-.944 10.821c-.066.969-.279 1.429-2.808 1.568-.066.296-.066.599 0 .895h7.553c.649 0 .739-.37.575-1.035h-1.24c-2.438 0-2.438-.23-2.373-1.133l.739-10.345 6.363 12.57c.526 0 .714-.14 1.133-.969L67.579 3.32l1.035 10.041c.115 1.124-.207 1.379-2.14 1.494l-1.245.065a1.51 1.51 0 0 0 0 .895h8.128c.646 0 .714-.369.646-1.034-1.773-.23-2.143-.296-2.212-1.034L70.683 2.506c-.067-.665.071-1.034 2.208-1.174.097-.296.097-.6 0-.895l-5.476.027zm11.008 0c-.967 0-1.105.437-.967 1.034h1.104c.969 0 1.267.139 1.267.969v10.547c0 1.497-.507 1.796-2.741 1.934-.074.3-.049.598 0 .898h11.231c.296-1.429.714-2.764 1.198-4.146.238-.687-.066-.969-.69-.969l-.074.002-.649 1.427c-.969 2.073-1.199 2.189-2.906 2.189H83.72c-.649 0-1.043-.207-1.043-.969V3.203c0-1.497.46-1.704 2.877-1.843.066-.23.066-.69 0-.897h-7.13zm14.924 0c-1.013 0-1.105.437-1.013 1.034h1.1c1.035 0 1.24.139 1.24.969v10.64c0 1.542-.443 1.704-2.882 1.842-.09.3-.09.598 0 .898h12.71c.295-1.429.739-2.833 1.198-4.147.222-.665-.074-.969-.689-.969l-.074.002-.649 1.427c-.968 2.073-1.198 2.188-2.906 2.188h-1.979c-1.568 0-1.773-.345-1.773-1.174V9.12h2.416c.6 0 .899.208 1.199 2.003.12.054.26.078.397.078a1.04 1.04 0 0 0 .41-.074c-.067-1.494-.067-3.087 0-4.532.047-.714-.205-.871-.665-.871h-.276l-.156 1.174c-.072.599-.21.829-.9.829h-2.418V1.81h3.686c1.266 0 1.749.369 2.14 1.773l.304 1.034c.058.008.107.008.159.008.615 0 .845-.386.738-1.043-.159-.985-.295-2.069-.365-3.103L93.347.463zm16.489-.07c-.945.069-1.106.507-.945 1.105h1.106c.944 0 1.267.139 1.267 1.043v10.64c0 1.404-.461 1.634-2.465 1.773-.069.304-.046.649 0 .903h7.255c.668 0 .737-.37.668-1.035h-1.173c-1.198 0-1.405-.23-1.405-.895v-3.382h1.543c1.404 0 1.451.074 2.027 1.108.599 1.059 1.428 1.987 2.189 2.652 1.703 1.478 3.108 1.938 5.25 1.938 2.447 0 3.021-.599 2.816-1.404-2.003 0-3.013-.205-6.051-2.652-.87-.714-2.603-2.299-2.603-2.299 1.914-.805 3.112-2.373 3.112-4.302 0-3.153-2.438-5.246-6.863-5.246-3.219 0-4.606 0-5.707.09l-.021-.038zm4.332 1.281h.787c2.602 0 4.441.969 4.441 4.076s-1.84 3.478-4.121 3.478h-1.106l-.001-7.554z" fill="#fff"/></g><defs><clipPath id="A"><path fill="#fff" d="M0 0h128v16.213H0z"/></clipPath></defs></svg>