<svg xmlns="http://www.w3.org/2000/svg" width="49" height="48" fill="#fff"  xmlns:v="https://vecta.io/nano"><path d="M48.01 10.56v10.571L45.141 24l2.869 2.869V48H0V26.879l2.869-2.869L0 21.141V0h48.021v10.56h-.01zm-45.686.658v8.895l3.897 3.897-3.897 3.897v17.789h43.352V27.908l-3.897-3.897 3.897-3.897V2.324H2.324v8.895zm17.399-1.85l1.512 1.512v7.198l-3.013 3.013H10.18V7.846h8.041l1.501 1.522zm-7.208 5.111v4.288h4.71l.771-.833.771-.823v-5.275l-1.563-1.666h-4.689v4.308zm23.68-.011l2.725 6.602c0 .02-.566.031-1.265.031H36.39l-.658-1.563h-6.725l-.617 1.522-1.285.02c-1.018.01-1.285 0-1.255-.072l5.41-13.059c.031-.062.298-.082 1.131-.072l1.08.021 2.725 6.571zm-4.966-.226l-1.152 2.797c-.041.123.092.134 2.303.134l2.314-.093c-.052-.206-2.273-5.511-2.314-5.511-.031 0-.535 1.213-1.152 2.674zm-11.003 13.83v1.162l-6.91 8.566 3.445.021 3.465.01v2.334H10.18v-1.193l.01-1.172 6.951-8.514-6.961-.041V26.92h10.046v1.152zm11.939 3.558l3.301 4.73.021-4.73.01-4.709h2.334v13.244h-2.653L29.276 31.6l-.021 4.288-.01 4.278h-2.478V26.92h2.087l3.311 4.709z"/></svg>