<svg xmlns="http://www.w3.org/2000/svg" width="65" height="64" fill="#fff"  xmlns:v="https://vecta.io/nano"><path d="M64.014 14.081v14.094L60.189 32l3.825 3.825V64H0V35.839l3.825-3.825L0 28.189V0h64.027v14.081h-.014zm-60.915.877v11.859l5.196 5.196-5.196 5.196v23.719h57.803V37.21l-5.196-5.196 5.196-5.196V3.099H3.099v11.859zm23.198-2.468l2.015 2.015v9.597l-4.017 4.017H13.573V10.461h10.722l2.002 2.029zm-9.611 6.814v5.717h6.279l1.028-1.111 1.028-1.097V15.78l-2.084-2.221h-6.252v5.745zm31.575-.014l3.633 8.802c0 .027-.754.041-1.686.041h-1.686l-.877-2.084h-8.967l-.823 2.029-1.714.027c-1.357.014-1.714 0-1.673-.096l7.212-17.412c.041-.082.398-.11 1.508-.096l1.44.027 3.633 8.761zm-6.622-.302l-1.536 3.729c-.055.165.123.178 3.071.178l3.085-.123c-.069-.274-3.03-7.349-3.085-7.349-.041 0-.713 1.618-1.535 3.565zM26.968 37.43v1.549L17.755 50.4l4.593.027 4.62.014v3.112H13.573v-1.59l.014-1.563 9.268-11.352-9.282-.055v-3.099h13.395v1.536zm15.918 4.743l4.401 6.307.027-6.307.014-6.279h3.112v17.659h-3.537l-7.87-11.421-.027 5.717-.014 5.703h-3.304V35.894h2.783l4.415 6.279z"/></svg>