<svg xmlns="http://www.w3.org/2000/svg" width="158" height="48" fill="none"  xmlns:v="https://vecta.io/nano"><path d="M110.466 11.451h-3.365l.015 25.083h13.63v-3.103h-10.265l-.015-21.98zm23.25 20.682a5.74 5.74 0 0 1-4.168 1.76c-2.562 0-3.596-1.266-3.596-2.917 0-2.485 1.729-3.674 5.402-3.674.695 0 1.806.077 2.377.185v4.646h-.015zm-3.489-15.204c-2.716 0-5.217.957-7.162 2.578l1.189 2.068c1.374-.803 3.056-1.605 5.479-1.605 2.763 0 3.983 1.42 3.983 3.797v1.219c-.54-.108-1.652-.185-2.331-.185-5.896 0-8.891 2.068-8.891 6.39 0 3.874 2.377 5.819 5.974 5.819 2.423 0 4.754-1.111 5.557-2.917l.617 2.454h2.377V23.705c-.015-4.059-1.775-6.776-6.792-6.776zm17.649 17.078c-1.265 0-2.377-.154-3.21-.54V21.875c1.142-.957 2.562-1.652 4.368-1.652 3.257 0 4.507 2.3 4.507 6.02 0 5.279-2.022 7.764-5.665 7.764zm1.421-17.072c-3.01 0-4.631 2.053-4.631 2.053v-3.241l-.016-4.291h-3.287l.015 24.466c1.652.695 3.905 1.065 6.359 1.065 6.283 0 9.308-4.013 9.308-10.944-.015-5.48-2.809-9.107-7.748-9.107zm-75.469-2.763c2.979 0 4.909.988 6.159 1.991l1.451-2.516c-1.96-1.729-4.615-2.655-7.455-2.655-7.162 0-12.179 4.368-12.179 13.182 0 9.23 5.418 12.827 11.608 12.827 3.103 0 5.742-.725 7.471-1.451l-.077-9.863v-3.103H71.62v3.103h5.866l.077 7.486c-.772.386-2.099.695-3.905.695-4.97 0-8.304-3.134-8.304-9.725-.015-6.714 3.427-9.971 8.474-9.971zm23.698-2.724h-3.288l.015 4.214v14.556c0 4.06 1.76 6.776 6.777 6.776a10.88 10.88 0 0 0 2.022-.185V33.86c-.479.077-.988.108-1.529.108-2.763 0-3.982-1.42-3.982-3.797V20.138h5.511V17.39h-5.511l-.015-5.943zM85.877 36.534h3.288v-19.14h-3.288v19.14zm0-21.78h3.288v-3.288h-3.288v3.288z" fill="#fff"/><path d="M26.056 48l9.601-29.532H16.469L26.056 48z" fill="#e24329"/><path d="M3.021 18.468L.097 27.44a1.99 1.99 0 0 0 .719 2.222L26.056 48 3.021 18.468z" fill="#fca326"/><path d="M3.021 18.468h13.448L10.681.682c-.296-.91-1.587-.91-1.894 0L3.021 18.468z" fill="#e24329"/><path d="M49.104 18.468l2.913 8.972a1.99 1.99 0 0 1-.719 2.222L26.056 48l23.048-29.532z" fill="#fca326"/><path d="M49.104 18.468H35.657L41.433.682c.296-.91 1.587-.91 1.894 0l5.777 17.786z" fill="#e24329"/><g fill="#fc6d26"><path d="M26.056 48l9.601-29.532h13.448L26.056 48z"/><path d="M26.056 48L3.021 18.468h13.448L26.056 48z"/></g></svg>