<svg xmlns="http://www.w3.org/2000/svg" width="128" height="40" fill="none"  xmlns:v="https://vecta.io/nano"><path d="M90.053 9.575h-2.741l.012 20.434h11.104v-2.528h-8.362l-.013-17.907zm18.941 16.848c-.691.717-1.835 1.434-3.395 1.434-2.087 0-2.93-1.031-2.93-2.377 0-2.024 1.409-2.993 4.402-2.993.565 0 1.471.063 1.936.151v3.785h-.013zm-2.841-12.386c-2.214 0-4.251.78-5.835 2.1l.968 1.685c1.119-.654 2.49-1.308 4.464-1.308 2.251 0 3.244 1.157 3.244 3.093v.993c-.44-.088-1.345-.151-1.898-.151-4.804 0-7.243 1.685-7.243 5.206 0 3.156 1.936 4.741 4.866 4.741 1.974 0 3.873-.905 4.527-2.377l.503 1.999h1.937V19.557c-.013-3.307-1.447-5.52-5.533-5.52zM120.53 27.95c-1.031 0-1.936-.126-2.615-.44v-9.444c.93-.78 2.087-1.345 3.558-1.345 2.654 0 3.672 1.874 3.672 4.904 0 4.301-1.647 6.325-4.615 6.325zm1.157-13.908c-2.452 0-3.772 1.673-3.772 1.673v-2.641l-.013-3.496h-2.678l.012 19.931c1.346.566 3.182.868 5.181.868 5.118 0 7.583-3.269 7.583-8.916-.013-4.464-2.289-7.419-6.313-7.419zm-61.481-2.25c2.427 0 3.999.805 5.017 1.622l1.182-2.05c-1.597-1.408-3.76-2.163-6.074-2.163-5.835 0-9.922 3.559-9.922 10.739 0 7.52 4.414 10.45 9.456 10.45 2.528 0 4.678-.591 6.086-1.182l-.063-8.035v-2.528h-7.482v2.528h4.779l.063 6.099c-.629.314-1.71.566-3.181.566-4.049 0-6.765-2.553-6.765-7.922-.013-5.47 2.792-8.123 6.904-8.123zm19.306-2.22h-2.678l.013 3.433v11.858c0 3.307 1.433 5.52 5.52 5.52a8.82 8.82 0 0 0 1.647-.151V27.83a7.83 7.83 0 0 1-1.245.088c-2.251 0-3.244-1.157-3.244-3.093v-8.174h4.489v-2.238h-4.489l-.013-4.841zm-9.491 20.437H72.7V14.416h-2.679v15.593zm0-17.743H72.7V9.587h-2.679v2.678z" fill="#fff"/><path d="M21.678 39.342l.046-.02-.026.011-.02.009zm-.196.055l.038-.007-.029.005zM2.404 15.086v-.001l-.001.003v-.001zM21.152 39.4zm.168.012l.095-.005-.089.005zm.545-.167l.025-.018-.025.018zm-1.011.059zm.175.067l-.026-.007.045.013zm.175.036l.095.005-.095-.005zm-.309-.085l.046.02-.02-.009-.026-.011zm.555.08zm18.776-24.315v-.001zM21.754 39.309zm-.656.081l.038.007-.038-.007zm.504-.022l-.031.009.039-.011z" fill="#fca326"/><g fill="#fc6d26"><path d="M20.832 39.291a1.01 1.01 0 0 1-.095-.059l-.008-.005.023.017.044.027.039.023zm19.394-24.204h0zM21.741 39.313l-.049.02-.052.022.038-.013.02-.009.026-.011.03-.014zM2.404 15.087h0zm18.574 24.268c-.017-.006-.033-.014-.049-.021l-.053-.022c-.002.001.008.005.019.009l.026.011.02.009.024.009.023.008zm.473.047a.99.99 0 0 1-.142.011h-.001a1.09 1.09 0 0 1-.142-.011l.027.005.099.006h.027l.095-.005.035-.005zm-.745-.192a1.12 1.12 0 0 1-.091-.077.4.4 0 0 0 .034.032l.022.019.04.031zm1.081.081c.007-.002.018-.009.03-.016l.034-.02.038-.026-.102.063z"/><path d="M21.095 39.387l-.073-.018.026.008.031.009.048.009-.032-.008zm.909-.255a1.05 1.05 0 0 1-.09.077l.021-.015.037-.032.041-.038zm-.479.255l-.029.007.025-.004.051-.013.03-.009-.077.019z"/></g><path d="M42.496 22.077L35.72 1.215C35.474.484 34.796-.006 34.018 0a1.75 1.75 0 0 0-1.68 1.226l-4.276 13.166H14.568L10.284 1.225A1.75 1.75 0 0 0 8.603 0a1.79 1.79 0 0 0-1.706 1.226l-4.494 13.86-2.278 6.991c-.343 1.055.029 2.202.926 2.854l19.825 14.382c.017.008.035.015.053.022l.049.021.021.008.023.005c.024.007.048.012.073.018l.028.007.029.006.157.013h.001c.048 0 .095-.005.142-.011l.031-.004.137-.033.019-.007c.02-.007.037-.015.054-.023l.049-.02.023-.01.022-.013a1.02 1.02 0 0 0 .094-.058l.019-.011 19.671-14.29c.896-.652 1.268-1.798.925-2.854zM34.031 2.515l3.858 11.877h-7.715l3.858-11.877zM37.213 16.4L24.029 33.293 29.521 16.4h7.692zm-16.858 22.32zm-1.761-5.426L5.416 16.4h7.693l5.484 16.894zM8.591 2.514l3.865 11.877H4.74L8.591 2.514zM2.232 23.307c-.191-.139-.27-.383-.197-.608l1.693-5.196 12.407 15.906L2.232 23.307zm18.452 15.888l-.036-.031-.042-.038.099.084c-.003-.002-.013-.008-.021-.014zm.625-4.036L15.22 16.4h12.188L21.31 35.159zm.66 4.005l-.023.019-.04.031.096-.081c-.005.006-.019.019-.033.031zM40.39 23.306L26.488 33.405l12.411-15.902 1.687 5.194c.073.226-.006.471-.196.609z" fill="#fff"/></svg>