<svg xmlns="http://www.w3.org/2000/svg" width="156" height="48" fill="none"  xmlns:v="https://vecta.io/nano"><path d="M109.673 11.661h-3.339l.015 24.886h13.523v-3.078h-10.184l-.015-21.808zm23.068 20.519c-.843.873-2.236 1.746-4.135 1.746-2.543 0-3.569-1.256-3.569-2.895 0-2.466 1.716-3.645 5.36-3.645.69 0 1.792.077 2.359.184v4.61h-.015zm-3.461-15.085c-2.696 0-5.177.95-7.106 2.558l1.179 2.052c1.363-.796 3.032-1.593 5.436-1.593 2.742 0 3.952 1.409 3.952 3.767v1.21c-.536-.107-1.639-.184-2.313-.184-5.85 0-8.821 2.052-8.821 6.34 0 3.844 2.358 5.774 5.927 5.774 2.404 0 4.717-1.103 5.513-2.895l.612 2.435h2.359V23.818c-.015-4.028-1.761-6.723-6.738-6.723zm17.51 16.945c-1.256 0-2.359-.153-3.186-.536V22.002c1.134-.949 2.543-1.639 4.334-1.639 3.232 0 4.472 2.282 4.472 5.973 0 5.237-2.006 7.703-5.62 7.703zm1.409-16.938c-2.987 0-4.595 2.037-4.595 2.037v-3.216l-.015-4.257h-3.262l.015 24.274c1.639.689 3.875 1.057 6.31 1.057 6.233 0 9.235-3.982 9.235-10.858-.016-5.437-2.788-9.036-7.688-9.036zm-74.877-2.741c2.956 0 4.87.98 6.111 1.976l1.439-2.496c-1.945-1.715-4.579-2.634-7.397-2.634-7.106 0-12.083 4.334-12.083 13.079 0 9.158 5.375 12.726 11.517 12.726 3.078 0 5.697-.72 7.412-1.44l-.077-9.786v-3.078h-9.112v3.078h5.819l.077 7.428c-.766.383-2.083.689-3.875.689-4.931 0-8.239-3.109-8.239-9.648-.015-6.662 3.4-9.893 8.408-9.893zm23.512-2.704h-3.262l.015 4.181V30.28c0 4.028 1.746 6.723 6.723 6.723a10.74 10.74 0 0 0 2.006-.184v-2.925a9.5 9.5 0 0 1-1.516.107c-2.742 0-3.951-1.409-3.951-3.767V20.28h5.467v-2.726H96.85l-.015-5.896zm-11.557 24.89h3.262v-18.99h-3.262v18.99zm0-21.609h3.262v-3.262h-3.262v3.262z" fill="#fff"/><g fill="#fca326"><path d="M26.401 47.913l.056-.024-.032.013-.024.011zm-.238.067l.046-.009-.035.006zM2.927 18.373l.001-.002v.002zM25.76 47.984l.021.002c-.011-.002-.016-.002-.021-.002zm.205.015l.116-.007c-.036.004-.072.005-.108.006zm.664-.204l.031-.022-.031.022zm-1.232.071zm.214.083l-.032-.008.055.016-.021-.007z"/><path d="M25.824 47.992a1.18 1.18 0 0 0 .116.007l-.116-.007zm-.377-.103l.056.024c-.008-.003-.016-.008-.024-.011l-.032-.013zm.676.098l.021-.002-.021.002zM48.99 18.373v-.001.001zM26.494 47.872zm-.799.1l.046.009-.046-.009zm.613-.027l-.037.011.047-.013z"/></g><g fill="#fc6d26"><path d="M25.371 47.851a1.2 1.2 0 0 1-.116-.071l-.009-.006.029.021.018.011.083.049zM48.99 18.374h0zM26.478 47.878l-.059.025-.064.026.046-.016c.008-.003.016-.008.024-.011l.032-.013.037-.017zM2.927 18.373h0zm22.621 29.556c-.021-.007-.04-.017-.06-.025l-.084-.035.042.02.032.013.024.011.03.011.028.01zm.577.057a1.2 1.2 0 0 1-.172.014h-.001a1.21 1.21 0 0 1-.173-.014l.033.006.141.009.128-.007.043-.006zm-.908-.234c-.039-.029-.075-.061-.111-.094a.5.5 0 0 0 .041.039l.027.023.017.015.032.024zm1.316.099c.009-.003.022-.011.037-.02l.042-.025.018-.011.028-.02-.124.076z"/><path d="M25.69 47.968l-.088-.022.032.01.038.01.023.005.035.006-.04-.01zm1.108-.31l-.11.094.025-.018.017-.015.027-.023.05-.046zm-.583.31l-.035.009.03-.005.024-.005.038-.01.021-.007c-.019.006-.048.012-.077.018z"/></g><path d="M51.754 26.887L43.503 1.48A2.16 2.16 0 0 0 41.43 0a2.13 2.13 0 0 0-2.046 1.493l-5.208 16.034H17.742L12.524 1.492A2.13 2.13 0 0 0 10.478 0a2.18 2.18 0 0 0-2.077 1.493L2.928 18.373.153 26.887a3.1 3.1 0 0 0 1.127 3.476l24.144 17.515.124.052.025.01.022.005.095.023.035.009.035.008.192.015c.059 0 .116-.006.173-.014l.038-.005.052-.013.087-.021.023-.005.028-.01.146-.061.018-.009.154-.095 23.956-17.404a3.1 3.1 0 0 0 1.127-3.475zM41.445 3.062l4.698 14.464h-9.396l4.698-14.464zm3.876 16.91L29.264 40.546l6.688-20.573h9.368zM24.789 47.155zm-2.145-6.608L6.596 19.973h9.369l6.679 20.574zM10.463 3.062l4.707 14.465H5.773l4.69-14.465zM2.719 28.384a.66.66 0 0 1-.239-.741l2.062-6.328 15.11 19.372L2.719 28.384zm22.472 19.35l-.044-.038-.051-.047.12.103c-.004-.002-.015-.01-.026-.018zm.762-4.915l-7.416-22.846H33.38l-7.427 22.846zm.804 4.877l-.027.023-.017.015-.032.023a1.33 1.33 0 0 0 .116-.099.52.52 0 0 1-.04.038zm22.432-19.312l-16.93 12.299 15.115-19.367 2.054 6.326a.66.66 0 0 1-.238.742z" fill="#fff"/></svg>