<svg xmlns="http://www.w3.org/2000/svg" width="115" height="48" fill="none"  xmlns:v="https://vecta.io/nano"><path d="M36.872 8.838H2.458v-6.38h34.413v6.38zM39.33 0H0v11.295h39.33V0z" fill="#00b188"/><g fill="#fff"><path d="M2.458 29.962H0V18.668h2.458v4.463H6.85v-4.463h2.458v11.295H6.851v-4.681H2.458v4.681zm10.574-4.951h2.928c-.055-.831-.397-1.41-1.356-1.41-.723 0-1.356.308-1.572 1.41zm1.861 5.133c-2.494 0-4.193-1.572-4.193-4.156 0-2.513 1.663-4.248 3.868-4.248 2.404 0 3.597 1.608 3.597 4.012v.904h-5.133c.29 1.246 1.265 1.571 2.242 1.571.849 0 1.463-.18 2.222-.651h.091v1.862c-.651.471-1.573.705-2.694.705zm9.689-4.916l-1.265 4.734h-2.151l-2.459-7.952v-.09h2.35l1.337 4.753 1.265-4.753h1.916l1.283 4.753 1.356-4.753h2.26v.09l-2.458 7.952h-2.151l-1.283-4.734zm9.887 4.916c-1.952 0-2.747-.777-2.747-2.602v-8.873h2.386v8.71c0 .56.217.759.687.759.163 0 .398-.054.542-.108h.037V30a2.87 2.87 0 0 1-.904.144zm3.904-5.133h2.928c-.054-.831-.397-1.41-1.356-1.41-.722 0-1.356.308-1.573 1.41zm1.862 5.133c-2.494 0-4.193-1.572-4.193-4.156 0-2.513 1.663-4.248 3.868-4.248 2.404 0 3.597 1.608 3.597 4.012v.904h-5.134c.289 1.246 1.266 1.571 2.241 1.571.85 0 1.464-.18 2.224-.651h.09v1.862c-.651.471-1.572.705-2.694.705zm13.068-8.224h1.771v1.915h-1.771v3.271c0 .705.271 1.031.994 1.031.199 0 .452-.019.723-.109h.054v1.88c-.307.109-.777.235-1.463.235-1.935 0-2.694-.885-2.694-2.928v-3.379h-3.055v3.271c0 .705.271 1.031.994 1.031a2.28 2.28 0 0 0 .724-.109h.054v1.88a4.26 4.26 0 0 1-1.463.235c-1.935 0-2.694-.885-2.694-2.928v-3.379h-1.23V21.92h1.23v-2.204h2.386v2.204h3.055v-2.204h2.386v2.204zm9.811 2.296c1.248 0 1.844-.704 1.844-1.717 0-1.049-.595-1.753-1.844-1.753h-1.555v3.47h1.555zm4.339-1.717c0 2.459-1.645 3.795-4.14 3.795H61.56v3.669h-2.457V18.668h4.21c2.495 0 4.14 1.337 4.14 3.831m5.24 4.934v-.687c-.362-.198-.831-.27-1.319-.27-.777 0-1.247.288-1.247.939 0 .669.47.958 1.174.958.669 0 1.175-.344 1.392-.941h0zm.072 1.735c-.524.633-1.3.94-2.133.94-1.572 0-2.856-.957-2.856-2.657 0-1.572 1.284-2.62 3.127-2.62.578 0 1.176.09 1.79.27v-.143c0-.868-.488-1.247-1.77-1.247-.814 0-1.591.234-2.261.614h-.09v-1.916c.614-.361 1.7-.668 2.765-.668 2.423 0 3.742 1.156 3.742 3.181v5.041h-2.314v-.795m3.526-3.217c0-2.585 1.827-4.211 4.213-4.211.849 0 1.644.181 2.241.614v2.042h-.091a3 3 0 0 0-1.843-.633c-1.193 0-2.097.814-2.097 2.187s.904 2.169 2.097 2.169a2.99 2.99 0 0 0 1.843-.634h.091v2.042c-.597.434-1.392.615-2.241.615-2.386 0-4.213-1.608-4.213-4.192zm10.338.362v3.65h-2.385V18.668h2.385v6.433l2.405-3.181h2.711v.09l-2.892 3.651 2.892 4.211v.09h-2.73l-2.386-3.65zm10.466 1.12v-.687c-.361-.198-.831-.27-1.319-.27-.777 0-1.247.288-1.247.939 0 .669.47.958 1.173.958.67 0 1.176-.344 1.393-.941h0zm.072 1.735c-.524.633-1.302.94-2.133.94-1.573 0-2.856-.957-2.856-2.657 0-1.572 1.283-2.62 3.128-2.62a6.35 6.35 0 0 1 1.788.27v-.143c0-.868-.488-1.247-1.771-1.247-.813 0-1.591.234-2.26.614h-.09v-1.916c.615-.361 1.7-.668 2.766-.668 2.423 0 3.743 1.156 3.743 3.181v5.041h-2.314v-.795m6.326-5.947c.433-.886 1.066-1.392 1.952-1.392.325 0 .65.072.776.145v2.277h-.09c-.271-.109-.596-.181-1.048-.181-.741 0-1.319.434-1.519 1.265v4.627h-2.385V21.92h2.314v1.301z"/><path d="M112.549 27.234v-2.585c-.397-.578-.921-.831-1.518-.831-1.047 0-1.753.76-1.753 2.133s.706 2.114 1.753 2.114c.597 0 1.121-.253 1.518-.832h0zm.072 1.898c-.506.651-1.301 1.011-2.385 1.011-2.061 0-3.38-1.879-3.38-4.192s1.319-4.211 3.38-4.211c1.048 0 1.807.326 2.313.922v-3.993h2.386v11.294h-2.314v-.831M0 33.651h6.977v1.373H1.572v3.451H6.47v1.338H1.572v3.759h5.405v1.373H0V33.651zm12.742 3.18c1.789 0 2.783 1.175 2.783 3.107v5.007h-1.5v-4.97c0-1.03-.524-1.771-1.663-1.771a2.09 2.09 0 0 0-2.006 1.445v5.296h-1.5v-7.951h1.5v1.156c.47-.741 1.265-1.319 2.386-1.319zm6.816.163H21.6v1.283h-2.042v4.282c0 .903.47 1.211 1.319 1.211.235 0 .488-.036.669-.108h.055v1.283c-.217.09-.524.163-.94.163-1.862 0-2.603-.85-2.603-2.403v-4.428h-1.374v-1.283h1.374v-2.113h1.5v2.113zm4.554 3.198h3.958c-.054-1.174-.633-2.077-1.862-2.077-1.138 0-1.88.849-2.097 2.077zm2.368 4.916c-2.332 0-3.923-1.555-3.923-4.048s1.482-4.229 3.633-4.229c2.187 0 3.326 1.573 3.326 3.903v.687h-5.459c.163 1.608 1.194 2.385 2.621 2.385.886 0 1.518-.199 2.223-.723h.055v1.32c-.651.506-1.501.704-2.476.704zm6.308-6.885c.344-.849 1.103-1.355 1.97-1.355.344 0 .651.054.778.126v1.481h-.054c-.217-.107-.579-.162-.941-.162-.813 0-1.5.542-1.753 1.445v5.187h-1.5v-7.951h1.5v1.229zm7.591 5.53c1.482 0 2.35-1.174 2.35-2.783 0-1.59-.868-2.782-2.35-2.782-.813 0-1.572.488-1.97 1.264v3.055c.397.776 1.156 1.246 1.97 1.246zm.253-6.921c2.367 0 3.633 1.934 3.633 4.138S43 45.108 40.633 45.108c-.976 0-1.808-.506-2.223-1.049V48h-1.501V36.994h1.501v.903c.415-.56 1.247-1.066 2.223-1.066m6.904 1.392c.343-.849 1.103-1.355 1.97-1.355.344 0 .651.054.777.126v1.481h-.054c-.217-.107-.578-.162-.94-.162-.813 0-1.5.542-1.753 1.445v5.187h-1.5v-7.951h1.5v1.229zm4.916-4.445c.524 0 .958.415.958.94s-.433.94-.958.94c-.506 0-.958-.415-.958-.94s.453-.94.958-.94zm-.741 11.167h1.501v-7.951h-1.501v7.951zm6.851-4.644c1.138.361 2.403.831 2.403 2.349 0 1.627-1.337 2.458-3.054 2.458-1.049 0-2.097-.253-2.694-.723v-1.428h.072c.669.614 1.663.885 2.603.885.849 0 1.609-.326 1.609-1.012 0-.704-.632-.867-1.88-1.283-1.12-.361-2.367-.778-2.367-2.277 0-1.537 1.265-2.44 2.874-2.44.94 0 1.771.199 2.44.651v1.446h-.054a3.61 3.61 0 0 0-2.35-.832c-.94 0-1.464.416-1.464.976 0 .633.578.813 1.862 1.229zm5.26-.109h3.958c-.054-1.174-.632-2.077-1.862-2.077-1.138 0-1.88.849-2.096 2.077zm2.367 4.916c-2.331 0-3.922-1.555-3.922-4.048s1.482-4.229 3.633-4.229c2.188 0 3.326 1.573 3.326 3.903v.687h-5.458c.163 1.608 1.193 2.385 2.621 2.385.887 0 1.519-.199 2.223-.723h.055v1.32c-.65.506-1.5.704-2.476.704z"/></g></svg>