<svg xmlns="http://www.w3.org/2000/svg" width="128" height="54" fill="#fff"  xmlns:v="https://vecta.io/nano"><path d="M41.063 9.853H2.738V2.74h38.325v7.112zM43.801 0H0v12.592h43.801V0zM2.738 33.403H0V20.811h2.738v4.976H7.63v-4.976h2.738v12.592H7.63v-5.218H2.738v5.218zm11.776-5.521h3.261c-.061-.926-.443-1.571-1.51-1.571-.805 0-1.51.343-1.751 1.571zm2.073 5.722c-2.778 0-4.67-1.753-4.67-4.633 0-2.801 1.852-4.735 4.308-4.735 2.677 0 4.006 1.793 4.006 4.473v1.008h-5.717c.323 1.389 1.409 1.751 2.497 1.751.946 0 1.63-.201 2.475-.725h.102v2.075c-.725.525-1.752.786-3 .786zm10.79-5.479l-1.409 5.278h-2.395l-2.738-8.865v-.101h2.617l1.489 5.299 1.409-5.299h2.134l1.429 5.299 1.51-5.299h2.517v.101l-2.738 8.865h-2.396l-1.429-5.278zm11.01 5.479c-2.174 0-3.06-.866-3.06-2.9v-9.892h2.657v9.71c0 .625.241.846.765.846a1.99 1.99 0 0 0 .604-.121h.041v2.196a3.19 3.19 0 0 1-1.007.161zm4.349-5.722h3.261c-.061-.926-.443-1.571-1.51-1.571-.804 0-1.51.343-1.751 1.571zm2.073 5.722c-2.778 0-4.67-1.753-4.67-4.633 0-2.801 1.852-4.735 4.308-4.735 2.677 0 4.006 1.793 4.006 4.473v1.008h-5.717c.322 1.389 1.409 1.751 2.496 1.751.947 0 1.631-.201 2.477-.725h.101v2.075c-.725.525-1.751.786-3 .786zm14.554-9.167h1.972v2.135h-1.972v3.647c0 .786.302 1.149 1.107 1.149.221 0 .503-.021.805-.122h.06v2.095c-.342.122-.865.261-1.63.261-2.155 0-3-.987-3-3.264V26.57h-3.402v3.647c0 .786.302 1.149 1.106 1.149.222 0 .504-.021.806-.122h.06v2.095c-.342.122-.866.261-1.63.261-2.155 0-3-.987-3-3.264v-3.768h-1.369v-2.135h1.369V21.98h2.657v2.457h3.402V21.98h2.657v2.457zm10.925 2.559c1.39 0 2.053-.785 2.053-1.914 0-1.169-.663-1.954-2.053-1.954h-1.731v3.868h1.731zm4.832-1.914c0 2.741-1.832 4.231-4.611 4.231h-1.953v4.09H65.82V20.811h4.689c2.779 0 4.611 1.491 4.611 4.271m5.837 5.5v-.765c-.403-.221-.925-.301-1.469-.301-.865 0-1.388.321-1.388 1.047 0 .746.523 1.069 1.308 1.069.745 0 1.309-.383 1.55-1.049h0zm.081 1.935c-.584.705-1.448 1.048-2.376 1.048-1.75 0-3.18-1.067-3.18-2.962 0-1.752 1.43-2.921 3.482-2.921a7.07 7.07 0 0 1 1.993.301v-.16c0-.968-.543-1.39-1.972-1.39a5.11 5.11 0 0 0-2.517.684h-.1v-2.136c.684-.402 1.893-.745 3.079-.745 2.698 0 4.167 1.289 4.167 3.546v5.62h-2.576v-.886m3.924-3.585c0-2.881 2.034-4.694 4.691-4.694.946 0 1.831.202 2.496.685v2.277h-.102c-.584-.443-1.268-.705-2.052-.705-1.329 0-2.335.908-2.335 2.438s1.007 2.418 2.335 2.418c.785 0 1.468-.262 2.052-.706h.102v2.277c-.665.484-1.55.685-2.496.685-2.657 0-4.691-1.792-4.691-4.673zm11.514.403v4.069H93.82V20.811h2.656v7.172l2.678-3.546h3.019v.101l-3.22 4.07 3.22 4.694v.101h-3.039l-2.657-4.069zm11.655 1.248v-.765c-.401-.221-.926-.301-1.469-.301-.865 0-1.388.321-1.388 1.047 0 .746.523 1.069 1.307 1.069.746 0 1.309-.383 1.55-1.049h0zm.081 1.935c-.584.705-1.45 1.048-2.375 1.048-1.752 0-3.181-1.067-3.181-2.962 0-1.752 1.429-2.921 3.484-2.921.644 0 1.307.101 1.991.301v-.16c0-.968-.543-1.39-1.972-1.39-.905 0-1.772.261-2.517.684h-.1v-2.136c.684-.402 1.892-.745 3.079-.745 2.699 0 4.168 1.289 4.168 3.546v5.62h-2.577v-.886"/><path d="M115.258 25.888c.482-.988 1.188-1.551 2.175-1.551.361 0 .723.081.863.162v2.538h-.1c-.302-.122-.664-.201-1.167-.201-.825 0-1.469.484-1.691 1.41v5.158h-2.657v-8.966h2.577v1.451zm10.084 4.473v-2.882c-.442-.645-1.025-.926-1.691-.926-1.166 0-1.952.847-1.952 2.378s.786 2.357 1.952 2.357c.666 0 1.249-.282 1.691-.927h0zm.08 2.116c-.563.725-1.449 1.127-2.656 1.127-2.295 0-3.765-2.094-3.765-4.673s1.47-4.694 3.765-4.694c1.167 0 2.012.363 2.576 1.028v-4.452H128v12.591h-2.578v-.926M0 37.515h7.77v1.531H1.751v3.847h5.455v1.492H1.751v4.191H7.77v1.531H0V37.515zm14.191 3.545c1.993 0 3.1 1.31 3.1 3.464v5.581H15.62v-5.54c0-1.148-.584-1.975-1.852-1.975-1.047 0-1.933.665-2.235 1.611v5.904h-1.67v-8.864h1.67v1.289c.523-.826 1.409-1.471 2.657-1.471zm7.59.182h2.274v1.431h-2.274v4.774c0 1.007.523 1.35 1.469 1.35.261 0 .543-.04.745-.121h.061v1.43c-.241.101-.584.182-1.047.182-2.074 0-2.898-.948-2.898-2.679v-4.936h-1.53v-1.431h1.53v-2.356h1.671v2.356zm5.072 3.565h4.408c-.06-1.309-.705-2.316-2.073-2.316-1.268 0-2.094.947-2.335 2.316zm2.637 5.481c-2.597 0-4.369-1.733-4.369-4.513s1.651-4.714 4.047-4.714c2.436 0 3.704 1.753 3.704 4.351v.766h-6.08c.181 1.793 1.329 2.659 2.919 2.659.987 0 1.691-.221 2.476-.806h.061v1.472c-.725.564-1.671.785-2.758.785zm7.025-7.676c.383-.947 1.229-1.511 2.194-1.511.384 0 .725.06.866.141v1.651h-.06c-.242-.12-.645-.181-1.047-.181-.905 0-1.67.604-1.953 1.611v5.782h-1.67v-8.864h1.67v1.37zm8.454 6.164c1.651 0 2.617-1.309 2.617-3.103 0-1.772-.967-3.101-2.617-3.101-.906 0-1.751.544-2.194 1.409v3.406c.443.865 1.288 1.389 2.194 1.389zm.282-7.716c2.636 0 4.046 2.156 4.046 4.613s-1.409 4.615-4.046 4.615c-1.087 0-2.013-.564-2.476-1.169v4.393h-1.671v-12.27h1.671v1.007c.463-.625 1.389-1.188 2.476-1.188m7.69 1.551c.382-.947 1.228-1.511 2.194-1.511.383 0 .725.06.865.141v1.651h-.06c-.241-.12-.644-.181-1.047-.181-.906 0-1.67.604-1.953 1.611v5.782h-1.67v-8.864h1.67v1.37zm5.475-4.956c.584 0 1.067.463 1.067 1.048s-.483 1.048-1.067 1.048c-.563 0-1.067-.463-1.067-1.048s.504-1.048 1.067-1.048zm-.826 12.45h1.671v-8.864H57.59v8.864zm7.63-5.177c1.268.402 2.676.926 2.676 2.618 0 1.814-1.489 2.741-3.401 2.741-1.168 0-2.335-.282-3-.806V47.89h.081c.745.684 1.852.987 2.898.987.946 0 1.792-.363 1.792-1.128 0-.785-.704-.967-2.094-1.43-1.248-.403-2.636-.867-2.636-2.538 0-1.713 1.408-2.72 3.2-2.72 1.047 0 1.972.221 2.717.725v1.612h-.06a4.02 4.02 0 0 0-2.617-.928c-1.047 0-1.631.464-1.631 1.088 0 .705.644.906 2.074 1.37zm5.858-.122h4.408c-.06-1.309-.704-2.316-2.073-2.316-1.268 0-2.093.947-2.334 2.316zm2.636 5.481c-2.596 0-4.368-1.733-4.368-4.513s1.651-4.714 4.046-4.714c2.437 0 3.704 1.753 3.704 4.351v.766h-6.079c.181 1.793 1.329 2.659 2.918 2.659.988 0 1.691-.221 2.476-.806h.061v1.472c-.724.564-1.671.785-2.758.785z"/></svg>