<svg xmlns="http://www.w3.org/2000/svg" width="115" height="48" fill="#fff"  xmlns:v="https://vecta.io/nano"><path d="M36.834 8.838H2.456v-6.38h34.378v6.38zM39.29 0H0v11.295h39.29V0zM2.456 29.963H0V18.668h2.456v4.463h4.388v-4.463H9.3v11.295H6.844v-4.681H2.456v4.681zm10.563-4.952h2.925c-.055-.831-.397-1.41-1.354-1.41-.722 0-1.354.308-1.571 1.41zm1.86 5.133c-2.492 0-4.189-1.573-4.189-4.156 0-2.513 1.661-4.247 3.864-4.247 2.402 0 3.593 1.608 3.593 4.012v.904h-5.128c.29 1.246 1.264 1.571 2.239 1.571.848 0 1.462-.18 2.22-.651h.091v1.861c-.65.471-1.572.705-2.691.705zm9.678-4.916l-1.264 4.734h-2.148l-2.456-7.952v-.09h2.348l1.336 4.753 1.264-4.753h1.914l1.282 4.753 1.355-4.753h2.257v.09l-2.456 7.952H25.84l-1.282-4.734zm9.876 4.915c-1.95 0-2.745-.777-2.745-2.602v-8.873h2.384v8.71c0 .56.216.759.686.759.163 0 .398-.054.542-.108h.037v1.97a2.87 2.87 0 0 1-.903.144zm3.901-5.132h2.925c-.055-.831-.397-1.41-1.355-1.41-.722 0-1.354.308-1.571 1.41zm1.86 5.133c-2.492 0-4.189-1.573-4.189-4.156 0-2.513 1.661-4.247 3.864-4.247 2.401 0 3.593 1.608 3.593 4.012v.904h-5.128c.289 1.246 1.264 1.571 2.239 1.571a3.83 3.83 0 0 0 2.222-.651h.09v1.861c-.65.471-1.571.705-2.691.705zm13.055-8.224h1.769v1.915h-1.769v3.271c0 .705.271 1.031.993 1.031.199 0 .452-.019.722-.109h.054v1.879c-.307.109-.776.235-1.462.235-1.933 0-2.691-.885-2.691-2.928v-3.379h-3.051v3.271c0 .705.271 1.031.992 1.031.199 0 .452-.019.723-.109h.054v1.879a4.25 4.25 0 0 1-1.462.235c-1.933 0-2.691-.885-2.691-2.928v-3.379h-1.228V21.92h1.228v-2.204h2.383v2.204h3.051v-2.204h2.384v2.204zm9.8 2.296c1.247 0 1.842-.704 1.842-1.717 0-1.049-.595-1.753-1.842-1.753h-1.553v3.47h1.553zm4.334-1.717c0 2.458-1.643 3.795-4.136 3.795h-1.751v3.668h-2.454V18.668h4.206c2.492 0 4.136 1.337 4.136 3.832m5.235 4.932v-.687c-.361-.198-.83-.27-1.318-.27-.776 0-1.245.288-1.245.939 0 .669.469.959 1.173.959.668 0 1.174-.344 1.39-.941h0zm.072 1.735c-.524.633-1.299.94-2.131.94-1.57 0-2.853-.957-2.853-2.657 0-1.572 1.283-2.62 3.124-2.62.578 0 1.175.09 1.788.27v-.143c0-.868-.487-1.247-1.769-1.247-.813 0-1.59.234-2.258.614h-.09v-1.916c.613-.361 1.698-.669 2.762-.669 2.42 0 3.738 1.156 3.738 3.181v5.042h-2.311v-.795m3.521-3.216c0-2.585 1.825-4.211 4.208-4.211.849 0 1.642.181 2.239.614v2.042h-.091a2.99 2.99 0 0 0-1.841-.633c-1.192 0-2.095.814-2.095 2.187s.903 2.169 2.095 2.169a2.98 2.98 0 0 0 1.841-.634h.091v2.042c-.596.434-1.39.615-2.239.615-2.383 0-4.208-1.608-4.208-4.192zm10.328.362v3.65h-2.383V18.668h2.383v6.433l2.402-3.181h2.708v.09l-2.889 3.651 2.889 4.211v.09h-2.727l-2.383-3.65zm10.455 1.119v-.687c-.36-.198-.831-.27-1.318-.27-.776 0-1.245.288-1.245.939 0 .669.469.959 1.172.959.669 0 1.175-.344 1.391-.941h0zm.072 1.735c-.524.633-1.301.94-2.131.94-1.572 0-2.853-.957-2.853-2.657 0-1.572 1.281-2.62 3.125-2.62a6.33 6.33 0 0 1 1.786.27v-.143c0-.868-.487-1.247-1.769-1.247-.812 0-1.59.234-2.257.614h-.09v-1.916c.614-.361 1.698-.669 2.763-.669 2.421 0 3.739 1.156 3.739 3.181v5.042h-2.312v-.795"/><path d="M103.388 23.222c.432-.886 1.065-1.392 1.95-1.392.325 0 .649.073.775.145v2.277h-.09c-.271-.109-.595-.181-1.047-.181-.74 0-1.318.434-1.517 1.265v4.627h-2.383V21.92h2.312v1.301zm9.046 4.012v-2.585c-.397-.578-.921-.831-1.518-.831-1.046 0-1.75.76-1.75 2.133s.704 2.114 1.75 2.114c.597 0 1.121-.253 1.518-.831h0zm.071 1.898c-.505.651-1.3 1.011-2.383 1.011-2.059 0-3.376-1.879-3.376-4.192s1.317-4.211 3.376-4.211c1.047 0 1.806.326 2.312.922v-3.993h2.383v11.294h-2.312v-.831M0 33.651h6.97v1.373H1.571v3.451h4.893v1.338H1.571v3.759H6.97v1.373H0V33.651zm12.73 3.18c1.787 0 2.781 1.175 2.781 3.107v5.007h-1.498v-4.97c0-1.03-.524-1.771-1.661-1.771a2.09 2.09 0 0 0-2.005 1.446v5.295H8.848v-7.951h1.498v1.156a2.74 2.74 0 0 1 2.383-1.319zm6.808.163h2.04v1.283h-2.04v4.282c0 .903.469 1.211 1.318 1.211a1.93 1.93 0 0 0 .668-.108h.055v1.283c-.216.09-.524.163-.939.163-1.86 0-2.6-.85-2.6-2.403v-4.428h-1.372v-1.283h1.372v-2.113h1.498v2.113zm4.549 3.198h3.954c-.054-1.174-.632-2.077-1.86-2.077-1.137 0-1.878.849-2.095 2.077zm2.366 4.916c-2.33 0-3.919-1.555-3.919-4.048s1.481-4.229 3.63-4.229c2.185 0 3.322 1.573 3.322 3.903v.687h-5.454c.163 1.608 1.192 2.385 2.619 2.385.885 0 1.516-.199 2.221-.723h.055v1.32c-.65.506-1.499.704-2.474.704zm6.302-6.885c.343-.849 1.102-1.355 1.968-1.355.344 0 .651.054.777.126v1.481h-.054c-.217-.108-.578-.162-.94-.162-.812 0-1.498.541-1.751 1.445v5.187h-1.499v-7.951h1.499v1.229zm7.583 5.53c1.481 0 2.348-1.174 2.348-2.783 0-1.59-.867-2.782-2.348-2.782-.813 0-1.571.488-1.968 1.264v3.055c.397.776 1.155 1.246 1.968 1.246zm.253-6.921c2.365 0 3.629 1.934 3.629 4.138s-1.264 4.139-3.629 4.139c-.975 0-1.806-.506-2.221-1.049V48h-1.499V36.994h1.499v.903c.415-.56 1.245-1.066 2.221-1.066m6.897 1.392c.343-.849 1.102-1.355 1.968-1.355.343 0 .65.054.776.126v1.481h-.054c-.216-.108-.578-.162-.939-.162-.813 0-1.498.541-1.751 1.445v5.187H45.99v-7.951h1.499v1.229zm4.911-4.445c.524 0 .957.415.957.94s-.433.94-.957.94c-.505 0-.958-.415-.958-.94s.452-.94.958-.94zm-.74 11.167h1.499v-7.951h-1.499v7.951zm6.844-4.644c1.137.361 2.401.831 2.401 2.349 0 1.627-1.336 2.458-3.051 2.458-1.048 0-2.095-.253-2.691-.723v-1.428h.072c.669.614 1.661.885 2.6.885.848 0 1.607-.326 1.607-1.012 0-.704-.631-.867-1.878-1.283-1.119-.361-2.365-.778-2.365-2.277 0-1.537 1.263-2.44 2.871-2.44.939 0 1.769.199 2.437.651v1.446h-.054c-.649-.524-1.409-.832-2.348-.832s-1.463.416-1.463.976c0 .633.578.813 1.86 1.229zm5.255-.109h3.954c-.054-1.174-.631-2.077-1.86-2.077-1.137 0-1.878.849-2.094 2.077zm2.365 4.916c-2.329 0-3.918-1.555-3.918-4.048s1.48-4.229 3.629-4.229c2.186 0 3.322 1.573 3.322 3.903v.687h-5.453c.163 1.608 1.192 2.385 2.618 2.385a3.38 3.38 0 0 0 2.221-.723h.054v1.32c-.649.506-1.498.704-2.474.704z"/></svg>