<svg xmlns="http://www.w3.org/2000/svg" width="128" height="26" fill="#fff"  xmlns:v="https://vecta.io/nano"><path d="M12.93 0H5.404v.627h2.412v12.448c0 3.715-1.061 4.777-3.377 4.777-.868.096-1.64-.531-1.737-1.399v-.29c0-1.351-.096-2.171-1.303-2.171S0 15.246 0 15.632c0 1.737.772 3.04 4.198 3.04 4.101 0 6.272-1.351 6.272-5.934V.627h2.509L12.93 0zm.965 15.729c-.386 0-.772.145-1.061.434s-.434.675-.434 1.061.145.772.434 1.013c.29.29.675.434 1.061.434s.772-.145 1.061-.434.434-.627.434-1.013a1.42 1.42 0 0 0-1.447-1.447h-.048m16.742-.048a1.52 1.52 0 0 0-1.496 1.399v.048a1.36 1.36 0 0 0 .482 1.013c.29.29.675.434 1.061.434a1.5 1.5 0 0 0 1.062-.434c.289-.241.434-.627.434-1.013a1.5 1.5 0 0 0-.434-1.062c-.289-.29-.627-.434-1.013-.434M25.426 0h-7.43v.627h2.171v14.185a4.29 4.29 0 0 1-.193 1.737c-.193.386-.531.724-.917.82a4.48 4.48 0 0 1-1.399.241v.579h7.864v-.579c-.531 0-1.013-.048-1.496-.193-.434-.145-.772-.434-.917-.82s-.241-.772-.193-1.158v-4.921h1.978c5.693 0 7.285-2.268 7.285-5.307S31.168 0 25.426 0zm-1.062 9.794h-1.496V.724h1.351c4.391 0 5.452 1.785 5.452 4.68s-1.737 4.487-5.211 4.487m31.217 6.61a2.73 2.73 0 0 1-.145-1.254V.627h1.978V.048h-4.68l-5.693 13.847c0 .048-.048.096-.096.096s-.096-.048-.145-.096L40.962.048h-5.211v.579h2.268v15.391c0 .338-.145.627-.289.917-.193.289-.483.482-.82.579s-.724.096-1.061.096v.579h5.162v-.579a2.81 2.81 0 0 1-.917-.145c-.386-.096-.675-.29-.917-.579-.193-.29-.289-.579-.338-.917l-.048-1.303V2.509h.29l6.706 15.68h.627l6.32-15.536h.145V15.15a5.99 5.99 0 0 1-.145 1.303 1.44 1.44 0 0 1-.772.82c-.434.145-.868.241-1.303.241v.579h7.189v-.579c-.434 0-.917-.096-1.351-.241-.386-.193-.675-.531-.82-.917m9.698-11.483c-3.86 0-6.272 2.509-6.272 6.948 0 6.513 5.066 6.899 6.176 6.899 2.171 0 6.272-1.351 6.272-7.044-.048-4.439-2.654-6.803-6.176-6.803zM65.327 17.9c-2.895 0-3.329-1.447-3.329-6.031 0-3.57.241-6.272 3.329-6.272 3.329 0 3.377 2.798 3.377 5.983 0 4.68-.82 6.32-3.377 6.32zM81.586 5.066c-2.316 0-2.991 1.351-3.667 2.75h-.193l-.434-2.605h-4.487v.675h2.412v9.022a3.97 3.97 0 0 1-.289 1.833c-.241.434-.82.675-1.689.675h-.386v.82h7.43v-.82h-.338c-.965 0-1.399-.193-1.64-.627-.241-.579-.386-1.254-.289-1.882v-4.68c0-1.544 1.206-3.377 2.605-3.377 1.447 0 1.447 2.268 3.136 1.351.868-.531.675-3.136-2.171-3.136zm29.672 11.772c-.82 0-1.061-.434-1.109-1.158V8.54c.096-.965-.242-1.978-.917-2.702-.676-.675-2.026-1.061-3.956-1.061a6.85 6.85 0 0 0-4.101 1.013c-.724.434-1.158 1.254-1.158 2.075-.049.338.096.675.337.917a1.31 1.31 0 0 0 .821.289c.723 0 1.158-.386 1.302-1.351 0-.579.242-1.11.579-1.544.483-.434 1.158-.675 1.785-.579.724-.096 1.496.193 1.979.772.386.579.53 1.206.53 1.882v2.268c-2.364.193-8.009.675-7.768 4.921a3.47 3.47 0 0 0 3.522 3.088c1.689-.048 3.281-.82 4.343-2.171.241 1.206 1.302 2.026 2.509 1.978 1.737 0 2.798-.869 2.894-2.943h-.434c-.096.965-.675 1.447-1.158 1.447zm-3.908-1.399v.145c-.772.868-1.833 1.399-2.991 1.544-1.11.048-2.075-.82-2.123-1.978v-.289c0-2.412 3.329-3.619 5.163-3.619l-.049 4.198zm19.154 1.303c-.337-.579-.482-1.254-.482-1.93V8.926c.048-.772-.097-1.496-.434-2.171-.29-.531-.772-1.013-1.303-1.303a4.72 4.72 0 0 0-1.978-.434c-1.785-.048-3.426.917-4.246 2.509h-.289l-.483-2.364h-4.004v.675h2.026v8.974a8.32 8.32 0 0 1-.145 1.544c-.096.386-.386.724-.772.82-.337.145-.723.193-1.109.193v.82h6.417v-.82c-.483.048-.965-.193-1.303-.531-.29-.579-.434-1.206-.338-1.833v-3.426c-.145-1.254.048-2.509.483-3.715.53-.917 1.544-1.496 2.605-1.447a1.79 1.79 0 0 1 1.785.917c.338.965.483 2.026.434 3.04v4.246a8.64 8.64 0 0 1 0 1.592c-.048.386-.241.724-.579.917s-.675.29-1.013.29v.82H128v-.82c-.772-.097-1.254-.29-1.496-.675zm-29.093-12.4c-.434.193-.724.579-.772 1.013-.096.531-.289.82-.579.917s-.627.048-.917-.048c-1.158-1.013-2.702-1.496-4.197-1.399-2.654-.193-5.018 1.785-5.211 4.439v.579c0 2.798 1.061 4.053 3.377 4.583.145 0 .145.193 0 .193-1.978.338-3.715.917-3.715 2.847a2.13 2.13 0 0 0 1.447 2.026c1.254.434 2.557.627 3.86.579l3.088.145a3.72 3.72 0 0 1 1.689.579c.434.386.675.917.627 1.496a2.27 2.27 0 0 1-1.399 2.075 7.46 7.46 0 0 1-3.522.724 5.43 5.43 0 0 1-3.233-.724c-.579-.434-.868-1.158-.675-1.833.193-.531-.096-1.158-.675-1.351h-.145c-.434-.048-.868.145-1.11.483-.193.338-.338.772-.29 1.206.048 1.254.917 2.268 2.171 2.509 1.158.386 2.364.531 3.57.531a9.27 9.27 0 0 0 4.101-.772c1.544-.675 2.605-2.171 2.605-3.86.048-.82-.193-1.592-.627-2.268-1.303-1.785-3.136-1.544-7.285-1.737-1.978 0-2.364-.338-2.364-.917 0-.917.724-1.254 3.57-1.689s5.5-1.496 5.5-4.921c0-.82-.145-1.689-.531-2.461.531.145 1.11.145 1.64 0 .483-.145.917-.482 1.158-.917.241-.338.338-.82.241-1.206-.241-.724-.724-1.013-1.399-.82zm-6.417 9.505c-1.689 0-2.702-.627-2.702-4.053 0-2.412.82-4.198 2.702-4.198 2.123 0 2.702 1.64 2.702 4.149-.048 3.57-1.158 4.101-2.702 4.101z"/></svg>