<svg xmlns="http://www.w3.org/2000/svg" width="128" height="44" fill="none"  xmlns:v="https://vecta.io/nano"><g clip-path="url(#A)" fill-rule="evenodd" fill="#fff"><path d="M82.228 21.468l.891-2.349c.243-.648.567-1.377.891-1.944.324-.486.81-.972 1.458-.81s.891.81.972 1.377c.081.648 0 1.296 0 1.944l-.081 1.701 7.453-.81c.405-.648.729-1.377 1.134-2.106.405-.81.891-1.701 1.539-2.349.162-.243.486-.567.729-.729.405-.243.81-.405 1.215-.162.81.405.648 1.458.486 2.187l-.567 2.268 2.997-.81c1.539-4.294 2.673-8.668 3.484-13.124.081-.486.324-1.458-.162-1.863-.325-.243-.811-.162-1.135-.162-.648.081-1.296.405-1.782.729a4.34 4.34 0 0 0-1.215 1.215l-6.886 11.018c-.567.891-1.701 1.701-2.754 1.215-.81-.324-1.053-1.215-1.053-1.944l.567-8.992c0-.972-.081-2.43-1.215-2.835-.486-.162-.972 0-1.377.162-.729.486-1.296 1.215-1.701 2.025-2.835 4.861-4.942 10.127-6.805 15.392.972-.243 1.944-.243 2.916-.243zm-30.137-9.073c0-.648.162-1.377.324-2.025.243-1.134.891-3.646 2.349-3.646 1.701 0 3.402 0 5.023-.081 2.997 0 3.97 1.62 2.835 4.294-.324.648-.81 1.215-1.296 1.782-1.62 1.62-3.727 1.944-5.995 1.863h-.648c-.729 0-1.458-.081-2.025-.567-.567-.405-.648-.972-.567-1.62zm24.466 8.993c.081-.405.243-.729.405-1.134.972-2.754 1.782-5.509 2.511-8.263 0-.243 0-.891-.243-.972-.081-.081-.243 0-.324 0-.405.162-.729.486-1.053.729-.567.567-1.134 1.782-1.377 2.511-.567 1.377-.891 2.754-1.296 4.213-.324.972-.567 1.944-.891 2.916h2.268zm-10.289-.567c.081-.081.081-.243.162-.324.324-.972.729-1.944 1.134-2.916.324-.729.567-1.539.891-2.349a18 18 0 0 0 .729-2.997c0-.324.081-.972-.324-1.215-.243-.162-.567-.081-.891 0-.567.162-.972.648-1.296 1.215-.972 1.782-1.782 3.727-2.268 5.671v.081c-.405.972-1.215 2.268-2.43 1.944-.648-.162-1.134-.729-1.215-1.377-.162-.81-.648-1.458-1.296-1.944l-.81-.648.891-.567c3.403-2.349 5.59-5.023 5.023-9.397-.567-2.349-4.78-2.349-6.643-2.349-2.916 0-5.833-.081-8.668-.162L47.474 8.83c-1.053 3.16-2.025 6.4-2.835 9.641l5.023.567a3.6 3.6 0 0 1 .648-.891l-.081-.324h.324l5.995.081c1.296.081 2.674.648 3.241 1.944 0 .081.081.162.081.324 2.187.324 4.294.486 6.4.648zM41.56 18.066a16.33 16.33 0 0 0 .567-1.863c.324-1.134.729-2.916.081-3.97 0-.081-.081-.162-.162-.243-.324-.243-.567-.486-.891-.567-1.539-.81-3.403-.81-5.023-.486-1.458.324-3.078.891-4.294 1.782-.567.405-1.701 1.215-1.782 2.025v.162c0 .324.81.648 1.053.729s.972.243 1.215.081l.081-.081c1.458-1.62 3.078-2.593 5.266-1.62.486.162.81.567 1.053 1.053.486.891.243 2.025-.324 2.835 1.134-.081 2.106.081 3.16.162zm-20.415-.972a13 13 0 0 1 1.863-5.752c1.62-2.754 4.213-4.942 6.724-6.886.243-.243.486-.729.243-1.053s-.81-.162-1.053 0c-1.863.972-3.727 2.025-5.428 3.241a42.51 42.51 0 0 0-5.914 4.942c-.486.486-1.053.891-1.62 1.053s-1.215.081-1.62-.243c-.567-.486-.648-1.377-.486-2.106v-.081c.567-1.701 1.134-3.403 1.458-5.104.081-.405.162-.891 0-1.215 0-.081-.081-.162-.162-.243-.081 0-.324 0-.405.081-.324.162-.648.567-.81.972-2.268 3.889-4.051 8.02-5.59 12.233-.486 1.296-.891 2.592-1.377 3.889 3.808-2.349 8.668-3.484 14.177-3.727zm86.845-.972c1.62-3.565 2.998-7.291 4.213-11.018.162-.405.162-.891-.162-1.215s-.81-.324-1.215-.243c-.487.081-.892.324-1.135.81-.567.972-1.053 2.106-1.458 3.159-.567 1.377-.972 2.754-1.377 4.213-.567 1.782-1.053 3.646-1.539 5.428.891-.243 1.782-.648 2.673-1.134zm1.782 3.402c0 .162.324.648.405.729.324.567.81 1.053 1.215 1.458l1.54 1.458c.243.243.648.567.891.972.162.162.324.486.324.729v.081c.243-.081.405-.081.648-.162.972-.243 1.944-.405 2.916-.567a.85.85 0 0 0-.405-.729c-1.053-1.134-5.184-4.051-6.643-4.051-.162-.081-.729-.081-.891.081zm7.534.567c0 .486 1.216 1.701 1.54 2.025l1.377 1.296c.081.081.243.243.486.405l3.483-.081c-1.053-1.053-4.698-3.645-6.075-3.645-.163-.081-.649-.081-.811 0z" fill-opacity=".15"/><path d="M15.635 29.327c.486 2.511 3.403 4.618 5.914 4.213-1.296 1.296-2.025 3.078-2.025 4.618a5.05 5.05 0 0 0 5.023 5.023h83.038c3.888 0 7.129-3.16 7.129-7.129a4.91 4.91 0 0 0-.891-2.835c.486 0 1.053-.081 1.539-.243 1.882-.724 3.763-1.706 5.587-2.658l.651-.34.621-.295c2.297-1.085 5.233-2.471 5.455-5.214.162-1.134-.324-2.268-1.134-3.078-1.62-1.701-5.914-4.618-8.264-4.699-1.134 0-2.349.243-3.078 1.053-1.215-.729-2.511-1.296-3.565-1.539 1.378-3.322 2.593-6.886 3.646-10.289.486-1.62.243-3.322-1.053-4.537-1.944-1.782-5.104-1.377-6.805.567-1.458-2.268-4.861-2.511-7.777-.405-.729.567-1.377 1.215-1.863 2.025v.001l-4.374 7.209.243-4.051c.162-2.43-.729-5.104-3.24-5.995-3.079-1.053-5.671 1.215-7.048 3.727-.729 1.296-1.377 2.592-2.025 3.97-.04-.041-.081-.061-.121-.081s-.081-.041-.121-.081c-1.863-1.215-3.97-.324-5.428 1.053-.81.81-1.458 1.944-2.025 3.241-.405 1.539-1.701 1.62-1.377 0 .243-1.62-.243-3.322-1.782-4.294-.891-.567-1.944-.648-2.835-.486.081-.81 0-1.539-.162-2.43C66.673.81 61.408.243 57.6.324c-1.539 0-3.078-.041-4.618-.081L48.365.162h-1.701l-.567 1.62-1.944 5.752-.486 1.539c-2.43-1.782-5.59-1.944-8.425-1.296-1.215.324-2.754.81-4.132 1.62-.972.648-2.268.243-1.377-.567.365-.324.729-.628 1.094-.932h0l1.094-.932c1.62-1.296 2.025-3.889.648-5.59-1.215-1.539-3.16-1.62-4.861-.891-3.402 1.539-6.481 3.727-9.316 6.157.04-.162.061-.304.081-.446a4.18 4.18 0 0 1 .081-.446c.324-1.944 0-4.294-2.106-5.104-2.187-.891-4.294.648-5.266 2.511C6.643 11.423 3.403 21.063.729 30.137L0 32.729l2.673.405c1.053.162 2.187.243 3.241.081 2.835-.486 4.537-2.673 5.428-5.266.729-2.106 1.458-3.565 2.754-5.266.648 2.187 1.134 4.375 1.539 6.643zm94.947-10.532c1.782 0 5.914 2.916 7.129 4.213 1.999 2.07-1.727 3.889-3.915 4.957h-.001l-.782.39c-1.216.648-4.618 2.43-6.481 3.159-.486.162-.811.081-.811-.486-.09-1.94 2.734-3.251 4.988-4.299 1.795-.834 3.229-1.5 2.547-2.182-.111-.184-.539-.586-1.083-1.096-1.85-1.734-5.034-4.719-1.591-4.656zm7.534.567c1.54.081 5.428 2.754 6.562 3.97 1.784 1.926-1.646 3.601-3.542 4.526l-.67.334-1.033.53c-1.448.749-3.643 1.884-4.962 2.387-.486.162-.81.081-.81-.405-.091-1.805 2.51-3.007 4.593-3.97 1.655-.765 2.984-1.379 2.374-2.025-.104-.156-.467-.493-.933-.926-1.715-1.593-4.827-4.485-1.579-4.421zm-16.688 6.562c1.539-1.458 4.051-.081 3.402 1.296-.081 1.701-1.215 2.673-2.673 3.24-.144.036-.29.078-.437.119h0c-.839.238-1.685.478-2.236-.281-.405-1.458.81-3.241 1.944-4.375zM75.18 31.271l.23-.703c2.837-8.672 5.641-17.246 10.059-24.897 2.187-4.294 6.076-3.241 5.752 1.053v.001l-.567 8.992c-.081 1.701 1.458 1.458 2.268.324l6.805-11.099c1.62-2.673 7.048-3.808 5.752.729-1.378 7.939-3.97 15.473-7.373 22.765-.729 2.268-3.646 3.078-3.24.486l.001-.005 3.158-11.823c.567-2.349-.972-1.134-2.43 1.62l-1.481 2.776c-1.176 2.238-2.337 4.449-3.947 6.864-2.673 4.051-5.347 3.889-5.266-.567.149-2.536.367-5.073.59-7.672v-.001l.058-.671c.243-2.998-.486-3.565-1.701-.243-3.645 10.937-6.238 12.476-8.668 12.071zM50.552 18.714c-.729.729-1.296 2.755-1.782 5.914 0 1.053.405 1.539 1.134 1.62l1.256.018c.882.018 1.79.037 2.551-.018 5.347-.162 7.858-7.129 2.755-7.534h-5.914zm4.132-11.18c-.891 0-1.782 3.079-1.782 4.942-.137 1.302.885 1.329 1.89 1.355h0a12.14 12.14 0 0 1 .54.022c3.727.081 5.347-1.134 6.562-3.24.891-2.106.405-3.16-2.025-3.16a111.89 111.89 0 0 0-2.653.041h0l-2.532.04zm-6.319-5.023c-2.917 8.425-5.752 17.499-6.886 24.871-.324 3.565.81 3.97 3.079 3.97l6.805-.081c2.997-.243 5.914-1.458 8.344-4.375.405-.486.81-.243.729.081 0 3.322 2.916 6.724 8.587 2.592 1.215-.648 1.62-.567 1.62.162 0 .486-.162.972-.324 1.377 3.159.243 6.4-6.238 9.803-19.038.162-1.944-1.134-2.754-2.916-.972-1.215 1.131-2.061 3.973-2.921 6.858h0c-.802 2.694-1.616 5.425-2.75 6.833-3.159 4.699-6.238 2.025-5.671-.162.636-2.901 1.35-4.632 2.026-6.274.703-1.706 1.367-3.315 1.862-6.04.486-2.673-2.349-3.159-3.97-.567-1.053 1.863-1.782 3.889-2.349 5.914-.729 1.944-1.863 1.782-2.187.648-.162-.972-.81-1.782-1.62-2.43 3.483-2.43 5.995-5.347 5.347-10.208-.486-2.349-3.241-3.159-7.453-2.997-2.916 0-6.076-.081-9.154-.162zm-11.828 19.2c-.729-.243-2.673.486-3.889 1.296-2.187 1.701-2.025 2.511-1.782 3.646.486 1.215 2.997.891 4.78-1.053s1.944-3.402.891-3.889zm-3.484-5.671c-.486 1.134-4.213 0-3.808-1.458.162-2.916 9.154-6.886 13.367-3.159 1.643 1.871.226 5.544-1.31 9.523-1.19 3.083-2.452 6.351-2.416 9.11 0 .648-.405.972-1.215.972h-2.349c-.729 0-1.296-.486-1.782-1.215-2.106 1.863-8.263 2.754-8.992-.567-.567-2.835-.648-5.185 3.241-8.182 2.119-1.438 4.733-1.957 8.039-2.613l.71-.141c1.539-.648 2.349-2.998.81-3.646-1.701-.891-3.078 0-4.294 1.377zM3.079 30.785c2.835-9.721 5.995-19.2 10.208-26.491 1.215-2.268 3.565-2.106 2.917.972-.324 1.782-.81 3.565-1.458 5.266-.405 1.296.567 2.187 2.349.486 4.213-4.132 7.858-6.481 11.504-8.344 2.349-.891 2.916 1.377 1.701 2.511-5.266 4.051-9.721 8.506-7.939 16.77.405 2.349.648 4.78.405 7.129-.891 3.97-4.456 1.62-4.699-.081l-.358-1.681c-.433-2.054-.869-4.125-1.505-6.097-.567-2.025-2.025-2.43-3.565-.324l-.105.131c-1.257 1.569-2.43 3.035-3.297 6.188-1.782 3.808-3.889 3.889-6.157 3.564zm100.131-8.182c-.081 1.296 1.053 1.782 2.512-.162 2.754-4.78 5.103-10.613 7.21-17.013.891-2.997-2.998-3.403-4.051-1.296-2.025 3.565-3.889 10.289-5.671 18.471zm5.15 15.369c-.075.183-.157.387-.208.59l-.648 2.43-1.053-.081.972-3.565c.04-.121.06-.243.081-.365a2.27 2.27 0 0 1 .081-.364c.04-.122.06-.223.081-.324a2.4 2.4 0 0 1 .081-.324c.081-.162.162-.405.162-.567h.81c-.041.081-.061.182-.081.284s-.041.202-.081.284a2.4 2.4 0 0 0-.081.324c-.02.101-.041.203-.081.324h0c.162-.243.324-.486.486-.648.243-.243.405-.405.648-.486s.486-.162.729-.162h.324l-.243.972h-.243c-.162 0-.405.081-.567.162-.243.081-.405.243-.567.486l-.486.729c-.03.09-.072.192-.116.301zm-5.231-.544c-.162.243-.324.567-.405.891l-.081.648a.6.6 0 0 1-.041.162c-.02.061-.04.122-.04.162-.081.162-.081.243-.081.405 0 .243 0 .405.162.567s.324.243.648.243.567-.081.81-.162.405-.243.648-.486.405-.486.567-.729c.041-.122.102-.263.162-.405s.122-.284.162-.405l.05-.193c.062-.232.112-.425.112-.617v-.486c0-.119-.043-.194-.098-.289-.02-.035-.042-.072-.064-.116a.63.63 0 0 0-.324-.324c-.162-.081-.324-.081-.486-.081-.192 0-.334.051-.505.112l-.143.05c-.162.081-.405.243-.567.405s-.324.405-.486.648zm-1.539 1.458l1.701-5.995v.081h1.053l-1.053 3.565a5.24 5.24 0 0 0 .23-.249c.135-.152.259-.293.418-.399.243-.162.486-.324.729-.405s.486-.162.729-.162.486.081.729.162c.244.162.406.324.487.486.111.112.146.262.183.425a2.51 2.51 0 0 0 .06.223v.729c0 .268-.056.481-.121.731a4.66 4.66 0 0 0-.041.16 8.12 8.12 0 0 0-.203.446c-.061.142-.121.284-.202.446-.163.324-.325.567-.568.81s-.486.486-.729.648-.567.324-.891.405-.648.162-1.053.162c-.324 0-.648-.081-.891-.162l-.104-.068c-.188-.122-.325-.211-.463-.418-.162-.162-.162-.486-.162-.81 0-.033.014-.081.03-.137.023-.079.051-.174.051-.268 0-.081.02-.142.04-.203a.58.58 0 0 0 .041-.203zm-1.377 2.187c-.162.081-.243.081-.405.081-.041 0-.101-.02-.162-.041s-.121-.04-.162-.04c-.041-.041-.061-.081-.081-.122s-.04-.081-.081-.122c-.081-.081-.081-.162-.081-.324a1.13 1.13 0 0 0 .074-.206c.023-.082.043-.153.088-.199 0-.054.072-.108.144-.162.036-.027.072-.054.099-.081.162-.081.243-.081.406-.081.081 0 .243 0 .324.081.04.041.06.081.081.121s.04.081.081.122c.081.081.081.162.081.324-.036.071-.056.142-.074.206-.023.082-.043.153-.088.199 0 .054-.072.108-.144.162-.036.027-.072.054-.099.081zm-7.94-2.836l-.729 2.754h-.972l1.053-3.97a13.29 13.29 0 0 1 .243-.891c.04-.122.061-.243.081-.365a2.35 2.35 0 0 1 .081-.364h.81l-.243 1.053c.324-.405.648-.729.972-.891.324-.243.648-.324 1.053-.324.243 0 .486.081.648.162a.98.98 0 0 1 .405.405c.081.162.081.405.081.648.324-.405.567-.648.972-.891.324-.243.729-.324 1.134-.324.162 0 .324 0 .486.081s.324.162.405.243l.243.486c.081.162.081.405.081.648v.324c0 .041-.02.101-.041.162s-.04.121-.04.162-.02.101-.04.162-.041.122-.041.162l-.891 3.24h-.891l.891-3.16a.29.29 0 0 1 .03-.106c.023-.056.051-.123.051-.218.081-.081.081-.243.081-.324.081-.162.081-.324 0-.486s-.162-.243-.243-.324-.243-.081-.486-.081c-.162 0-.405.081-.567.162-.243.081-.405.243-.567.405s-.324.405-.486.648h0c-.162.243-.243.486-.324.81l-.729 2.836h-.891l.891-3.241c0-.041.02-.101.04-.162s.041-.122.041-.162c.081-.081.081-.243.081-.324v-.486c-.041-.041-.081-.101-.122-.162s-.081-.122-.121-.162c-.081-.081-.243-.162-.486-.162-.162 0-.405.081-.567.162s-.405.243-.567.405-.324.405-.486.648-.243.486-.324.81zm-5.347 1.863c.162.162.405.243.648.243s.486 0 .729-.243a2.46 2.46 0 0 0 .567-.405c.081-.121.162-.223.243-.324s.162-.203.243-.324c.162-.243.243-.486.324-.729h0l.05-.193c.061-.232.112-.425.112-.617v-.486c0-.162-.081-.324-.162-.486-.057-.057-.105-.115-.149-.169-.081-.098-.151-.184-.256-.236-.162-.081-.405-.162-.648-.162-.192 0-.334.051-.505.112l-.143.05a2.46 2.46 0 0 0-.567.405c-.081.122-.162.223-.243.324s-.162.203-.243.324c-.162.243-.243.486-.324.729l-.05.193c-.061.233-.112.425-.112.617 0 .324 0 .567.081.81s.243.405.405.567zm1.539.891c-.324.081-.648.162-1.053.162-.324 0-.648-.081-.972-.243a1.26 1.26 0 0 1-.648-.486c-.162-.243-.243-.486-.324-.729s-.081-.567-.081-.891.081-.729.243-1.053c.081-.324.243-.648.486-.972s.486-.567.729-.81c.243-.162.567-.324.891-.486.324-.081.729-.162 1.053-.162.405 0 .729 0 .972.162a1.26 1.26 0 0 1 .648.486c.162.243.243.486.324.729.081.324.081.567.081.891-.081.405-.162.729-.243 1.053-.054.108-.099.216-.144.324-.09.216-.18.432-.342.648-.243.324-.486.567-.729.81s-.567.405-.891.567h0zm-3.808-.891c.061-.02.122-.041.162-.081l.162.729c-.046.045-.117.065-.199.088-.064.018-.135.038-.206.074-.162.081-.324.162-.567.162-.243.081-.486.081-.729.081a2.91 2.91 0 0 1-.891-.162c-.243-.162-.486-.324-.648-.486s-.243-.405-.324-.648-.081-.486-.081-.81c0-.405.081-.81.243-1.134s.324-.648.567-.972a3.84 3.84 0 0 1 .81-.81c.324-.243.648-.405.972-.567.324-.081.729-.162 1.134-.162.162.081.324.081.486.081.095 0 .19.028.268.051.056.016.103.03.137.03.041 0 .081.02.122.041s.081.041.121.041l-.324.729c-.043-.022-.081-.043-.116-.063-.095-.055-.171-.099-.289-.099-.162-.081-.324-.081-.567-.081-.324 0-.567.081-.81.162-.171.057-.301.154-.448.262a4.88 4.88 0 0 1-.2.143c-.243.243-.405.405-.567.648s-.324.486-.405.729l-.05.193c-.061.233-.112.425-.112.617 0 .324 0 .567.081.81.081.162.243.405.405.486s.405.162.729.162c.134 0 .243-.024.341-.047.08-.018.153-.034.226-.034.162 0 .243 0 .405-.081.041-.04.101-.061.162-.081zm-4.537.972c-.162.081-.243.081-.405.081s-.243-.081-.324-.162c-.041-.041-.061-.081-.081-.122s-.041-.081-.081-.121c-.081-.081-.081-.162-.081-.324.035-.071.055-.142.074-.206.023-.082.043-.153.088-.199 0-.054.072-.108.144-.162.036-.027.072-.054.099-.081.162-.081.243-.081.405-.081.081 0 .243 0 .324.162.04.041.061.081.081.121s.04.081.081.122c.081.081.081.162.081.324-.035.071-.055.142-.073.206-.023.082-.043.153-.088.199 0 .054-.072.108-.144.162-.036.027-.072.054-.099.081zm-7.777-2.593l-.648 2.511h-1.701l1.053-3.808.243-.972c.04-.121.061-.263.081-.405s.04-.284.081-.405h1.458l-.162.891c.324-.405.648-.648.972-.81s.729-.243 1.053-.243c.243 0 .405 0 .567.081s.324.162.405.243c.127.063.154.127.199.228.013.029.026.06.044.096a.73.73 0 0 1 .081.405c.243-.243.405-.405.648-.567.162-.162.405-.243.648-.324s.486-.081.729-.081c.324 0 .567.081.729.162a.83.83 0 0 1 .405.486c.081.243.081.486.081.81v.324c0 .041-.02.101-.041.162s-.04.121-.04.162-.02.101-.04.162-.041.121-.041.162l-.891 3.241h-1.62l.81-3.078c0-.041.02-.101.041-.162s.04-.121.04-.162c.081-.081.081-.243.081-.324v-.324c0-.081-.081-.162-.162-.243s-.162-.081-.324-.081-.405.081-.567.243-.324.405-.486.648-.324.567-.405.972l-.648 2.511h-1.62l.81-3.078c0-.041.02-.101.041-.162s.04-.121.04-.162c.081-.162.081-.243.081-.324v-.324c-.041-.041-.061-.081-.081-.121s-.04-.081-.081-.122c-.081-.081-.162-.081-.324-.081s-.405.081-.567.243c-.243.162-.405.405-.567.648s-.324.567-.405.972zm-3.97-.486l.729-2.592 1.701-.081-1.053 3.808-.243.972c-.04.121-.081.263-.121.405l-.122.405h-1.458l.162-.891c-.324.405-.648.648-.972.81-.405.162-.729.243-1.053.243-.243 0-.486-.081-.729-.162a.73.73 0 0 1-.486-.486c-.081-.243-.081-.567-.081-.891 0-.081.02-.162.041-.243s.04-.162.04-.243c.081-.162.081-.324.081-.405l.891-3.159h1.62l-.81 2.997c0 .081-.02.142-.041.203s-.04.122-.04.203c-.081.081-.081.243-.081.324v.324c0 .081.081.162.162.243s.162.081.324.081.405-.081.567-.243c.243-.162.405-.405.567-.648a2.7 2.7 0 0 0 .405-.972zm-7.21-.648c-.162.243-.324.486-.405.81l-.162.567c0 .095-.028.162-.051.218a.29.29 0 0 0-.03.106v.324c0 .243.081.405.162.486a.62.62 0 0 0 .405.162c.243 0 .405-.081.567-.162s.324-.243.486-.405.324-.405.405-.567a5.59 5.59 0 0 1 .122-.324c.04-.101.081-.203.121-.324.081-.243.162-.486.162-.648.081-.162.081-.324 0-.486s-.162-.243-.243-.324a.62.62 0 0 0-.405-.162c-.162 0-.405 0-.567.162a1.89 1.89 0 0 0-.567.567zm-2.187 1.215l1.62-5.671v-.243h1.701l-.972 3.24c.162-.162.324-.324.486-.405a5.59 5.59 0 0 0 .324-.122c.101-.041.203-.081.324-.122.162-.081.405-.081.648-.081h0c.243 0 .486.081.729.162.162.081.324.243.486.405.041.122.081.223.121.324s.081.203.121.324c.081.243.081.486.081.729 0 .405-.081.729-.243 1.134a2.51 2.51 0 0 1-.486 1.053c-.243.324-.486.648-.81.891-.324.324-.729.486-1.134.648s-.891.243-1.377.243c-.648 0-1.134-.162-1.458-.405s-.486-.648-.405-1.134c0-.081.02-.162.041-.243s.041-.162.041-.243a1.14 1.14 0 0 0 .081-.243c.02-.081.041-.162.081-.243zm-2.255-.522l.068-.207.405-1.377h-.486c-.243 0-.486.081-.648.162-.243.081-.405.243-.567.405-.119.119-.194.237-.289.388l-.116.179c-.162.243-.243.405-.324.648l-.05.143c-.061.171-.112.313-.112.505-.054.108-.036.216-.018.324.009.054.018.108.018.162 0 .162.081.243.162.324.162.081.243.081.405.081.243 0 .405 0 .567-.162a1.5 1.5 0 0 0 .567-.648c.207-.276.296-.551.418-.927zm1.202 2.385c-.081.162-.081.405-.081.567v.162h-1.458c0-.081.02-.182.04-.284s.041-.203.041-.283.02-.182.041-.284.041-.203.041-.284l-.09.122c-.196.264-.346.466-.558.608-.162.162-.405.324-.648.405s-.405.081-.648.081c-.324 0-.648-.081-.891-.243s-.486-.324-.567-.648c-.162-.324-.162-.648-.162-1.053s.081-.729.243-1.134.324-.729.567-1.053.567-.648.891-.891c.405-.243.729-.405 1.215-.567.405-.162.891-.243 1.458-.243h.648c.243 0 .486 0 .648.081.081.04.162.061.243.081a1.14 1.14 0 0 1 .243.081l-.81 2.916c-.046.091-.065.182-.089.287a2.58 2.58 0 0 1-.073.28c-.081.162-.162.405-.162.648 0 .122-.02.223-.041.324a1.57 1.57 0 0 0-.041.324zM49.58 39.21l-.486 1.782h-1.539l2.268-8.101h1.62l-1.377 4.861c.113-.056.187-.152.248-.233a.96.96 0 0 1 .076-.091 1.12 1.12 0 0 1 .243-.324l1.539-1.701h2.025l-2.592 2.349 1.296 3.322h-1.863l-.81-2.43-.648.567zm-2.836 1.863c-.162.081-.243.081-.405.081-.119 0-.194-.043-.289-.099-.035-.02-.072-.042-.116-.064-.041-.041-.061-.081-.081-.122s-.04-.081-.081-.121c-.081-.081-.081-.162-.081-.324.035-.071.055-.142.074-.206.023-.082.043-.153.088-.199 0-.054.072-.108.144-.162.036-.027.072-.054.099-.081.162-.081.243-.081.405-.081s.243 0 .405.162c.041.041.061.081.081.121s.041.081.081.122c.081.081.081.162.081.324-.035.071-.055.142-.073.206-.023.082-.043.153-.089.199 0 .054-.072.108-.144.162-.036.027-.072.054-.099.081zm-7.129 0l-.081-5.59.972-.081-.081 3.16v1.053c-.081.081-.081.243-.081.405.081-.243.162-.405.324-.648.081-.162.243-.486.405-.729l1.944-3.24h.81l.081 3.16v1.458c.162-.162.243-.405.324-.648s.162-.486.324-.729l1.701-3.24h.972l-3.24 5.59h-.891l-.081-2.997v-.729c.081-.243.081-.486.081-.729l-.243.486-.486.972-1.863 3.079h-.891zm-7.696 0l-.081-5.59.891-.162-.081 3.159v1.053c-.081.081-.081.243-.081.405a2.42 2.42 0 0 1 .324-.648 7.29 7.29 0 0 1 .405-.729l1.944-3.241h.81l.081 3.159v1.458c.162-.162.243-.405.324-.648s.162-.486.324-.729l1.782-3.16h.972l-3.241 5.59h-.891l-.081-2.997v-.729c.081-.243.081-.486.081-.729l-.243.486-.486.972-1.863 3.079h-.891zm-7.615 0l-.081-5.59.891-.081-.081 3.16v1.053c-.081.081-.081.243-.081.405.081-.243.162-.405.324-.648.081-.162.243-.486.405-.729l1.944-3.24h.81l.081 3.16v1.458c.162-.162.243-.405.324-.648s.162-.486.324-.729l1.701-3.24h.972l-3.241 5.59h-.891l-.081-2.997v-.729c.081-.243.081-.486.081-.729l-.243.486-.486.972-1.863 3.079h-.81z"/></g><defs><clipPath id="A"><path fill="#fff" d="M0 0h128v43.747H0z"/></clipPath></defs></svg>