<svg xmlns="http://www.w3.org/2000/svg" width="128" height="23" fill="none"  xmlns:v="https://vecta.io/nano"><path d="M127.368 11.206c0-5.947-5.43-10.561-12.098-10.561-6.456 0-12.129 4.401-12.129 10.239 0 5.507 4.456 9.919 10.456 10.62v-3.333c-3.925-.643-6.893-3.559-6.893-7.067 0-3.979 3.815-7.208 8.52-7.208s8.521 3.229 8.521 7.208c0 3.481-2.919 6.378-6.8 7.051v3.339c5.759-.696 10.423-4.943 10.423-10.288zm-38.439 7.165c-3.702 0-6.854-1.993-8.03-4.784h-3.788c1.254 4.81 6.179 8.018 12.028 8.018 1.358 0 2.921-.132 4.218-.454 2.93-.72 6.127-2.613 6.127-5.599V10.25H88.891l-.01 3.337h7.215v1.514c0 1.674-2.513 2.643-4.053 2.982a13.81 13.81 0 0 1-2.746.288h-.368zm7.175-11.622C94.497 5.091 92.02 4.03 89.241 4.03c-4.433 0-8.097 2.708-8.683 6.22h-3.713C77.329 4.797 82.939.778 89.287.778c3.777 0 7.166 1.398 9.451 3.646l-2.635 2.324zM56.255 1.217h-3.431v19.942h3.374V6.257l13.825 14.902h2.512v-2.424L56.255 1.217zm16.279 0H69.16v9.684l3.373 3.368V1.217zM42.905 14.976l3.112 6.183h4.056L39.898 1.217h-3.657l-.002.006 5.096 10.576h-6.77l1.767-3.447-1.842-3.747-8.576 16.554h3.791l3.207-6.181 9.994-.001zM4.035 1.217H.632v19.942h3.372V7.449l7.657 12.173 1.951-3.106L4.035 1.217zm9.435 9.359l1.942 3.061 3.904-6.189v13.709h3.363V1.217h-3.431l-5.778 9.359z" fill="#fff"/></svg>