<svg width="128" height="42" viewBox="0 0 128 42" fill="none" xmlns="http://www.w3.org/2000/svg">
<path d="M26.3226 33.3419H32.3097V15.8968H26.3226V33.3419ZM34.3742 4.02581H30.3484V8.05161H34.3742V4.02581ZM11.7677 5.9871H5.9871V11.0452H11.3548C14.7613 11.0452 16.7226 12.6968 16.7226 15.7935C16.7226 18.8903 14.7613 20.6452 11.3548 20.6452H5.9871V11.1484H0V33.3419H5.9871V25.7032H11.6645C18.5806 25.7032 22.6065 21.9871 22.6065 15.5871C22.6065 9.6 18.6839 5.9871 11.7677 5.9871ZM38.4 0H26.3226V12.0774H38.4V0ZM36.4387 10.0129H28.3871V1.96129H36.4387V10.0129ZM71.5355 5.9871H66.0645V11.0452H71.2258C74.6323 11.0452 76.5935 12.6968 76.5935 15.7935C76.5935 18.8903 74.6323 20.6452 71.2258 20.6452H66.0645V11.1484H60.0774V33.3419H66.0645V25.7032H71.5355C78.4516 25.7032 82.4774 21.9871 82.4774 15.5871C82.4774 9.6 78.4516 5.9871 71.5355 5.9871ZM121.806 12.3871L116.645 25.3935L111.484 12.3871H105.29L113.548 33.3419L110.348 41.2903H116.645L128 12.3871H121.806V12.3871ZM94.9677 12.2839C91.3548 12.2839 88.5677 13.1097 85.471 14.6581L87.329 18.7871C89.4968 17.5484 91.6645 16.929 93.6258 16.929C96.5161 16.929 97.9613 18.1677 97.9613 20.4387V20.8516H92.1806C87.0194 20.8516 84.2323 23.2258 84.2323 27.1484C84.2323 30.9677 86.9161 33.6516 91.4581 33.6516C94.3484 33.6516 96.4129 32.6194 98.0645 30.8645V33.1355H103.948V19.5097C103.742 15.071 100.542 12.2839 94.9677 12.2839ZM98.4774 26.3226C97.8581 28.0774 96.1032 29.5226 93.6258 29.5226C91.5613 29.5226 90.3226 28.4903 90.3226 26.8387C90.3226 25.1871 91.4581 24.4645 93.729 24.4645H98.4774C98.4774 24.4645 98.4774 26.3226 98.4774 26.3226ZM47.5871 28.8C44.6968 28.8 42.6323 26.529 42.6323 23.1226C42.6323 19.8194 44.6968 17.5484 47.5871 17.5484C49.6516 17.5484 51.2 18.3742 52.3355 19.8194L56.3613 16.929C54.5032 14.1419 51.3032 12.4903 47.2774 12.4903C40.9806 12.3871 36.6452 16.7226 36.6452 23.1226C36.6452 29.5226 40.9806 33.7548 47.2774 33.7548C51.6129 33.7548 54.8129 32 56.5677 29.1097L52.4387 26.3226C51.4064 27.9742 49.7548 28.8 47.5871 28.8Z" fill="white"/>
</svg>
