<svg width="123" height="134" viewBox="0 0 123 134" fill="none" xmlns="http://www.w3.org/2000/svg">
<path d="M108.8 88.3C100.1 107.2 84 121.4 62.2 129.2L61.4 129.5L60.6 129.2C38.9 121.3 22.8 107.2 14 88.3C2.59996 63.6 4.49997 21.9 4.59997 20.1L4.69996 17.9H6.89996C39.7 17.9 60 5.40001 60.1 5.20001L61.2999 4.39999L62.5 5.20001C62.7 5.40001 83.0999 17.9 115.8 17.9H118L118.1 20.1C118.3 21.9 120.2 63.6 108.8 88.3ZM0.899956 15C0.899956 15 -1.40003 62.3 11.1 89.6C19.9 108.5 36.1 124.6 61.4 133.8C86.8 124.6 103 108.6 111.8 89.6C124.3 62.4 122 15 122 15C84.4 15 61.4 0.5 61.4 0.5C61.4 0.5 38.5 15 0.899956 15Z" fill="white"/>
<path d="M100.8 39.5H77.9999C75.4999 39.5 74.8999 39.8 74.8999 39.8C74.5999 40 74.3999 40.5 74.3999 41.6V54.2H99.6999C99.2999 57 98.8999 59.9 98.3999 62.8H74.3999V100.5C70.1999 103.3 66.5999 105.7 61.0999 107.7V88.1C57.3999 89.8 51.2999 90.7 45.0999 90.7H34.1999C31.8999 88.1 29.8999 85.2 28.1999 82.3L46.7999 82.4C53.6999 82.4 53.6999 79.1 53.6999 77.6C53.6999 76.7 53.1999 75.6 52.0999 74.6C51.3999 73.9 49.9999 72.6 46.6999 70.4L32.8999 61C27.0999 57 24.1999 52.2 24.1999 46.9C24.1999 39.8 28.1999 31.4 46.9999 31.4H100.9C100.9 33.3 100.9 36.1 100.8 39.5ZM61.3999 9.89999C56.5999 12.6 37.7999 22.1 9.09992 22.5C8.89992 31.4 8.69992 65.8 18.1999 86.4C26.2999 103.9 41.1999 117.1 61.3999 124.7C81.5999 117.2 96.4999 103.9 104.7 86.4C114.2 65.8 114 31.4 113.8 22.5C85.0999 22.1 66.2999 12.6 61.3999 9.89999Z" fill="white"/>
<path d="M38.7 44.3C38.7 45.4 39.2 46.4 40.2 47.5C41.2 48.6 42.9999 50 45.5999 51.8L60.4999 61C60.7999 61.2 61 61.3 61.2 61.5V39.6H45.5999C38.6999 39.5 38.7 42.7 38.7 44.3Z" fill="white"/>
</svg>
