<svg width="100" height="100" viewBox="0 0 100 100" fill="none" xmlns="http://www.w3.org/2000/svg">
<path d="M37.1053 31.8684C37.193 31.6043 37.4561 31.4282 37.7193 31.3402L40.3509 30.988L41.4912 28.6111C41.5789 28.347 41.7544 28.1709 42.1053 28.1709C42.3684 28.1709 42.6316 28.347 42.7193 28.5231L43.8597 30.988L46.4912 31.3402C46.7544 31.3402 47.0175 31.6043 47.1053 31.8684C47.193 32.1325 47.1053 32.3966 46.9298 32.5727L45.0877 34.4214L45.5263 37.0624C45.614 37.3265 45.4386 37.5906 45.2632 37.7667C45 37.8547 44.9123 37.8547 44.7368 37.8547C44.6491 37.8547 44.4737 37.8547 44.386 37.7667L42.0175 36.5342L39.6491 37.7667C39.386 37.8547 39.1228 37.8547 38.8596 37.6786C38.5965 37.5026 38.5088 37.2385 38.5965 36.9744L39.0351 34.3333L37.193 32.4846C37.1053 32.3966 37.0175 32.1325 37.1053 31.8684Z" fill="white"/>
<path d="M22.5439 50.7957C22.6316 50.6197 22.807 50.4436 22.9825 50.4436L25.0877 50.1795L26.0526 48.3308C26.1403 48.1547 26.3158 48.0667 26.5789 48.0667C26.8421 48.0667 27.0175 48.1547 27.1053 48.3308L28.0702 50.1795L30.1754 50.4436C30.3509 50.4436 30.614 50.6197 30.614 50.7957C30.7018 50.9718 30.614 51.2359 30.4386 51.412L28.9474 52.9086L29.2982 55.0214C29.2982 55.1974 29.2105 55.4615 29.0351 55.5496C28.9474 55.6376 28.8596 55.6376 28.6842 55.6376C28.5965 55.6376 28.5088 55.6376 28.4211 55.5496L26.5789 54.5812L24.7368 55.5496C24.5614 55.6376 24.2982 55.6376 24.1228 55.4615C23.9474 55.3735 23.8596 55.1094 23.8596 54.9333L24.2105 52.8205L22.7193 51.3239C22.4561 51.2359 22.4561 51.0598 22.5439 50.7957Z" fill="white"/>
<path d="M17.6316 19.3675C17.7193 19.1034 17.9825 18.8393 18.3333 18.7513L21.4035 18.3111L22.807 15.582C22.9825 15.3179 23.2456 15.1419 23.5965 15.1419C23.9474 15.1419 24.2105 15.3179 24.386 15.582L25.7895 18.3111L28.8597 18.7513C29.2105 18.8393 29.4737 19.0154 29.5614 19.3675C29.6491 19.7197 29.5614 19.9838 29.386 20.2479L27.193 22.3607L27.7193 25.4419C27.807 25.794 27.6316 26.0581 27.3684 26.2342C27.193 26.3222 27.0175 26.4103 26.8421 26.4103C26.6667 26.4103 26.5789 26.4103 26.4912 26.3222L23.7719 24.9137L21.0526 26.3222C20.7895 26.4983 20.4386 26.4103 20.1754 26.2342C19.9123 26.0581 19.8246 25.706 19.8246 25.4419L20.3509 22.3607L18.1579 20.2479C17.6316 20.0718 17.5439 19.7197 17.6316 19.3675Z" fill="white"/>
<path d="M34.4488 80.4406C55.0382 74.9039 67.2348 53.5784 61.7406 33.0001C58.9254 22.4558 51.9766 14.1167 43.2125 9.18233C63.5011 7.28092 82.7622 20.2382 88.211 40.6465C94.2729 63.3507 80.751 86.8553 58.128 92.9389C42.4529 97.1541 26.4501 91.9789 16.0513 80.922C22.0084 82.1454 28.2635 82.1039 34.4488 80.4406Z" fill="white"/>
</svg>
