<svg width="100" height="100" viewBox="0 0 100 100" fill="none" xmlns="http://www.w3.org/2000/svg">
<path d="M50 73.835C63.2416 73.835 73.976 63.1202 73.976 49.9029C73.976 36.6856 63.2416 25.9709 50 25.9709C36.7584 25.9709 26.024 36.6856 26.024 49.9029C26.024 63.1202 36.7584 73.835 50 73.835Z" fill="#1C202C"/>
<path d="M53.1417 20.3592C52.1496 20.1942 51.1575 20.1942 50 20.1942C48.8425 20.1942 47.8504 20.1942 46.8583 20.3592L50 0.388351L53.1417 20.3592Z" fill="#1C202C"/>
<path d="M53.1417 79.4466L50 99.4175L46.8583 79.4466C47.8504 79.6116 48.8425 79.6116 50 79.6116C51.1575 79.6116 52.1496 79.6116 53.1417 79.4466Z" fill="#1C202C"/>
<path d="M31.3152 26.7961C30.4885 27.4563 29.6617 28.1165 29.0003 28.9418C28.3389 29.767 27.5121 30.4272 26.8507 31.2524L14.9454 14.9126L31.3152 26.7961Z" fill="#1C202C"/>
<path d="M73.1493 68.5534L85.0546 84.8932L68.6848 73.0097C69.5115 72.3495 70.3383 71.6893 70.9997 70.8641C71.6611 70.0388 72.4879 69.3786 73.1493 68.5534Z" fill="#1C202C"/>
<path d="M20.402 46.767C20.2366 47.7573 20.2366 48.7476 20.2366 49.9029C20.2366 51.0583 20.2366 52.0486 20.402 53.0388L0.394409 49.9029L20.402 46.767Z" fill="#1C202C"/>
<path d="M79.598 46.767L99.6056 49.9029L79.598 53.0388C79.7633 52.0486 79.7633 51.0583 79.7633 49.9029C79.7633 48.7476 79.7633 47.7573 79.598 46.767Z" fill="#1C202C"/>
<path d="M26.8507 68.5534C27.5121 69.3786 28.1735 70.2039 29.0003 70.8641C29.827 71.5243 30.4885 72.3495 31.3152 73.0097L14.9454 84.8932L26.8507 68.5534Z" fill="#1C202C"/>
<path d="M68.6848 26.7961L85.0546 14.9126L73.1493 31.2524C72.4879 30.4272 71.8265 29.6019 70.9997 28.9418C70.173 28.2816 69.5115 27.4563 68.6848 26.7961Z" fill="#1C202C"/>
</svg>
